<?xml version="1.0" standalone="no"?>
<!DOCTYPE svg PUBLIC "-//W3C//DTD SVG 1.1//EN" "http://www.w3.org/Graphics/SVG/1.1/DTD/svg11.dtd">
<svg xmlns="http://www.w3.org/2000/svg">
<metadata>Copyright (C) 2017 by original authors @ fontello.com</metadata>
<defs>
<font id="fontello" horiz-adv-x="1000" >
<font-face font-family="fontello" font-weight="400" font-stretch="normal" units-per-em="1000" ascent="850" descent="-150" />
<missing-glyph horiz-adv-x="1000" />
<glyph glyph-name="ei-archive" unicode="&#xe800;" d="M840 450h-40v100c0 12-8 20-20 20h-560c-12 0-20-8-20-20v-100h-40v100c0 34 26 60 60 60h560c34 0 60-26 60-60v-100z m-100-400h-480c-34 0-60 26-60 60v340h40v-340c0-12 8-20 20-20h480c12 0 20 8 20 20v340h40v-340c0-34-26-60-60-60z m-160 280h-160c-12 0-20 8-20 20s8 20 20 20h160c12 0 20-8 20-20s-8-20-20-20z m-420 160h680v-40h-680z" horiz-adv-x="1000" />

<glyph glyph-name="ei-arrow-down" unicode="&#xe801;" d="M500 10c-188 0-340 152-340 340s152 340 340 340 340-152 340-340-152-340-340-340z m0 640c-166 0-300-134-300-300s134-300 300-300 300 134 300 300-134 300-300 300z m0-488l-194 194 28 28 166-166 166 166 28-28z m-20 368h40v-340h-40z" horiz-adv-x="1000" />

<glyph glyph-name="ei-arrow-left" unicode="&#xe802;" d="M500 10c-188 0-340 152-340 340s152 340 340 340 340-152 340-340-152-340-340-340z m0 640c-166 0-300-134-300-300s134-300 300-300 300 134 300 300-134 300-300 300z m6-494l-194 194 194 194 28-28-166-166 166-166z m-166 214h340v-40h-340z" horiz-adv-x="1000" />

<glyph glyph-name="ei-arrow-right" unicode="&#xe803;" d="M500 10c-188 0-340 152-340 340s152 340 340 340 340-152 340-340-152-340-340-340z m0 640c-166 0-300-134-300-300s134-300 300-300 300 134 300 300-134 300-300 300z m-6-494l-28 28 166 166-166 166 28 28 194-194z m-174 214h340v-40h-340z" horiz-adv-x="1000" />

<glyph glyph-name="ei-arrow-up" unicode="&#xe804;" d="M500 10c-188 0-340 152-340 340s152 340 340 340 340-152 340-340-152-340-340-340z m0 640c-166 0-300-134-300-300s134-300 300-300 300 134 300 300-134 300-300 300z m166-334l-166 166-166-166-28 28 194 194 194-194z m-186 194h40v-340h-40z" horiz-adv-x="1000" />

<glyph glyph-name="ei-bell" unicode="&#xe805;" d="M840 130c-130 0-148 126-164 238-18 124-34 242-176 242s-158-118-176-242c-16-112-34-238-164-238v40c92 0 106 78 124 202 18 124 40 278 216 278s198-154 216-278c18-124 32-202 124-202v-40z m-340-80c-56 0-100 44-100 100h40c0-34 26-60 60-60s60 26 60 60h40c0-56-44-100-100-100z m-340 120h680v-40h-680z m380 480c0-22-18-30-40-30s-40 8-40 30 18 40 40 40 40-18 40-40z" horiz-adv-x="1000" />

<glyph glyph-name="ei-calendar" unicode="&#xe806;" d="M740 90h-480c-34 0-60 26-60 60v440c0 34 22 60 50 60h30v-40h-30c-4 0-10-8-10-20v-440c0-12 8-20 20-20h480c12 0 20 8 20 20v440c0 12-6 20-10 20h-30v40h30c28 0 50-26 50-60v-440c0-34-26-60-60-60z m-400 480c-12 0-20 8-20 20v80c0 12 8 20 20 20s20-8 20-20v-80c0-12-8-20-20-20z m320 0c-12 0-20 8-20 20v80c0 12 8 20 20 20s20-8 20-20v-80c0-12-8-20-20-20z m-260 80h200v-40h-200z m-160-120h520v-40h-520z m440-80h40v-40h-40z m-80 0h40v-40h-40z m-80 0h40v-40h-40z m-80 0h40v-40h-40z m-80 0h40v-40h-40z m320-80h40v-40h-40z m-80 0h40v-40h-40z m-80 0h40v-40h-40z m-80 0h40v-40h-40z m-80 0h40v-40h-40z m-80 0h40v-40h-40z m400-80h40v-40h-40z m-80 0h40v-40h-40z m-80 0h40v-40h-40z m-80 0h40v-40h-40z m-80 0h40v-40h-40z m-80 0h40v-40h-40z m320-80h40v-40h-40z m-80 0h40v-40h-40z m-80 0h40v-40h-40z m-80 0h40v-40h-40z m-80 0h40v-40h-40z" horiz-adv-x="1000" />

<glyph glyph-name="ei-camera" unicode="&#xe807;" d="M780 90h-560c-34 0-60 26-60 60v360c0 34 26 60 60 60h120c4 0 10 4 12 6l22 44c8 16 28 28 46 28h160c18 0 38-12 46-28l22-44c2-4 8-6 12-6h120c34 0 60-26 60-60v-360c0-34-26-60-60-60z m-560 440c-12 0-20-8-20-20v-360c0-12 8-20 20-20h560c12 0 20 8 20 20v360c0 12-8 20-20 20h-120c-18 0-38 12-46 28l-22 44c-2 4-8 8-12 8h-160c-4 0-10-4-12-6l-22-44c-8-18-28-30-46-30h-120z m280-360c-100 0-180 80-180 180s80 180 180 180 180-80 180-180-80-180-180-180z m0 320c-78 0-140-62-140-140s62-140 140-140 140 62 140 140-62 140-140 140z m-260 120h80v-20h-80z m260-180v20c-56 0-100-44-100-100h20c0 44 36 80 80 80z" horiz-adv-x="1000" />

<glyph glyph-name="ei-cart" unicode="&#xe808;" d="M700 170h-440c-6 0-12 4-16 8s-4 12-2 18l38 96-38 358h-122v40h140c10 0 18-8 20-18l40-380c0-4 0-6-2-10l-28-72h430l-20-40z m-396 100l-8 40 464 96v164h-480v40h500c12 0 20-8 20-20v-200c0-10-6-18-16-20l-480-100z m416-220c-44 0-80 36-80 80s36 80 80 80 80-36 80-80-36-80-80-80z m0 120c-22 0-40-18-40-40s18-40 40-40 40 18 40 40-18 40-40 40z m-480-120c-44 0-80 36-80 80s36 80 80 80 80-36 80-80-36-80-80-80z m0 120c-22 0-40-18-40-40s18-40 40-40 40 18 40 40-18 40-40 40z" horiz-adv-x="1000" />

<glyph glyph-name="ei-chart" unicode="&#xe809;" d="M360 130h-40v200h-80v-200h-40v240h160z m200 0h-40v320h-80v-320h-40v360h160z m200 0h-40v440h-80v-440h-40v480h160z m-600 0h640v-40h-640z" horiz-adv-x="1000" />

<glyph glyph-name="ei-check" unicode="&#xe80a;" d="M500 10c-188 0-340 152-340 340s152 340 340 340 340-152 340-340-152-340-340-340z m0 640c-166 0-300-134-300-300s134-300 300-300 300 134 300 300-134 300-300 300z m-40-448l-174 174 28 28 146-146 226 226 28-28z" horiz-adv-x="1000" />

<glyph glyph-name="ei-chevron-down" unicode="&#xe80b;" d="M500 202l-194 194 28 28 166-166 166 166 28-28z" horiz-adv-x="1000" />

<glyph glyph-name="ei-chevron-left" unicode="&#xe80c;" d="M546 156l-194 194 194 194 28-28-166-166 166-166z" horiz-adv-x="1000" />

<glyph glyph-name="ei-chevron-right" unicode="&#xe80d;" d="M454 156l-28 28 166 166-166 166 28 28 194-194z" horiz-adv-x="1000" />

<glyph glyph-name="ei-chevron-up" unicode="&#xe80e;" d="M666 276l-166 166-166-166-28 28 194 194 194-194z" horiz-adv-x="1000" />

<glyph glyph-name="ei-clock" unicode="&#xe80f;" d="M500 10c-188 0-340 152-340 340s152 340 340 340 340-152 340-340-152-340-340-340z m0 640c-166 0-300-134-300-300s134-300 300-300 300 134 300 300-134 300-300 300z m106-474l-126 126v228h40v-212l114-114z" horiz-adv-x="1000" />

<glyph glyph-name="ei-close-o" unicode="&#xe810;" d="M500 10c-188 0-340 152-340 340s152 340 340 340 340-152 340-340-152-340-340-340z m0 640c-166 0-300-134-300-300s134-300 300-300 300 134 300 300-134 300-300 300z m146-126l28-28-320-320-28 28z m-292 0l320-320-28-28-320 320z" horiz-adv-x="1000" />

<glyph glyph-name="ei-close" unicode="&#xe811;" d="M746 624l28-28-520-520-28 28z m-492 0l520-520-28-28-520 520z" horiz-adv-x="1000" />

<glyph glyph-name="ei-comment" unicode="&#xe812;" d="M300 10h-40l24 32c16 22 26 50 32 84-100 46-156 132-156 244 0 172 130 280 340 280s340-108 340-280c0-176-128-280-340-280h-14c-32-38-88-80-186-80z m200 600c-188 0-300-90-300-240 0-128 78-188 144-214l14-6-2-16c-4-32-10-60-22-84 66 8 104 42 126 70l6 8h34c270 0 300 168 300 240 0 152-112 242-300 242z" horiz-adv-x="1000" />

<glyph glyph-name="ei-credit-card" unicode="&#xe813;" d="M780 90h-560c-34 0-60 26-60 60v400c0 34 26 60 60 60h560c34 0 60-26 60-60v-400c0-34-26-60-60-60z m-560 480c-12 0-20-8-20-20v-400c0-12 8-20 20-20h560c12 0 20 8 20 20v400c0 12-8 20-20 20h-560z m-40-40h640v-120h-640z m60-200h20v-40h-20z m40 0h20v-40h-20z m40 0h20v-40h-20z m60 0h20v-40h-20z m40 0h20v-40h-20z m40 0h20v-40h-20z m60 0h20v-40h-20z m40 0h20v-40h-20z m40 0h20v-40h-20z m60 0h20v-40h-20z m40 0h20v-40h-20z m40 0h20v-40h-20z" horiz-adv-x="1000" />

<glyph glyph-name="ei-envelope" unicode="&#xe814;" d="M636 365l199-199-28-29-199 200z m-270-1l28-28-198-198-28 28z m134-112c-30 0-62 12-84 36l-250 248 28 28 250-250c32-32 82-32 114 0l250 250 28-28-252-250c-22-22-54-34-84-34z m280-162h-560c-34 0-60 26-60 60v400c0 34 26 60 60 60h560c34 0 60-26 60-60v-400c0-34-26-60-60-60z m-560 480c-12 0-20-8-20-20v-400c0-12 8-20 20-20h560c12 0 20 8 20 20v400c0 12-8 20-20 20h-560z" horiz-adv-x="1000" />

<glyph glyph-name="ei-exclamation" unicode="&#xe815;" d="M500 10c-188 0-340 152-340 340s152 340 340 340 340-152 340-340-152-340-340-340z m0 640c-166 0-300-134-300-300s134-300 300-300 300 134 300 300-134 300-300 300z m-20-440h40v-40h-40z m32 40h-24l-8 160v120h40v-120z" horiz-adv-x="1000" />

<glyph glyph-name="ei-external-link" unicode="&#xe816;" d="M766 644l28-28-300-300-28 28z m34-194h-40v160h-160v40h200z m-100-360h-400c-34 0-60 26-60 60v400c0 34 26 60 60 60h220v-40h-220c-12 0-20-8-20-20v-400c0-12 8-20 20-20h400c12 0 20 8 20 20v220h40v-220c0-34-26-60-60-60z" horiz-adv-x="1000" />

<glyph glyph-name="ei-eye" unicode="&#xe817;" d="M500 130c-230 0-334 202-338 212-2 6-2 12 0 18 4 8 108 210 338 210s334-202 338-212c2-6 2-12 0-18-4-8-108-210-338-210z m-298 220c22-38 118-180 298-180s274 142 298 180c-22 38-118 180-298 180s-274-142-298-180z m298-180c-100 0-180 80-180 180s80 180 180 180 180-80 180-180-80-180-180-180z m0 320c-78 0-140-62-140-140s62-140 140-140 140 62 140 140-62 140-140 140z m0-240c-56 0-100 44-100 100 0 12 8 20 20 20s20-8 20-20c0-34 26-60 60-60s60 26 60 60-26 60-60 60c-12 0-20 8-20 20s8 20 20 20c56 0 100-44 100-100s-44-100-100-100z" horiz-adv-x="1000" />

<glyph glyph-name="ei-gear" unicode="&#xe818;" d="M500 170c-100 0-180 80-180 180s80 180 180 180 180-80 180-180-80-180-180-180z m0 320c-78 0-140-62-140-140s62-140 140-140 140 62 140 140-62 140-140 140z m54-520h-108l-30 92c-20 6-40 14-58 24l-88-44-76 76 44 88c-10 18-18 38-24 58l-94 32v108l92 30c6 20 14 40 24 58l-44 88 76 76 88-44c18 10 38 18 58 24l32 94h108l30-92c20-6 40-14 58-24l88 44 76-76-44-88c10-18 18-38 24-58l92-30v-108l-92-30c-6-20-14-40-24-58l44-88-76-76-88 44c-18-10-38-18-58-24l-30-96z m-80 40h52l28 86 10 2c24 6 46 16 68 28l10 6 80-40 36 36-40 80 6 10c12 20 22 44 28 68l2 10 86 28v52l-86 28-2 10c-6 24-16 46-28 68l-6 10 40 80-36 36-80-40-10 6c-22 12-44 22-68 28l-10 2-28 86h-52l-28-86-10-2c-24-6-46-16-68-28l-10-6-80 40-36-36 40-80-6-10c-12-20-22-44-28-68l-2-10-86-28v-52l86-28 2-10c6-24 16-46 28-68l6-10-40-80 36-36 80 40 10-6c22-12 44-22 68-28l10-2 28-86z" horiz-adv-x="1000" />

<glyph glyph-name="ei-heart" unicode="&#xe819;" d="M500 56l-12 10c-258 210-328 284-328 404 0 100 80 180 180 180 82 0 128-46 160-82 32 36 78 82 160 82 100 0 180-80 180-180 0-120-70-194-328-404l-12-10z m-160 554c-78 0-140-62-140-140 0-102 64-170 300-362 236 192 300 260 300 362 0 78-62 140-140 140-70 0-108-42-138-76l-22-26-22 26c-30 34-68 76-138 76z" horiz-adv-x="1000" />

<glyph glyph-name="ei-image" unicode="&#xe81a;" d="M780 90h-560c-34 0-60 26-60 60v400c0 34 26 60 60 60h560c34 0 60-26 60-60v-400c0-34-26-60-60-60z m-560 480c-12 0-20-8-20-20v-400c0-12 8-20 20-20h560c12 0 20 8 20 20v400c0 12-8 20-20 20h-560z m380-200c-44 0-80 36-80 80s36 80 80 80 80-36 80-80-36-80-80-80z m0 120c-22 0-40-18-40-40s18-40 40-40 40 18 40 40-18 40-40 40z m106-394l-326 306-186-172-28 28 214 200 354-334z m102 100l-108 88-90-74-26 32 116 94 132-108z" horiz-adv-x="1000" />

<glyph glyph-name="ei-like" unicode="&#xe81b;" d="M800 386c0 42-34 64-80 64h-134c10 36 14 70 14 100 0 116-32 140-60 140-18 0-32-2-50-12-6-4-8-8-10-14l-20-108c-22-56-76-106-120-140v-286c16 0 32-8 52-18 22-10 44-22 68-22h190c40 0 70 32 70 60 0 6 0 10-2 14 24 10 42 30 42 56 0 12-2 22-6 32 16 10 30 28 30 48 0 12-6 24-12 34 16 12 28 32 28 52z m-42 0c0-26-26-28-30-40-4-14 16-18 16-42 0-24-30-24-34-38-4-16 10-20 10-44v-4c-4-20-34-22-40-30-6-10 0-14 0-36 0-12-14-20-30-20h-190c-16 0-32 8-52 18-16 8-32 16-48 20v210c50 38 114 94 138 164v4l18 100c8 2 14 2 24 2 4 0 20-24 20-100 0-30-6-62-16-100h-4c-12 0-20-8-20-20s8-20 20-20h180c20 0 38-10 38-24z m-438-296h-120c-22 0-40 18-40 40v280c0 22 18 40 40 40h120c22 0 40-18 40-40v-280c0-22-18-40-40-40z m-120 320v-280h120v280h-120z" horiz-adv-x="1000" />

<glyph glyph-name="ei-link" unicode="&#xe81c;" d="M480 246c0-4 2-10 2-16 0-28-10-52-30-72l-40-40c-20-20-44-30-72-30-56 0-102 46-102 102 0 28 10 52 30 72l40 40c20 20 44 30 72 30 6 0 10 0 16-2l30 30c-14 6-30 8-46 8-38 0-72-14-98-40l-40-40c-26-26-40-60-40-98 0-76 62-138 138-138 38 0 72 14 98 40l40 40c26 26 40 60 40 98 0 16-2 32-8 46l-30-30z m180 402c-38 0-72-14-98-40l-40-40c-26-26-40-60-40-98 0-16 2-32 8-46l30 30c0 4-2 10-2 16 0 28 10 52 30 72l40 40c20 20 44 30 72 30 56 0 102-46 102-102 0-28-10-52-30-72l-40-40c-20-20-44-30-72-30-6 0-10 0-16 2l-30-30c14-6 30-8 46-8 38 0 72 14 98 40l40 40c26 26 40 60 40 98 0 76-62 138-138 138z m-260-418c-6 0-10 2-14 6-8 8-8 20 0 28l200 200c8 8 20 8 28 0s8-20 0-28l-200-200c-4-4-8-6-14-6z" horiz-adv-x="1000" />

<glyph glyph-name="ei-location" unicode="&#xe81d;" d="M500 0l-16 18c-10 10-244 286-244 452 0 144 116 260 260 260s260-116 260-260c0-166-234-442-244-454l-16-16z m0 690c-122 0-220-98-220-220 0-128 168-344 220-408 52 64 220 280 220 408 0 122-98 220-220 220z m0-320c-56 0-100 44-100 100s44 100 100 100 100-44 100-100-44-100-100-100z m0 160c-34 0-60-26-60-60s26-60 60-60 60 26 60 60-26 60-60 60z" horiz-adv-x="1000" />

<glyph glyph-name="ei-lock" unicode="&#xe81e;" d="M680 390h-40v80c0 78-62 140-140 140s-140-62-140-140v-80h-40v80c0 100 80 180 180 180s180-80 180-180v-80z m-20-340h-320c-34 0-60 26-60 60v240c0 34 26 60 60 60h320c34 0 60-26 60-60v-240c0-34-26-60-60-60z m-320 320c-12 0-20-8-20-20v-240c0-12 8-20 20-20h320c12 0 20 8 20 20v240c0 12-8 20-20 20h-320z m170-80h-20l-20-120h60z" horiz-adv-x="1000" />

<glyph glyph-name="ei-minus" unicode="&#xe81f;" d="M500 10c-188 0-340 152-340 340s152 340 340 340 340-152 340-340-152-340-340-340z m0 640c-166 0-300-134-300-300s134-300 300-300 300 134 300 300-134 300-300 300z m-180-280h360v-40h-360z" horiz-adv-x="1000" />

<glyph glyph-name="ei-navicon" unicode="&#xe820;" d="M200 610h600v-80h-600z m0-200h600v-80h-600z m0-200h600v-80h-600z" horiz-adv-x="1000" />

<glyph glyph-name="ei-paperclip" unicode="&#xe821;" d="M276 58c-30 0-62 12-84 36-46 46-46 122 0 170l340 340c62 62 164 62 226 0 62-62 62-164 0-226l-256-256-28 28 254 254c46 46 46 122 0 170-46 46-122 46-170 0l-340-340c-16-16-24-36-24-56 0-22 8-42 24-56 32-32 82-32 114 0l254 254c16 16 16 40 0 56-16 16-40 16-56 0l-170-168-28 28 170 170c32 32 82 32 114 0 32-32 32-82 0-114l-256-254c-22-24-54-36-84-36z" horiz-adv-x="1000" />

<glyph glyph-name="ei-pencil" unicode="&#xe822;" d="M192 42l50 198 298 298 148-148-298-298-198-50z m86 178l-30-122 122 30 262 262-92 92-262-262z m78-116c-12 50-52 90-102 102l10 38c64-16 114-66 130-130l-38-10z m230 360l28-28-260-260-28 28z m-366-394l58 14c-6 22-22 38-44 44l-14-58z m480 332l-148 148 60 60 10-2c72-10 128-66 138-138l2-10-62-58z m-92 148l92-92 18 18c-10 46-46 82-92 92l-18-18z" horiz-adv-x="1000" />

<glyph glyph-name="ei-play" unicode="&#xe823;" d="M500 10c-188 0-340 152-340 340s152 340 340 340 340-152 340-340-152-340-340-340z m0 640c-166 0-300-134-300-300s134-300 300-300 300 134 300 300-134 300-300 300z m-100-474v348l300-174-300-174z m40 280v-210l180 106-180 104z" horiz-adv-x="1000" />

<glyph glyph-name="ei-plus" unicode="&#xe824;" d="M500 10c-188 0-340 152-340 340s152 340 340 340 340-152 340-340-152-340-340-340z m0 640c-166 0-300-134-300-300s134-300 300-300 300 134 300 300-134 300-300 300z m-180-280h360v-40h-360z m160 160h40v-360h-40z" horiz-adv-x="1000" />

<glyph glyph-name="ei-pointer" unicode="&#xe825;" d="M660 90h-240c-12 0-20 8-20 20 0 30-14 48-36 76-12 14-26 32-40 54-38 60-72 132-80 158-8 26-2 44 6 54 8 12 24 18 42 18 24 0 48-20 70-46v206c0 34 26 60 60 60s60-26 60-60v-84c6 2 12 4 20 4 22 0 40-12 50-28 8 6 18 8 28 8 28 0 50-18 58-44 6 2 14 4 22 4 34 0 60-26 60-60v-60c0-52-10-94-20-134s-20-78-20-126c0-12-8-20-20-20z m-222 40h202c2 44 12 80 20 116 10 40 20 78 20 124v60c0 12-8 20-20 20s-20-8-20-20v-20c0-12-8-20-20-20s-20 8-20 20v60c0 12-8 20-20 20s-20-8-20-20v-40c0-12-8-20-20-20s-20 8-20 20v60c0 12-8 20-20 20s-20-8-20-20v-40c0-12-8-20-20-20s-20 8-20 20v180c0 12-8 20-20 20s-20-8-20-20v-300c0-12-8-20-20-20s-20 8-20 20v16c-18 46-56 84-70 84-4 0-8 0-10-2-2-2-2-8 0-18 6-22 36-86 76-150 12-20 24-34 36-50 22-24 42-46 46-80z" horiz-adv-x="1000" />

<glyph glyph-name="ei-question" unicode="&#xe826;" d="M500 10c-188 0-340 152-340 340s152 340 340 340 340-152 340-340-152-340-340-340z m0 640c-166 0-300-134-300-300s134-300 300-300 300 134 300 300-134 300-300 300z m-104-192c6 16 12 28 24 38 10 10 22 18 38 24s32 8 50 8c14 0 28-2 40-6 12-4 24-10 34-18s18-18 22-30c6-12 8-26 8-40 0-20-4-36-12-50s-20-26-32-40l-26-26c-6-6-12-12-14-18-4-6-6-14-6-22-2-8-2-14-2-30h-32c0 16 0 22 2 34 2 10 6 20 10 30 4 8 10 16 18 24 8 8 18 16 28 28 10 10 18 20 24 30s10 24 10 36c0 10-2 20-6 28-4 8-10 16-16 22-6 6-14 10-24 14-10 4-18 6-28 6-14 0-26-2-36-8-10-4-20-12-26-20-6-8-12-18-16-30s-8-18-8-32h-32c0 18 2 32 8 48z m124-248v-40h-40v40h40z" horiz-adv-x="1000" />

<glyph glyph-name="ei-redo" unicode="&#xe827;" d="M500 90c-144 0-260 116-260 260s116 260 260 260c108 0 202-68 238-174l-38-14c-30 92-108 148-200 148-122 0-220-98-220-220s98-220 220-220c86 0 164 50 200 128l36-16c-42-92-134-152-236-152z m260 320h-160v40h120v120h40z" horiz-adv-x="1000" />

<glyph glyph-name="ei-refresh" unicode="&#xe828;" d="M500 90c-144 0-260 116-260 260 0 64 24 124 66 172l30-26c-36-40-56-92-56-146 0-122 98-220 220-220 32 0 62 6 92 20l16-36c-34-16-70-24-108-24z m194 86l-30 26c36 40 56 92 56 146 0 122-98 220-220 220-32 0-62-6-92-20l-16 36c34 16 70 24 108 24 144 0 260-116 260-260 0-62-24-124-66-172z m-334 194h-40v120h-120v40h160z m440-200h-160v160h40v-120h120z" horiz-adv-x="1000" />

<glyph glyph-name="ei-retweet" unicode="&#xe829;" d="M760 150h-40v360c0 12-8 20-20 20h-340v40h340c34 0 60-26 60-60v-360z m-20-30l-136 156 32 28 104-124 104 124 32-28z m-100 10h-340c-34 0-60 26-60 60v360h40v-360c0-12 8-20 20-20h340v-40z m-276 266l-104 124-104-124-32 28 136 156 136-156z" horiz-adv-x="1000" />

<glyph glyph-name="ei-sc-facebook" unicode="&#xe82a;" d="M520 450v60c0 26 6 40 48 40h52v100h-80c-100 0-140-66-140-140v-60h-80v-100h80v-300h120v300h88l12 100h-100z" horiz-adv-x="1000" />

<glyph glyph-name="ei-sc-github" unicode="&#xe82b;" d="M500 650c-166 0-300-134-300-300 0-132 86-244 206-284 16-2 20 6 20 14v52c-84-18-102 40-102 40-14 34-34 44-34 44-28 18 2 18 2 18 30-2 46-30 46-30 26-46 70-32 88-24 2 20 10 32 20 40-66 8-136 34-136 148 0 32 12 60 30 80-4 8-14 38 2 80 0 0 26 8 82-30 24 6 50 10 76 10 26 0 52-4 76-10 58 38 82 30 82 30 16-42 6-72 2-80 20-20 30-48 30-80 0-116-70-140-136-148 10-10 20-28 20-56v-82c0-8 6-18 20-14 120 40 204 152 204 284 2 164-132 298-298 298z" horiz-adv-x="1000" />

<glyph glyph-name="ei-sc-google-plus" unicode="&#xe82c;" d="M360 390v-96h158c-6-42-48-120-158-120-96 0-174 80-174 176s78 176 174 176c54 0 90-24 112-44l76 74c-50 46-112 74-188 74-154 0-280-126-280-280s126-280 280-280c162 0 268 114 268 274 0 18-2 32-4 46h-264z m600 0h-80v80h-80v-80h-80v-80h80v-80h80v80h80z" horiz-adv-x="1000" />

<glyph glyph-name="ei-sc-instagram" unicode="&#xe82d;" d="M500 610c-71 0-79 0-107-2-28-1-47-5-63-12a127 127 0 0 1-46-30 127 127 0 0 1-30-46c-7-16-11-35-12-63-2-27-2-36-2-107 0-71 0-79 2-107 1-28 5-47 12-63 6-17 15-32 30-46a127 127 0 0 1 46-30c16-7 35-11 63-12 28-2 36-2 107-2 71 0 80 0 107 2 28 1 47 5 63 12a127 127 0 0 1 46 30 127 127 0 0 1 30 46c7 16 11 35 12 63 2 28 2 36 2 107 0 71 0 80-2 107-1 28-5 47-12 63a127 127 0 0 1-30 46 127 127 0 0 1-46 30c-16 7-35 11-63 12-27 2-36 2-107 2m0-47c69 0 78 0 105-1 25-1 39-6 48-9 13-5 21-11 30-20 9-9 15-17 20-30 3-9 8-23 9-48 1-27 1-36 1-105s0-78-1-105c-1-25-6-39-9-48a81 81 0 0 0-20-30 81 81 0 0 0-30-20c-9-3-23-7-48-9-27-1-36-1-105-1s-78 0-105 1c-25 2-39 6-48 9a81 81 0 0 0-30 20 81 81 0 0 0-20 30c-3 9-7 23-9 48-1 27-1 36-1 105s0 78 1 105c2 25 6 39 9 48 5 13 11 21 20 30a81 81 0 0 0 30 20c9 3 23 8 48 9 27 1 36 1 105 1m0-73a140 140 0 1 1 0-280 140 140 0 0 1 0 280m0-230a90 90 0 1 0 0 180 90 90 0 0 0 0-180m174 228a32 32 0 1 0-64 0 32 32 0 0 0 64 0" horiz-adv-x="1000" />

<glyph glyph-name="ei-sc-linkedin" unicode="&#xe82e;" d="M722 610h-444c-22 0-38-16-38-38v-444c0-20 18-38 38-38h444c22 0 38 16 38 38v444c0 22-18 38-38 38z m-322-440h-80v240h80v-240z m-40 272c-26 0-48 22-48 48 0 26 22 48 48 48 26 0 48-22 48-48 0-26-22-48-48-48z m320-272h-80v120c0 32-8 64-40 64s-40-32-40-64v-120h-80v240h80v-28h4c10 20 36 36 66 36 74 0 90-48 90-108v-140z" horiz-adv-x="1000" />

<glyph glyph-name="ei-sc-odnoklassniki" unicode="&#xe82f;" d="M500 330c-88 0-160 72-160 160s72 160 160 160 160-72 160-160-72-160-160-160z m0 244c-46 0-84-38-84-84s38-84 84-84 84 38 84 84-38 84-84 84z m172-260c-14 18-38 20-56 8 0 0-44-32-116-32-72 0-116 32-116 32-18 14-42 10-56-8-14-18-10-42 8-56 2-2 44-34 114-44l-106-108c-16-16-16-42 0-56 8-8 18-12 28-12 10 0 20 4 28 12l100 102 100-102c8-8 18-12 28-12 10 0 20 4 28 12 16 16 16 40 0 56l-106 108c70 12 112 44 114 44 18 14 22 40 8 56z" horiz-adv-x="1000" />

<glyph glyph-name="ei-sc-pinterest" unicode="&#xe830;" d="M500 650c-166 0-300-134-300-300 0-128 80-236 190-280-2 24-4 60 2 86 6 24 36 150 36 150s-8 18-8 44c0 42 24 72 54 72 26 0 38-20 38-42 0-26-16-64-24-100-8-30 14-54 44-54 54 0 94 56 94 138 0 72-52 122-126 122-86 0-136-64-136-130 0-26 10-54 22-68 2-2 2-6 2-8-2-10-8-30-8-34-2-6-4-6-10-4-38 18-60 72-60 116 0 94 68 182 198 182 104 0 184-74 184-174 0-104-66-186-156-186-30 0-58 16-68 34 0 0-16-58-18-72-6-26-26-58-38-78 28-10 58-14 88-14 166 0 300 134 300 300s-134 300-300 300z" horiz-adv-x="1000" />

<glyph glyph-name="ei-sc-skype" unicode="&#xe831;" d="M760 304c2 16 4 32 4 48 0 36-6 70-20 102-14 32-32 60-56 84-24 24-52 44-84 56-32 14-68 20-102 20-16 0-34-2-50-4-22 12-48 18-74 18-42 0-82-16-110-46-30-30-46-68-46-110 0-26 6-52 20-76-2-14-4-30-4-46 0-36 6-70 20-102 14-32 32-60 56-84 24-24 52-44 84-56 32-14 68-20 102-20 16 0 32 2 46 4 24-14 50-20 78-20 42 0 82 16 110 46 30 30 46 68 46 110 0 26-6 52-20 76z m-258-114c-94 0-136 46-136 80 0 18 14 30 32 30 40 0 30-58 104-58 38 0 60 20 60 42 0 12-6 28-32 34l-84 20c-68 16-80 54-80 88 0 72 66 98 130 98 58 0 126-32 126-74 0-18-16-28-34-28-34 0-28 48-98 48-34 0-54-16-54-38 0-22 28-30 50-34l62-14c68-16 84-54 84-92 2-58-42-102-130-102z" horiz-adv-x="1000" />

<glyph glyph-name="ei-sc-soundcloud" unicode="&#xe832;" d="M800 370h-4c-18 92-100 160-196 160-62 0-118-28-154-74-4-6-6-12-6-24l-8-182 8-110c0-6 6-10 10-10h350c66 0 120 54 120 120s-54 120-120 120z m-422 80c-6 0-10-4-10-10l-16-180v-20l16-100c0-6 6-10 12-10h4c6 0 10 4 12 10l16 100c0 6 2 14 0 20l-16 180c0 6-6 10-10 10h-8z m-80-20c-6 0-10-4-10-10l-16-160v-20l16-100c0-6 6-10 12-10h4c6 0 10 4 12 10l16 100c0 6 2 14 0 20l-16 160c0 6-6 10-10 10h-8z m-78-60c-6 0-10-4-12-10l-16-100v-20l16-100c0-6 6-10 12-10s10 4 12 10l16 100v20l-16 100c-2 6-6 10-12 10z m-80 20c-6 0-10-4-12-10l-18-120v-20l16-100c4-6 8-10 14-10 6 0 10 4 12 10l16 100c0 6 2 14 0 20l-18 120c0 6-4 10-10 10z m-74-60c-6 0-10-4-12-10l-12-60c-2-6-2-14 0-20l12-80c2-6 6-10 12-10s10 4 12 10l12 80v20l-12 60c-2 6-6 10-12 10z" horiz-adv-x="1000" />

<glyph glyph-name="ei-sc-telegram" unicode="&#xe833;" d="M742 590l-554-220c-18-6-16-32 2-38l140-44 56-176c4-14 22-18 32-8l82 76 156-114c12-8 28-2 32 12l108 464c6 34-24 60-54 48z m-324-336l-18-104-40 144 390 256-332-296z" horiz-adv-x="1000" />

<glyph glyph-name="ei-sc-tumblr" unicode="&#xe834;" d="M618 202c-10-4-30-10-46-10-44-2-54 32-54 56v174h112v84h-110v144h-82c-2 0-4-2-4-4-4-44-26-120-110-150v-72h56v-182c0-62 46-152 168-150 42 0 86 18 96 32l-26 78z" horiz-adv-x="1000" />

<glyph glyph-name="ei-sc-twitter" unicode="&#xe835;" d="M784 514c-22-10-44-16-70-20 24 16 44 38 54 66-24-14-50-24-76-30-22 24-54 38-88 38-66 0-122-54-122-122 0-10 2-18 4-28-100 4-190 54-250 126-10-14-16-34-16-56 0-42 22-80 54-100-20 0-38 6-54 16v-2c0-58 42-108 98-118-10-2-20-4-32-4-8 0-16 0-22 2 16-48 60-84 114-84-42-32-94-52-150-52-10 0-20 0-28 2 48-38 112-58 180-58 222 0 344 184 344 344v16c24 18 44 38 60 64z" horiz-adv-x="1000" />

<glyph glyph-name="ei-sc-vimeo" unicode="&#xe836;" d="M760 458c-2-54-40-128-112-222-76-98-140-148-192-148-32 0-60 30-82 90-14 54-30 110-44 164-16 60-34 90-54 90-4 0-18-8-44-26l-26 34c28 24 54 48 80 72 36 32 64 48 82 50 44 4 70-26 80-88 10-68 18-110 22-128 12-56 26-84 42-84 12 0 30 18 52 56 24 36 36 64 38 84 4 32-10 48-38 48-14 0-26-4-40-10 28 90 80 132 156 130 56-2 84-38 80-112z" horiz-adv-x="1000" />

<glyph glyph-name="ei-sc-vk" unicode="&#xe837;" d="M502 132h40s12 2 18 8c6 6 6 18 6 18s0 52 24 60c24 8 56-52 88-74 24-18 42-14 42-14l88 2s46 2 24 40c-2 2-12 26-66 76-56 52-48 42 18 132 40 54 56 86 52 102-4 14-34 10-34 10h-100s-8 2-12-2c-6-4-8-10-8-10s-16-42-36-78c-44-74-62-78-68-74-16 10-12 44-12 66 0 72 12 102-22 110-10 2-18 4-46 4-36 0-66 0-82-8-12-6-20-18-14-18 6 0 22-4 30-14 8-18 8-48 8-48s6-86-14-96c-14-8-32 8-72 76-20 34-36 74-36 74s-2 8-8 12c-6 4-16 6-16 6h-94s-14 0-20-6c-4-6 0-16 0-16s74-172 158-260c78-84 164-78 164-78z" horiz-adv-x="1000" />

<glyph glyph-name="ei-sc-youtube" unicode="&#xe838;" d="M794 478s-6 42-24 60c-22 24-48 24-60 26-84 6-210 6-210 6s-126 0-210-6c-12-2-38-2-60-26-18-18-24-60-24-60s-6-48-6-96v-44c0-48 6-98 6-98s6-42 24-60c22-24 52-24 66-26 48-2 204-4 204-4s126 0 210 6c12 2 38 2 60 26 18 18 24 60 24 60s6 48 6 96v44c0 48-6 96-6 96z m-356-196v168l162-84-162-84z" horiz-adv-x="1000" />

<glyph glyph-name="ei-search" unicode="&#xe839;" d="M460 130c-144 0-260 116-260 260s116 260 260 260 260-116 260-260-116-260-260-260z m0 480c-122 0-220-98-220-220s98-220 220-220 220 98 220 220-98 220-220 220z m194-385l179-180-28-28-180 179z" horiz-adv-x="1000" />

<glyph glyph-name="ei-share-apple" unicode="&#xe83a;" d="M606 576l-106 106-106-106-28 28 134 134 134-134z m-126 134h40v-420h-40z m220-660h-400c-34 0-60 26-60 60v360c0 34 26 60 60 60h140v-40h-140c-12 0-20-8-20-20v-360c0-12 8-20 20-20h400c12 0 20 8 20 20v360c0 12-8 20-20 20h-140v40h140c34 0 60-26 60-60v-360c0-34-26-60-60-60z" horiz-adv-x="1000" />

<glyph glyph-name="ei-share-google" unicode="&#xe83b;" d="M300 250c-56 0-100 44-100 100s44 100 100 100 100-44 100-100-44-100-100-100z m0 160c-34 0-60-26-60-60s26-60 60-60 60 26 60 60-26 60-60 60z m400 40c-56 0-100 44-100 100s44 100 100 100 100-44 100-100-44-100-100-100z m0 160c-34 0-60-26-60-60s26-60 60-60 60 26 60 60-26 60-60 60z m0-560c-56 0-100 44-100 100s44 100 100 100 100-44 100-100-44-100-100-100z m0 160c-34 0-60-26-60-60s26-60 60-60 60 26 60 60-26 60-60 60z m-320 122l258-128-18-36-258 129z m240 200l18-35-258-129-18 36z" horiz-adv-x="1000" />

<glyph glyph-name="ei-spinner-3" unicode="&#xe83d;" d="M838 372c-6 122-80 236-190 288-120 54-266 32-366-52-96-80-140-210-112-332 26-120 120-218 238-250 142-40 272 28 352 144-72-96-182-160-304-138-122 22-222 114-250 234-30 128 30 262 144 328 118 68 284 42 362-74 20-28 34-62 40-96 6-28 4-58 8-86 4-26 26-60 56-42 26 16 24 50 22 76 0 8 2-14 0 0z" horiz-adv-x="1000" />

<glyph glyph-name="ei-spinner" unicode="&#xe83e;" d="M500 490c-12 0-20 8-20 20v160c0 12 8 20 20 20s20-8 20-20v-160c0-12-8-20-20-20z m0-480c-12 0-20 8-20 20v160c0 12 8 20 20 20s20-8 20-20v-160c0-12-8-20-20-20z m80 460c-4 0-6 0-10 2-8 6-12 16-6 26l80 138c6 8 16 12 26 6 8-6 12-16 6-26l-80-138c-4-4-10-8-16-8z m-240-416c-4 0-6 0-10 2-8 6-12 16-6 26l80 138c6 8 16 12 26 6 8-6 12-16 6-26l-80-138c-4-4-10-8-16-8z m80 416c-6 0-12 4-16 10l-80 138c-6 8-2 20 6 26 8 6 20 2 26-6l80-138c6-8 2-20-6-26-4-4-6-4-10-4z m240-416c-6 0-12 4-16 10l-80 138c-6 8-2 20 6 26 8 6 20 2 26-6l80-138c6-8 2-20-6-26-4-2-6-4-10-4z m-320 276h-160c-12 0-20 8-20 20s8 20 20 20h160c12 0 20-8 20-20s-8-20-20-20z m480 0h-160c-12 0-20 8-20 20s8 20 20 20h160c12 0 20-8 20-20s-8-20-20-20z m-458 82c-4 0-6 0-10 2l-138 80c-8 6-12 16-6 26 6 8 16 12 26 6l138-80c8-6 12-16 6-26-4-6-10-8-16-8z m416-240c-4 0-6 0-10 2l-138 80c-8 6-12 16-6 26 6 8 16 12 26 6l138-80c8-6 12-16 6-26-4-6-10-8-16-8z m-556 0c-6 0-12 4-16 10-6 8-2 20 6 26l138 80c8 6 20 2 26-6 6-8 2-20-6-26l-138-80c-2-4-6-4-10-4z m416 240c-6 0-12 4-16 10-6 8-2 20 6 26l138 80c8 6 20 2 26-6 6-8 2-20-6-26l-138-80c-4-4-6-4-10-4z" horiz-adv-x="1000" />

<glyph glyph-name="ei-star" unicode="&#xe83f;" d="M304 38c-4 0-8 2-12 4-8 6-10 14-8 22l78 240-204 150c-8 6-10 14-8 22s10 14 20 14h254l76 242c2 8 10 14 20 14s16-6 20-14l78-242h254c8 0 16-4 20-12s0-18-8-22l-204-148 78-240c2-8 0-18-8-22s-16-6-24 0l-206 144-204-148c-4-2-8-4-12-4z m216 198c4 0 8-2 12-4l166-122-64 196c-2 8 0 18 8 22l166 122h-206c-8 0-16 6-20 14l-62 196-64-196c-2-8-10-14-20-14h-206l166-122c8-6 10-14 8-22l-62-196 166 122c4 2 8 4 12 4z" horiz-adv-x="1000" />

<glyph glyph-name="ei-tag" unicode="&#xe840;" d="M440 48c-18 0-34 6-46 18l-178 178c-24 24-24 66 0 90l238 238c20 20 60 36 90 36h152c36 0 64-28 64-64v-152c0-30-16-68-36-90l-238-236c-12-12-28-18-46-18z m104 522c-20 0-48-12-60-26l-238-238c-10-10-10-24 0-34l178-178c10-8 24-8 34 0l238 238c14 14 26 42 26 60v152c0 14-10 24-24 24h-154z m56-200c-44 0-80 36-80 80s36 80 80 80 80-36 80-80-36-80-80-80z m0 120c-22 0-40-18-40-40s18-40 40-40 40 18 40 40-18 40-40 40z" horiz-adv-x="1000" />

<glyph glyph-name="ei-trash" unicode="&#xe841;" d="M400 490h40v-320h-40z m80 0h40v-320h-40z m80 0h40v-320h-40z m-320 120h520v-40h-520z m360 0h-40v20c0 12-8 20-20 20h-80c-12 0-20-8-20-20v-20h-40v20c0 34 26 60 60 60h80c34 0 60-26 60-60v-20z m20-560h-240c-32 0-60 26-64 58l-36 480 40 4 36-480c0-12 12-22 24-22h240c12 0 22 10 24 22l36 480 40-4-36-480c-4-32-32-58-64-58z" horiz-adv-x="1000" />

<glyph glyph-name="ei-trophy" unicode="&#xe842;" d="M572 262c60 46 148 114 148 368v20h-440v-20c0-254 90-322 148-368 34-26 52-40 52-72v-60c-32-4-64-16-76-40h-44c-22 0-40-18-40-40h360c0 22-18 40-40 40h-44c-12 24-42 36-76 40v60c0 32 16 46 52 72z m-72-10c-12 16-30 30-46 42-54 42-128 98-132 316h360c-4-216-78-274-132-316-20-14-38-26-50-42z m-124 58c-2 0-216 46-216 280v20h140v-40h-100c12-184 182-220 184-220l-8-40z m248 0l-8 40c8 2 172 38 184 220h-100v40h140v-20c0-234-214-280-216-280z" horiz-adv-x="1000" />

<glyph glyph-name="ei-undo" unicode="&#xe843;" d="M500 90c-102 0-194 60-236 152l36 16c36-78 114-128 200-128 122 0 220 98 220 220s-98 220-220 220c-92 0-170-56-202-146l-38 14c38 104 132 172 240 172 144 0 260-116 260-260s-116-260-260-260z m-100 320h-160v160h40v-120h120z" horiz-adv-x="1000" />

<glyph glyph-name="ei-unlock" unicode="&#xe844;" d="M360 390h-40v80c0 100 80 180 180 180 90 0 168-68 178-158l-40-4c-8 70-68 122-138 122-78 0-140-62-140-140v-80z m300-340h-320c-34 0-60 26-60 60v240c0 34 26 60 60 60h320c34 0 60-26 60-60v-240c0-34-26-60-60-60z m-320 320c-12 0-20-8-20-20v-240c0-12 8-20 20-20h320c12 0 20 8 20 20v240c0 12-8 20-20 20h-320z m170-80h-20l-20-120h60z" horiz-adv-x="1000" />

<glyph glyph-name="ei-user" unicode="&#xe845;" d="M502 10c-188 0-340 152-340 340s152 340 340 340 340-152 340-340-154-340-340-340z m0 640c-166 0-300-134-300-300s134-300 300-300 300 134 300 300-136 300-300 300z m-196-546l-36 16c10 24 42 38 76 54 34 16 76 34 76 56v30c-12 10-32 32-36 64-10 10-26 28-26 52 0 14 6 26 10 34-4 16-8 46-8 70 0 78 54 130 140 130 24 0 54-6 70-24 38-8 70-52 70-106 0-34-6-62-10-76 4-6 8-16 8-28 0-26-14-44-26-52-4-32-22-52-34-62v-32c0-18 36-32 68-44 38-14 78-30 92-62l-38-14c-6 16-38 28-68 38-44 16-94 34-94 80v52l10 6s24 16 24 48v14l12 6c2 0 12 6 12 22 0 4-4 10-6 12l-8 8 4 10s10 32 10 72c0 38-22 66-40 66h-12l-6 10c0 8-14 16-38 16-62 0-100-34-100-90 0-26 10-70 10-70l2-10-8-10c-2 0-6-6-6-14 0-10 12-22 18-26l8-6v-10c0-30 26-46 26-48l10-6v-52c0-48-52-72-100-92-22-8-52-22-56-32z" horiz-adv-x="1000" />
</font>
</defs>
</svg>
