<?xml version="1.0" encoding="utf-8"?>
<!-- Generator: Adobe Illustrator 15.0.0, SVG Export Plug-In . SVG Version: 6.00 Build 0)  -->
<!DOCTYPE svg PUBLIC "-//W3C//DTD SVG 1.1//EN" "http://www.w3.org/Graphics/SVG/1.1/DTD/svg11.dtd" [
	<!ENTITY ns_flows "http://ns.adobe.com/Flows/1.0/">
	<!ENTITY ns_extend "http://ns.adobe.com/Extensibility/1.0/">
	<!ENTITY ns_ai "http://ns.adobe.com/AdobeIllustrator/10.0/">
	<!ENTITY ns_graphs "http://ns.adobe.com/Graphs/1.0/">
]>
<svg version="1.1" id="Layer_1" xmlns:x="&ns_extend;" xmlns:i="&ns_ai;" xmlns:graph="&ns_graphs;"
	 xmlns="http://www.w3.org/2000/svg" xmlns:xlink="http://www.w3.org/1999/xlink" xmlns:a="http://ns.adobe.com/AdobeSVGViewerExtensions/3.0/"
	 x="0px" y="0px" width="256px" height="57px" viewBox="0 0 256 57" enable-background="new 0 0 256 57" xml:space="preserve">
<rect x="0.5" y="0.5" fill="#FFFFFF" stroke="#B3E4FF" stroke-miterlimit="10" width="255" height="56"/>
<rect x="21" y="6" fill="#7EBAE3" width="214" height="20"/>
<g>
	<path fill="#FFFFFF" d="M85,16.7l-1.7-5.2h1l1.2,3.9l1.2-3.9h1L86,16.7v2.9h-1V16.7z"/>
	<path fill="#FFFFFF" d="M88.6,19.4c-0.2-0.2-0.4-0.4-0.5-0.8C88,18.3,88,17.9,88,17.4V16c0-0.8,0.1-1.4,0.4-1.8
		c0.2-0.4,0.7-0.6,1.3-0.6c0.4,0,0.8,0.1,1,0.3c0.2,0.2,0.4,0.5,0.5,0.8c0.1,0.4,0.1,0.8,0.1,1.4v0.5H89v1.2c0,0.4,0,0.6,0.1,0.8
		s0.3,0.2,0.5,0.2c0.2,0,0.4-0.1,0.4-0.2c0.1-0.2,0.1-0.4,0.1-0.7v-0.3h1v0.2c0,0.6-0.1,1.1-0.4,1.4c-0.3,0.3-0.6,0.5-1.2,0.5
		C89.2,19.7,88.9,19.6,88.6,19.4z M90.2,16.1v-0.5c0-0.4,0-0.7-0.1-0.8c-0.1-0.2-0.2-0.3-0.5-0.3c-0.2,0-0.3,0-0.4,0.1
		c-0.1,0.1-0.1,0.2-0.2,0.4c0,0.2,0,0.4,0,0.8v0.3H90.2z"/>
	<path fill="#FFFFFF" d="M92.4,19.2c-0.3-0.3-0.4-0.7-0.5-1.2l0.9-0.3c0.1,0.4,0.1,0.6,0.3,0.8s0.3,0.3,0.5,0.3
		c0.2,0,0.3-0.1,0.4-0.2c0.1-0.1,0.1-0.3,0.1-0.4c0-0.2,0-0.3-0.1-0.5s-0.2-0.3-0.3-0.4l-1-0.8c-0.2-0.2-0.4-0.4-0.5-0.6
		c-0.1-0.2-0.2-0.5-0.2-0.8c0-0.4,0.1-0.8,0.4-1s0.6-0.4,1-0.4c0.4,0,0.8,0.1,1,0.4c0.2,0.3,0.4,0.6,0.4,1.1l-0.7,0.3
		c0-0.3-0.1-0.6-0.2-0.7s-0.3-0.3-0.5-0.3c-0.2,0-0.3,0.1-0.4,0.2s-0.1,0.3-0.1,0.4c0,0.2,0.1,0.4,0.3,0.6l1,0.9
		c0.3,0.2,0.4,0.5,0.6,0.7c0.1,0.2,0.2,0.5,0.2,0.9c0,0.5-0.1,0.8-0.4,1.1c-0.3,0.3-0.7,0.4-1.1,0.4C93,19.7,92.6,19.5,92.4,19.2z"
		/>
	<path fill="#FFFFFF" d="M95.7,11.5h1l-0.3,6.4H96L95.7,11.5z M95.7,18.5h1v1.1h-1V18.5z"/>
	<path fill="#FFFFFF" d="M101.3,11.5h1l1.7,8.1h-1l-0.4-2H101l-0.4,2h-1L101.3,11.5z M102.5,16.7l-0.7-3.6l-0.6,3.6H102.5z"/>
	<path fill="#FFFFFF" d="M104.9,19.1c-0.2-0.4-0.3-1-0.3-1.8v-1.1c0-0.8,0.1-1.4,0.3-1.8c0.2-0.4,0.6-0.7,1.1-0.7
		c0.3,0,0.6,0.1,0.9,0.4v-2.7h1v8.1h-1v-0.4c-0.3,0.3-0.6,0.5-0.9,0.5C105.5,19.7,105.1,19.5,104.9,19.1z M106.9,18.6v-3.8
		c-0.2-0.2-0.5-0.3-0.7-0.3c-0.4,0-0.6,0.4-0.6,1.2v1.6c0,0.5,0,0.8,0.1,1.1c0.1,0.2,0.3,0.4,0.5,0.4
		C106.4,18.8,106.7,18.8,106.9,18.6z"/>
	<path fill="#FFFFFF" d="M109.2,19.1c-0.2-0.4-0.3-1-0.3-1.8v-1.1c0-0.8,0.1-1.4,0.3-1.8c0.2-0.4,0.6-0.7,1.1-0.7
		c0.3,0,0.6,0.1,0.9,0.4v-2.7h1v8.1h-1v-0.4c-0.3,0.3-0.6,0.5-0.9,0.5C109.7,19.7,109.4,19.5,109.2,19.1z M111.1,18.6v-3.8
		c-0.2-0.2-0.5-0.3-0.7-0.3c-0.4,0-0.6,0.4-0.6,1.2v1.6c0,0.5,0,0.8,0.1,1.1c0.1,0.2,0.3,0.4,0.5,0.4
		C110.7,18.8,110.9,18.8,111.1,18.6z"/>
	<path fill="#FFFFFF" d="M116.3,12.3H115v-0.8h3.7v0.8h-1.3v7.3h-1.1V12.3z"/>
	<path fill="#FFFFFF" d="M119.4,11.5h1v2.9c0.5-0.5,0.9-0.7,1.4-0.7c0.3,0,0.5,0.1,0.6,0.3s0.2,0.5,0.2,0.8v4.7h-1v-4.4
		c0-0.2,0-0.4-0.1-0.5c-0.1-0.1-0.2-0.2-0.3-0.2c-0.2,0-0.5,0.1-0.8,0.4v4.6h-1V11.5z"/>
	<path fill="#FFFFFF" d="M123.7,11.8h1V13h-1V11.8z M123.7,13.8h1v5.8h-1V13.8z"/>
	<path fill="#FFFFFF" d="M126,19.2c-0.3-0.3-0.4-0.7-0.5-1.2l0.9-0.3c0.1,0.4,0.1,0.6,0.3,0.8s0.3,0.3,0.5,0.3
		c0.2,0,0.3-0.1,0.4-0.2c0.1-0.1,0.1-0.3,0.1-0.4c0-0.2,0-0.3-0.1-0.5s-0.2-0.3-0.3-0.4l-1-0.8c-0.2-0.2-0.4-0.4-0.5-0.6
		c-0.1-0.2-0.2-0.5-0.2-0.8c0-0.4,0.1-0.8,0.4-1s0.6-0.4,1-0.4c0.4,0,0.8,0.1,1,0.4c0.2,0.3,0.4,0.6,0.4,1.1l-0.7,0.3
		c0-0.3-0.1-0.6-0.2-0.7s-0.3-0.3-0.5-0.3c-0.2,0-0.3,0.1-0.4,0.2s-0.1,0.3-0.1,0.4c0,0.2,0.1,0.4,0.3,0.6l1,0.9
		c0.3,0.2,0.4,0.5,0.6,0.7c0.1,0.2,0.2,0.5,0.2,0.9c0,0.5-0.1,0.8-0.4,1.1c-0.3,0.3-0.7,0.4-1.1,0.4C126.7,19.7,126.3,19.5,126,19.2
		z"/>
	<path fill="#FFFFFF" d="M132.6,12.3h-1.3v-0.8h3.7v0.8h-1.3v7.3h-1.1V12.3z"/>
	<path fill="#FFFFFF" d="M135.8,19.1c-0.2-0.4-0.4-0.9-0.4-1.6v-1.7c0-0.7,0.1-1.2,0.4-1.6c0.2-0.4,0.7-0.5,1.3-0.5
		c0.6,0,1,0.2,1.2,0.5s0.4,0.9,0.4,1.6v1.7c0,0.7-0.1,1.2-0.4,1.6s-0.7,0.5-1.2,0.5C136.4,19.7,136,19.5,135.8,19.1z M137.4,18.7
		c0.1-0.1,0.1-0.3,0.2-0.4c0-0.2,0-0.4,0-0.7v-1.8c0-0.3,0-0.5,0-0.7s-0.1-0.3-0.2-0.4c-0.1-0.1-0.2-0.2-0.4-0.2
		c-0.2,0-0.3,0.1-0.4,0.2c-0.1,0.1-0.1,0.3-0.2,0.4c0,0.2,0,0.4,0,0.7v1.8c0,0.3,0,0.5,0,0.7c0,0.2,0.1,0.3,0.2,0.4
		c0.1,0.1,0.2,0.2,0.4,0.2C137.2,18.9,137.4,18.8,137.4,18.7z"/>
	<path fill="#FFFFFF" d="M142,11.5h1.1l1.4,6.6l1.4-6.6h1.1l0.1,8.1h-0.9l-0.1-5.9l-1.3,5.9h-0.6l-1.3-5.9l-0.1,5.9h-0.9L142,11.5z"
		/>
	<path fill="#FFFFFF" d="M148.1,20.2c0.4,0,0.6,0,0.8-0.1c0.1-0.1,0.2-0.2,0.2-0.3c0-0.1-0.1-0.4-0.2-1.1l-1.1-4.9h1l0.8,4.3
		l0.7-4.3h1l-1.3,6.1c-0.1,0.4-0.3,0.7-0.6,0.9c-0.3,0.2-0.7,0.3-1.2,0.3h-0.1V20.2z"/>
	<path fill="#FFFFFF" d="M154.5,19c-0.3-0.5-0.5-1.1-0.5-2V14c0-0.8,0.2-1.5,0.5-1.9c0.3-0.4,0.9-0.6,1.6-0.6s1.3,0.2,1.6,0.7
		c0.3,0.4,0.5,1.1,0.5,1.9v3.1c0,0.8-0.2,1.5-0.5,1.9c-0.3,0.5-0.9,0.7-1.6,0.7C155.4,19.7,154.9,19.5,154.5,19z M157,18.4
		c0.1-0.2,0.2-0.6,0.2-1.1v-3.5c0-0.5-0.1-0.9-0.2-1.1c-0.1-0.2-0.4-0.4-0.8-0.4c-0.4,0-0.7,0.1-0.8,0.4c-0.1,0.2-0.2,0.6-0.2,1.1
		v3.5c0,0.5,0.1,0.9,0.2,1.1s0.4,0.4,0.8,0.4C156.6,18.8,156.9,18.7,157,18.4z"/>
	<path fill="#FFFFFF" d="M159.3,13.8h1v0.8c0.2-0.3,0.4-0.6,0.6-0.7s0.4-0.2,0.6-0.2c0.1,0,0.1,0,0.2,0v1.2
		c-0.2-0.1-0.4-0.1-0.6-0.1c-0.2,0-0.3,0-0.4,0.1c-0.1,0.1-0.3,0.2-0.4,0.4v4.2h-1V13.8z"/>
	<path fill="#FFFFFF" d="M162.6,19.1c-0.2-0.4-0.3-1-0.3-1.8v-1.1c0-0.8,0.1-1.4,0.3-1.8c0.2-0.4,0.6-0.7,1.1-0.7
		c0.3,0,0.6,0.1,0.9,0.4v-2.7h1v8.1h-1v-0.4c-0.3,0.3-0.6,0.5-0.9,0.5C163.2,19.7,162.8,19.5,162.6,19.1z M164.6,18.6v-3.8
		c-0.2-0.2-0.5-0.3-0.7-0.3c-0.4,0-0.6,0.4-0.6,1.2v1.6c0,0.5,0,0.8,0.1,1.1c0.1,0.2,0.3,0.4,0.5,0.4
		C164.1,18.8,164.3,18.8,164.6,18.6z"/>
	<path fill="#FFFFFF" d="M167.2,19.4c-0.2-0.2-0.4-0.4-0.5-0.8c-0.1-0.3-0.1-0.8-0.1-1.3V16c0-0.8,0.1-1.4,0.4-1.8
		c0.2-0.4,0.7-0.6,1.3-0.6c0.4,0,0.8,0.1,1,0.3c0.2,0.2,0.4,0.5,0.5,0.8c0.1,0.4,0.1,0.8,0.1,1.4v0.5h-2.2v1.2c0,0.4,0,0.6,0.1,0.8
		s0.3,0.2,0.5,0.2c0.2,0,0.4-0.1,0.4-0.2c0.1-0.2,0.1-0.4,0.1-0.7v-0.3h1v0.2c0,0.6-0.1,1.1-0.4,1.4c-0.3,0.3-0.6,0.5-1.2,0.5
		C167.7,19.7,167.4,19.6,167.2,19.4z M168.7,16.1v-0.5c0-0.4,0-0.7-0.1-0.8c-0.1-0.2-0.2-0.3-0.5-0.3c-0.2,0-0.3,0-0.4,0.1
		c-0.1,0.1-0.1,0.2-0.2,0.4c0,0.2,0,0.4,0,0.8v0.3H168.7z"/>
	<path fill="#FFFFFF" d="M170.7,13.8h1v0.8c0.2-0.3,0.4-0.6,0.6-0.7s0.4-0.2,0.6-0.2c0.1,0,0.1,0,0.2,0v1.2
		c-0.2-0.1-0.4-0.1-0.6-0.1c-0.2,0-0.3,0-0.4,0.1c-0.1,0.1-0.3,0.2-0.4,0.4v4.2h-1V13.8z"/>
</g>
<g>
	<path fill="#7EBAE3" d="M83.8,43.3h0.7l2.1,4.8v-4.8h0.8v7.3h-0.6l-2.1-5v5h-0.9V43.3z"/>
	<path fill="#7EBAE3" d="M88.7,50.2c-0.2-0.3-0.3-0.8-0.3-1.4v-1.5c0-0.6,0.1-1.1,0.3-1.4c0.2-0.3,0.6-0.5,1.2-0.5
		c0.5,0,0.9,0.2,1.2,0.5c0.2,0.3,0.3,0.8,0.3,1.4v1.5c0,0.6-0.1,1.1-0.3,1.4c-0.2,0.3-0.6,0.5-1.2,0.5
		C89.3,50.7,88.9,50.5,88.7,50.2z M90.3,49.8c0.1-0.1,0.1-0.2,0.1-0.4c0-0.2,0-0.4,0-0.6v-1.6c0-0.3,0-0.5,0-0.6
		c0-0.2-0.1-0.3-0.1-0.4S90.1,46,89.9,46s-0.3,0.1-0.4,0.2s-0.1,0.2-0.1,0.4c0,0.2,0,0.4,0,0.6v1.6c0,0.3,0,0.5,0,0.6
		c0,0.1,0.1,0.3,0.1,0.4c0.1,0.1,0.2,0.2,0.4,0.2S90.2,49.9,90.3,49.8z"/>
	<path fill="#7EBAE3" d="M95.2,44.1H94v-0.8h3.4v0.8h-1.2v6.5h-1V44.1z"/>
	<path fill="#7EBAE3" d="M98.1,43.3h1V46c0.4-0.4,0.9-0.6,1.3-0.6c0.3,0,0.5,0.1,0.6,0.3c0.1,0.2,0.2,0.5,0.2,0.8v4.2h-1v-3.9
		c0-0.2,0-0.3-0.1-0.4s-0.2-0.1-0.3-0.1c-0.2,0-0.4,0.1-0.7,0.3v4.2h-1V43.3z"/>
	<path fill="#7EBAE3" d="M102.5,50.5c-0.2-0.1-0.3-0.3-0.4-0.4c-0.1-0.2-0.1-0.4-0.1-0.6c0-0.4,0.1-0.7,0.3-1s0.4-0.5,0.7-0.6
		c0.3-0.1,0.6-0.3,1.1-0.5V47c0-0.3,0-0.6-0.1-0.7c-0.1-0.1-0.2-0.2-0.4-0.2c-0.4,0-0.5,0.2-0.5,0.7v0.3l-1,0c0-0.6,0.1-1,0.4-1.3
		c0.3-0.3,0.6-0.4,1.2-0.4c0.5,0,0.9,0.1,1.1,0.4c0.2,0.3,0.3,0.7,0.3,1.2v2.4c0,0.4,0,0.8,0.1,1.3h-0.9c-0.1-0.3-0.1-0.6-0.1-0.8
		c-0.1,0.2-0.2,0.4-0.4,0.6s-0.4,0.2-0.7,0.2C102.8,50.7,102.6,50.6,102.5,50.5z M103.7,49.7c0.1-0.1,0.2-0.2,0.3-0.3v-1.5
		c-0.3,0.1-0.5,0.3-0.6,0.4c-0.1,0.1-0.3,0.2-0.4,0.4c-0.1,0.1-0.1,0.3-0.1,0.5c0,0.2,0,0.4,0.1,0.5s0.2,0.2,0.3,0.2
		C103.5,49.9,103.6,49.8,103.7,49.7z"/>
	<path fill="#7EBAE3" d="M105.9,45.4h1v0.5c0.4-0.4,0.8-0.6,1.3-0.6c0.3,0,0.5,0.1,0.6,0.3c0.1,0.2,0.2,0.5,0.2,0.8v4.2h-1v-3.9
		c0-0.2,0-0.3-0.1-0.4c-0.1-0.1-0.2-0.1-0.3-0.1c-0.2,0-0.4,0.1-0.7,0.3v4.2h-1V45.4z"/>
	<path fill="#7EBAE3" d="M109.9,43.3h1v4.3l1.4-2.3h1l-1.2,2l1.2,3.2h-1l-1-2.7l-0.4,0.7v2h-1V43.3z"/>
	<path fill="#7EBAE3" d="M113.9,50.3c-0.3-0.3-0.4-0.6-0.4-1.1l0.8-0.2c0,0.3,0.1,0.6,0.2,0.7c0.1,0.2,0.3,0.2,0.5,0.2
		c0.2,0,0.3,0,0.4-0.1c0.1-0.1,0.1-0.2,0.1-0.4c0-0.1,0-0.3-0.1-0.4c-0.1-0.1-0.2-0.2-0.3-0.4l-0.9-0.8c-0.2-0.2-0.4-0.4-0.5-0.6
		c-0.1-0.2-0.2-0.4-0.2-0.7c0-0.4,0.1-0.7,0.4-0.9c0.2-0.2,0.6-0.3,1-0.3c0.4,0,0.7,0.1,0.9,0.4c0.2,0.3,0.4,0.6,0.4,1l-0.6,0.2
		c0-0.3-0.1-0.5-0.2-0.7c-0.1-0.2-0.2-0.2-0.4-0.2c-0.2,0-0.3,0.1-0.4,0.2s-0.1,0.2-0.1,0.4c0,0.2,0.1,0.4,0.3,0.5l0.9,0.8
		c0.2,0.2,0.4,0.4,0.5,0.6s0.2,0.5,0.2,0.8c0,0.4-0.1,0.8-0.4,1c-0.3,0.2-0.6,0.3-1.1,0.3C114.5,50.7,114.1,50.6,113.9,50.3z"/>
	<path fill="#7EBAE3" d="M116.9,51.4c0.2-0.1,0.3-0.1,0.4-0.3c0.1-0.1,0.1-0.3,0.1-0.5H117v-1h1v1c0,0.3-0.1,0.6-0.2,0.8
		c-0.1,0.2-0.4,0.3-0.6,0.4L116.9,51.4z"/>
	<path fill="#7EBAE3" d="M120.9,43.3h1v7.3h-1V43.3z"/>
	<path fill="#7EBAE3" d="M125.3,50.2c-0.2-0.3-0.3-0.9-0.3-1.6v-1c0-0.7,0.1-1.2,0.3-1.6c0.2-0.4,0.5-0.6,1-0.6
		c0.3,0,0.6,0.1,0.9,0.4v-2.4h1v7.3h-1v-0.3c-0.3,0.3-0.5,0.4-0.8,0.4C125.9,50.7,125.5,50.5,125.3,50.2z M127.1,49.7v-3.4
		c-0.2-0.2-0.4-0.2-0.6-0.2c-0.4,0-0.6,0.4-0.6,1.1v1.5c0,0.4,0,0.7,0.1,1c0.1,0.2,0.2,0.3,0.5,0.3
		C126.7,49.9,126.9,49.9,127.1,49.7z"/>
	<path fill="#7EBAE3" d="M129.3,50.2c-0.2-0.3-0.3-0.8-0.3-1.4v-1.5c0-0.6,0.1-1.1,0.3-1.4c0.2-0.3,0.6-0.5,1.2-0.5
		c0.5,0,0.9,0.2,1.2,0.5c0.2,0.3,0.3,0.8,0.3,1.4v1.5c0,0.6-0.1,1.1-0.3,1.4c-0.2,0.3-0.6,0.5-1.2,0.5
		C130,50.7,129.6,50.5,129.3,50.2z M130.9,49.8c0.1-0.1,0.1-0.2,0.1-0.4c0-0.2,0-0.4,0-0.6v-1.6c0-0.3,0-0.5,0-0.6
		c0-0.2-0.1-0.3-0.1-0.4s-0.2-0.2-0.4-0.2s-0.3,0.1-0.4,0.2s-0.1,0.2-0.1,0.4c0,0.2,0,0.4,0,0.6v1.6c0,0.3,0,0.5,0,0.6
		c0,0.1,0.1,0.3,0.1,0.4c0.1,0.1,0.2,0.2,0.4,0.2S130.8,49.9,130.9,49.8z"/>
	<path fill="#7EBAE3" d="M132.9,45.4h1v0.5c0.4-0.4,0.8-0.6,1.3-0.6c0.3,0,0.5,0.1,0.6,0.3c0.1,0.2,0.2,0.5,0.2,0.8v4.2h-1v-3.9
		c0-0.2,0-0.3-0.1-0.4c-0.1-0.1-0.2-0.1-0.3-0.1c-0.2,0-0.4,0.1-0.7,0.3v4.2h-1V45.4z"/>
	<path fill="#7EBAE3" d="M136.9,45.3c0.2,0,0.3-0.1,0.4-0.3c0.1-0.2,0.1-0.4,0.1-0.8h-0.5v-1h1.1v0.9c0,0.5-0.1,0.9-0.2,1.1
		c-0.1,0.3-0.4,0.4-0.7,0.4L136.9,45.3z"/>
	<path fill="#7EBAE3" d="M139,49.4V46h-0.5v-0.6h0.5v-1.5h1v1.5h0.8V46H140v3.3c0,0.2,0,0.4,0.1,0.4c0.1,0.1,0.2,0.1,0.4,0.1
		c0.1,0,0.2,0,0.4,0v0.7c-0.2,0-0.5,0.1-0.7,0.1C139.4,50.7,139,50.3,139,49.4z"/>
	<path fill="#7EBAE3" d="M143.3,45.4h0.8l0.5,3.8l0.7-3.8h0.7l0.7,3.8l0.5-3.8h0.8l-0.9,5.2h-0.8l-0.7-3.7l-0.7,3.7h-0.9L143.3,45.4
		z"/>
	<path fill="#7EBAE3" d="M149.3,50.5c-0.2-0.1-0.3-0.3-0.4-0.4c-0.1-0.2-0.1-0.4-0.1-0.6c0-0.4,0.1-0.7,0.3-1s0.4-0.5,0.7-0.6
		c0.3-0.1,0.6-0.3,1.1-0.5V47c0-0.3,0-0.6-0.1-0.7c-0.1-0.1-0.2-0.2-0.4-0.2c-0.4,0-0.5,0.2-0.5,0.7v0.3l-1,0c0-0.6,0.1-1,0.4-1.3
		c0.3-0.3,0.6-0.4,1.2-0.4c0.5,0,0.9,0.1,1.1,0.4c0.2,0.3,0.3,0.7,0.3,1.2v2.4c0,0.4,0,0.8,0.1,1.3H151c-0.1-0.3-0.1-0.6-0.1-0.8
		c-0.1,0.2-0.2,0.4-0.4,0.6s-0.4,0.2-0.7,0.2C149.6,50.7,149.4,50.6,149.3,50.5z M150.5,49.7c0.1-0.1,0.2-0.2,0.3-0.3v-1.5
		c-0.3,0.1-0.5,0.3-0.6,0.4c-0.1,0.1-0.3,0.2-0.4,0.4c-0.1,0.1-0.1,0.3-0.1,0.5c0,0.2,0,0.4,0.1,0.5s0.2,0.2,0.3,0.2
		C150.3,49.9,150.4,49.8,150.5,49.7z"/>
	<path fill="#7EBAE3" d="M152.7,45.4h1v0.5c0.4-0.4,0.8-0.6,1.3-0.6c0.3,0,0.5,0.1,0.6,0.3c0.1,0.2,0.2,0.5,0.2,0.8v4.2h-1v-3.9
		c0-0.2,0-0.3-0.1-0.4c-0.1-0.1-0.2-0.1-0.3-0.1c-0.2,0-0.4,0.1-0.7,0.3v4.2h-1V45.4z"/>
	<path fill="#7EBAE3" d="M156.9,49.4V46h-0.5v-0.6h0.5v-1.5h1v1.5h0.8V46h-0.8v3.3c0,0.2,0,0.4,0.1,0.4c0.1,0.1,0.2,0.1,0.4,0.1
		c0.1,0,0.2,0,0.4,0v0.7c-0.2,0-0.5,0.1-0.7,0.1C157.3,50.7,156.9,50.3,156.9,49.4z"/>
	<path fill="#7EBAE3" d="M161.7,49.4V46h-0.5v-0.6h0.5v-1.5h1v1.5h0.8V46h-0.8v3.3c0,0.2,0,0.4,0.1,0.4c0.1,0.1,0.2,0.1,0.4,0.1
		c0.1,0,0.2,0,0.4,0v0.7c-0.2,0-0.5,0.1-0.7,0.1C162.1,50.7,161.7,50.3,161.7,49.4z"/>
	<path fill="#7EBAE3" d="M164.3,43.3h1V46c0.4-0.4,0.9-0.6,1.3-0.6c0.3,0,0.5,0.1,0.6,0.3c0.1,0.2,0.2,0.5,0.2,0.8v4.2h-1v-3.9
		c0-0.2,0-0.3-0.1-0.4s-0.2-0.1-0.3-0.1c-0.2,0-0.4,0.1-0.7,0.3v4.2h-1V43.3z"/>
	<path fill="#7EBAE3" d="M168.3,43.6h1v1h-1V43.6z M168.3,45.4h1v5.2h-1V45.4z"/>
	<path fill="#7EBAE3" d="M170.5,50.3c-0.3-0.3-0.4-0.6-0.4-1.1l0.8-0.2c0,0.3,0.1,0.6,0.2,0.7c0.1,0.2,0.3,0.2,0.5,0.2
		c0.2,0,0.3,0,0.4-0.1c0.1-0.1,0.1-0.2,0.1-0.4c0-0.1,0-0.3-0.1-0.4c-0.1-0.1-0.2-0.2-0.3-0.4l-0.9-0.8c-0.2-0.2-0.4-0.4-0.5-0.6
		c-0.1-0.2-0.2-0.4-0.2-0.7c0-0.4,0.1-0.7,0.4-0.9c0.2-0.2,0.6-0.3,1-0.3c0.4,0,0.7,0.1,0.9,0.4c0.2,0.3,0.4,0.6,0.4,1l-0.6,0.2
		c0-0.3-0.1-0.5-0.2-0.7c-0.1-0.2-0.2-0.2-0.4-0.2c-0.2,0-0.3,0.1-0.4,0.2s-0.1,0.2-0.1,0.4c0,0.2,0.1,0.4,0.3,0.5l0.9,0.8
		c0.2,0.2,0.4,0.4,0.5,0.6s0.2,0.5,0.2,0.8c0,0.4-0.1,0.8-0.4,1c-0.3,0.2-0.6,0.3-1.1,0.3C171.1,50.7,170.8,50.6,170.5,50.3z"/>
</g>
<g>
	<rect x="95.5" y="30.5" fill="none" stroke="#7EBAE3" stroke-miterlimit="10" width="10" height="9"/>
	<rect x="109.5" y="30.5" fill="none" stroke="#7EBAE3" stroke-miterlimit="10" width="9" height="9"/>
	<rect x="123.5" y="30.5" fill="none" stroke="#7EBAE3" stroke-miterlimit="10" width="9" height="9"/>
	<rect x="137.5" y="30.5" fill="none" stroke="#7EBAE3" stroke-miterlimit="10" width="9" height="9"/>
	<rect x="150.5" y="30.5" fill="none" stroke="#7EBAE3" stroke-miterlimit="10" width="10" height="9"/>
</g>
</svg>
