<?xml version="1.0" encoding="utf-8"?>
<!-- Generator: Adobe Illustrator 15.0.0, SVG Export Plug-In . SVG Version: 6.00 Build 0)  -->
<!DOCTYPE svg PUBLIC "-//W3C//DTD SVG 1.1//EN" "http://www.w3.org/Graphics/SVG/1.1/DTD/svg11.dtd" [
	<!ENTITY ns_flows "http://ns.adobe.com/Flows/1.0/">
	<!ENTITY ns_extend "http://ns.adobe.com/Extensibility/1.0/">
	<!ENTITY ns_ai "http://ns.adobe.com/AdobeIllustrator/10.0/">
	<!ENTITY ns_graphs "http://ns.adobe.com/Graphs/1.0/">
]>
<svg version="1.1" id="Layer_1" xmlns:x="&ns_extend;" xmlns:i="&ns_ai;" xmlns:graph="&ns_graphs;"
	 xmlns="http://www.w3.org/2000/svg" xmlns:xlink="http://www.w3.org/1999/xlink" xmlns:a="http://ns.adobe.com/AdobeSVGViewerExtensions/3.0/"
	 x="0px" y="0px" width="256px" height="57px" viewBox="0 0 256 57" enable-background="new 0 0 256 57" xml:space="preserve">
<rect x="0.5" y="0.5" fill="#FFFFFF" stroke="#B3E4FF" stroke-miterlimit="10" width="255" height="56"/>
<rect x="134" y="5" fill="#7EBAE3" width="105" height="20"/>
<g>
	<path fill="#FFFFFF" d="M143.3,15.7l-1.7-5.2h1l1.2,3.9l1.2-3.9h1l-1.7,5.2v2.9h-1V15.7z"/>
	<path fill="#FFFFFF" d="M147,18.4c-0.2-0.2-0.4-0.4-0.5-0.8c-0.1-0.3-0.1-0.8-0.1-1.3V15c0-0.8,0.1-1.4,0.4-1.8
		c0.2-0.4,0.7-0.6,1.3-0.6c0.4,0,0.8,0.1,1,0.3c0.2,0.2,0.4,0.5,0.5,0.8c0.1,0.4,0.1,0.8,0.1,1.4v0.5h-2.2v1.2c0,0.4,0,0.6,0.1,0.8
		s0.3,0.2,0.5,0.2c0.2,0,0.4-0.1,0.4-0.2c0.1-0.2,0.1-0.4,0.1-0.7v-0.3h1v0.2c0,0.6-0.1,1.1-0.4,1.4c-0.3,0.3-0.6,0.5-1.2,0.5
		C147.6,18.7,147.2,18.6,147,18.4z M148.6,15.1v-0.5c0-0.4,0-0.7-0.1-0.8c-0.1-0.2-0.2-0.3-0.5-0.3c-0.2,0-0.3,0-0.4,0.1
		c-0.1,0.1-0.1,0.2-0.2,0.4c0,0.2,0,0.4,0,0.8v0.3H148.6z"/>
	<path fill="#FFFFFF" d="M150.7,18.2c-0.3-0.3-0.4-0.7-0.5-1.2l0.9-0.3c0.1,0.4,0.1,0.6,0.3,0.8s0.3,0.3,0.5,0.3
		c0.2,0,0.3-0.1,0.4-0.2c0.1-0.1,0.1-0.3,0.1-0.4c0-0.2,0-0.3-0.1-0.5s-0.2-0.3-0.3-0.4l-1-0.8c-0.2-0.2-0.4-0.4-0.5-0.6
		c-0.1-0.2-0.2-0.5-0.2-0.8c0-0.4,0.1-0.8,0.4-1s0.6-0.4,1-0.4c0.4,0,0.8,0.1,1,0.4c0.2,0.3,0.4,0.6,0.4,1.1l-0.7,0.3
		c0-0.3-0.1-0.6-0.2-0.7s-0.3-0.3-0.5-0.3c-0.2,0-0.3,0.1-0.4,0.2s-0.1,0.3-0.1,0.4c0,0.2,0.1,0.4,0.3,0.6l1,0.9
		c0.3,0.2,0.4,0.5,0.6,0.7c0.1,0.2,0.2,0.5,0.2,0.9c0,0.5-0.1,0.8-0.4,1.1c-0.3,0.3-0.7,0.4-1.1,0.4C151.3,18.7,151,18.5,150.7,18.2
		z"/>
	<path fill="#FFFFFF" d="M154.1,10.5h1l-0.3,6.4h-0.4L154.1,10.5z M154.1,17.5h1v1.1h-1V17.5z"/>
	<path fill="#FFFFFF" d="M159.6,10.5h1l1.7,8.1h-1l-0.4-2h-1.6l-0.4,2h-1L159.6,10.5z M160.8,15.7l-0.7-3.6l-0.6,3.6H160.8z"/>
	<path fill="#FFFFFF" d="M163.3,18.1c-0.2-0.4-0.3-1-0.3-1.8v-1.1c0-0.8,0.1-1.4,0.3-1.8c0.2-0.4,0.6-0.7,1.1-0.7
		c0.3,0,0.6,0.1,0.9,0.4v-2.7h1v8.1h-1v-0.4c-0.3,0.3-0.6,0.5-0.9,0.5C163.8,18.7,163.5,18.5,163.3,18.1z M165.2,17.6v-3.8
		c-0.2-0.2-0.5-0.3-0.7-0.3c-0.4,0-0.6,0.4-0.6,1.2v1.6c0,0.5,0,0.8,0.1,1.1c0.1,0.2,0.3,0.4,0.5,0.4
		C164.8,17.8,165,17.8,165.2,17.6z"/>
	<path fill="#FFFFFF" d="M167.5,18.1c-0.2-0.4-0.3-1-0.3-1.8v-1.1c0-0.8,0.1-1.4,0.3-1.8c0.2-0.4,0.6-0.7,1.1-0.7
		c0.3,0,0.6,0.1,0.9,0.4v-2.7h1v8.1h-1v-0.4c-0.3,0.3-0.6,0.5-0.9,0.5C168.1,18.7,167.7,18.5,167.5,18.1z M169.5,17.6v-3.8
		c-0.2-0.2-0.5-0.3-0.7-0.3c-0.4,0-0.6,0.4-0.6,1.2v1.6c0,0.5,0,0.8,0.1,1.1c0.1,0.2,0.3,0.4,0.5,0.4
		C169,17.8,169.2,17.8,169.5,17.6z"/>
	<path fill="#FFFFFF" d="M174.7,11.3h-1.3v-0.8h3.7v0.8h-1.3v7.3h-1.1V11.3z"/>
	<path fill="#FFFFFF" d="M177.7,10.5h1v2.9c0.5-0.5,0.9-0.7,1.4-0.7c0.3,0,0.5,0.1,0.6,0.3s0.2,0.5,0.2,0.8v4.7h-1v-4.4
		c0-0.2,0-0.4-0.1-0.5c-0.1-0.1-0.2-0.2-0.3-0.2c-0.2,0-0.5,0.1-0.8,0.4v4.6h-1V10.5z"/>
	<path fill="#FFFFFF" d="M182.1,10.8h1V12h-1V10.8z M182.1,12.8h1v5.8h-1V12.8z"/>
	<path fill="#FFFFFF" d="M184.4,18.2c-0.3-0.3-0.4-0.7-0.5-1.2l0.9-0.3c0.1,0.4,0.1,0.6,0.3,0.8s0.3,0.3,0.5,0.3
		c0.2,0,0.3-0.1,0.4-0.2c0.1-0.1,0.1-0.3,0.1-0.4c0-0.2,0-0.3-0.1-0.5s-0.2-0.3-0.3-0.4l-1-0.8c-0.2-0.2-0.4-0.4-0.5-0.6
		c-0.1-0.2-0.2-0.5-0.2-0.8c0-0.4,0.1-0.8,0.4-1s0.6-0.4,1-0.4c0.4,0,0.8,0.1,1,0.4c0.2,0.3,0.4,0.6,0.4,1.1l-0.7,0.3
		c0-0.3-0.1-0.6-0.2-0.7s-0.3-0.3-0.5-0.3c-0.2,0-0.3,0.1-0.4,0.2s-0.1,0.3-0.1,0.4c0,0.2,0.1,0.4,0.3,0.6l1,0.9
		c0.3,0.2,0.4,0.5,0.6,0.7c0.1,0.2,0.2,0.5,0.2,0.9c0,0.5-0.1,0.8-0.4,1.1c-0.3,0.3-0.7,0.4-1.1,0.4C185,18.7,184.7,18.5,184.4,18.2
		z"/>
	<path fill="#FFFFFF" d="M190.9,11.3h-1.3v-0.8h3.7v0.8H192v7.3h-1.1V11.3z"/>
	<path fill="#FFFFFF" d="M194.1,18.1c-0.2-0.4-0.4-0.9-0.4-1.6v-1.7c0-0.7,0.1-1.2,0.4-1.6c0.2-0.4,0.7-0.5,1.3-0.5
		c0.6,0,1,0.2,1.2,0.5s0.4,0.9,0.4,1.6v1.7c0,0.7-0.1,1.2-0.4,1.6s-0.7,0.5-1.2,0.5C194.8,18.7,194.4,18.5,194.1,18.1z M195.8,17.7
		c0.1-0.1,0.1-0.3,0.2-0.4c0-0.2,0-0.4,0-0.7v-1.8c0-0.3,0-0.5,0-0.7s-0.1-0.3-0.2-0.4c-0.1-0.1-0.2-0.2-0.4-0.2
		c-0.2,0-0.3,0.1-0.4,0.2c-0.1,0.1-0.1,0.3-0.2,0.4c0,0.2,0,0.4,0,0.7v1.8c0,0.3,0,0.5,0,0.7c0,0.2,0.1,0.3,0.2,0.4
		c0.1,0.1,0.2,0.2,0.4,0.2C195.6,17.9,195.7,17.8,195.8,17.7z"/>
	<path fill="#FFFFFF" d="M200.3,10.5h1.1l1.4,6.6l1.4-6.6h1.1l0.1,8.1h-0.9l-0.1-5.9l-1.3,5.9h-0.6l-1.3-5.9l-0.1,5.9h-0.9
		L200.3,10.5z"/>
	<path fill="#FFFFFF" d="M206.4,19.2c0.4,0,0.6,0,0.8-0.1c0.1-0.1,0.2-0.2,0.2-0.3c0-0.1-0.1-0.4-0.2-1.1l-1.1-4.9h1l0.8,4.3
		l0.7-4.3h1l-1.3,6.1c-0.1,0.4-0.3,0.7-0.6,0.9c-0.3,0.2-0.7,0.3-1.2,0.3h-0.1V19.2z"/>
	<path fill="#FFFFFF" d="M212.9,18c-0.3-0.5-0.5-1.1-0.5-2V13c0-0.8,0.2-1.5,0.5-1.9c0.3-0.4,0.9-0.6,1.6-0.6s1.3,0.2,1.6,0.7
		c0.3,0.4,0.5,1.1,0.5,1.9v3.1c0,0.8-0.2,1.5-0.5,1.9c-0.3,0.5-0.9,0.7-1.6,0.7C213.8,18.7,213.2,18.5,212.9,18z M215.4,17.4
		c0.1-0.2,0.2-0.6,0.2-1.1v-3.5c0-0.5-0.1-0.9-0.2-1.1c-0.1-0.2-0.4-0.4-0.8-0.4c-0.4,0-0.7,0.1-0.8,0.4c-0.1,0.2-0.2,0.6-0.2,1.1
		v3.5c0,0.5,0.1,0.9,0.2,1.1s0.4,0.4,0.8,0.4C214.9,17.8,215.2,17.7,215.4,17.4z"/>
	<path fill="#FFFFFF" d="M217.7,12.8h1v0.8c0.2-0.3,0.4-0.6,0.6-0.7s0.4-0.2,0.6-0.2c0.1,0,0.1,0,0.2,0v1.2
		c-0.2-0.1-0.4-0.1-0.6-0.1c-0.2,0-0.3,0-0.4,0.1c-0.1,0.1-0.3,0.2-0.4,0.4v4.2h-1V12.8z"/>
	<path fill="#FFFFFF" d="M221,18.1c-0.2-0.4-0.3-1-0.3-1.8v-1.1c0-0.8,0.1-1.4,0.3-1.8c0.2-0.4,0.6-0.7,1.1-0.7
		c0.3,0,0.6,0.1,0.9,0.4v-2.7h1v8.1h-1v-0.4c-0.3,0.3-0.6,0.5-0.9,0.5C221.5,18.7,221.2,18.5,221,18.1z M222.9,17.6v-3.8
		c-0.2-0.2-0.5-0.3-0.7-0.3c-0.4,0-0.6,0.4-0.6,1.2v1.6c0,0.5,0,0.8,0.1,1.1c0.1,0.2,0.3,0.4,0.5,0.4
		C222.5,17.8,222.7,17.8,222.9,17.6z"/>
	<path fill="#FFFFFF" d="M225.5,18.4c-0.2-0.2-0.4-0.4-0.5-0.8c-0.1-0.3-0.1-0.8-0.1-1.3V15c0-0.8,0.1-1.4,0.4-1.8
		c0.2-0.4,0.7-0.6,1.3-0.6c0.4,0,0.8,0.1,1,0.3c0.2,0.2,0.4,0.5,0.5,0.8c0.1,0.4,0.1,0.8,0.1,1.4v0.5h-2.2v1.2c0,0.4,0,0.6,0.1,0.8
		s0.3,0.2,0.5,0.2c0.2,0,0.4-0.1,0.4-0.2c0.1-0.2,0.1-0.4,0.1-0.7v-0.3h1v0.2c0,0.6-0.1,1.1-0.4,1.4c-0.3,0.3-0.6,0.5-1.2,0.5
		C226.1,18.7,225.8,18.6,225.5,18.4z M227.1,15.1v-0.5c0-0.4,0-0.7-0.1-0.8c-0.1-0.2-0.2-0.3-0.5-0.3c-0.2,0-0.3,0-0.4,0.1
		c-0.1,0.1-0.1,0.2-0.2,0.4c0,0.2,0,0.4,0,0.8v0.3H227.1z"/>
	<path fill="#FFFFFF" d="M229.1,12.8h1v0.8c0.2-0.3,0.4-0.6,0.6-0.7s0.4-0.2,0.6-0.2c0.1,0,0.1,0,0.2,0v1.2
		c-0.2-0.1-0.4-0.1-0.6-0.1c-0.2,0-0.3,0-0.4,0.1c-0.1,0.1-0.3,0.2-0.4,0.4v4.2h-1V12.8z"/>
</g>
<rect x="17" y="5" fill="#B3E4FF" width="107" height="20"/>
<g>
	<path fill="#FFFFFF" d="M23.1,10.5h0.7l2.2,5.4v-5.4H27v8.1h-0.7L24,13.1v5.5h-0.9V10.5z"/>
	<path fill="#FFFFFF" d="M28.4,18.1c-0.2-0.4-0.4-0.9-0.4-1.6v-1.7c0-0.7,0.1-1.2,0.4-1.6c0.2-0.4,0.7-0.5,1.3-0.5
		c0.6,0,1,0.2,1.2,0.5s0.4,0.9,0.4,1.6v1.7c0,0.7-0.1,1.2-0.4,1.6s-0.7,0.5-1.2,0.5C29,18.7,28.6,18.5,28.4,18.1z M30,17.7
		c0.1-0.1,0.1-0.3,0.2-0.4c0-0.2,0-0.4,0-0.7v-1.8c0-0.3,0-0.5,0-0.7s-0.1-0.3-0.2-0.4c-0.1-0.1-0.2-0.2-0.4-0.2
		c-0.2,0-0.3,0.1-0.4,0.2c-0.1,0.1-0.1,0.3-0.2,0.4c0,0.2,0,0.4,0,0.7v1.8c0,0.3,0,0.5,0,0.7c0,0.2,0.1,0.3,0.2,0.4
		c0.1,0.1,0.2,0.2,0.4,0.2C29.8,17.9,29.9,17.8,30,17.7z"/>
	<path fill="#FFFFFF" d="M35.3,11.3H34v-0.8h3.7v0.8h-1.3v7.3h-1.1V11.3z"/>
	<path fill="#FFFFFF" d="M38.4,10.5h1v2.9c0.5-0.5,0.9-0.7,1.4-0.7c0.3,0,0.5,0.1,0.6,0.3s0.2,0.5,0.2,0.8v4.7h-1v-4.4
		c0-0.2,0-0.4-0.1-0.5c-0.1-0.1-0.2-0.2-0.3-0.2c-0.2,0-0.5,0.1-0.8,0.4v4.6h-1V10.5z"/>
	<path fill="#FFFFFF" d="M43.1,18.5c-0.2-0.1-0.3-0.3-0.4-0.5c-0.1-0.2-0.1-0.4-0.1-0.6c0-0.5,0.1-0.8,0.3-1.1
		c0.2-0.3,0.4-0.5,0.7-0.7c0.3-0.2,0.7-0.4,1.2-0.6v-0.4c0-0.4,0-0.6-0.1-0.8c-0.1-0.2-0.2-0.2-0.4-0.2c-0.4,0-0.6,0.3-0.6,0.8v0.3
		l-1,0c0-0.6,0.2-1.1,0.4-1.4c0.3-0.3,0.7-0.5,1.3-0.5c0.5,0,0.9,0.2,1.2,0.5c0.2,0.3,0.4,0.8,0.4,1.4v2.6c0,0.4,0,0.9,0.1,1.4h-0.9
		c-0.1-0.4-0.1-0.7-0.1-0.9c-0.1,0.3-0.2,0.5-0.4,0.7c-0.2,0.2-0.4,0.3-0.7,0.3C43.4,18.7,43.2,18.6,43.1,18.5z M44.4,17.6
		c0.1-0.1,0.2-0.2,0.3-0.3v-1.6c-0.3,0.2-0.5,0.3-0.6,0.4s-0.3,0.3-0.4,0.4c-0.1,0.2-0.1,0.3-0.1,0.6c0,0.2,0,0.4,0.1,0.6
		c0.1,0.1,0.2,0.2,0.4,0.2C44.2,17.8,44.3,17.7,44.4,17.6z"/>
	<path fill="#FFFFFF" d="M46.7,12.8h1v0.6c0.4-0.4,0.9-0.6,1.4-0.6c0.3,0,0.5,0.1,0.6,0.3s0.2,0.5,0.2,0.8v4.7h-1v-4.4
		c0-0.2,0-0.4-0.1-0.5c-0.1-0.1-0.2-0.2-0.3-0.2c-0.2,0-0.4,0.1-0.7,0.4v4.7h-1V12.8z"/>
	<path fill="#FFFFFF" d="M51,10.5h1v4.8l1.5-2.5h1.1l-1.3,2.3l1.3,3.5h-1l-1-3L52,16.4v2.2h-1V10.5z"/>
	<path fill="#FFFFFF" d="M55.3,18.2c-0.3-0.3-0.4-0.7-0.5-1.2l0.9-0.3c0.1,0.4,0.1,0.6,0.3,0.8s0.3,0.3,0.5,0.3
		c0.2,0,0.3-0.1,0.4-0.2c0.1-0.1,0.1-0.3,0.1-0.4c0-0.2,0-0.3-0.1-0.5s-0.2-0.3-0.3-0.4l-1-0.8c-0.2-0.2-0.4-0.4-0.5-0.6
		c-0.1-0.2-0.2-0.5-0.2-0.8c0-0.4,0.1-0.8,0.4-1s0.6-0.4,1-0.4c0.4,0,0.8,0.1,1,0.4c0.2,0.3,0.4,0.6,0.4,1.1l-0.7,0.3
		c0-0.3-0.1-0.6-0.2-0.7s-0.3-0.3-0.5-0.3c-0.2,0-0.3,0.1-0.4,0.2s-0.1,0.3-0.1,0.4c0,0.2,0.1,0.4,0.3,0.6l1,0.9
		c0.3,0.2,0.4,0.5,0.6,0.7c0.1,0.2,0.2,0.5,0.2,0.9c0,0.5-0.1,0.8-0.4,1.1c-0.3,0.3-0.7,0.4-1.1,0.4C55.9,18.7,55.6,18.5,55.3,18.2z
		"/>
	<path fill="#FFFFFF" d="M58.5,19.4c0.2-0.1,0.3-0.2,0.4-0.3c0.1-0.2,0.1-0.3,0.1-0.5h-0.5v-1.1h1.1v1.1c0,0.4-0.1,0.6-0.2,0.8
		c-0.1,0.2-0.4,0.4-0.7,0.5L58.5,19.4z"/>
	<path fill="#FFFFFF" d="M62.8,10.5h1.1v8.1h-1.1V10.5z"/>
	<path fill="#FFFFFF" d="M67.5,18.1c-0.2-0.4-0.3-1-0.3-1.8v-1.1c0-0.8,0.1-1.4,0.3-1.8c0.2-0.4,0.6-0.7,1.1-0.7
		c0.3,0,0.6,0.1,0.9,0.4v-2.7h1v8.1h-1v-0.4c-0.3,0.3-0.6,0.5-0.9,0.5C68.1,18.7,67.7,18.5,67.5,18.1z M69.5,17.6v-3.8
		c-0.2-0.2-0.5-0.3-0.7-0.3c-0.4,0-0.6,0.4-0.6,1.2v1.6c0,0.5,0,0.8,0.1,1.1c0.1,0.2,0.3,0.4,0.5,0.4C69,17.8,69.2,17.8,69.5,17.6z"
		/>
	<path fill="#FFFFFF" d="M71.8,18.1c-0.2-0.4-0.4-0.9-0.4-1.6v-1.7c0-0.7,0.1-1.2,0.4-1.6c0.2-0.4,0.7-0.5,1.3-0.5
		c0.6,0,1,0.2,1.2,0.5s0.4,0.9,0.4,1.6v1.7c0,0.7-0.1,1.2-0.4,1.6s-0.7,0.5-1.2,0.5C72.5,18.7,72,18.5,71.8,18.1z M73.5,17.7
		c0.1-0.1,0.1-0.3,0.2-0.4c0-0.2,0-0.4,0-0.7v-1.8c0-0.3,0-0.5,0-0.7s-0.1-0.3-0.2-0.4c-0.1-0.1-0.2-0.2-0.4-0.2
		c-0.2,0-0.3,0.1-0.4,0.2c-0.1,0.1-0.1,0.3-0.2,0.4c0,0.2,0,0.4,0,0.7v1.8c0,0.3,0,0.5,0,0.7c0,0.2,0.1,0.3,0.2,0.4
		c0.1,0.1,0.2,0.2,0.4,0.2C73.2,17.9,73.4,17.8,73.5,17.7z"/>
	<path fill="#FFFFFF" d="M75.6,12.8h1v0.6c0.4-0.4,0.9-0.6,1.4-0.6c0.3,0,0.5,0.1,0.6,0.3s0.2,0.5,0.2,0.8v4.7h-1v-4.4
		c0-0.2,0-0.4-0.1-0.5c-0.1-0.1-0.2-0.2-0.3-0.2c-0.2,0-0.4,0.1-0.7,0.4v4.7h-1V12.8z"/>
	<path fill="#FFFFFF" d="M79.9,12.7c0.2,0,0.3-0.1,0.4-0.3c0.1-0.2,0.1-0.5,0.1-0.8h-0.5v-1.1H81v1c0,0.5-0.1,0.9-0.2,1.2
		c-0.1,0.3-0.4,0.4-0.7,0.4L79.9,12.7z"/>
	<path fill="#FFFFFF" d="M82.1,17.3v-3.8h-0.6v-0.7h0.6v-1.7h1v1.7H84v0.7h-0.9v3.7c0,0.2,0,0.4,0.1,0.5c0.1,0.1,0.2,0.1,0.4,0.1
		c0.1,0,0.3,0,0.4,0v0.8c-0.3,0-0.5,0.1-0.7,0.1C82.5,18.7,82.1,18.2,82.1,17.3z"/>
	<path fill="#FFFFFF" d="M86.7,12.8h0.8l0.6,4.3l0.7-4.3h0.8l0.7,4.2l0.6-4.2h0.8l-0.9,5.8h-0.9l-0.8-4.1l-0.8,4.1h-0.9L86.7,12.8z"
		/>
	<path fill="#FFFFFF" d="M93.1,18.5c-0.2-0.1-0.3-0.3-0.4-0.5c-0.1-0.2-0.1-0.4-0.1-0.6c0-0.5,0.1-0.8,0.3-1.1
		c0.2-0.3,0.4-0.5,0.7-0.7c0.3-0.2,0.7-0.4,1.2-0.6v-0.4c0-0.4,0-0.6-0.1-0.8c-0.1-0.2-0.2-0.2-0.4-0.2c-0.4,0-0.6,0.3-0.6,0.8v0.3
		l-1,0c0-0.6,0.2-1.1,0.4-1.4c0.3-0.3,0.7-0.5,1.3-0.5c0.5,0,0.9,0.2,1.2,0.5c0.2,0.3,0.4,0.8,0.4,1.4v2.6c0,0.4,0,0.9,0.1,1.4h-0.9
		c-0.1-0.4-0.1-0.7-0.1-0.9c-0.1,0.3-0.2,0.5-0.4,0.7c-0.2,0.2-0.4,0.3-0.7,0.3C93.4,18.7,93.2,18.6,93.1,18.5z M94.4,17.6
		c0.1-0.1,0.2-0.2,0.3-0.3v-1.6c-0.3,0.2-0.5,0.3-0.6,0.4s-0.3,0.3-0.4,0.4c-0.1,0.2-0.1,0.3-0.1,0.6c0,0.2,0,0.4,0.1,0.6
		c0.1,0.1,0.2,0.2,0.4,0.2C94.2,17.8,94.3,17.7,94.4,17.6z"/>
	<path fill="#FFFFFF" d="M96.7,12.8h1v0.6c0.4-0.4,0.9-0.6,1.4-0.6c0.3,0,0.5,0.1,0.6,0.3s0.2,0.5,0.2,0.8v4.7h-1v-4.4
		c0-0.2,0-0.4-0.1-0.5c-0.1-0.1-0.2-0.2-0.3-0.2c-0.2,0-0.4,0.1-0.7,0.4v4.7h-1V12.8z"/>
	<path fill="#FFFFFF" d="M101.2,17.3v-3.8h-0.6v-0.7h0.6v-1.7h1v1.7h0.9v0.7h-0.9v3.7c0,0.2,0,0.4,0.1,0.5c0.1,0.1,0.2,0.1,0.4,0.1
		c0.1,0,0.3,0,0.4,0v0.8c-0.3,0-0.5,0.1-0.7,0.1C101.6,18.7,101.2,18.2,101.2,17.3z"/>
	<path fill="#FFFFFF" d="M106.4,17.3v-3.8h-0.6v-0.7h0.6v-1.7h1v1.7h0.9v0.7h-0.9v3.7c0,0.2,0,0.4,0.1,0.5c0.1,0.1,0.2,0.1,0.4,0.1
		c0.1,0,0.3,0,0.4,0v0.8c-0.3,0-0.5,0.1-0.7,0.1C106.8,18.7,106.4,18.2,106.4,17.3z"/>
	<path fill="#FFFFFF" d="M109.1,10.5h1v2.9c0.5-0.5,0.9-0.7,1.4-0.7c0.3,0,0.5,0.1,0.6,0.3s0.2,0.5,0.2,0.8v4.7h-1v-4.4
		c0-0.2,0-0.4-0.1-0.5c-0.1-0.1-0.2-0.2-0.3-0.2c-0.2,0-0.5,0.1-0.8,0.4v4.6h-1V10.5z"/>
	<path fill="#FFFFFF" d="M113.4,10.8h1V12h-1V10.8z M113.4,12.8h1v5.8h-1V12.8z"/>
	<path fill="#FFFFFF" d="M115.8,18.2c-0.3-0.3-0.4-0.7-0.5-1.2l0.9-0.3c0.1,0.4,0.1,0.6,0.3,0.8s0.3,0.3,0.5,0.3
		c0.2,0,0.3-0.1,0.4-0.2c0.1-0.1,0.1-0.3,0.1-0.4c0-0.2,0-0.3-0.1-0.5s-0.2-0.3-0.3-0.4l-1-0.8c-0.2-0.2-0.4-0.4-0.5-0.6
		c-0.1-0.2-0.2-0.5-0.2-0.8c0-0.4,0.1-0.8,0.4-1s0.6-0.4,1-0.4c0.4,0,0.8,0.1,1,0.4c0.2,0.3,0.4,0.6,0.4,1.1l-0.7,0.3
		c0-0.3-0.1-0.6-0.2-0.7s-0.3-0.3-0.5-0.3c-0.2,0-0.3,0.1-0.4,0.2s-0.1,0.3-0.1,0.4c0,0.2,0.1,0.4,0.3,0.6l1,0.9
		c0.3,0.2,0.4,0.5,0.6,0.7c0.1,0.2,0.2,0.5,0.2,0.9c0,0.5-0.1,0.8-0.4,1.1c-0.3,0.3-0.7,0.4-1.1,0.4
		C116.4,18.7,116.1,18.5,115.8,18.2z"/>
</g>
<g>
	<rect x="96.5" y="41.5" fill="none" stroke="#7EBAE3" stroke-miterlimit="10" width="10" height="9"/>
	<rect x="110.5" y="41.5" fill="none" stroke="#7EBAE3" stroke-miterlimit="10" width="9" height="9"/>
	<rect x="124.5" y="41.5" fill="none" stroke="#7EBAE3" stroke-miterlimit="10" width="9" height="9"/>
	<rect x="138.5" y="41.5" fill="none" stroke="#7EBAE3" stroke-miterlimit="10" width="9" height="9"/>
	<rect x="151.5" y="41.5" fill="none" stroke="#7EBAE3" stroke-miterlimit="10" width="10" height="9"/>
</g>
<line fill="none" stroke="#7EBAE3" stroke-miterlimit="10" x1="43" y1="30.5" x2="201" y2="30.5"/>
<line fill="none" stroke="#7EBAE3" stroke-miterlimit="10" x1="69" y1="36.5" x2="175" y2="36.5"/>
</svg>
