<?xml version="1.0" encoding="utf-8"?>
<!-- Generator: Adobe Illustrator 15.0.0, SVG Export Plug-In . SVG Version: 6.00 Build 0)  -->
<!DOCTYPE svg PUBLIC "-//W3C//DTD SVG 1.1//EN" "http://www.w3.org/Graphics/SVG/1.1/DTD/svg11.dtd" [
	<!ENTITY ns_flows "http://ns.adobe.com/Flows/1.0/">
	<!ENTITY ns_extend "http://ns.adobe.com/Extensibility/1.0/">
	<!ENTITY ns_ai "http://ns.adobe.com/AdobeIllustrator/10.0/">
	<!ENTITY ns_graphs "http://ns.adobe.com/Graphs/1.0/">
]>
<svg version="1.1" id="Layer_1" xmlns:x="&ns_extend;" xmlns:i="&ns_ai;" xmlns:graph="&ns_graphs;"
	 xmlns="http://www.w3.org/2000/svg" xmlns:xlink="http://www.w3.org/1999/xlink" xmlns:a="http://ns.adobe.com/AdobeSVGViewerExtensions/3.0/"
	 x="0px" y="0px" width="80px" height="60px" viewBox="0 0 80 60" enable-background="new 0 0 80 60" xml:space="preserve">
<line fill="#FFFFFF" x1="35" y1="6" x2="61" y2="6"/>
<rect x="0.5" y="0.5" fill="#FFFFFF" stroke="#B3E4FF" stroke-miterlimit="10" width="79" height="59"/>
<rect x="0.5" y="0.5" fill="#FFFFFF" stroke="#B3E4FF" stroke-miterlimit="10" width="79" height="59"/>
<rect x="3" y="12" fill="#7EBAE3" width="23" height="30"/>
<rect x="28" y="12" fill="#7EBAE3" width="24" height="30"/>
<rect x="55" y="12" fill="#7EBAE3" width="22" height="30"/>
<g>
	<path fill="#FFFFFF" d="M14.1,23.7c0,3.2-1.3,5-3.7,5C8.4,28.8,7,27,7,23.9c0-3.2,1.5-5,3.7-5C12.8,18.9,14.1,20.7,14.1,23.7z
		 M8.4,23.9c0,2.5,0.8,3.9,2.1,3.9c1.4,0,2.1-1.5,2.1-4c0-2.3-0.6-3.9-2.1-3.9C9.3,19.9,8.4,21.3,8.4,23.9z"/>
	<path fill="#FFFFFF" d="M22.4,23.7c0,3.2-1.3,5-3.7,5c-2.1,0-3.5-1.7-3.5-4.9c0-3.2,1.5-5,3.7-5C21.1,18.9,22.4,20.7,22.4,23.7z
		 M16.7,23.9c0,2.5,0.8,3.9,2.1,3.9c1.4,0,2.1-1.5,2.1-4c0-2.3-0.6-3.9-2.1-3.9C17.6,19.9,16.7,21.3,16.7,23.9z"/>
</g>
<g>
	<path fill="#FFFFFF" d="M11.5,32.4v1.7h2v-1.7H14v4h-0.5v-1.9h-2v1.9H11v-4H11.5z"/>
	<path fill="#FFFFFF" d="M15,34.5c0-0.3,0-0.6,0-0.9h0.5l0,0.6h0c0.1-0.4,0.5-0.6,0.8-0.6c0.1,0,0.1,0,0.1,0V34c-0.1,0-0.1,0-0.2,0
		c-0.4,0-0.6,0.3-0.7,0.7c0,0.1,0,0.2,0,0.2v1.5H15V34.5z"/>
	<path fill="#FFFFFF" d="M16.8,35.9c0.2,0.1,0.4,0.2,0.7,0.2c0.4,0,0.6-0.2,0.6-0.4c0-0.3-0.1-0.4-0.5-0.5c-0.5-0.2-0.8-0.5-0.8-0.8
		c0-0.5,0.4-0.9,1-0.9c0.3,0,0.6,0.1,0.7,0.2l-0.1,0.4c-0.1-0.1-0.3-0.2-0.6-0.2c-0.3,0-0.5,0.2-0.5,0.4c0,0.2,0.2,0.3,0.5,0.5
		c0.5,0.2,0.8,0.4,0.8,0.9c0,0.5-0.4,0.9-1.1,0.9c-0.3,0-0.6-0.1-0.8-0.2L16.8,35.9z"/>
</g>
<g>
	<path fill="#FFFFFF" d="M39.7,23.7c0,3.2-1.3,5-3.7,5c-2.1,0-3.5-1.7-3.5-4.9c0-3.2,1.5-5,3.7-5C38.4,18.9,39.7,20.7,39.7,23.7z
		 M34,23.9c0,2.5,0.8,3.9,2.1,3.9c1.4,0,2.1-1.5,2.1-4c0-2.3-0.6-3.9-2.1-3.9C34.9,19.9,34,21.3,34,23.9z"/>
	<path fill="#FFFFFF" d="M48,23.7c0,3.2-1.3,5-3.7,5c-2.1,0-3.5-1.7-3.5-4.9c0-3.2,1.5-5,3.7-5C46.7,18.9,48,20.7,48,23.7z
		 M42.3,23.9c0,2.5,0.8,3.9,2.1,3.9c1.4,0,2.1-1.5,2.1-4c0-2.3-0.6-3.9-2.1-3.9C43.2,19.9,42.3,21.3,42.3,23.9z"/>
</g>
<g>
	<path fill="#FFFFFF" d="M38,34.7c0-0.6-0.1-1.2-0.1-1.7h0c-0.1,0.5-0.3,1-0.5,1.5l-0.7,2h-0.4l-0.7-1.9c-0.2-0.6-0.3-1.1-0.5-1.6h0
		c0,0.5,0,1.2-0.1,1.8L35,36.5h-0.5l0.3-4h0.7l0.7,2c0.2,0.5,0.3,0.9,0.4,1.4h0c0.1-0.4,0.3-0.9,0.4-1.4l0.7-2h0.7l0.3,4h-0.5
		L38,34.7z"/>
	<path fill="#FFFFFF" d="M40,32.8c0,0.2-0.1,0.3-0.3,0.3c-0.2,0-0.3-0.1-0.3-0.3s0.1-0.3,0.3-0.3C39.9,32.4,40,32.6,40,32.8z
		 M39.4,36.5v-2.9H40v2.9H39.4z"/>
	<path fill="#FFFFFF" d="M40.9,34.4c0-0.3,0-0.5,0-0.8h0.5l0,0.5h0c0.1-0.3,0.5-0.5,1-0.5c0.4,0,1,0.2,1,1.2v1.7h-0.5v-1.7
		c0-0.5-0.2-0.9-0.7-0.9c-0.3,0-0.6,0.2-0.7,0.5c0,0.1,0,0.2,0,0.2v1.7h-0.5V34.4z"/>
	<path fill="#FFFFFF" d="M44.1,35.9c0.2,0.1,0.4,0.2,0.7,0.2c0.4,0,0.6-0.2,0.6-0.4c0-0.3-0.2-0.4-0.5-0.5c-0.5-0.2-0.8-0.5-0.8-0.8
		c0-0.5,0.4-0.9,1-0.9c0.3,0,0.6,0.1,0.7,0.2l-0.1,0.4c-0.1-0.1-0.3-0.2-0.6-0.2c-0.3,0-0.5,0.2-0.5,0.4c0,0.2,0.2,0.3,0.5,0.5
		c0.5,0.2,0.8,0.4,0.8,0.9c0,0.5-0.4,0.9-1.1,0.9c-0.3,0-0.6-0.1-0.8-0.2L44.1,35.9z"/>
</g>
<g>
	<path fill="#FFFFFF" d="M65.6,23.7c0,3.2-1.3,5-3.7,5c-2.1,0-3.5-1.7-3.5-4.9c0-3.2,1.5-5,3.7-5C64.3,18.9,65.6,20.7,65.6,23.7z
		 M59.9,23.9c0,2.5,0.8,3.9,2.1,3.9c1.4,0,2.1-1.5,2.1-4c0-2.3-0.6-3.9-2.1-3.9C60.8,19.9,59.9,21.3,59.9,23.9z"/>
	<path fill="#FFFFFF" d="M73.9,23.7c0,3.2-1.3,5-3.7,5c-2.1,0-3.5-1.7-3.5-4.9c0-3.2,1.5-5,3.7-5C72.6,18.9,73.9,20.7,73.9,23.7z
		 M68.2,23.9c0,2.5,0.8,3.9,2.1,3.9c1.4,0,2.1-1.5,2.1-4c0-2.3-0.6-3.9-2.1-3.9C69.1,19.9,68.2,21.3,68.2,23.9z"/>
</g>
<g>
	<path fill="#FFFFFF" d="M60.4,35.8c0.2,0.2,0.6,0.3,0.9,0.3c0.5,0,0.8-0.3,0.8-0.7c0-0.4-0.2-0.6-0.8-0.8c-0.7-0.2-1.1-0.6-1.1-1.2
		c0-0.6,0.5-1.1,1.3-1.1c0.4,0,0.7,0.1,0.9,0.2L62.4,33c-0.1-0.1-0.4-0.2-0.8-0.2c-0.6,0-0.8,0.3-0.8,0.6c0,0.4,0.2,0.6,0.8,0.8
		c0.7,0.3,1,0.6,1,1.2c0,0.6-0.5,1.2-1.4,1.2c-0.4,0-0.8-0.1-1-0.3L60.4,35.8z"/>
	<path fill="#FFFFFF" d="M63.7,35.1c0,0.7,0.5,1,1,1c0.4,0,0.6-0.1,0.8-0.2l0.1,0.4c-0.2,0.1-0.5,0.2-1,0.2c-0.9,0-1.4-0.6-1.4-1.5
		c0-0.9,0.5-1.6,1.4-1.6c1,0,1.2,0.8,1.2,1.4c0,0.1,0,0.2,0,0.2H63.7z M65.3,34.7c0-0.3-0.1-0.9-0.7-0.9c-0.5,0-0.8,0.5-0.8,0.9
		H65.3z"/>
	<path fill="#FFFFFF" d="M68.5,36.4c-0.1,0.1-0.4,0.2-0.8,0.2c-0.9,0-1.4-0.6-1.4-1.5c0-0.9,0.6-1.5,1.6-1.5c0.3,0,0.6,0.1,0.7,0.2
		l-0.1,0.4c-0.1-0.1-0.3-0.1-0.6-0.1c-0.7,0-1,0.5-1,1.1c0,0.7,0.4,1.1,1,1.1c0.3,0,0.5-0.1,0.6-0.1L68.5,36.4z"/>
	<path fill="#FFFFFF" d="M69.1,35.9c0.2,0.1,0.4,0.2,0.7,0.2c0.4,0,0.6-0.2,0.6-0.4c0-0.3-0.1-0.4-0.5-0.5C69.3,35,69,34.7,69,34.4
		c0-0.5,0.4-0.9,1-0.9c0.3,0,0.6,0.1,0.7,0.2l-0.1,0.4c-0.1-0.1-0.3-0.2-0.6-0.2c-0.3,0-0.5,0.2-0.5,0.4c0,0.2,0.2,0.3,0.5,0.5
		c0.5,0.2,0.8,0.4,0.8,0.9c0,0.5-0.4,0.9-1.1,0.9c-0.3,0-0.6-0.1-0.8-0.2L69.1,35.9z"/>
</g>
</svg>
