<?xml version="1.0" encoding="utf-8"?>
<!-- Generator: Adobe Illustrator 15.0.0, SVG Export Plug-In . SVG Version: 6.00 Build 0)  -->
<!DOCTYPE svg PUBLIC "-//W3C//DTD SVG 1.1//EN" "http://www.w3.org/Graphics/SVG/1.1/DTD/svg11.dtd" [
	<!ENTITY ns_flows "http://ns.adobe.com/Flows/1.0/">
	<!ENTITY ns_extend "http://ns.adobe.com/Extensibility/1.0/">
	<!ENTITY ns_ai "http://ns.adobe.com/AdobeIllustrator/10.0/">
	<!ENTITY ns_graphs "http://ns.adobe.com/Graphs/1.0/">
]>
<svg version="1.1" id="Layer_1" xmlns:x="&ns_extend;" xmlns:i="&ns_ai;" xmlns:graph="&ns_graphs;"
	 xmlns="http://www.w3.org/2000/svg" xmlns:xlink="http://www.w3.org/1999/xlink" xmlns:a="http://ns.adobe.com/AdobeSVGViewerExtensions/3.0/"
	 x="0px" y="0px" width="80px" height="60px" viewBox="0 0 80 60" enable-background="new 0 0 80 60" xml:space="preserve">
<line fill="#FFFFFF" x1="35" y1="9" x2="61" y2="9"/>
<rect x="0.5" y="0.5" fill="#FFFFFF" stroke="#B3E4FF" stroke-miterlimit="10" width="79" height="59"/>
<rect x="2" y="12" fill="#7EBAE3" width="76" height="30"/>
<g>
	<path fill="#FFFFFF" d="M10.3,32.6c0,2.4-1,3.8-2.6,3.8c-1.5,0-2.5-1.3-2.5-3.7c0-2.4,1.1-3.7,2.6-3.7C9.4,29,10.3,30.3,10.3,32.6z
		 M6.2,32.7c0,1.9,0.6,2.9,1.5,2.9c1,0,1.5-1.2,1.5-3c0-1.8-0.5-2.9-1.5-2.9C6.9,29.7,6.2,30.7,6.2,32.7z"/>
	<path fill="#FFFFFF" d="M16.3,32.6c0,2.4-1,3.8-2.6,3.8c-1.5,0-2.5-1.3-2.5-3.7c0-2.4,1.1-3.7,2.6-3.7C15.4,29,16.3,30.3,16.3,32.6
		z M12.2,32.7c0,1.9,0.6,2.9,1.5,2.9c1,0,1.5-1.2,1.5-3c0-1.8-0.5-2.9-1.5-2.9C12.8,29.7,12.2,30.7,12.2,32.7z"/>
	<path fill="#FFFFFF" d="M17.6,32.9v1.4h1.7v-1.4h0.5v3.4h-0.5v-1.6h-1.7v1.6h-0.5v-3.4H17.6z"/>
	<path fill="#FFFFFF" d="M20.5,32.9c0.2,0,0.6-0.1,0.9-0.1c0.5,0,0.8,0.1,1,0.3c0.2,0.2,0.3,0.4,0.3,0.6c0,0.4-0.3,0.7-0.7,0.9v0
		c0.3,0.1,0.4,0.3,0.5,0.7c0.1,0.5,0.2,0.8,0.3,0.9h-0.5c-0.1-0.1-0.1-0.4-0.2-0.8c-0.1-0.5-0.3-0.6-0.7-0.7H21v1.5h-0.5V32.9z
		 M21,34.4h0.5c0.5,0,0.8-0.3,0.8-0.6c0-0.4-0.3-0.6-0.8-0.6c-0.2,0-0.4,0-0.5,0V34.4z"/>
	<path fill="#FFFFFF" d="M23.3,35.7c0.2,0.1,0.5,0.2,0.8,0.2c0.5,0,0.7-0.2,0.7-0.6c0-0.3-0.2-0.5-0.7-0.7c-0.6-0.2-0.9-0.5-0.9-1
		c0-0.5,0.5-0.9,1.2-0.9c0.4,0,0.6,0.1,0.8,0.2l-0.1,0.4c-0.1-0.1-0.3-0.2-0.7-0.2c-0.5,0-0.7,0.3-0.7,0.5c0,0.3,0.2,0.5,0.7,0.7
		c0.6,0.2,0.9,0.5,0.9,1c0,0.5-0.4,1-1.2,1c-0.3,0-0.7-0.1-0.9-0.2L23.3,35.7z"/>
	<path fill="#FFFFFF" d="M33.6,32.6c0,2.4-1,3.8-2.6,3.8c-1.5,0-2.5-1.3-2.5-3.7c0-2.4,1.1-3.7,2.6-3.7C32.7,29,33.6,30.3,33.6,32.6
		z M29.5,32.7c0,1.9,0.6,2.9,1.5,2.9c1,0,1.5-1.2,1.5-3c0-1.8-0.5-2.9-1.5-2.9C30.1,29.7,29.5,30.7,29.5,32.7z"/>
	<path fill="#FFFFFF" d="M39.5,32.6c0,2.4-1,3.8-2.6,3.8c-1.5,0-2.5-1.3-2.5-3.7c0-2.4,1.1-3.7,2.6-3.7C38.6,29,39.5,30.3,39.5,32.6
		z M35.4,32.7c0,1.9,0.6,2.9,1.5,2.9c1,0,1.5-1.2,1.5-3c0-1.8-0.5-2.9-1.5-2.9C36.1,29.7,35.4,30.7,35.4,32.7z"/>
	<path fill="#FFFFFF" d="M43.3,34.8c0-0.5-0.1-1-0.1-1.5h0c-0.1,0.4-0.3,0.8-0.4,1.3l-0.6,1.6h-0.3l-0.6-1.6
		c-0.2-0.5-0.3-0.9-0.4-1.3h0c0,0.4,0,1-0.1,1.5l-0.1,1.4h-0.4l0.2-3.4h0.6l0.6,1.6c0.1,0.4,0.3,0.8,0.4,1.1h0
		c0.1-0.3,0.2-0.7,0.4-1.1l0.6-1.6h0.6l0.2,3.4h-0.5L43.3,34.8z"/>
	<path fill="#FFFFFF" d="M45.2,33.1c0,0.2-0.1,0.3-0.3,0.3c-0.2,0-0.3-0.1-0.3-0.3c0-0.1,0.1-0.3,0.3-0.3C45,32.9,45.2,33,45.2,33.1
		z M44.6,36.2v-2.4h0.5v2.4H44.6z"/>
	<path fill="#FFFFFF" d="M45.9,34.5c0-0.3,0-0.5,0-0.7h0.4l0,0.4h0c0.1-0.2,0.4-0.5,0.8-0.5c0.4,0,0.9,0.2,0.9,1v1.4h-0.5v-1.4
		c0-0.4-0.2-0.7-0.6-0.7c-0.3,0-0.5,0.2-0.6,0.5c0,0.1,0,0.1,0,0.2v1.5h-0.5V34.5z"/>
	<path fill="#FFFFFF" d="M48.7,35.8c0.1,0.1,0.4,0.2,0.6,0.2c0.3,0,0.5-0.2,0.5-0.4c0-0.2-0.1-0.3-0.5-0.4c-0.5-0.2-0.7-0.4-0.7-0.7
		c0-0.4,0.3-0.7,0.9-0.7c0.3,0,0.5,0.1,0.6,0.2l-0.1,0.3c-0.1-0.1-0.3-0.1-0.5-0.1c-0.3,0-0.4,0.2-0.4,0.3c0,0.2,0.1,0.3,0.5,0.4
		c0.4,0.2,0.7,0.4,0.7,0.7c0,0.4-0.4,0.7-0.9,0.7c-0.3,0-0.5-0.1-0.7-0.2L48.7,35.8z"/>
	<path fill="#FFFFFF" d="M58.5,32.6c0,2.4-1,3.8-2.6,3.8c-1.5,0-2.5-1.3-2.5-3.7c0-2.4,1.1-3.7,2.6-3.7C57.6,29,58.5,30.3,58.5,32.6
		z M54.4,32.7c0,1.9,0.6,2.9,1.5,2.9c1,0,1.5-1.2,1.5-3c0-1.8-0.5-2.9-1.5-2.9C55.1,29.7,54.4,30.7,54.4,32.7z"/>
	<path fill="#FFFFFF" d="M64.5,32.6c0,2.4-1,3.8-2.6,3.8c-1.5,0-2.5-1.3-2.5-3.7c0-2.4,1.1-3.7,2.6-3.7C63.5,29,64.5,30.3,64.5,32.6
		z M60.4,32.7c0,1.9,0.6,2.9,1.5,2.9c1,0,1.5-1.2,1.5-3c0-1.8-0.5-2.9-1.5-2.9C61,29.7,60.4,30.7,60.4,32.7z"/>
	<path fill="#FFFFFF" d="M65.2,35.7c0.2,0.1,0.5,0.2,0.8,0.2c0.5,0,0.7-0.2,0.7-0.6c0-0.3-0.2-0.5-0.7-0.7c-0.6-0.2-0.9-0.5-0.9-1
		c0-0.5,0.5-0.9,1.2-0.9c0.4,0,0.6,0.1,0.8,0.2L67,33.3c-0.1-0.1-0.3-0.2-0.7-0.2c-0.5,0-0.7,0.3-0.7,0.5c0,0.3,0.2,0.5,0.7,0.7
		c0.6,0.2,0.9,0.5,0.9,1c0,0.5-0.4,1-1.2,1c-0.3,0-0.7-0.1-0.9-0.2L65.2,35.7z"/>
	<path fill="#FFFFFF" d="M68.1,35.1c0,0.6,0.4,0.8,0.9,0.8c0.3,0,0.5-0.1,0.7-0.1l0.1,0.3c-0.2,0.1-0.4,0.2-0.9,0.2
		c-0.8,0-1.3-0.5-1.3-1.2c0-0.7,0.5-1.3,1.2-1.3c0.8,0,1.1,0.7,1.1,1.1c0,0.1,0,0.2,0,0.2H68.1z M69.5,34.8c0-0.3-0.1-0.7-0.6-0.7
		c-0.5,0-0.7,0.4-0.7,0.7H69.5z"/>
	<path fill="#FFFFFF" d="M72.4,36.2c-0.1,0.1-0.4,0.1-0.7,0.1c-0.8,0-1.3-0.5-1.3-1.2c0-0.7,0.5-1.3,1.4-1.3c0.3,0,0.5,0.1,0.6,0.1
		l-0.1,0.3c-0.1-0.1-0.3-0.1-0.5-0.1c-0.6,0-0.9,0.4-0.9,0.9c0,0.6,0.4,0.9,0.9,0.9c0.3,0,0.4-0.1,0.6-0.1L72.4,36.2z"/>
	<path fill="#FFFFFF" d="M72.8,35.8c0.1,0.1,0.4,0.2,0.6,0.2c0.3,0,0.5-0.2,0.5-0.4c0-0.2-0.1-0.3-0.5-0.4c-0.5-0.2-0.7-0.4-0.7-0.7
		c0-0.4,0.3-0.7,0.9-0.7c0.3,0,0.5,0.1,0.6,0.2l-0.1,0.3c-0.1-0.1-0.3-0.1-0.5-0.1c-0.3,0-0.4,0.2-0.4,0.3c0,0.2,0.1,0.3,0.5,0.4
		c0.4,0.2,0.7,0.4,0.7,0.7c0,0.4-0.4,0.7-0.9,0.7c-0.3,0-0.5-0.1-0.7-0.2L72.8,35.8z"/>
</g>
<g>
	<path fill="#FFFFFF" d="M20.3,20.1c0,1.4-0.9,2.1-2.1,2.1c-1.2,0-2-0.8-2-2.1c0-1.3,0.9-2.1,2.1-2.1C19.5,18.1,20.3,18.9,20.3,20.1
		z M16.9,20.2c0,0.9,0.5,1.6,1.4,1.6c0.9,0,1.4-0.8,1.4-1.7c0-0.8-0.5-1.6-1.4-1.6S16.9,19.3,16.9,20.2z"/>
	<path fill="#FFFFFF" d="M21.1,18.1h2.4v0.4h-1.8v1.3h1.7v0.4h-1.7v1.8h-0.6V18.1z"/>
	<path fill="#FFFFFF" d="M24.3,18.1h2.4v0.4h-1.8v1.3h1.7v0.4h-1.7v1.8h-0.6V18.1z"/>
	<path fill="#FFFFFF" d="M29.8,20.3h-1.7v1.5H30v0.4h-2.5v-4h2.4v0.4h-1.8v1.3h1.7V20.3z"/>
	<path fill="#FFFFFF" d="M30.7,18.2c0.3,0,0.7-0.1,1.1-0.1c0.6,0,1,0.1,1.3,0.3c0.2,0.2,0.4,0.5,0.4,0.8c0,0.5-0.4,0.9-0.8,1v0
		c0.3,0.1,0.5,0.4,0.6,0.8c0.1,0.6,0.3,1,0.3,1.1H33c-0.1-0.1-0.2-0.5-0.3-1c-0.1-0.6-0.4-0.8-0.9-0.8h-0.5v1.8h-0.6V18.2z M31.3,20
		h0.6c0.6,0,1-0.3,1-0.8c0-0.5-0.4-0.8-1-0.8c-0.3,0-0.5,0-0.6,0V20z"/>
	<path fill="#FFFFFF" d="M38,20.3h-1.7v1.5h1.9v0.4h-2.5v-4h2.4v0.4h-1.8v1.3H38V20.3z"/>
	<path fill="#FFFFFF" d="M41.4,22.2l-0.6-0.9c-0.2-0.3-0.4-0.6-0.5-0.8h0c-0.1,0.2-0.3,0.5-0.5,0.8l-0.5,0.9h-0.7l1.4-2l-1.3-2h0.7
		l0.6,0.9c0.2,0.3,0.3,0.5,0.4,0.7h0c0.1-0.2,0.2-0.4,0.4-0.7l0.6-0.9H42l-1.4,2l1.4,2.1H41.4z"/>
	<path fill="#FFFFFF" d="M42.7,18.2c0.3,0,0.6-0.1,1.1-0.1c0.6,0,1,0.1,1.2,0.3c0.2,0.2,0.4,0.5,0.4,0.8c0,0.4-0.1,0.7-0.3,0.9
		c-0.3,0.3-0.8,0.4-1.4,0.4c-0.2,0-0.3,0-0.5,0v1.6h-0.6V18.2z M43.3,20.1c0.1,0,0.3,0,0.5,0c0.7,0,1.1-0.3,1.1-0.9
		c0-0.5-0.4-0.8-1.1-0.8c-0.3,0-0.4,0-0.5,0V20.1z"/>
	<path fill="#FFFFFF" d="M46.8,18.1v4h-0.6v-4H46.8z"/>
	<path fill="#FFFFFF" d="M47.8,18.2c0.3,0,0.7-0.1,1.1-0.1c0.6,0,1,0.1,1.3,0.3c0.2,0.2,0.4,0.5,0.4,0.8c0,0.5-0.4,0.9-0.8,1v0
		c0.3,0.1,0.5,0.4,0.6,0.8c0.1,0.6,0.3,1,0.3,1.1h-0.6c-0.1-0.1-0.2-0.5-0.3-1c-0.1-0.6-0.4-0.8-0.9-0.8h-0.5v1.8h-0.6V18.2z
		 M48.4,20H49c0.6,0,1-0.3,1-0.8c0-0.5-0.4-0.8-1-0.8c-0.3,0-0.5,0-0.6,0V20z"/>
	<path fill="#FFFFFF" d="M53.6,20.3h-1.7v1.5h1.9v0.4h-2.5v-4h2.4v0.4h-1.8v1.3h1.7V20.3z"/>
	<path fill="#FFFFFF" d="M54.5,21.6c0.3,0.2,0.6,0.3,1,0.3c0.6,0,0.9-0.3,0.9-0.7c0-0.4-0.2-0.6-0.8-0.8c-0.7-0.2-1.2-0.6-1.2-1.2
		c0-0.6,0.6-1.1,1.4-1.1c0.4,0,0.8,0.1,1,0.2l-0.2,0.4c-0.1-0.1-0.4-0.2-0.8-0.2c-0.6,0-0.8,0.3-0.8,0.6c0,0.4,0.3,0.6,0.9,0.8
		c0.8,0.3,1.1,0.6,1.1,1.2c0,0.6-0.5,1.2-1.6,1.2c-0.4,0-0.9-0.1-1.1-0.3L54.5,21.6z"/>
	<path fill="#FFFFFF" d="M59.8,18.1v4h-0.6v-4H59.8z"/>
	<path fill="#FFFFFF" d="M60.8,22.2v-4h0.6l1.4,2c0.3,0.5,0.6,0.9,0.8,1.3l0,0c-0.1-0.5-0.1-1-0.1-1.7v-1.7h0.5v4h-0.6l-1.4-2.1
		c-0.3-0.5-0.6-0.9-0.8-1.3l0,0c0,0.5,0,1,0,1.7v1.7H60.8z"/>
</g>
</svg>
