<?xml version="1.0" encoding="utf-8"?>
<!-- Generator: Adobe Illustrator 15.0.0, SVG Export Plug-In . SVG Version: 6.00 Build 0)  -->
<!DOCTYPE svg PUBLIC "-//W3C//DTD SVG 1.1//EN" "http://www.w3.org/Graphics/SVG/1.1/DTD/svg11.dtd" [
	<!ENTITY ns_flows "http://ns.adobe.com/Flows/1.0/">
	<!ENTITY ns_extend "http://ns.adobe.com/Extensibility/1.0/">
	<!ENTITY ns_ai "http://ns.adobe.com/AdobeIllustrator/10.0/">
	<!ENTITY ns_graphs "http://ns.adobe.com/Graphs/1.0/">
]>
<svg version="1.1" id="Layer_1" xmlns:x="&ns_extend;" xmlns:i="&ns_ai;" xmlns:graph="&ns_graphs;"
	 xmlns="http://www.w3.org/2000/svg" xmlns:xlink="http://www.w3.org/1999/xlink" xmlns:a="http://ns.adobe.com/AdobeSVGViewerExtensions/3.0/"
	 x="0px" y="0px" width="80px" height="60px" viewBox="0 0 80 60" enable-background="new 0 0 80 60" xml:space="preserve">
<rect x="0.5" y="0.5" fill="#FFFFFF" stroke="#B3E4FF" stroke-miterlimit="10" width="79" height="59"/>
<g>
	<rect x="39.5" y="10.5" fill="none" stroke="#7EBAE3" stroke-miterlimit="10" width="33" height="26"/>
	<rect x="39.5" y="39.5" fill="none" stroke="#7EBAE3" stroke-miterlimit="10" width="9" height="5"/>
	<rect x="51.5" y="39.5" fill="none" stroke="#7EBAE3" stroke-miterlimit="10" width="9" height="5"/>
	<rect x="63.5" y="39.5" fill="none" stroke="#7EBAE3" stroke-miterlimit="10" width="9" height="5"/>
</g>
<rect x="24.5" y="49.5" fill="#7EBAE3" stroke="#7EBAE3" stroke-miterlimit="10" width="37" height="7"/>
<line fill="none" stroke="#7EBAE3" stroke-miterlimit="10" x1="21" y1="5.5" x2="61" y2="5.5"/>
<g>
	<line fill="none" stroke="#7EBAE3" stroke-miterlimit="10" x1="8" y1="11.5" x2="32" y2="11.5"/>
	<line fill="none" stroke="#7EBAE3" stroke-miterlimit="10" x1="8" y1="15.5" x2="28" y2="15.5"/>
	<line fill="none" stroke="#7EBAE3" stroke-miterlimit="10" x1="8" y1="27.5" x2="28" y2="27.5"/>
	<line fill="none" stroke="#7EBAE3" stroke-miterlimit="10" x1="8" y1="19.5" x2="32" y2="19.5"/>
	<line fill="none" stroke="#7EBAE3" stroke-miterlimit="10" x1="8" y1="23.5" x2="32" y2="23.5"/>
	<line fill="none" stroke="#7EBAE3" stroke-miterlimit="10" x1="8" y1="31.5" x2="28" y2="31.5"/>
	<line fill="none" stroke="#7EBAE3" stroke-miterlimit="10" x1="8" y1="35.5" x2="32" y2="35.5"/>
</g>
</svg>
