<?xml version="1.0" encoding="utf-8"?>
<!-- Generator: Adobe Illustrator 15.0.0, SVG Export Plug-In . SVG Version: 6.00 Build 0)  -->
<!DOCTYPE svg PUBLIC "-//W3C//DTD SVG 1.1//EN" "http://www.w3.org/Graphics/SVG/1.1/DTD/svg11.dtd" [
	<!ENTITY ns_flows "http://ns.adobe.com/Flows/1.0/">
	<!ENTITY ns_extend "http://ns.adobe.com/Extensibility/1.0/">
	<!ENTITY ns_ai "http://ns.adobe.com/AdobeIllustrator/10.0/">
	<!ENTITY ns_graphs "http://ns.adobe.com/Graphs/1.0/">
]>
<svg version="1.1" id="Layer_1" xmlns:x="&ns_extend;" xmlns:i="&ns_ai;" xmlns:graph="&ns_graphs;"
	 xmlns="http://www.w3.org/2000/svg" xmlns:xlink="http://www.w3.org/1999/xlink" xmlns:a="http://ns.adobe.com/AdobeSVGViewerExtensions/3.0/"
	 x="0px" y="0px" width="256px" height="57px" viewBox="0 0 256 57" enable-background="new 0 0 256 57" xml:space="preserve">
<rect x="0.5" y="0.5" fill="#FFFFFF" stroke="#B3E4FF" stroke-miterlimit="10" width="255" height="56"/>
<g>
	<path fill="#7EBAE3" d="M8.1,18c-0.3-0.4-0.5-1.1-0.5-1.9V13c0-0.8,0.2-1.5,0.5-1.9c0.3-0.4,0.9-0.6,1.7-0.6c0.8,0,1.3,0.2,1.7,0.7
		c0.3,0.4,0.5,1.1,0.5,1.9v3.1c0,0.8-0.2,1.5-0.5,1.9c-0.3,0.5-0.9,0.7-1.7,0.7C9,18.7,8.4,18.5,8.1,18z M10.6,17.4
		c0.1-0.2,0.2-0.6,0.2-1.1v-3.5c0-0.5-0.1-0.9-0.2-1.1c-0.1-0.2-0.4-0.4-0.8-0.4c-0.4,0-0.7,0.1-0.9,0.4c-0.1,0.2-0.2,0.6-0.2,1.1
		v3.5c0,0.5,0.1,0.9,0.2,1.1c0.1,0.2,0.4,0.4,0.9,0.4C10.2,17.8,10.5,17.7,10.6,17.4z"/>
	<path fill="#7EBAE3" d="M13.1,10.5h1.6c0.8,0,1.4,0.2,1.8,0.5s0.6,0.9,0.6,1.6c0,1-0.3,1.7-1,1.9l1.1,4h-1.1L15,14.7h-0.9v3.8H13
		v-8H13.1z M14.6,14c0.5,0,0.8-0.1,1-0.3c0.2-0.2,0.3-0.5,0.3-1c0-0.3,0-0.6-0.1-0.8c-0.1-0.2-0.2-0.3-0.4-0.4
		c-0.2-0.1-0.4-0.1-0.8-0.1h-0.5V14H14.6z"/>
	<path fill="#7EBAE3" d="M18.3,10.5H20c0.9,0,1.5,0.2,1.8,0.6c0.4,0.4,0.5,1,0.5,1.9v3c0,0.9-0.2,1.6-0.5,2
		c-0.3,0.4-0.9,0.7-1.8,0.7h-1.8L18.3,10.5L18.3,10.5z M20,17.8c0.4,0,0.7-0.1,0.9-0.2c0.2-0.2,0.3-0.4,0.3-0.6
		c0-0.3,0.1-0.7,0.1-1.2v-2.6c0-0.5,0-0.8-0.1-1.1c-0.1-0.2-0.2-0.4-0.4-0.5c-0.2-0.1-0.5-0.2-0.8-0.2h-0.6v6.4H20z"/>
	<path fill="#7EBAE3" d="M23.5,10.5h3.1v0.8h-2V14h1.6v0.8h-1.6v3h2v0.8h-3.1V10.5z"/>
	<path fill="#7EBAE3" d="M27.6,10.5h1.6c0.8,0,1.4,0.2,1.8,0.5s0.6,0.9,0.6,1.6c0,1-0.3,1.7-1,1.9l1.1,4h-1.1l-1.1-3.8h-0.9v3.8
		h-1.1v-8H27.6z M29.1,14c0.5,0,0.8-0.1,1-0.3c0.2-0.2,0.3-0.5,0.3-1c0-0.3,0-0.6-0.1-0.8c-0.1-0.2-0.2-0.3-0.4-0.4
		c-0.2-0.1-0.4-0.1-0.8-0.1h-0.5V14H29.1z"/>
	<path fill="#7EBAE3" d="M35.4,18.1c-0.4-0.4-0.6-1-0.6-1.7l1-0.3c0,0.5,0.1,0.9,0.3,1.3c0.2,0.4,0.4,0.5,0.8,0.5
		c0.3,0,0.5-0.1,0.7-0.2c0.1-0.2,0.2-0.4,0.2-0.7s-0.1-0.6-0.2-0.8c-0.1-0.2-0.4-0.5-0.7-0.7l-1.4-1.2c-0.3-0.2-0.5-0.5-0.6-0.8
		s-0.2-0.6-0.2-1c0-0.6,0.2-1,0.5-1.4c0.3-0.3,0.8-0.5,1.4-0.5s1.1,0.2,1.4,0.5c0.3,0.3,0.5,0.9,0.6,1.6l-1,0.3
		c0-0.5-0.1-0.8-0.3-1.1c-0.1-0.3-0.4-0.4-0.8-0.4c-0.3,0-0.5,0.1-0.7,0.2c-0.2,0.1-0.2,0.4-0.2,0.7c0,0.2,0,0.4,0.1,0.6
		c0.1,0.2,0.2,0.3,0.4,0.5l1.4,1.2c0.4,0.3,0.6,0.7,0.8,1c0.2,0.4,0.3,0.8,0.3,1.2c0,0.6-0.2,1.1-0.5,1.4c-0.4,0.3-0.8,0.5-1.4,0.5
		C36.2,18.7,35.7,18.5,35.4,18.1z"/>
	<path fill="#7EBAE3" d="M40.5,18.4c-0.3-0.2-0.5-0.5-0.7-0.9c-0.1-0.4-0.2-0.9-0.2-1.5v-5.3h1.1v5.4c0,0.6,0.1,1.1,0.2,1.4
		s0.4,0.5,0.9,0.5s0.7-0.2,0.9-0.5c0.1-0.3,0.2-0.8,0.2-1.4v-5.4H44V16c0,0.6-0.1,1.1-0.2,1.5c-0.1,0.4-0.3,0.7-0.6,0.9
		c-0.3,0.2-0.8,0.3-1.3,0.3S40.8,18.6,40.5,18.4z"/>
	<path fill="#7EBAE3" d="M45.1,10.5H47c0.7,0,1.3,0.2,1.6,0.5c0.4,0.3,0.5,0.8,0.5,1.5c0,1-0.4,1.6-1.2,1.7c0.5,0.1,0.8,0.3,1,0.7
		c0.2,0.3,0.3,0.8,0.3,1.4c0,0.7-0.2,1.3-0.5,1.7c-0.3,0.4-0.9,0.6-1.6,0.6h-2.2v-8.1H45.1z M46.9,13.9c0.5,0,0.8-0.1,1-0.3
		c0.2-0.2,0.3-0.5,0.3-1c0-0.4-0.1-0.6-0.2-0.8c-0.1-0.2-0.3-0.3-0.5-0.3s-0.5-0.1-1-0.1h-0.3v2.5H46.9z M47,17.8
		c0.3,0,0.6-0.1,0.8-0.2c0.2-0.1,0.3-0.3,0.4-0.5c0.1-0.2,0.1-0.5,0.1-0.9c0-0.5-0.1-0.9-0.3-1.2s-0.6-0.4-1-0.4h-0.7v3H47V17.8z"/>
	<path fill="#7EBAE3" d="M50.5,10.5h1.1L53,17l1.4-6.5h1.1l0.1,8.1h-0.9l-0.1-5.9l-1.4,5.9h-0.6l-1.4-5.9l-0.1,5.9h-0.9L50.5,10.5z"
		/>
	<path fill="#7EBAE3" d="M57,10.5h1.1v8.1H57V10.5z"/>
	<path fill="#7EBAE3" d="M60.3,11.4h-1.4v-0.8h3.8v0.8h-1.3v7.2h-1.1V11.4z"/>
	<path fill="#7EBAE3" d="M64.4,11.4H63v-0.8h3.8v0.8h-1.3v7.2h-1.1V11.4z"/>
	<path fill="#7EBAE3" d="M67.6,10.5h1.8c0.9,0,1.5,0.2,1.8,0.6c0.4,0.4,0.5,1,0.5,1.9v3c0,0.9-0.2,1.6-0.5,2
		c-0.3,0.4-0.9,0.7-1.8,0.7h-1.8V10.5z M69.4,17.8c0.4,0,0.7-0.1,0.9-0.2c0.2-0.2,0.3-0.4,0.3-0.6c0-0.3,0.1-0.7,0.1-1.2v-2.6
		c0-0.5,0-0.8-0.1-1.1c-0.1-0.2-0.2-0.4-0.4-0.5c-0.2-0.1-0.5-0.2-0.8-0.2h-0.6v6.4H69.4z"/>
</g>
<g>
	<path fill="#7EBAE3" d="M100.8,18.1c-0.4-0.4-0.6-1-0.6-1.7l1-0.3c0,0.5,0.1,0.9,0.3,1.3s0.4,0.5,0.8,0.5c0.3,0,0.5-0.1,0.7-0.2
		c0.1-0.2,0.2-0.4,0.2-0.7s-0.1-0.6-0.2-0.8c-0.1-0.2-0.4-0.5-0.7-0.7l-1.4-1.2c-0.3-0.2-0.5-0.5-0.6-0.8c-0.1-0.3-0.2-0.6-0.2-1
		c0-0.6,0.2-1,0.5-1.4c0.3-0.3,0.8-0.5,1.4-0.5s1.1,0.2,1.4,0.5c0.3,0.3,0.5,0.9,0.6,1.6l-1,0.3c0-0.5-0.1-0.8-0.3-1.1
		c-0.1-0.3-0.4-0.4-0.8-0.4c-0.3,0-0.5,0.1-0.7,0.2c-0.2,0.1-0.2,0.4-0.2,0.7c0,0.2,0,0.4,0.1,0.6s0.2,0.3,0.4,0.5l1.4,1.2
		c0.4,0.3,0.6,0.7,0.8,1c0.2,0.4,0.3,0.8,0.3,1.2c0,0.6-0.2,1.1-0.5,1.4c-0.4,0.3-0.8,0.5-1.4,0.5C101.6,18.7,101.1,18.5,100.8,18.1
		z"/>
	<path fill="#7EBAE3" d="M105.1,10.5h2c0.7,0,1.2,0.2,1.5,0.6c0.3,0.4,0.5,0.9,0.5,1.7c0,0.7-0.2,1.2-0.5,1.5
		c-0.3,0.4-0.8,0.5-1.5,0.5h-0.9v3.8h-1.1V10.5z M106.8,14c0.3,0,0.6,0,0.8-0.1c0.2-0.1,0.3-0.2,0.4-0.4s0.1-0.4,0.1-0.8
		c0-0.4,0-0.7-0.1-0.9c-0.1-0.2-0.2-0.3-0.4-0.4c-0.2-0.1-0.5-0.1-0.8-0.1h-0.5V14H106.8z"/>
	<path fill="#7EBAE3" d="M109.9,10.5h3.1v0.8h-2V14h1.6v0.8H111v3h2v0.8h-3.1V10.5z"/>
	<path fill="#7EBAE3" d="M114.3,18c-0.3-0.5-0.5-1.1-0.5-2v-2.8c0-0.9,0.2-1.6,0.5-2c0.3-0.5,0.9-0.7,1.7-0.7c0.7,0,1.2,0.2,1.6,0.6
		s0.5,1,0.5,1.7v0.6H117v-0.6c0-0.4,0-0.7,0-0.9c0-0.2-0.1-0.4-0.3-0.5c-0.1-0.1-0.4-0.2-0.7-0.2s-0.5,0.1-0.7,0.2
		c-0.2,0.1-0.2,0.3-0.3,0.5c0,0.2-0.1,0.5-0.1,0.9V16c0,0.4,0,0.7,0.1,1s0.2,0.4,0.3,0.5c0.1,0.1,0.4,0.1,0.6,0.1
		c0.3,0,0.5-0.1,0.6-0.2s0.2-0.3,0.3-0.5c0-0.2,0.1-0.5,0.1-0.9v-0.6h1.1V16c0,0.8-0.2,1.4-0.5,1.8c-0.3,0.4-0.8,0.6-1.6,0.6
		C115.2,18.7,114.6,18.5,114.3,18z"/>
	<path fill="#7EBAE3" d="M119.1,10.5h1.1v8.1h-1.1V10.5z"/>
	<path fill="#7EBAE3" d="M122.8,10.5h1.1l1.7,8.1h-1.1l-0.4-2h-1.6l-0.4,2H121L122.8,10.5z M124,15.8l-0.7-3.6l-0.7,3.6H124z"/>
	<path fill="#7EBAE3" d="M126.4,10.5h1.1v7.3h2.1v0.8h-3.2V10.5L126.4,10.5z"/>
	<path fill="#7EBAE3" d="M133,18c-0.3-0.4-0.5-1.1-0.5-1.9V13c0-0.8,0.2-1.5,0.5-1.9s0.9-0.6,1.7-0.6s1.3,0.2,1.7,0.7
		c0.3,0.4,0.5,1.1,0.5,1.9v3.1c0,0.8-0.2,1.5-0.5,1.9c-0.3,0.5-0.9,0.7-1.7,0.7C134,18.7,133.4,18.5,133,18z M135.6,17.4
		c0.1-0.2,0.2-0.6,0.2-1.1v-3.5c0-0.5-0.1-0.9-0.2-1.1c-0.1-0.2-0.4-0.4-0.8-0.4c-0.4,0-0.7,0.1-0.9,0.4c-0.1,0.2-0.2,0.6-0.2,1.1
		v3.5c0,0.5,0.1,0.9,0.2,1.1c0.1,0.2,0.4,0.4,0.9,0.4C135.2,17.8,135.4,17.7,135.6,17.4z"/>
	<path fill="#7EBAE3" d="M138.1,10.5h3.1v0.8h-2V14h1.5v0.8h-1.5v3.8h-1.1V10.5z"/>
	<path fill="#7EBAE3" d="M141.9,10.5h3.1v0.8h-2V14h1.5v0.8H143v3.8h-1.1V10.5z"/>
	<path fill="#7EBAE3" d="M145.8,10.5h3.1v0.8h-2V14h1.6v0.8H147v3h2v0.8h-3.1v-8.1H145.8z"/>
	<path fill="#7EBAE3" d="M149.9,10.5h1.6c0.8,0,1.4,0.2,1.8,0.5c0.4,0.3,0.6,0.9,0.6,1.6c0,1-0.3,1.7-1,1.9l1.1,4h-1l-1.1-3.8H151
		v3.8h-1.1V10.5z M151.5,14c0.5,0,0.8-0.1,1-0.3c0.2-0.2,0.3-0.5,0.3-1c0-0.3,0-0.6-0.1-0.8c-0.1-0.2-0.2-0.3-0.4-0.4
		s-0.4-0.1-0.8-0.1H151V14H151.5z"/>
</g>
<g>
	<path fill="#7EBAE3" d="M191.3,18c-0.3-0.4-0.5-1.1-0.5-1.9V13c0-0.8,0.2-1.5,0.5-1.9s0.9-0.6,1.7-0.6s1.3,0.2,1.7,0.7
		c0.3,0.4,0.5,1.1,0.5,1.9v3.1c0,0.8-0.2,1.5-0.5,1.9c-0.3,0.5-0.9,0.7-1.7,0.7C192.2,18.7,191.7,18.5,191.3,18z M193.9,17.4
		c0.1-0.2,0.2-0.6,0.2-1.1v-3.5c0-0.5-0.1-0.9-0.2-1.1c-0.1-0.2-0.4-0.4-0.8-0.4c-0.4,0-0.7,0.1-0.9,0.4c-0.1,0.2-0.2,0.6-0.2,1.1
		v3.5c0,0.5,0.1,0.9,0.2,1.1c0.1,0.2,0.4,0.4,0.9,0.4C193.4,17.8,193.7,17.7,193.9,17.4z"/>
	<path fill="#7EBAE3" d="M196.3,10.5h1.6c0.8,0,1.4,0.2,1.8,0.5c0.4,0.3,0.6,0.9,0.6,1.6c0,1-0.3,1.7-1,1.9l1.1,4h-1.1l-1.1-3.8
		h-0.9v3.8h-1.1L196.3,10.5L196.3,10.5z M197.9,14c0.5,0,0.8-0.1,1-0.3c0.2-0.2,0.3-0.5,0.3-1c0-0.3,0-0.6-0.1-0.8
		c-0.1-0.2-0.2-0.3-0.4-0.4s-0.4-0.1-0.8-0.1h-0.5V14H197.9z"/>
	<path fill="#7EBAE3" d="M201.5,10.5h1.8c0.9,0,1.5,0.2,1.8,0.6c0.4,0.4,0.5,1,0.5,1.9v3c0,0.9-0.2,1.6-0.5,2
		c-0.3,0.4-0.9,0.7-1.8,0.7h-1.8V10.5z M203.3,17.8c0.4,0,0.7-0.1,0.9-0.2c0.2-0.2,0.3-0.4,0.3-0.6c0-0.3,0.1-0.7,0.1-1.2v-2.6
		c0-0.5,0-0.8-0.1-1.1c-0.1-0.2-0.2-0.4-0.4-0.5c-0.2-0.1-0.5-0.2-0.8-0.2h-0.6v6.4H203.3z"/>
	<path fill="#7EBAE3" d="M206.7,10.5h3.1v0.8h-2V14h1.6v0.8h-1.6v3h2v0.8h-3.1V10.5z"/>
	<path fill="#7EBAE3" d="M210.8,10.5h1.6c0.8,0,1.4,0.2,1.8,0.5c0.4,0.3,0.6,0.9,0.6,1.6c0,1-0.3,1.7-1,1.9l1.1,4h-1.1l-1.1-3.8
		h-0.9v3.8h-1.1L210.8,10.5L210.8,10.5z M212.4,14c0.5,0,0.8-0.1,1-0.3c0.2-0.2,0.3-0.5,0.3-1c0-0.3,0-0.6-0.1-0.8
		c-0.1-0.2-0.2-0.3-0.4-0.4s-0.4-0.1-0.8-0.1h-0.5V14H212.4z"/>
	<path fill="#7EBAE3" d="M218.3,10.5h1.6c0.8,0,1.4,0.2,1.8,0.5c0.4,0.3,0.6,0.9,0.6,1.6c0,1-0.3,1.7-1,1.9l1.1,4h-1.1l-1.1-3.8
		h-0.9v3.8h-1.1L218.3,10.5L218.3,10.5z M219.8,14c0.5,0,0.8-0.1,1-0.3c0.2-0.2,0.3-0.5,0.3-1c0-0.3,0-0.6-0.1-0.8
		c-0.1-0.2-0.2-0.3-0.4-0.4c-0.2-0.1-0.4-0.1-0.8-0.1h-0.5V14H219.8z"/>
	<path fill="#7EBAE3" d="M223.4,10.5h3.1v0.8h-2V14h1.6v0.8h-1.6v3h2v0.8h-3.1V10.5z"/>
	<path fill="#7EBAE3" d="M227.8,18c-0.3-0.5-0.5-1.1-0.5-2v-2.8c0-0.9,0.2-1.6,0.5-2c0.3-0.5,0.9-0.7,1.7-0.7c0.7,0,1.2,0.2,1.6,0.6
		c0.3,0.4,0.5,1,0.5,1.7v0.6h-1.1v-0.6c0-0.4,0-0.7,0-0.9c0-0.2-0.1-0.4-0.3-0.5c-0.1-0.1-0.4-0.2-0.7-0.2s-0.5,0.1-0.7,0.2
		s-0.2,0.3-0.3,0.5c0,0.2-0.1,0.5-0.1,0.9V16c0,0.4,0,0.7,0.1,1s0.2,0.4,0.3,0.5c0.1,0.1,0.4,0.1,0.6,0.1c0.3,0,0.5-0.1,0.6-0.2
		s0.2-0.3,0.3-0.5c0-0.2,0.1-0.5,0.1-0.9v-0.6h1.1V16c0,0.8-0.2,1.4-0.5,1.8c-0.3,0.4-0.8,0.6-1.6,0.6
		C228.7,18.7,228.1,18.5,227.8,18z"/>
	<path fill="#7EBAE3" d="M232.6,10.5h3.1v0.8h-2V14h1.6v0.8h-1.6v3h2v0.8h-3.1V10.5z"/>
	<path fill="#7EBAE3" d="M236.7,10.5h1.1v8.1h-1.1V10.5z"/>
	<path fill="#7EBAE3" d="M239.1,10.5h2c0.7,0,1.2,0.2,1.5,0.6c0.3,0.4,0.5,0.9,0.5,1.7c0,0.7-0.2,1.2-0.5,1.5
		c-0.3,0.4-0.8,0.5-1.5,0.5h-0.9v3.8h-1.1V10.5z M240.8,14c0.3,0,0.6,0,0.8-0.1c0.2-0.1,0.3-0.2,0.4-0.4s0.1-0.4,0.1-0.8
		c0-0.4,0-0.7-0.1-0.9c-0.1-0.2-0.2-0.3-0.4-0.4c-0.2-0.1-0.5-0.1-0.8-0.1h-0.5V14H240.8z"/>
	<path fill="#7EBAE3" d="M244.8,11.4h-1.4v-0.8h3.8v0.8h-1.3v7.2h-1.1V11.4z"/>
</g>
<circle fill="#F0EFEF" cx="221.7" cy="34.2" r="8.2"/>
<rect x="33" y="31" fill="#F0EFEF" width="185" height="6"/>
<rect x="31" y="31" fill="#7EBAE3" width="100" height="6"/>
<circle fill="#7EBAE3" cx="127.5" cy="34.2" r="8.2"/>
<circle fill="#7EBAE3" cx="33.4" cy="34.2" r="8.2"/>
</svg>
