<?xml version="1.0" encoding="utf-8"?>
<!-- Generator: Adobe Illustrator 15.0.0, SVG Export Plug-In . SVG Version: 6.00 Build 0)  -->
<!DOCTYPE svg PUBLIC "-//W3C//DTD SVG 1.1//EN" "http://www.w3.org/Graphics/SVG/1.1/DTD/svg11.dtd" [
	<!ENTITY ns_flows "http://ns.adobe.com/Flows/1.0/">
	<!ENTITY ns_extend "http://ns.adobe.com/Extensibility/1.0/">
	<!ENTITY ns_ai "http://ns.adobe.com/AdobeIllustrator/10.0/">
	<!ENTITY ns_graphs "http://ns.adobe.com/Graphs/1.0/">
]>
<svg version="1.1" id="Layer_1" xmlns:x="&ns_extend;" xmlns:i="&ns_ai;" xmlns:graph="&ns_graphs;"
	 xmlns="http://www.w3.org/2000/svg" xmlns:xlink="http://www.w3.org/1999/xlink" xmlns:a="http://ns.adobe.com/AdobeSVGViewerExtensions/3.0/"
	 x="0px" y="0px" width="256px" height="57px" viewBox="0 0 256 57" enable-background="new 0 0 256 57" xml:space="preserve">
<rect x="0.5" y="0.5" fill="#FFFFFF" stroke="#B3E4FF" stroke-miterlimit="10" width="255" height="56"/>
<g>
	<path fill="#7EBAE3" d="M6.1,48.7c-0.3-0.4-0.5-1.1-0.5-1.9v-3.1c0-0.8,0.2-1.5,0.5-1.9c0.3-0.4,0.9-0.6,1.7-0.6
		c0.8,0,1.3,0.2,1.7,0.7C9.8,42.3,10,43,10,43.8v3.1c0,0.8-0.2,1.5-0.5,1.9c-0.3,0.5-0.9,0.7-1.7,0.7C7,49.4,6.4,49.1,6.1,48.7z
		 M8.6,48.1c0.1-0.2,0.2-0.6,0.2-1.1v-3.5c0-0.5-0.1-0.9-0.2-1.1C8.5,42.2,8.2,42,7.8,42c-0.4,0-0.7,0.1-0.9,0.4
		c-0.1,0.2-0.2,0.6-0.2,1.1V47c0,0.5,0.1,0.9,0.2,1.1c0.1,0.2,0.4,0.4,0.9,0.4C8.2,48.5,8.5,48.3,8.6,48.1z"/>
	<path fill="#7EBAE3" d="M11.1,41.2h1.6c0.8,0,1.4,0.2,1.8,0.5s0.6,0.9,0.6,1.6c0,1-0.3,1.7-1,1.9l1.1,4h-1.1L13,45.4h-0.9v3.8H11
		v-8H11.1z M12.6,44.7c0.5,0,0.8-0.1,1-0.3c0.2-0.2,0.3-0.5,0.3-1c0-0.3,0-0.6-0.1-0.8c-0.1-0.2-0.2-0.3-0.4-0.4
		c-0.2-0.1-0.4-0.1-0.8-0.1h-0.5v2.7L12.6,44.7L12.6,44.7z"/>
	<path fill="#7EBAE3" d="M16.3,41.2H18c0.9,0,1.5,0.2,1.8,0.6c0.4,0.4,0.5,1,0.5,1.9v3c0,0.9-0.2,1.6-0.5,2
		c-0.3,0.4-0.9,0.7-1.8,0.7h-1.8L16.3,41.2L16.3,41.2z M18,48.5c0.4,0,0.7-0.1,0.9-0.2c0.2-0.2,0.3-0.4,0.3-0.6
		c0-0.3,0.1-0.7,0.1-1.2v-2.6c0-0.5,0-0.8-0.1-1.1c-0.1-0.2-0.2-0.4-0.4-0.5C18.7,42.1,18.4,42,18,42h-0.6v6.4L18,48.5L18,48.5z"/>
	<path fill="#7EBAE3" d="M21.5,41.2h3.1V42h-2v2.7h1.6v0.8h-1.6v3h2v0.8h-3.1V41.2z"/>
	<path fill="#7EBAE3" d="M25.6,41.2h1.6c0.8,0,1.4,0.2,1.8,0.5s0.6,0.9,0.6,1.6c0,1-0.3,1.7-1,1.9l1.1,4h-1.1l-1.1-3.8h-0.9v3.8
		h-1.1v-8H25.6z M27.1,44.7c0.5,0,0.8-0.1,1-0.3c0.2-0.2,0.3-0.5,0.3-1c0-0.3,0-0.6-0.1-0.8c-0.1-0.2-0.2-0.3-0.4-0.4
		c-0.2-0.1-0.4-0.1-0.8-0.1h-0.5v2.7L27.1,44.7L27.1,44.7z"/>
	<path fill="#7EBAE3" d="M33.4,48.7c-0.4-0.4-0.6-1-0.6-1.7l1-0.3c0,0.5,0.1,0.9,0.3,1.3c0.2,0.4,0.4,0.5,0.8,0.5
		c0.3,0,0.5-0.1,0.7-0.2c0.1-0.2,0.2-0.4,0.2-0.7c0-0.3-0.1-0.6-0.2-0.8s-0.4-0.5-0.7-0.7l-1.4-1.2c-0.3-0.2-0.5-0.5-0.6-0.8
		c-0.1-0.3-0.2-0.6-0.2-1c0-0.6,0.2-1,0.5-1.4c0.3-0.3,0.8-0.5,1.4-0.5s1.1,0.2,1.4,0.5s0.5,0.9,0.6,1.6l-1,0.3
		c0-0.5-0.1-0.8-0.3-1.1c-0.1-0.3-0.4-0.4-0.8-0.4c-0.3,0-0.5,0.1-0.7,0.2c-0.2,0.1-0.2,0.4-0.2,0.7c0,0.2,0,0.4,0.1,0.6
		c0.1,0.2,0.2,0.3,0.4,0.5l1.4,1.2c0.4,0.3,0.6,0.7,0.8,1c0.2,0.4,0.3,0.8,0.3,1.2c0,0.6-0.2,1.1-0.5,1.4c-0.4,0.3-0.8,0.5-1.4,0.5
		C34.2,49.4,33.7,49.1,33.4,48.7z"/>
	<path fill="#7EBAE3" d="M38.5,49c-0.3-0.2-0.5-0.5-0.7-0.9c-0.1-0.4-0.2-0.9-0.2-1.5v-5.3h1.1v5.4c0,0.6,0.1,1.1,0.2,1.4
		c0.1,0.3,0.4,0.5,0.9,0.5s0.7-0.2,0.9-0.5c0.1-0.3,0.2-0.8,0.2-1.4v-5.4H42v5.3c0,0.6-0.1,1.1-0.2,1.5c-0.1,0.4-0.3,0.7-0.6,0.9
		c-0.3,0.2-0.8,0.3-1.3,0.3S38.8,49.2,38.5,49z"/>
	<path fill="#7EBAE3" d="M43.1,41.2H45c0.7,0,1.3,0.2,1.6,0.5c0.4,0.3,0.5,0.8,0.5,1.5c0,1-0.4,1.6-1.2,1.7c0.5,0.1,0.8,0.3,1,0.7
		c0.2,0.3,0.3,0.8,0.3,1.4c0,0.7-0.2,1.3-0.5,1.7c-0.3,0.4-0.9,0.6-1.6,0.6h-2.2v-8.1H43.1z M44.9,44.6c0.5,0,0.8-0.1,1-0.3
		c0.2-0.2,0.3-0.5,0.3-1c0-0.4-0.1-0.6-0.2-0.8s-0.3-0.3-0.5-0.3s-0.5-0.1-1-0.1h-0.3v2.5H44.9z M45,48.5c0.3,0,0.6-0.1,0.8-0.2
		c0.2-0.1,0.3-0.3,0.4-0.5c0.1-0.2,0.1-0.5,0.1-0.9c0-0.5-0.1-0.9-0.3-1.2s-0.6-0.4-1-0.4h-0.7v3H45V48.5z"/>
	<path fill="#7EBAE3" d="M48.5,41.2h1.1l1.4,6.5l1.4-6.5h1.1l0.1,8.1h-0.9l-0.1-5.9l-1.4,5.9h-0.6l-1.4-5.9l-0.1,5.9h-0.9L48.5,41.2
		z"/>
	<path fill="#7EBAE3" d="M55,41.2h1.1v8.1H55V41.2z"/>
	<path fill="#7EBAE3" d="M58.3,42h-1.4v-0.8h3.8V42h-1.3v7.2h-1.1V42z"/>
	<path fill="#7EBAE3" d="M62.4,42H61v-0.8h3.8V42h-1.3v7.2h-1.1V42z"/>
	<path fill="#7EBAE3" d="M65.6,41.2h3.1V42h-2v2.7h1.6v0.8h-1.6v3h2v0.8h-3.1V41.2z"/>
	<path fill="#7EBAE3" d="M69.7,41.2h1.8c0.9,0,1.5,0.2,1.8,0.6c0.4,0.4,0.5,1,0.5,1.9v3c0,0.9-0.2,1.6-0.5,2
		c-0.3,0.4-0.9,0.7-1.8,0.7h-1.8V41.2z M71.4,48.5c0.4,0,0.7-0.1,0.9-0.2c0.2-0.2,0.3-0.4,0.3-0.6c0-0.3,0.1-0.7,0.1-1.2v-2.6
		c0-0.5,0-0.8-0.1-1.1c-0.1-0.2-0.2-0.4-0.4-0.5c-0.2-0.1-0.5-0.2-0.8-0.2h-0.6v6.4H71.4z"/>
</g>
<g>
	<path fill="#7EBAE3" d="M103.8,48.7c-0.4-0.4-0.6-1-0.6-1.7l1-0.3c0,0.5,0.1,0.9,0.3,1.3s0.4,0.5,0.8,0.5c0.3,0,0.5-0.1,0.7-0.2
		c0.1-0.2,0.2-0.4,0.2-0.7c0-0.3-0.1-0.6-0.2-0.8s-0.4-0.5-0.7-0.7l-1.4-1.2c-0.3-0.2-0.5-0.5-0.6-0.8c-0.1-0.3-0.2-0.6-0.2-1
		c0-0.6,0.2-1,0.5-1.4c0.3-0.3,0.8-0.5,1.4-0.5s1.1,0.2,1.4,0.5c0.3,0.3,0.5,0.9,0.6,1.6l-1,0.3c0-0.5-0.1-0.8-0.3-1.1
		c-0.1-0.3-0.4-0.4-0.8-0.4c-0.3,0-0.5,0.1-0.7,0.2c-0.2,0.1-0.2,0.4-0.2,0.7c0,0.2,0,0.4,0.1,0.6c0.1,0.2,0.2,0.3,0.4,0.5l1.4,1.2
		c0.4,0.3,0.6,0.7,0.8,1c0.2,0.4,0.3,0.8,0.3,1.2c0,0.6-0.2,1.1-0.5,1.4c-0.4,0.3-0.8,0.5-1.4,0.5C104.6,49.4,104.1,49.1,103.8,48.7
		z"/>
	<path fill="#7EBAE3" d="M108.1,41.2h2c0.7,0,1.2,0.2,1.5,0.6c0.3,0.4,0.5,0.9,0.5,1.7c0,0.7-0.2,1.2-0.5,1.5
		c-0.3,0.4-0.8,0.5-1.5,0.5h-0.9v3.8h-1.1V41.2z M109.8,44.7c0.3,0,0.6,0,0.8-0.1c0.2-0.1,0.3-0.2,0.4-0.4s0.1-0.4,0.1-0.8
		c0-0.4,0-0.7-0.1-0.9s-0.2-0.3-0.4-0.4c-0.2-0.1-0.5-0.1-0.8-0.1h-0.5v2.7H109.8z"/>
	<path fill="#7EBAE3" d="M112.9,41.2h3.1V42h-2v2.7h1.6v0.8H114v3h2v0.8h-3.1V41.2z"/>
	<path fill="#7EBAE3" d="M117.3,48.6c-0.3-0.5-0.5-1.1-0.5-2v-2.8c0-0.9,0.2-1.6,0.5-2c0.3-0.5,0.9-0.7,1.7-0.7
		c0.7,0,1.2,0.2,1.6,0.6c0.4,0.4,0.5,1,0.5,1.7V44H120v-0.6c0-0.4,0-0.7,0-0.9s-0.1-0.4-0.3-0.5c-0.1-0.1-0.4-0.2-0.7-0.2
		s-0.5,0.1-0.7,0.2c-0.2,0.1-0.2,0.3-0.3,0.5c0,0.2-0.1,0.5-0.1,0.9v3.2c0,0.4,0,0.7,0.1,1c0.1,0.3,0.2,0.4,0.3,0.5
		c0.1,0.1,0.4,0.1,0.6,0.1c0.3,0,0.5-0.1,0.6-0.2s0.2-0.3,0.3-0.5c0-0.2,0.1-0.5,0.1-0.9V46h1.1v0.6c0,0.8-0.2,1.4-0.5,1.8
		c-0.3,0.4-0.8,0.6-1.6,0.6C118.2,49.4,117.6,49.1,117.3,48.6z"/>
	<path fill="#7EBAE3" d="M122.1,41.2h1.1v8.1h-1.1V41.2z"/>
	<path fill="#7EBAE3" d="M125.8,41.2h1.1l1.7,8.1h-1.1l-0.4-2h-1.6l-0.4,2H124L125.8,41.2z M127,46.4l-0.7-3.6l-0.7,3.6H127z"/>
	<path fill="#7EBAE3" d="M129.4,41.2h1.1v7.3h2.1v0.8h-3.2V41.2L129.4,41.2z"/>
	<path fill="#7EBAE3" d="M136,48.7c-0.3-0.4-0.5-1.1-0.5-1.9v-3.1c0-0.8,0.2-1.5,0.5-1.9c0.3-0.4,0.9-0.6,1.7-0.6s1.3,0.2,1.7,0.7
		c0.3,0.4,0.5,1.1,0.5,1.9v3.1c0,0.8-0.2,1.5-0.5,1.9c-0.3,0.5-0.9,0.7-1.7,0.7C137,49.4,136.4,49.1,136,48.7z M138.6,48.1
		c0.1-0.2,0.2-0.6,0.2-1.1v-3.5c0-0.5-0.1-0.9-0.2-1.1c-0.1-0.2-0.4-0.4-0.8-0.4c-0.4,0-0.7,0.1-0.9,0.4c-0.1,0.2-0.2,0.6-0.2,1.1
		V47c0,0.5,0.1,0.9,0.2,1.1c0.1,0.2,0.4,0.4,0.9,0.4C138.2,48.5,138.4,48.3,138.6,48.1z"/>
	<path fill="#7EBAE3" d="M141.1,41.2h3.1V42h-2v2.7h1.5v0.8h-1.5v3.8h-1.1V41.2z"/>
	<path fill="#7EBAE3" d="M144.9,41.2h3.1V42h-2v2.7h1.5v0.8H146v3.8h-1.1V41.2z"/>
	<path fill="#7EBAE3" d="M148.8,41.2h3.1V42h-2v2.7h1.6v0.8H150v3h2v0.8h-3.1v-8.1H148.8z"/>
	<path fill="#7EBAE3" d="M152.9,41.2h1.6c0.8,0,1.4,0.2,1.8,0.5c0.4,0.3,0.6,0.9,0.6,1.6c0,1-0.3,1.7-1,1.9l1.1,4h-1l-1.1-3.8H154
		v3.8h-1.1V41.2z M154.5,44.7c0.5,0,0.8-0.1,1-0.3c0.2-0.2,0.3-0.5,0.3-1c0-0.3,0-0.6-0.1-0.8c-0.1-0.2-0.2-0.3-0.4-0.4
		c-0.2-0.1-0.4-0.1-0.8-0.1H154v2.7L154.5,44.7L154.5,44.7z"/>
</g>
<g>
	<path fill="#7EBAE3" d="M194.3,48.7c-0.3-0.4-0.5-1.1-0.5-1.9v-3.1c0-0.8,0.2-1.5,0.5-1.9c0.3-0.4,0.9-0.6,1.7-0.6s1.3,0.2,1.7,0.7
		c0.3,0.4,0.5,1.1,0.5,1.9v3.1c0,0.8-0.2,1.5-0.5,1.9c-0.3,0.5-0.9,0.7-1.7,0.7C195.2,49.4,194.7,49.1,194.3,48.7z M196.9,48.1
		c0.1-0.2,0.2-0.6,0.2-1.1v-3.5c0-0.5-0.1-0.9-0.2-1.1c-0.1-0.2-0.4-0.4-0.8-0.4c-0.4,0-0.7,0.1-0.9,0.4c-0.1,0.2-0.2,0.6-0.2,1.1
		V47c0,0.5,0.1,0.9,0.2,1.1c0.1,0.2,0.4,0.4,0.9,0.4C196.4,48.5,196.7,48.3,196.9,48.1z"/>
	<path fill="#7EBAE3" d="M199.3,41.2h1.6c0.8,0,1.4,0.2,1.8,0.5c0.4,0.3,0.6,0.9,0.6,1.6c0,1-0.3,1.7-1,1.9l1.1,4h-1.1l-1.1-3.8
		h-0.9v3.8h-1.1L199.3,41.2L199.3,41.2z M200.9,44.7c0.5,0,0.8-0.1,1-0.3c0.2-0.2,0.3-0.5,0.3-1c0-0.3,0-0.6-0.1-0.8
		c-0.1-0.2-0.2-0.3-0.4-0.4c-0.2-0.1-0.4-0.1-0.8-0.1h-0.5v2.7L200.9,44.7L200.9,44.7z"/>
	<path fill="#7EBAE3" d="M204.5,41.2h1.8c0.9,0,1.5,0.2,1.8,0.6c0.4,0.4,0.5,1,0.5,1.9v3c0,0.9-0.2,1.6-0.5,2
		c-0.3,0.4-0.9,0.7-1.8,0.7h-1.8V41.2z M206.3,48.5c0.4,0,0.7-0.1,0.9-0.2c0.2-0.2,0.3-0.4,0.3-0.6c0-0.3,0.1-0.7,0.1-1.2v-2.6
		c0-0.5,0-0.8-0.1-1.1c-0.1-0.2-0.2-0.4-0.4-0.5c-0.2-0.1-0.5-0.2-0.8-0.2h-0.6v6.4H206.3z"/>
	<path fill="#7EBAE3" d="M209.7,41.2h3.1V42h-2v2.7h1.6v0.8h-1.6v3h2v0.8h-3.1V41.2z"/>
	<path fill="#7EBAE3" d="M213.8,41.2h1.6c0.8,0,1.4,0.2,1.8,0.5c0.4,0.3,0.6,0.9,0.6,1.6c0,1-0.3,1.7-1,1.9l1.1,4h-1.1l-1.1-3.8
		h-0.9v3.8h-1.1L213.8,41.2L213.8,41.2z M215.4,44.7c0.5,0,0.8-0.1,1-0.3c0.2-0.2,0.3-0.5,0.3-1c0-0.3,0-0.6-0.1-0.8
		c-0.1-0.2-0.2-0.3-0.4-0.4c-0.2-0.1-0.4-0.1-0.8-0.1h-0.5v2.7L215.4,44.7L215.4,44.7z"/>
	<path fill="#7EBAE3" d="M221.3,41.2h1.6c0.8,0,1.4,0.2,1.8,0.5c0.4,0.3,0.6,0.9,0.6,1.6c0,1-0.3,1.7-1,1.9l1.1,4h-1.1l-1.1-3.8
		h-0.9v3.8h-1.1L221.3,41.2L221.3,41.2z M222.8,44.7c0.5,0,0.8-0.1,1-0.3c0.2-0.2,0.3-0.5,0.3-1c0-0.3,0-0.6-0.1-0.8
		c-0.1-0.2-0.2-0.3-0.4-0.4c-0.2-0.1-0.4-0.1-0.8-0.1h-0.5v2.7L222.8,44.7L222.8,44.7z"/>
	<path fill="#7EBAE3" d="M226.4,41.2h3.1V42h-2v2.7h1.6v0.8h-1.6v3h2v0.8h-3.1V41.2z"/>
	<path fill="#7EBAE3" d="M230.8,48.6c-0.3-0.5-0.5-1.1-0.5-2v-2.8c0-0.9,0.2-1.6,0.5-2c0.3-0.5,0.9-0.7,1.7-0.7
		c0.7,0,1.2,0.2,1.6,0.6c0.3,0.4,0.5,1,0.5,1.7V44h-1.1v-0.6c0-0.4,0-0.7,0-0.9s-0.1-0.4-0.3-0.5c-0.1-0.1-0.4-0.2-0.7-0.2
		s-0.5,0.1-0.7,0.2s-0.2,0.3-0.3,0.5c0,0.2-0.1,0.5-0.1,0.9v3.2c0,0.4,0,0.7,0.1,1c0.1,0.3,0.2,0.4,0.3,0.5c0.1,0.1,0.4,0.1,0.6,0.1
		c0.3,0,0.5-0.1,0.6-0.2s0.2-0.3,0.3-0.5c0-0.2,0.1-0.5,0.1-0.9V46h1.1v0.6c0,0.8-0.2,1.4-0.5,1.8c-0.3,0.4-0.8,0.6-1.6,0.6
		C231.7,49.4,231.1,49.1,230.8,48.6z"/>
	<path fill="#7EBAE3" d="M235.6,41.2h3.1V42h-2v2.7h1.6v0.8h-1.6v3h2v0.8h-3.1V41.2z"/>
	<path fill="#7EBAE3" d="M239.7,41.2h1.1v8.1h-1.1V41.2z"/>
	<path fill="#7EBAE3" d="M242.1,41.2h2c0.7,0,1.2,0.2,1.5,0.6c0.3,0.4,0.5,0.9,0.5,1.7c0,0.7-0.2,1.2-0.5,1.5
		c-0.3,0.4-0.8,0.5-1.5,0.5h-0.9v3.8h-1.1V41.2z M243.8,44.7c0.3,0,0.6,0,0.8-0.1c0.2-0.1,0.3-0.2,0.4-0.4s0.1-0.4,0.1-0.8
		c0-0.4,0-0.7-0.1-0.9s-0.2-0.3-0.4-0.4c-0.2-0.1-0.5-0.1-0.8-0.1h-0.5v2.7H243.8z"/>
	<path fill="#7EBAE3" d="M247.8,42h-1.4v-0.8h3.8V42h-1.3v7.2h-1.1V42z"/>
</g>
<rect x="36" y="17" fill="#F0EFEF" width="185" height="6"/>
<rect x="34" y="17" fill="#7EBAE3" width="100" height="6"/>
<circle fill="#7EBAE3" cx="35.9" cy="20.2" r="13.9"/>
<circle fill="#7EBAE3" cx="127.9" cy="20.2" r="13.9"/>
<circle fill="#F0EFEF" cx="219.9" cy="20.1" r="13.9"/>
<g>
	<path fill="#FFFFFF" d="M36.2,16.3c0,0-0.3,0.1-0.8,0.2s-0.9,0.2-1,0.2v-1.1c1.1-0.3,1.8-0.6,2.2-1.1h1.1V25h-1.4L36.2,16.3
		L36.2,16.3z"/>
</g>
<g>
	<path fill="#FFFFFF" d="M125,24.1l2.7-4.2c0.1-0.2,0.2-0.3,0.3-0.4c0.3-0.5,0.5-0.9,0.7-1.2c0.1-0.3,0.2-0.7,0.2-1.2
		s-0.1-0.9-0.2-1.2c-0.2-0.3-0.4-0.4-0.8-0.4c-0.8,0-1.2,0.6-1.2,1.9v0.4h-1.4v-0.4c0-1,0.2-1.7,0.6-2.3c0.4-0.5,1.1-0.8,2-0.8
		c0.8,0,1.5,0.2,1.9,0.7c0.4,0.5,0.6,1.1,0.6,2c0,0.4-0.1,0.8-0.1,1.1c-0.1,0.3-0.2,0.6-0.4,0.9c-0.2,0.3-0.4,0.6-0.6,1l-2.4,3.7
		h3.3v1.2h-5v-0.8H125z"/>
</g>
<g>
	<path fill="#7EBAE3" d="M217.7,24.5c-0.4-0.5-0.7-1.1-0.7-2v-0.4h1.4v0.2c0,0.5,0.1,0.9,0.3,1.2s0.5,0.4,0.9,0.4
		c0.5,0,0.8-0.2,1-0.5c0.2-0.3,0.3-0.8,0.3-1.4s-0.1-1.1-0.3-1.4c-0.2-0.3-0.6-0.5-1.1-0.6c0,0-0.1,0-0.2,0v-1.4h0.2
		c0.5,0,0.8-0.1,1.1-0.4c0.3-0.3,0.3-0.6,0.3-1.2c0-0.5-0.1-0.9-0.3-1.2c-0.2-0.3-0.5-0.4-0.9-0.4c-0.5,0-0.8,0.1-0.9,0.4
		c-0.1,0.3-0.3,0.7-0.3,1.3v0.2H217v-0.4c0-0.9,0.2-1.5,0.7-2c0.4-0.5,1.1-0.7,1.9-0.7c0.8,0,1.5,0.2,1.9,0.7s0.7,1.1,0.7,2
		c0,0.6-0.1,1.1-0.4,1.5s-0.6,0.7-1.1,0.8c0.5,0.1,0.8,0.4,1.1,0.9s0.4,1,0.4,1.7c0,1-0.2,1.7-0.6,2.3c-0.4,0.6-1.1,0.8-2,0.8
		C218.8,25.2,218.1,25,217.7,24.5z"/>
</g>
</svg>
