<?xml version="1.0" encoding="utf-8"?>
<!-- Generator: Adobe Illustrator 15.0.0, SVG Export Plug-In . SVG Version: 6.00 Build 0)  -->
<!DOCTYPE svg PUBLIC "-//W3C//DTD SVG 1.1//EN" "http://www.w3.org/Graphics/SVG/1.1/DTD/svg11.dtd" [
	<!ENTITY ns_flows "http://ns.adobe.com/Flows/1.0/">
	<!ENTITY ns_extend "http://ns.adobe.com/Extensibility/1.0/">
	<!ENTITY ns_ai "http://ns.adobe.com/AdobeIllustrator/10.0/">
	<!ENTITY ns_graphs "http://ns.adobe.com/Graphs/1.0/">
]>
<svg version="1.1" id="Layer_1" xmlns:x="&ns_extend;" xmlns:i="&ns_ai;" xmlns:graph="&ns_graphs;"
	 xmlns="http://www.w3.org/2000/svg" xmlns:xlink="http://www.w3.org/1999/xlink" xmlns:a="http://ns.adobe.com/AdobeSVGViewerExtensions/3.0/"
	 x="0px" y="0px" width="256px" height="57px" viewBox="0 0 256 57" enable-background="new 0 0 256 57" xml:space="preserve">
<rect x="0.5" y="0.5" fill="#FFFFFF" stroke="#B3E4FF" stroke-miterlimit="10" width="255" height="56"/>
<path fill="#FFFFFF" stroke="#7EBAE3" stroke-miterlimit="10" d="M251.5,29c0,8-6.6,14.5-14.8,14.5H19.3C11.1,43.5,4.5,37,4.5,29
	l0,0c0-8,6.6-14.5,14.8-14.5h217.4C244.9,14.5,251.5,21,251.5,29L251.5,29z"/>
<g>
	<path fill="#7EBAE3" d="M14.5,32.9c-0.3-0.5-0.5-1.1-0.5-2v-3.1c0-0.8,0.2-1.5,0.5-1.9s0.9-0.6,1.7-0.6c0.8,0,1.4,0.2,1.7,0.7
		c0.3,0.4,0.5,1.1,0.5,1.9V31c0,0.8-0.2,1.5-0.5,1.9c-0.3,0.5-0.9,0.7-1.7,0.7C15.5,33.5,14.9,33.3,14.5,32.9z M17.1,32.3
		c0.1-0.2,0.2-0.6,0.2-1.1v-3.5c0-0.5-0.1-0.9-0.2-1.1c-0.1-0.2-0.4-0.4-0.8-0.4c-0.4,0-0.7,0.1-0.9,0.4c-0.1,0.2-0.2,0.6-0.2,1.1
		v3.5c0,0.5,0.1,0.9,0.2,1.1s0.4,0.4,0.9,0.4C16.7,32.7,17,32.5,17.1,32.3z"/>
	<path fill="#7EBAE3" d="M19.6,25.4h1.6c0.8,0,1.4,0.2,1.8,0.5c0.4,0.3,0.6,0.9,0.6,1.6c0,1-0.3,1.7-1,1.9l1.1,4.1h-1.1l-1.1-3.8
		h-0.9v3.8h-1.1v-8.1H19.6z M21.1,28.9c0.5,0,0.8-0.1,1-0.3c0.2-0.2,0.3-0.5,0.3-1.1c0-0.3,0-0.6-0.1-0.8c-0.1-0.2-0.2-0.3-0.4-0.4
		c-0.2-0.1-0.4-0.1-0.8-0.1h-0.5v2.7H21.1z"/>
	<path fill="#7EBAE3" d="M24.8,25.4h1.8c0.9,0,1.5,0.2,1.9,0.6s0.5,1,0.5,1.9v3c0,0.9-0.2,1.6-0.5,2c-0.4,0.4-0.9,0.7-1.8,0.7h-1.9
		V25.4z M26.5,32.6c0.4,0,0.7-0.1,0.9-0.2c0.2-0.1,0.3-0.4,0.3-0.6c0-0.3,0.1-0.7,0.1-1.2V28c0-0.5,0-0.8-0.1-1.1
		c-0.1-0.3-0.2-0.4-0.4-0.5c-0.2-0.1-0.5-0.2-0.8-0.2h-0.6v6.4H26.5z"/>
	<path fill="#7EBAE3" d="M30,25.4h3.1v0.8h-2v2.7h1.6v0.8h-1.6v3h2v0.8H30V25.4z"/>
	<path fill="#7EBAE3" d="M34.1,25.4h1.6c0.8,0,1.4,0.2,1.8,0.5c0.4,0.3,0.6,0.9,0.6,1.6c0,1-0.3,1.7-1,1.9l1.1,4.1h-1.1L36,29.7
		h-0.9v3.8H34v-8.1H34.1z M35.7,28.9c0.5,0,0.8-0.1,1-0.3c0.2-0.2,0.3-0.6,0.3-1.1c0-0.3,0-0.6-0.1-0.8c-0.1-0.2-0.2-0.3-0.4-0.4
		c-0.2-0.1-0.4-0.1-0.8-0.1h-0.5v2.7H35.7z"/>
	<path fill="#7EBAE3" d="M41.9,32.9c-0.4-0.4-0.6-1-0.6-1.7l1-0.3c0,0.5,0.1,0.9,0.3,1.3c0.2,0.3,0.5,0.5,0.8,0.5
		c0.3,0,0.5-0.1,0.7-0.2c0.2-0.1,0.2-0.4,0.2-0.7s-0.1-0.6-0.2-0.8s-0.4-0.5-0.7-0.7L42.1,29c-0.3-0.2-0.5-0.5-0.6-0.8
		c-0.1-0.3-0.2-0.6-0.2-1c0-0.6,0.2-1.1,0.5-1.4c0.3-0.3,0.8-0.5,1.4-0.5c0.6,0,1.1,0.2,1.4,0.5c0.3,0.3,0.5,0.9,0.6,1.6l-1,0.3
		c0-0.5-0.1-0.8-0.3-1.1c-0.2-0.3-0.4-0.4-0.8-0.4c-0.3,0-0.5,0.1-0.7,0.2c-0.2,0.2-0.2,0.4-0.2,0.7c0,0.2,0,0.4,0.1,0.6
		c0.1,0.2,0.2,0.3,0.4,0.5l1.4,1.2c0.4,0.3,0.6,0.7,0.8,1c0.2,0.3,0.3,0.8,0.3,1.3c0,0.6-0.2,1.1-0.5,1.4c-0.4,0.3-0.8,0.5-1.4,0.5
		C42.8,33.5,42.3,33.3,41.9,32.9z"/>
	<path fill="#7EBAE3" d="M47.1,33.2c-0.3-0.2-0.5-0.5-0.7-1c-0.1-0.4-0.2-0.9-0.2-1.5v-5.4h1.1v5.4c0,0.6,0.1,1.1,0.2,1.4
		c0.1,0.3,0.4,0.5,0.9,0.5c0.4,0,0.7-0.2,0.9-0.5c0.1-0.3,0.2-0.8,0.2-1.4v-5.4h1.1v5.4c0,0.6-0.1,1.1-0.2,1.5
		c-0.1,0.4-0.3,0.7-0.6,1c-0.3,0.3-0.8,0.3-1.3,0.3C47.8,33.5,47.4,33.4,47.1,33.2z"/>
	<path fill="#7EBAE3" d="M51.7,25.4h1.9c0.7,0,1.3,0.2,1.6,0.5c0.4,0.3,0.5,0.8,0.5,1.5c0,1-0.4,1.6-1.2,1.7c0.5,0.1,0.8,0.3,1,0.7
		c0.2,0.3,0.3,0.8,0.3,1.4c0,0.7-0.2,1.3-0.5,1.7c-0.3,0.4-0.9,0.6-1.6,0.6h-2.2v-8.1H51.7z M53.5,28.7c0.5,0,0.8-0.1,1-0.3
		c0.2-0.2,0.3-0.6,0.3-1s-0.1-0.6-0.2-0.8c-0.1-0.2-0.3-0.3-0.5-0.3c-0.2,0-0.5-0.1-1-0.1h-0.3v2.5H53.5z M53.6,32.6
		c0.3,0,0.6-0.1,0.8-0.2c0.2-0.1,0.3-0.3,0.4-0.5c0.1-0.2,0.1-0.5,0.1-0.9c0-0.5-0.1-0.9-0.3-1.2c-0.2-0.3-0.6-0.4-1-0.4h-0.7v3h0.7
		V32.6z"/>
	<path fill="#7EBAE3" d="M57.1,25.4h1.1l1.4,6.6l1.4-6.6h1.1l0.2,8.1h-0.9l-0.1-5.9L60,33.5h-0.6L58,27.6l-0.1,5.9H57L57.1,25.4z"/>
	<path fill="#7EBAE3" d="M63.6,25.4h1.1v8.1h-1.1V25.4z"/>
	<path fill="#7EBAE3" d="M67,26.2h-1.4v-0.8h3.8v0.8h-1.3v7.3H67V26.2z"/>
	<path fill="#7EBAE3" d="M71.1,26.2h-1.4v-0.8h3.8v0.8h-1.3v7.3h-1.1V26.2z"/>
	<path fill="#7EBAE3" d="M74.3,25.4h3.1v0.8h-2v2.7H77v0.8h-1.6v3h2v0.8h-3.2L74.3,25.4L74.3,25.4z"/>
	<path fill="#7EBAE3" d="M78.4,25.4h1.8c0.9,0,1.5,0.2,1.9,0.6s0.5,1,0.5,1.9v3c0,0.9-0.2,1.6-0.5,2c-0.4,0.4-0.9,0.7-1.8,0.7h-1.9
		V25.4z M80.2,32.6c0.4,0,0.7-0.1,0.9-0.2c0.2-0.1,0.3-0.4,0.3-0.6c0-0.3,0.1-0.7,0.1-1.2V28c0-0.5,0-0.8-0.1-1.1
		c-0.1-0.3-0.2-0.4-0.4-0.5s-0.5-0.2-0.8-0.2h-0.6v6.4H80.2z"/>
</g>
<g>
	<path fill="#7EBAE3" d="M181,32.9c-0.3-0.5-0.5-1.1-0.5-2v-3.1c0-0.8,0.2-1.5,0.5-1.9s0.9-0.6,1.7-0.6s1.4,0.2,1.7,0.7
		c0.3,0.4,0.5,1.1,0.5,1.9V31c0,0.8-0.2,1.5-0.5,1.9c-0.3,0.5-0.9,0.7-1.7,0.7C181.9,33.5,181.3,33.3,181,32.9z M183.5,32.3
		c0.1-0.2,0.2-0.6,0.2-1.1v-3.5c0-0.5-0.1-0.9-0.2-1.1c-0.1-0.2-0.4-0.4-0.8-0.4c-0.4,0-0.7,0.1-0.9,0.4c-0.1,0.2-0.2,0.6-0.2,1.1
		v3.5c0,0.5,0.1,0.9,0.2,1.1c0.1,0.2,0.4,0.4,0.9,0.4C183.1,32.7,183.4,32.5,183.5,32.3z"/>
	<path fill="#7EBAE3" d="M186,25.4h1.6c0.8,0,1.4,0.2,1.8,0.5c0.4,0.3,0.6,0.9,0.6,1.6c0,1-0.3,1.7-1,1.9l1.2,4.1H189l-1.1-3.8H187
		v3.8h-1V25.4z M187.5,28.9c0.5,0,0.8-0.1,1-0.3c0.2-0.2,0.3-0.5,0.3-1.1c0-0.3,0-0.6-0.1-0.8c-0.1-0.2-0.2-0.3-0.4-0.4
		c-0.2-0.1-0.5-0.1-0.8-0.1H187v2.7H187.5z"/>
	<path fill="#7EBAE3" d="M191.2,25.4h1.8c0.9,0,1.5,0.2,1.9,0.6c0.4,0.4,0.5,1,0.5,1.9v3c0,0.9-0.2,1.6-0.5,2
		c-0.4,0.4-0.9,0.7-1.8,0.7h-1.9V25.4z M192.9,32.6c0.4,0,0.7-0.1,0.9-0.2c0.2-0.1,0.3-0.4,0.3-0.6c0-0.3,0.1-0.7,0.1-1.2V28
		c0-0.5,0-0.8-0.1-1.1c-0.1-0.2-0.2-0.4-0.4-0.5s-0.5-0.2-0.8-0.2h-0.6v6.4H192.9z"/>
	<path fill="#7EBAE3" d="M196.4,25.4h3.1v0.8h-2v2.7h1.6v0.8h-1.6v3h2v0.8h-3.2v-8.1H196.4z"/>
	<path fill="#7EBAE3" d="M200.5,25.4h1.6c0.8,0,1.4,0.2,1.8,0.5c0.4,0.3,0.6,0.9,0.6,1.6c0,1-0.3,1.7-1,1.9l1.2,4.1h-1.1l-1.1-3.8
		h-0.9v3.8h-1.1V25.4z M202.1,28.9c0.5,0,0.8-0.1,1-0.3c0.2-0.2,0.3-0.5,0.3-1.1c0-0.3,0-0.6-0.1-0.8c-0.1-0.2-0.2-0.3-0.4-0.4
		c-0.2-0.1-0.5-0.1-0.8-0.1h-0.5v2.7H202.1z"/>
	<path fill="#7EBAE3" d="M208,25.4h1.6c0.8,0,1.4,0.2,1.8,0.5c0.4,0.3,0.6,0.9,0.6,1.6c0,1-0.3,1.7-1,1.9l1.2,4.1h-1.1l-1.1-3.8
		h-0.9v3.8H208V25.4z M209.5,28.9c0.5,0,0.8-0.1,1-0.3c0.2-0.2,0.3-0.5,0.3-1.1c0-0.3,0-0.6-0.1-0.8c-0.1-0.2-0.2-0.3-0.4-0.4
		c-0.2-0.1-0.5-0.1-0.8-0.1H209v2.7H209.5z"/>
	<path fill="#7EBAE3" d="M213.2,25.4h3.1v0.8h-2v2.7h1.6v0.8h-1.6v3h2v0.8h-3.2v-8.1H213.2z"/>
	<path fill="#7EBAE3" d="M217.6,32.8c-0.3-0.5-0.5-1.1-0.5-2V28c0-0.9,0.2-1.6,0.5-2c0.3-0.4,0.9-0.7,1.7-0.7c0.7,0,1.2,0.2,1.6,0.6
		c0.3,0.4,0.5,1,0.5,1.7v0.6h-1.1v-0.6c0-0.4,0-0.7,0-0.9c0-0.2-0.1-0.4-0.3-0.5c-0.1-0.1-0.4-0.2-0.7-0.2s-0.5,0.1-0.7,0.2
		c-0.2,0.1-0.2,0.3-0.3,0.5c0,0.2-0.1,0.5-0.1,0.9V31c0,0.4,0,0.7,0.1,1c0.1,0.2,0.2,0.4,0.3,0.5c0.2,0.1,0.4,0.2,0.6,0.2
		c0.3,0,0.5-0.1,0.6-0.2c0.1-0.1,0.2-0.3,0.3-0.5c0-0.2,0.1-0.5,0.1-0.9v-0.6h1.1V31c0,0.8-0.2,1.4-0.5,1.9
		c-0.3,0.4-0.8,0.6-1.6,0.6C218.5,33.5,217.9,33.3,217.6,32.8z"/>
	<path fill="#7EBAE3" d="M222.4,25.4h3.1v0.8h-2v2.7h1.6v0.8h-1.6v3h2v0.8h-3.2v-8.1H222.4z"/>
	<path fill="#7EBAE3" d="M226.5,25.4h1.1v8.1h-1.1V25.4z"/>
	<path fill="#7EBAE3" d="M228.9,25.4h2c0.7,0,1.2,0.2,1.5,0.6c0.3,0.4,0.5,0.9,0.5,1.7c0,0.7-0.2,1.2-0.5,1.5
		c-0.3,0.3-0.8,0.5-1.5,0.5H230v3.8h-1.1V25.4z M230.6,28.9c0.3,0,0.6,0,0.8-0.1c0.2-0.1,0.3-0.2,0.4-0.4c0.1-0.2,0.1-0.4,0.1-0.8
		s0-0.7-0.1-0.9c-0.1-0.2-0.2-0.3-0.4-0.4c-0.2-0.1-0.5-0.1-0.8-0.1h-0.5v2.7H230.6z"/>
	<path fill="#7EBAE3" d="M234.6,26.2h-1.4v-0.8h3.8v0.8h-1.3v7.3h-1.1V26.2z"/>
</g>
<polyline fill="#7EBAE3" points="168,44 88,44 88,29 88,14 168,14 "/>
<g>
	<path fill="#FFFFFF" d="M100.7,32.9c-0.4-0.4-0.6-1-0.6-1.7l1-0.3c0,0.5,0.1,0.9,0.3,1.3c0.2,0.3,0.5,0.5,0.8,0.5
		c0.3,0,0.5-0.1,0.7-0.2c0.2-0.1,0.2-0.4,0.2-0.7s-0.1-0.6-0.2-0.8s-0.4-0.5-0.7-0.7l-1.4-1.2c-0.3-0.2-0.5-0.5-0.6-0.8
		c-0.1-0.3-0.2-0.6-0.2-1c0-0.6,0.2-1.1,0.5-1.4c0.3-0.3,0.8-0.5,1.4-0.5s1.1,0.2,1.4,0.5c0.3,0.3,0.5,0.9,0.6,1.6l-1,0.3
		c0-0.5-0.1-0.8-0.3-1.1c-0.2-0.3-0.4-0.4-0.8-0.4c-0.3,0-0.5,0.1-0.7,0.2c-0.2,0.2-0.2,0.4-0.2,0.7c0,0.2,0,0.4,0.1,0.6
		c0.1,0.2,0.2,0.3,0.4,0.5l1.4,1.2c0.4,0.3,0.6,0.7,0.8,1c0.2,0.3,0.3,0.8,0.3,1.3c0,0.6-0.2,1.1-0.5,1.4c-0.4,0.3-0.8,0.5-1.4,0.5
		C101.6,33.5,101,33.3,100.7,32.9z"/>
	<path fill="#FFFFFF" d="M105.1,25.4h2c0.7,0,1.2,0.2,1.5,0.6c0.3,0.4,0.5,0.9,0.5,1.7c0,0.7-0.2,1.2-0.5,1.5
		c-0.3,0.4-0.8,0.5-1.5,0.5h-0.9v3.8h-1.1V25.4z M106.7,28.9c0.3,0,0.6,0,0.8-0.1c0.2-0.1,0.3-0.2,0.4-0.4c0.1-0.2,0.1-0.4,0.1-0.8
		s0-0.7-0.1-0.9c-0.1-0.2-0.2-0.3-0.4-0.4c-0.2-0.1-0.5-0.1-0.8-0.1h-0.5v2.7H106.7z"/>
	<path fill="#FFFFFF" d="M109.9,25.4h3.1v0.8h-2v2.7h1.6v0.8H111v3h2v0.8h-3.2v-8.1H109.9z"/>
	<path fill="#FFFFFF" d="M114.3,32.8c-0.3-0.5-0.5-1.1-0.5-2V28c0-0.9,0.2-1.6,0.5-2c0.3-0.4,0.9-0.7,1.7-0.7c0.7,0,1.2,0.2,1.6,0.6
		c0.3,0.4,0.5,1,0.5,1.7v0.6H117v-0.6c0-0.4,0-0.7,0-0.9c0-0.2-0.1-0.4-0.3-0.5c-0.1-0.1-0.4-0.2-0.7-0.2s-0.5,0.1-0.7,0.2
		c-0.1,0.1-0.2,0.3-0.3,0.5c0,0.2-0.1,0.5-0.1,0.9V31c0,0.4,0,0.7,0.1,1c0.1,0.2,0.2,0.4,0.3,0.5c0.1,0.1,0.4,0.2,0.6,0.2
		c0.3,0,0.5-0.1,0.6-0.2s0.2-0.3,0.3-0.5c0-0.2,0.1-0.5,0.1-0.9v-0.6h1.1V31c0,0.8-0.2,1.4-0.5,1.9c-0.3,0.4-0.8,0.6-1.6,0.6
		C115.2,33.5,114.6,33.3,114.3,32.8z"/>
	<path fill="#FFFFFF" d="M119.1,25.4h1.1v8.1h-1.1V25.4z"/>
	<path fill="#FFFFFF" d="M122.8,25.4h1.1l1.7,8.1h-1.1l-0.4-2h-1.6l-0.4,2H121L122.8,25.4z M124.1,30.6l-0.7-3.6l-0.7,3.6H124.1z"/>
	<path fill="#FFFFFF" d="M126.5,25.4h1.1v7.3h2.1v0.8h-3.2V25.4z"/>
	<path fill="#FFFFFF" d="M133.1,32.9c-0.3-0.5-0.5-1.1-0.5-2v-3.1c0-0.8,0.2-1.5,0.5-1.9c0.3-0.4,0.9-0.6,1.7-0.6s1.4,0.2,1.7,0.7
		c0.3,0.4,0.5,1.1,0.5,1.9V31c0,0.8-0.2,1.5-0.5,1.9c-0.3,0.5-0.9,0.7-1.7,0.7C134,33.5,133.4,33.3,133.1,32.9z M135.7,32.3
		c0.1-0.2,0.2-0.6,0.2-1.1v-3.5c0-0.5-0.1-0.9-0.2-1.1c-0.1-0.2-0.4-0.4-0.8-0.4c-0.4,0-0.7,0.1-0.9,0.4c-0.1,0.2-0.2,0.6-0.2,1.1
		v3.5c0,0.5,0.1,0.9,0.2,1.1s0.4,0.4,0.9,0.4C135.2,32.7,135.5,32.5,135.7,32.3z"/>
	<path fill="#FFFFFF" d="M138.1,25.4h3.1v0.8h-2v2.7h1.6v0.8h-1.6v3.8h-1.1V25.4z"/>
	<path fill="#FFFFFF" d="M142,25.4h3.1v0.8h-2v2.7h1.6v0.8h-1.6v3.8H142V25.4z"/>
	<path fill="#FFFFFF" d="M145.9,25.4h3.1v0.8h-2v2.7h1.6v0.8H147v3h2v0.8h-3.2v-8.1H145.9z"/>
	<path fill="#FFFFFF" d="M150,25.4h1.6c0.8,0,1.4,0.2,1.8,0.5c0.4,0.3,0.6,0.9,0.6,1.6c0,1-0.3,1.7-1,1.9l1.1,4.1H153l-1.1-3.8H151
		v3.8h-1V25.4z M151.6,28.9c0.5,0,0.8-0.1,1-0.3c0.2-0.2,0.3-0.5,0.3-1.1c0-0.3,0-0.6-0.1-0.8c-0.1-0.2-0.2-0.3-0.4-0.4
		c-0.2-0.1-0.4-0.1-0.8-0.1h-0.5v2.7H151.6z"/>
</g>
</svg>
