<?xml version="1.0" encoding="utf-8"?>
<!-- Generator: Adobe Illustrator 15.0.0, SVG Export Plug-In . SVG Version: 6.00 Build 0)  -->
<!DOCTYPE svg PUBLIC "-//W3C//DTD SVG 1.1//EN" "http://www.w3.org/Graphics/SVG/1.1/DTD/svg11.dtd" [
	<!ENTITY ns_flows "http://ns.adobe.com/Flows/1.0/">
	<!ENTITY ns_extend "http://ns.adobe.com/Extensibility/1.0/">
	<!ENTITY ns_ai "http://ns.adobe.com/AdobeIllustrator/10.0/">
	<!ENTITY ns_graphs "http://ns.adobe.com/Graphs/1.0/">
]>
<svg version="1.1" id="Layer_1" xmlns:x="&ns_extend;" xmlns:i="&ns_ai;" xmlns:graph="&ns_graphs;"
	 xmlns="http://www.w3.org/2000/svg" xmlns:xlink="http://www.w3.org/1999/xlink" xmlns:a="http://ns.adobe.com/AdobeSVGViewerExtensions/3.0/"
	 x="0px" y="0px" width="256px" height="57px" viewBox="0 0 256 57" enable-background="new 0 0 256 57" xml:space="preserve">
<rect x="0.5" y="0.5" fill="#FFFFFF" stroke="#B3E4FF" stroke-miterlimit="10" width="255" height="56"/>
<path fill="#F2F2F2" stroke="#7EBAE3" stroke-miterlimit="10" d="M251.5,29c0,8-6.6,14.5-14.8,14.5H19.3C11.1,43.5,4.5,37,4.5,29
	l0,0c0-8,6.6-14.5,14.8-14.5h217.4C244.9,14.5,251.5,21,251.5,29L251.5,29z"/>
<g>
	<path fill="#7EBAE3" d="M14.3,26.4c0,0-0.2,0.1-0.5,0.1c-0.3,0-0.6,0.1-0.7,0.1V26c0.7-0.2,1.2-0.4,1.5-0.8h0.7v7.3h-1V26.4z"/>
	<path fill="#7EBAE3" d="M16.8,31.4h1v1.1h-1V31.4z"/>
	<path fill="#7EBAE3" d="M21,31.9c-0.3-0.4-0.5-1-0.5-1.8v-2.8c0-0.8,0.2-1.3,0.5-1.7s0.8-0.6,1.5-0.6s1.2,0.2,1.5,0.6
		s0.5,1,0.5,1.7v2.8c0,0.8-0.2,1.3-0.5,1.7c-0.3,0.4-0.8,0.6-1.5,0.6C21.8,32.5,21.3,32.3,21,31.9z M23.3,31.4
		c0.1-0.2,0.2-0.6,0.2-1v-3.2c0-0.4-0.1-0.8-0.2-1c-0.1-0.2-0.4-0.3-0.8-0.3s-0.6,0.1-0.8,0.3c-0.1,0.2-0.2,0.5-0.2,1v3.2
		c0,0.5,0.1,0.8,0.2,1c0.1,0.2,0.4,0.3,0.8,0.3S23.2,31.6,23.3,31.4z"/>
	<path fill="#7EBAE3" d="M25.5,25.2H27c0.7,0,1.3,0.2,1.6,0.5c0.3,0.3,0.5,0.8,0.5,1.5c0,0.9-0.3,1.5-0.9,1.7l1,3.7h-1l-1-3.4h-0.8
		v3.4h-1v-7.4H25.5z M26.9,28.3c0.4,0,0.8-0.1,0.9-0.3c0.2-0.2,0.3-0.5,0.3-0.9c0-0.3,0-0.5-0.1-0.7c-0.1-0.2-0.2-0.3-0.4-0.4
		c-0.2-0.1-0.4-0.1-0.7-0.1h-0.5v2.4H26.9z"/>
	<path fill="#7EBAE3" d="M30.2,25.2h1.6c0.8,0,1.3,0.2,1.7,0.5c0.4,0.3,0.5,0.9,0.5,1.7v2.7c0,0.8-0.2,1.4-0.5,1.8
		c-0.3,0.4-0.9,0.6-1.6,0.6h-1.7V25.2z M31.8,31.7c0.4,0,0.6-0.1,0.8-0.2c0.2-0.1,0.3-0.3,0.3-0.6c0-0.2,0.1-0.6,0.1-1.1v-2.4
		c0-0.4,0-0.7-0.1-0.9s-0.2-0.4-0.3-0.5c-0.2-0.1-0.4-0.2-0.8-0.2h-0.5v5.8h0.5V31.7z"/>
	<path fill="#7EBAE3" d="M34.9,25.2h2.8V26H36v2.4h1.5v0.7H36v2.7h1.8v0.7H35v-7.3H34.9z"/>
	<path fill="#7EBAE3" d="M38.6,25.2h1.5c0.7,0,1.3,0.2,1.6,0.5c0.3,0.3,0.5,0.8,0.5,1.5c0,0.9-0.3,1.5-0.9,1.7l1,3.7h-1l-1-3.4h-0.8
		v3.4h-1v-7.4H38.6z M40,28.3c0.4,0,0.8-0.1,0.9-0.3c0.2-0.2,0.3-0.5,0.3-0.9c0-0.3,0-0.5-0.1-0.7c-0.1-0.2-0.2-0.3-0.4-0.4
		c-0.2-0.1-0.4-0.1-0.7-0.1h-0.5v2.4H40z"/>
	<path fill="#7EBAE3" d="M45.7,32c-0.3-0.4-0.5-0.9-0.5-1.6l0.9-0.2c0,0.5,0.1,0.8,0.3,1.1c0.2,0.3,0.4,0.4,0.8,0.4
		c0.3,0,0.5-0.1,0.6-0.2c0.1-0.1,0.2-0.4,0.2-0.6c0-0.3-0.1-0.5-0.2-0.7c-0.1-0.2-0.3-0.4-0.6-0.7L46,28.4c-0.2-0.2-0.4-0.4-0.5-0.7
		c-0.1-0.2-0.2-0.6-0.2-0.9c0-0.5,0.2-0.9,0.5-1.2c0.3-0.3,0.7-0.4,1.3-0.4s1,0.2,1.3,0.5c0.3,0.3,0.5,0.8,0.5,1.4L48,27.3
		c0-0.4-0.1-0.8-0.2-1c-0.1-0.2-0.4-0.3-0.7-0.3c-0.3,0-0.5,0.1-0.6,0.2c-0.1,0.1-0.2,0.3-0.2,0.6c0,0.2,0,0.4,0.1,0.5
		c0.1,0.1,0.2,0.3,0.4,0.4l1.2,1.1c0.3,0.3,0.6,0.6,0.8,0.9c0.2,0.3,0.3,0.7,0.3,1.1c0,0.5-0.2,1-0.5,1.3c-0.3,0.3-0.7,0.5-1.3,0.5
		C46.4,32.5,46,32.4,45.7,32z"/>
	<path fill="#7EBAE3" d="M50.3,32.2c-0.3-0.2-0.5-0.5-0.6-0.9c-0.1-0.4-0.2-0.8-0.2-1.4v-4.8h1V30c0,0.6,0.1,1,0.2,1.3
		c0.1,0.3,0.4,0.4,0.8,0.4s0.6-0.1,0.8-0.4c0.1-0.3,0.2-0.7,0.2-1.3v-4.9h1V30c0,0.6-0.1,1-0.2,1.4c-0.1,0.4-0.3,0.7-0.6,0.9
		c-0.3,0.2-0.7,0.3-1.2,0.3C51,32.5,50.6,32.4,50.3,32.2z"/>
	<path fill="#7EBAE3" d="M54.5,25.2h1.7c0.7,0,1.1,0.1,1.5,0.4c0.3,0.3,0.5,0.8,0.5,1.4c0,0.9-0.3,1.4-1,1.5
		c0.4,0.1,0.7,0.3,0.9,0.6c0.2,0.3,0.3,0.7,0.3,1.2c0,0.7-0.2,1.2-0.5,1.5c-0.3,0.4-0.8,0.5-1.4,0.5h-1.9v-7.1H54.5z M56.1,28.2
		c0.4,0,0.7-0.1,0.9-0.3c0.2-0.2,0.2-0.5,0.2-0.9c0-0.3,0-0.6-0.1-0.7C57,26.1,56.8,26,56.6,26c-0.2,0-0.5-0.1-0.9-0.1h-0.2v2.3
		H56.1z M56.2,31.7c0.3,0,0.5,0,0.7-0.1c0.2-0.1,0.3-0.2,0.3-0.4s0.1-0.5,0.1-0.8c0-0.5-0.1-0.8-0.3-1c-0.2-0.2-0.5-0.3-0.9-0.3
		h-0.6v2.7L56.2,31.7L56.2,31.7z"/>
	<path fill="#7EBAE3" d="M59.3,25.2h1l1.3,5.9l1.3-5.9h1l0.1,7.3h-0.8l-0.1-5.3l-1.2,5.3h-0.6l-1.2-5.3L60,32.5h-0.8L59.3,25.2z"/>
	<path fill="#7EBAE3" d="M65.2,25.2h1v7.3h-1V25.2z"/>
	<path fill="#7EBAE3" d="M68.2,25.9H67v-0.8h3.4v0.8h-1.2v6.5h-1V25.9z"/>
	<path fill="#7EBAE3" d="M71.9,25.9h-1.2v-0.8h3.4v0.8h-1.2v6.5h-1V25.9z"/>
	<path fill="#7EBAE3" d="M74.8,25.2h2.8V26h-1.8v2.4h1.5v0.7h-1.5v2.7h1.8v0.7h-2.8V25.2z"/>
	<path fill="#7EBAE3" d="M78.5,25.2H80c0.8,0,1.3,0.2,1.7,0.5c0.4,0.3,0.5,0.9,0.5,1.7v2.7c0,0.8-0.2,1.4-0.5,1.8
		c-0.3,0.4-0.9,0.6-1.6,0.6h-1.7v-7.3H78.5z M80.1,31.7c0.4,0,0.6-0.1,0.8-0.2c0.2-0.1,0.3-0.3,0.3-0.6c0-0.2,0.1-0.6,0.1-1.1v-2.4
		c0-0.4,0-0.7-0.1-0.9c-0.1-0.2-0.2-0.4-0.3-0.5c-0.2-0.1-0.4-0.2-0.8-0.2h-0.5v5.8h0.5V31.7z"/>
</g>
<g>
	<path fill="#7EBAE3" d="M174.9,33c-0.3-0.4-0.5-0.9-0.5-1.5v-0.3h1.1v0.2c0,0.4,0.1,0.7,0.2,1c0.1,0.2,0.4,0.3,0.7,0.3
		c0.4,0,0.6-0.1,0.7-0.4c0.1-0.3,0.2-0.6,0.2-1.1s-0.1-0.8-0.3-1.1c-0.2-0.3-0.4-0.4-0.8-0.4c0,0-0.1,0-0.2,0v-1.1h0.1
		c0.4,0,0.7-0.1,0.8-0.3c0.2-0.2,0.3-0.5,0.3-0.9s-0.1-0.7-0.2-0.9s-0.4-0.3-0.7-0.3s-0.6,0.1-0.7,0.3c-0.1,0.2-0.2,0.5-0.2,1v0.2
		h-1.1v-0.3c0-0.7,0.2-1.2,0.5-1.5c0.3-0.4,0.8-0.5,1.5-0.5s1.1,0.2,1.5,0.5c0.4,0.3,0.5,0.9,0.5,1.5c0,0.5-0.1,0.9-0.3,1.2
		c-0.2,0.3-0.5,0.5-0.9,0.6c0.4,0.1,0.7,0.3,0.9,0.7c0.2,0.3,0.3,0.8,0.3,1.3c0,0.8-0.2,1.3-0.5,1.8c-0.3,0.4-0.8,0.6-1.5,0.6
		C175.7,33.5,175.2,33.4,174.9,33z"/>
	<path fill="#7EBAE3" d="M179.2,32.3h1.1v1.2h-1.1V32.3z"/>
	<path fill="#7EBAE3" d="M183.9,32.9c-0.3-0.5-0.5-1.1-0.5-2v-3.1c0-0.8,0.2-1.5,0.5-1.9c0.3-0.4,0.9-0.6,1.7-0.6
		c0.8,0,1.4,0.2,1.7,0.7c0.3,0.4,0.5,1.1,0.5,1.9V31c0,0.8-0.2,1.5-0.5,1.9c-0.3,0.5-0.9,0.7-1.7,0.7
		C184.8,33.5,184.2,33.3,183.9,32.9z M186.4,32.3c0.1-0.2,0.2-0.6,0.2-1.1v-3.5c0-0.5-0.1-0.9-0.2-1.1c-0.1-0.2-0.4-0.4-0.8-0.4
		c-0.4,0-0.7,0.1-0.9,0.4c-0.1,0.2-0.2,0.6-0.2,1.1v3.5c0,0.5,0.1,0.9,0.2,1.1c0.1,0.2,0.4,0.4,0.9,0.4
		C186,32.7,186.3,32.5,186.4,32.3z"/>
	<path fill="#7EBAE3" d="M188.9,25.4h1.6c0.8,0,1.4,0.2,1.8,0.5c0.4,0.3,0.6,0.9,0.6,1.6c0,1-0.3,1.7-1,1.9l1.2,4.1H192l-1.1-3.8
		H190v3.8h-1.1V25.4z M190.5,28.9c0.5,0,0.8-0.1,1-0.3c0.2-0.2,0.3-0.5,0.3-1.1c0-0.3,0-0.6-0.1-0.8c-0.1-0.2-0.2-0.3-0.4-0.4
		c-0.2-0.1-0.5-0.1-0.8-0.1H190v2.7H190.5z"/>
	<path fill="#7EBAE3" d="M194.1,25.4h1.8c0.9,0,1.5,0.2,1.9,0.6c0.4,0.4,0.5,1,0.5,1.9v3c0,0.9-0.2,1.6-0.5,2
		c-0.4,0.4-0.9,0.7-1.8,0.7h-1.9V25.4z M195.9,32.6c0.4,0,0.7-0.1,0.9-0.2c0.2-0.1,0.3-0.4,0.3-0.6c0-0.3,0.1-0.7,0.1-1.2V28
		c0-0.5,0-0.8-0.1-1.1c-0.1-0.2-0.2-0.4-0.4-0.5s-0.5-0.2-0.8-0.2h-0.6v6.4H195.9z"/>
	<path fill="#7EBAE3" d="M199.4,25.4h3.1v0.8h-2v2.7h1.6v0.8h-1.6v3h2v0.8h-3.2v-8.1H199.4z"/>
	<path fill="#7EBAE3" d="M203.4,25.4h1.6c0.8,0,1.4,0.2,1.8,0.5c0.4,0.3,0.6,0.9,0.6,1.6c0,1-0.3,1.7-1,1.9l1.2,4.1h-1.1l-1.1-3.8
		h-0.9v3.8h-1.1V25.4z M205,28.9c0.5,0,0.8-0.1,1-0.3c0.2-0.2,0.3-0.5,0.3-1.1c0-0.3,0-0.6-0.1-0.8c-0.1-0.2-0.2-0.3-0.4-0.4
		c-0.2-0.1-0.5-0.1-0.8-0.1h-0.5v2.7H205z"/>
	<path fill="#7EBAE3" d="M210.9,25.4h1.6c0.8,0,1.4,0.2,1.8,0.5c0.4,0.3,0.6,0.9,0.6,1.6c0,1-0.3,1.7-1,1.9l1.2,4.1H214l-1.1-3.8
		H212v3.8h-1.1V25.4z M212.5,28.9c0.5,0,0.8-0.1,1-0.3c0.2-0.2,0.3-0.5,0.3-1.1c0-0.3,0-0.6-0.1-0.8c-0.1-0.2-0.2-0.3-0.4-0.4
		c-0.2-0.1-0.5-0.1-0.8-0.1H212v2.7H212.5z"/>
	<path fill="#7EBAE3" d="M216.1,25.4h3.1v0.8h-2v2.7h1.6v0.8h-1.6v3h2v0.8H216L216.1,25.4L216.1,25.4z"/>
	<path fill="#7EBAE3" d="M220.5,32.8c-0.3-0.5-0.5-1.1-0.5-2V28c0-0.9,0.2-1.6,0.5-2s0.9-0.7,1.7-0.7c0.7,0,1.2,0.2,1.6,0.6
		c0.3,0.4,0.5,1,0.5,1.7v0.6h-1.1v-0.6c0-0.4,0-0.7,0-0.9c0-0.2-0.1-0.4-0.3-0.5c-0.1-0.1-0.4-0.2-0.7-0.2s-0.5,0.1-0.7,0.2
		c-0.2,0.1-0.2,0.3-0.3,0.5c0,0.2-0.1,0.5-0.1,0.9V31c0,0.4,0,0.7,0.1,1c0.1,0.2,0.2,0.4,0.3,0.5c0.2,0.1,0.4,0.2,0.6,0.2
		c0.3,0,0.5-0.1,0.6-0.2c0.1-0.1,0.2-0.3,0.3-0.5c0-0.2,0.1-0.5,0.1-0.9v-0.6h1.1V31c0,0.8-0.2,1.4-0.5,1.9
		c-0.3,0.4-0.8,0.6-1.6,0.6C221.4,33.5,220.9,33.3,220.5,32.8z"/>
	<path fill="#7EBAE3" d="M225.3,25.4h3.1v0.8h-2v2.7h1.6v0.8h-1.6v3h2v0.8h-3.2L225.3,25.4L225.3,25.4z"/>
	<path fill="#7EBAE3" d="M229.5,25.4h1.1v8.1h-1.1V25.4z"/>
	<path fill="#7EBAE3" d="M231.9,25.4h2c0.7,0,1.2,0.2,1.5,0.6c0.3,0.4,0.5,0.9,0.5,1.7c0,0.7-0.2,1.2-0.5,1.5
		c-0.3,0.3-0.8,0.5-1.5,0.5H233v3.8h-1.1V25.4z M233.5,28.9c0.3,0,0.6,0,0.8-0.1c0.2-0.1,0.3-0.2,0.4-0.4c0.1-0.2,0.1-0.4,0.1-0.8
		s0-0.7-0.1-0.9c-0.1-0.2-0.2-0.3-0.4-0.4c-0.2-0.1-0.5-0.1-0.8-0.1H233v2.7H233.5z"/>
	<path fill="#7EBAE3" d="M237.6,26.2h-1.4v-0.8h3.8v0.8h-1.3v7.3h-1.1V26.2z"/>
</g>
<polyline fill="#7EBAE3" points="168,44 88,44 88,29 88,14 168,14 "/>
<g>
	<path fill="#FFFFFF" d="M96.1,32.7l2.1-3.2c0.1-0.2,0.2-0.3,0.2-0.3c0.2-0.4,0.4-0.7,0.5-0.9C99,28,99,27.7,99,27.4
		c0-0.4-0.1-0.7-0.2-0.9c-0.1-0.2-0.3-0.3-0.6-0.3c-0.6,0-1,0.5-1,1.5V28h-1.1v-0.3c0-0.8,0.2-1.3,0.5-1.8c0.3-0.4,0.8-0.6,1.5-0.6
		c0.6,0,1.1,0.2,1.5,0.5c0.3,0.4,0.5,0.9,0.5,1.5c0,0.3,0,0.6-0.1,0.9c-0.1,0.3-0.2,0.5-0.3,0.7c-0.1,0.2-0.3,0.5-0.5,0.8l-1.9,2.8
		h2.6v0.9h-3.8V32.7z"/>
	<path fill="#FFFFFF" d="M101,32.3h1.1v1.2H101V32.3z"/>
	<path fill="#FFFFFF" d="M105.6,32.9c-0.4-0.4-0.6-1-0.6-1.7l1-0.3c0,0.5,0.1,0.9,0.3,1.3c0.2,0.3,0.5,0.5,0.8,0.5
		c0.3,0,0.5-0.1,0.7-0.2c0.2-0.1,0.2-0.4,0.2-0.7s-0.1-0.6-0.2-0.8c-0.1-0.2-0.4-0.5-0.7-0.7l-1.4-1.2c-0.3-0.2-0.5-0.5-0.6-0.8
		c-0.1-0.3-0.2-0.6-0.2-1c0-0.6,0.2-1.1,0.5-1.4c0.3-0.3,0.8-0.5,1.4-0.5c0.6,0,1.1,0.2,1.4,0.5c0.3,0.3,0.5,0.9,0.6,1.6l-1,0.3
		c0-0.5-0.1-0.8-0.3-1.1c-0.2-0.3-0.4-0.4-0.8-0.4c-0.3,0-0.5,0.1-0.7,0.2c-0.2,0.2-0.2,0.4-0.2,0.7c0,0.2,0,0.4,0.1,0.6
		c0.1,0.2,0.2,0.3,0.4,0.5l1.4,1.2c0.4,0.3,0.6,0.7,0.8,1s0.3,0.8,0.3,1.3c0,0.6-0.2,1.1-0.5,1.4c-0.4,0.3-0.8,0.5-1.4,0.5
		C106.5,33.5,106,33.3,105.6,32.9z"/>
	<path fill="#FFFFFF" d="M110,25.4h2c0.7,0,1.2,0.2,1.5,0.6s0.5,0.9,0.5,1.7c0,0.7-0.2,1.2-0.5,1.5c-0.3,0.4-0.8,0.5-1.5,0.5h-0.9
		v3.8H110V25.4z M111.7,28.9c0.3,0,0.6,0,0.8-0.1c0.2-0.1,0.3-0.2,0.4-0.4c0.1-0.2,0.1-0.4,0.1-0.8s0-0.7-0.1-0.9
		c-0.1-0.2-0.2-0.3-0.4-0.4c-0.2-0.1-0.5-0.1-0.8-0.1h-0.5v2.7H111.7z"/>
	<path fill="#FFFFFF" d="M114.8,25.4h3.1v0.8h-2v2.7h1.6v0.8h-1.6v3h2v0.8h-3.2L114.8,25.4L114.8,25.4z"/>
	<path fill="#FFFFFF" d="M119.2,32.8c-0.3-0.5-0.5-1.1-0.5-2V28c0-0.9,0.2-1.6,0.5-2c0.3-0.4,0.9-0.7,1.7-0.7c0.7,0,1.2,0.2,1.6,0.6
		c0.3,0.4,0.5,1,0.5,1.7v0.6h-1.1v-0.6c0-0.4,0-0.7,0-0.9c0-0.2-0.1-0.4-0.3-0.5c-0.1-0.1-0.4-0.2-0.7-0.2c-0.3,0-0.5,0.1-0.7,0.2
		c-0.1,0.1-0.2,0.3-0.3,0.5c0,0.2-0.1,0.5-0.1,0.9V31c0,0.4,0,0.7,0.1,1c0.1,0.2,0.2,0.4,0.3,0.5c0.1,0.1,0.4,0.2,0.6,0.2
		c0.3,0,0.5-0.1,0.6-0.2s0.2-0.3,0.3-0.5c0-0.2,0.1-0.5,0.1-0.9v-0.6h1.1V31c0,0.8-0.2,1.4-0.5,1.9c-0.3,0.4-0.8,0.6-1.6,0.6
		C120.1,33.5,119.5,33.3,119.2,32.8z"/>
	<path fill="#FFFFFF" d="M124.1,25.4h1.1v8.1h-1.1V25.4z"/>
	<path fill="#FFFFFF" d="M127.8,25.4h1.1l1.7,8.1h-1.1l-0.4-2h-1.6l-0.4,2H126L127.8,25.4z M129,30.6l-0.7-3.6l-0.7,3.6H129z"/>
	<path fill="#FFFFFF" d="M131.4,25.4h1.1v7.3h2.1v0.8h-3.2V25.4L131.4,25.4z"/>
	<path fill="#FFFFFF" d="M138,32.9c-0.3-0.5-0.5-1.1-0.5-2v-3.1c0-0.8,0.2-1.5,0.5-1.9s0.9-0.6,1.7-0.6s1.4,0.2,1.7,0.7
		c0.3,0.4,0.5,1.1,0.5,1.9V31c0,0.8-0.2,1.5-0.5,1.9c-0.3,0.5-0.9,0.7-1.7,0.7C139,33.5,138.4,33.3,138,32.9z M140.6,32.3
		c0.1-0.2,0.2-0.6,0.2-1.1v-3.5c0-0.5-0.1-0.9-0.2-1.1c-0.1-0.2-0.4-0.4-0.8-0.4c-0.4,0-0.7,0.1-0.9,0.4c-0.1,0.2-0.2,0.6-0.2,1.1
		v3.5c0,0.5,0.1,0.9,0.2,1.1c0.1,0.2,0.4,0.4,0.9,0.4C140.2,32.7,140.5,32.5,140.6,32.3z"/>
	<path fill="#FFFFFF" d="M143.1,25.4h3.1v0.8h-2v2.7h1.6v0.8h-1.6v3.8h-1.1V25.4z"/>
	<path fill="#FFFFFF" d="M147,25.4h3.1v0.8h-2v2.7h1.6v0.8h-1.6v3.8H147V25.4z"/>
	<path fill="#FFFFFF" d="M150.9,25.4h3.1v0.8h-2v2.7h1.6v0.8H152v3h2v0.8h-3.2v-8.1H150.9z"/>
	<path fill="#FFFFFF" d="M155,25.4h1.6c0.8,0,1.4,0.2,1.8,0.5c0.4,0.3,0.6,0.9,0.6,1.6c0,1-0.3,1.7-1,1.9l1.1,4.1H158l-1.1-3.8H156
		v3.8h-1V25.4z M156.5,28.9c0.5,0,0.8-0.1,1-0.3c0.2-0.2,0.3-0.5,0.3-1.1c0-0.3,0-0.6-0.1-0.8c-0.1-0.2-0.2-0.3-0.4-0.4
		c-0.2-0.1-0.4-0.1-0.8-0.1H156v2.7H156.5z"/>
</g>
</svg>
