<?xml version="1.0" encoding="utf-8"?>
<!-- Generator: Adobe Illustrator 15.0.0, SVG Export Plug-In . SVG Version: 6.00 Build 0)  -->
<!DOCTYPE svg PUBLIC "-//W3C//DTD SVG 1.1//EN" "http://www.w3.org/Graphics/SVG/1.1/DTD/svg11.dtd" [
	<!ENTITY ns_flows "http://ns.adobe.com/Flows/1.0/">
	<!ENTITY ns_extend "http://ns.adobe.com/Extensibility/1.0/">
	<!ENTITY ns_ai "http://ns.adobe.com/AdobeIllustrator/10.0/">
	<!ENTITY ns_graphs "http://ns.adobe.com/Graphs/1.0/">
]>
<svg version="1.1" id="Layer_1" xmlns:x="&ns_extend;" xmlns:i="&ns_ai;" xmlns:graph="&ns_graphs;"
	 xmlns="http://www.w3.org/2000/svg" xmlns:xlink="http://www.w3.org/1999/xlink" xmlns:a="http://ns.adobe.com/AdobeSVGViewerExtensions/3.0/"
	 x="0px" y="0px" width="256px" height="57px" viewBox="0 0 256 57" enable-background="new 0 0 256 57" xml:space="preserve">
<rect x="0.5" y="0.5" fill="#FFFFFF" stroke="#B3E4FF" stroke-miterlimit="10" width="255" height="56"/>
<g>
	<path fill="#7EBAE3" d="M57.6,18.1c-0.4-0.4-0.6-1-0.6-1.7l1-0.3c0,0.5,0.1,0.9,0.3,1.3c0.2,0.3,0.5,0.5,0.8,0.5
		c0.3,0,0.5-0.1,0.7-0.2C60,17.6,60,17.3,60,17s-0.1-0.6-0.2-0.8c-0.1-0.2-0.4-0.5-0.7-0.7l-1.4-1.2c-0.3-0.2-0.5-0.5-0.6-0.8
		s-0.2-0.6-0.2-1c0-0.6,0.2-1.1,0.5-1.4c0.3-0.3,0.8-0.5,1.4-0.5c0.6,0,1.1,0.2,1.4,0.5c0.3,0.3,0.5,0.9,0.6,1.6l-1,0.3
		c0-0.5-0.1-0.8-0.3-1.1c-0.2-0.3-0.4-0.4-0.8-0.4c-0.3,0-0.5,0.1-0.7,0.2c-0.2,0.2-0.2,0.4-0.2,0.7c0,0.2,0,0.4,0.1,0.6
		s0.2,0.3,0.4,0.5l1.4,1.2c0.4,0.3,0.6,0.7,0.8,1c0.2,0.3,0.3,0.8,0.3,1.3c0,0.6-0.2,1.1-0.5,1.4c-0.4,0.3-0.8,0.5-1.4,0.5
		C58.5,18.7,58,18.5,57.6,18.1z"/>
	<path fill="#7EBAE3" d="M62.9,11.3h-1.4v-0.8h3.8v0.8H64v7.3h-1.1V11.3z"/>
	<path fill="#7EBAE3" d="M66.1,10.5h3.1v0.8h-2V14h1.6v0.8h-1.6v3h2v0.8H66v-8.1H66.1z"/>
	<path fill="#7EBAE3" d="M70.2,10.5h2c0.7,0,1.2,0.2,1.5,0.6c0.3,0.4,0.5,0.9,0.5,1.7c0,0.7-0.2,1.2-0.5,1.5
		c-0.3,0.4-0.8,0.5-1.5,0.5h-0.9v3.8h-1.1V10.5z M71.9,14c0.3,0,0.6,0,0.8-0.1c0.2-0.1,0.3-0.2,0.4-0.4s0.1-0.4,0.1-0.8
		c0-0.4,0-0.7-0.1-0.9c-0.1-0.2-0.2-0.3-0.4-0.4c-0.2-0.1-0.5-0.1-0.8-0.1h-0.5V14H71.9z"/>
	<path fill="#7EBAE3" d="M77.1,17.8l2.1-3.2c0.1-0.2,0.2-0.3,0.2-0.3c0.2-0.4,0.4-0.7,0.5-0.9c0.1-0.2,0.2-0.5,0.2-0.9
		s-0.1-0.7-0.2-0.9c-0.1-0.2-0.3-0.3-0.6-0.3c-0.6,0-1,0.5-1,1.5v0.3h-1.1v-0.3c0-0.8,0.2-1.3,0.5-1.8c0.3-0.4,0.8-0.6,1.5-0.6
		c0.6,0,1.1,0.2,1.5,0.5c0.3,0.4,0.5,0.9,0.5,1.5c0,0.3,0,0.6-0.1,0.9c-0.1,0.3-0.2,0.5-0.3,0.7c-0.1,0.2-0.3,0.5-0.5,0.8l-1.9,2.8
		H81v0.9h-3.8v-0.7H77.1z"/>
	<path fill="#7EBAE3" d="M84.7,18c-0.3-0.5-0.5-1.1-0.5-2v-3c0-0.8,0.2-1.5,0.5-1.9c0.3-0.4,0.9-0.6,1.7-0.6c0.8,0,1.4,0.2,1.7,0.7
		c0.3,0.4,0.5,1.1,0.5,1.9v3.1c0,0.8-0.2,1.5-0.5,1.9c-0.3,0.5-0.9,0.7-1.7,0.7C85.7,18.7,85.1,18.5,84.7,18z M87.3,17.4
		c0.1-0.2,0.2-0.6,0.2-1.1v-3.5c0-0.5-0.1-0.9-0.2-1.1c-0.1-0.2-0.4-0.4-0.8-0.4s-0.7,0.1-0.9,0.4c-0.1,0.2-0.2,0.6-0.2,1.1v3.5
		c0,0.5,0.1,0.9,0.2,1.1c0.1,0.2,0.4,0.4,0.9,0.4C86.9,17.8,87.2,17.7,87.3,17.4z"/>
	<path fill="#7EBAE3" d="M89.8,10.5h3.1v0.8h-2V14h1.6v0.8h-1.6v3.8h-1.1V10.5z"/>
	<path fill="#7EBAE3" d="M96.2,18.1c-0.3-0.4-0.5-0.9-0.5-1.5v-0.3h1.1v0.2c0,0.4,0.1,0.7,0.2,1c0.1,0.2,0.4,0.3,0.7,0.3
		c0.4,0,0.6-0.1,0.7-0.4c0.1-0.3,0.2-0.6,0.2-1.1s-0.1-0.8-0.3-1.1c-0.2-0.3-0.4-0.4-0.8-0.4h-0.1v-1.1h0.1c0.4,0,0.7-0.1,0.8-0.3
		c0.2-0.2,0.3-0.5,0.3-0.9s-0.1-0.7-0.2-0.9c-0.1-0.2-0.4-0.3-0.7-0.3c-0.3,0-0.6,0.1-0.7,0.3c-0.1,0.2-0.2,0.5-0.2,1v0.2h-1.1v-0.3
		c0-0.7,0.2-1.2,0.5-1.5c0.3-0.4,0.8-0.5,1.5-0.5c0.7,0,1.1,0.2,1.5,0.5c0.3,0.4,0.5,0.9,0.5,1.5c0,0.5-0.1,0.9-0.3,1.2
		c-0.2,0.3-0.5,0.5-0.8,0.6c0.4,0.1,0.7,0.3,0.9,0.7c0.2,0.3,0.3,0.8,0.3,1.3c0,0.8-0.2,1.3-0.5,1.8c-0.3,0.4-0.8,0.6-1.5,0.6
		C97.1,18.7,96.6,18.5,96.2,18.1z"/>
	<path fill="#7EBAE3" d="M103,13.3h1.1v1.1H103V13.3z M103,16.5h1.1v1.1H103V16.5z"/>
	<path fill="#7EBAE3" d="M107.6,18c-0.3-0.5-0.5-1.1-0.5-2v-2.9c0-0.9,0.2-1.6,0.5-2c0.3-0.4,0.9-0.7,1.7-0.7c0.7,0,1.2,0.2,1.6,0.6
		c0.3,0.4,0.5,1,0.5,1.7v0.6h-1.1v-0.6c0-0.4,0-0.7,0-0.9c0-0.2-0.1-0.4-0.3-0.5c-0.1-0.1-0.4-0.2-0.7-0.2c-0.3,0-0.5,0.1-0.7,0.2
		c-0.1,0.1-0.2,0.3-0.3,0.5c0,0.2-0.1,0.5-0.1,0.9v3.2c0,0.4,0,0.7,0.1,1c0.1,0.2,0.2,0.4,0.3,0.5s0.4,0.2,0.6,0.2
		c0.3,0,0.5-0.1,0.6-0.2c0.1-0.1,0.2-0.3,0.3-0.5c0-0.2,0.1-0.5,0.1-0.9v-0.6h1.1V16c0,0.8-0.2,1.4-0.5,1.9
		c-0.3,0.4-0.8,0.6-1.6,0.6C108.5,18.7,108,18.5,107.6,18z"/>
	<path fill="#7EBAE3" d="M113.2,18.4c-0.3-0.2-0.5-0.5-0.7-1c-0.1-0.4-0.2-0.9-0.2-1.5v-5.4h1.1v5.4c0,0.6,0.1,1.1,0.2,1.4
		c0.1,0.3,0.4,0.5,0.9,0.5c0.4,0,0.7-0.2,0.9-0.5c0.1-0.3,0.2-0.8,0.2-1.4v-5.4h1.1v5.4c0,0.6-0.1,1.1-0.2,1.5s-0.3,0.7-0.6,1
		c-0.3,0.3-0.8,0.3-1.3,0.3C114,18.7,113.5,18.6,113.2,18.4z"/>
	<path fill="#7EBAE3" d="M118.2,18.1c-0.4-0.4-0.6-1-0.6-1.7l1-0.3c0,0.5,0.1,0.9,0.3,1.3c0.2,0.3,0.5,0.5,0.8,0.5
		c0.3,0,0.5-0.1,0.7-0.2c0.2-0.1,0.2-0.4,0.2-0.7s-0.1-0.6-0.2-0.8c-0.1-0.2-0.4-0.5-0.7-0.7l-1.4-1.2c-0.3-0.2-0.5-0.5-0.6-0.8
		c-0.1-0.3-0.2-0.6-0.2-1c0-0.6,0.2-1.1,0.5-1.4c0.3-0.3,0.8-0.5,1.4-0.5s1.1,0.2,1.4,0.5c0.3,0.3,0.5,0.9,0.6,1.6l-1,0.3
		c0-0.5-0.1-0.8-0.3-1.1c-0.2-0.3-0.4-0.4-0.8-0.4c-0.3,0-0.5,0.1-0.7,0.2c-0.2,0.2-0.2,0.4-0.2,0.7c0,0.2,0,0.4,0.1,0.6
		s0.2,0.3,0.4,0.5l1.4,1.2c0.4,0.3,0.6,0.7,0.8,1c0.2,0.3,0.3,0.8,0.3,1.3c0,0.6-0.2,1.1-0.5,1.4c-0.4,0.3-0.8,0.5-1.4,0.5
		C119.1,18.7,118.6,18.5,118.2,18.1z"/>
	<path fill="#7EBAE3" d="M123.5,11.3h-1.4v-0.8h3.8v0.8h-1.3v7.3h-1.1V11.3z"/>
	<path fill="#7EBAE3" d="M127.1,18c-0.3-0.5-0.5-1.1-0.5-2v-3c0-0.8,0.2-1.5,0.5-1.9c0.3-0.4,0.9-0.6,1.7-0.6s1.4,0.2,1.7,0.7
		c0.3,0.4,0.5,1.1,0.5,1.9v3.1c0,0.8-0.2,1.5-0.5,1.9c-0.3,0.5-0.9,0.7-1.7,0.7C128,18.7,127.4,18.5,127.1,18z M129.6,17.4
		c0.1-0.2,0.2-0.6,0.2-1.1v-3.5c0-0.5-0.1-0.9-0.2-1.1c-0.1-0.2-0.4-0.4-0.8-0.4c-0.4,0-0.7,0.1-0.9,0.4c-0.1,0.2-0.2,0.6-0.2,1.1
		v3.5c0,0.5,0.1,0.9,0.2,1.1c0.1,0.2,0.4,0.4,0.9,0.4C129.2,17.8,129.5,17.7,129.6,17.4z"/>
	<path fill="#7EBAE3" d="M132.2,10.5h1.1l1.4,6.6l1.4-6.6h1.1l0.2,8.1h-0.9l-0.1-5.9l-1.4,5.9h-0.6l-1.4-5.9l-0.1,5.9H132
		L132.2,10.5z"/>
	<path fill="#7EBAE3" d="M138.8,10.5h1.1v8.1h-1.1V10.5z"/>
	<path fill="#7EBAE3" d="M140.9,17.8l2.4-6.5h-2.2v-0.8h3.4V11l-2.5,6.8h2.5v0.8h-3.6V17.8L140.9,17.8z"/>
	<path fill="#7EBAE3" d="M145.4,10.5h3.1v0.8h-2V14h1.6v0.8h-1.6v3h2v0.8h-3.2v-8.1H145.4z"/>
	<path fill="#7EBAE3" d="M153,15.7l-1.8-5.2h1l1.2,3.9l1.2-3.9h1.1l-1.7,5.2v2.9h-1V15.7z"/>
	<path fill="#7EBAE3" d="M156.9,18c-0.3-0.5-0.5-1.1-0.5-2v-3c0-0.8,0.2-1.5,0.5-1.9c0.3-0.4,0.9-0.6,1.7-0.6c0.8,0,1.4,0.2,1.7,0.7
		c0.3,0.4,0.5,1.1,0.5,1.9v3.1c0,0.8-0.2,1.5-0.5,1.9c-0.3,0.5-0.9,0.7-1.7,0.7C157.8,18.7,157.2,18.5,156.9,18z M159.5,17.4
		c0.1-0.2,0.2-0.6,0.2-1.1v-3.5c0-0.5-0.1-0.9-0.2-1.1c-0.1-0.2-0.4-0.4-0.8-0.4c-0.4,0-0.7,0.1-0.9,0.4c-0.1,0.2-0.2,0.6-0.2,1.1
		v3.5c0,0.5,0.1,0.9,0.2,1.1c0.1,0.2,0.4,0.4,0.9,0.4C159,17.8,159.3,17.7,159.5,17.4z"/>
	<path fill="#7EBAE3" d="M162.7,18.4c-0.3-0.2-0.5-0.5-0.7-1c-0.1-0.4-0.2-0.9-0.2-1.5v-5.4h1.1v5.4c0,0.6,0.1,1.1,0.2,1.4
		c0.1,0.3,0.4,0.5,0.9,0.5s0.7-0.2,0.9-0.5c0.1-0.3,0.2-0.8,0.2-1.4v-5.4h1.1v5.4c0,0.6-0.1,1.1-0.2,1.5s-0.3,0.7-0.7,1
		c-0.4,0.3-0.8,0.3-1.3,0.3S163,18.6,162.7,18.4z"/>
	<path fill="#7EBAE3" d="M167.4,10.5h1.6c0.8,0,1.4,0.2,1.8,0.5c0.4,0.3,0.6,0.9,0.6,1.6c0,1-0.3,1.7-1,1.9l1.2,4.1h-1.1l-1.1-3.8
		h-0.9v3.8h-1.1V10.5z M168.9,14c0.5,0,0.8-0.1,1-0.3c0.2-0.2,0.3-0.5,0.3-1.1c0-0.3,0-0.6-0.1-0.8c-0.1-0.2-0.2-0.3-0.4-0.4
		s-0.4-0.1-0.8-0.1h-0.5V14H168.9z"/>
	<path fill="#7EBAE3" d="M175.2,18c-0.3-0.5-0.5-1.1-0.5-2v-3c0-0.8,0.2-1.5,0.5-1.9s0.9-0.6,1.7-0.6c0.8,0,1.4,0.2,1.7,0.7
		c0.3,0.4,0.5,1.1,0.5,1.9v3.1c0,0.8-0.2,1.5-0.5,1.9c-0.3,0.5-0.9,0.7-1.7,0.7C176.1,18.7,175.5,18.5,175.2,18z M177.8,17.4
		c0.1-0.2,0.2-0.6,0.2-1.1v-3.5c0-0.5-0.1-0.9-0.2-1.1c-0.1-0.2-0.4-0.4-0.8-0.4s-0.7,0.1-0.9,0.4c-0.1,0.2-0.2,0.6-0.2,1.1v3.5
		c0,0.5,0.1,0.9,0.2,1.1c0.1,0.2,0.4,0.4,0.9,0.4C177.3,17.8,177.6,17.7,177.8,17.4z"/>
	<path fill="#7EBAE3" d="M180.2,10.5h1.6c0.8,0,1.4,0.2,1.8,0.5c0.4,0.3,0.6,0.9,0.6,1.6c0,1-0.3,1.7-1,1.9l1.2,4.1h-1.1l-1.1-3.8
		h-0.9v3.8h-1.1V10.5z M181.8,14c0.5,0,0.8-0.1,1-0.3c0.2-0.2,0.3-0.5,0.3-1.1c0-0.3,0-0.6-0.1-0.8c-0.1-0.2-0.2-0.3-0.4-0.4
		c-0.2-0.1-0.5-0.1-0.8-0.1h-0.5V14H181.8z"/>
	<path fill="#7EBAE3" d="M185.4,10.5h1.8c0.9,0,1.5,0.2,1.9,0.6c0.4,0.4,0.5,1,0.5,1.9v3c0,0.9-0.2,1.6-0.5,2
		c-0.4,0.4-0.9,0.7-1.8,0.7h-1.9V10.5z M187.2,17.8c0.4,0,0.7-0.1,0.9-0.2c0.2-0.2,0.3-0.4,0.3-0.6c0-0.3,0.1-0.7,0.1-1.2v-2.6
		c0-0.5,0-0.8-0.1-1.1c-0.1-0.3-0.2-0.4-0.4-0.5s-0.5-0.2-0.8-0.2h-0.6v6.4H187.2z"/>
	<path fill="#7EBAE3" d="M190.7,10.5h3.1v0.8h-2V14h1.6v0.8h-1.6v3h2v0.8h-3.2v-8.1H190.7z"/>
	<path fill="#7EBAE3" d="M194.8,10.5h1.6c0.8,0,1.4,0.2,1.8,0.5c0.4,0.3,0.6,0.9,0.6,1.6c0,1-0.3,1.7-1,1.9l1.2,4.1h-1.1l-1.1-3.8
		h-0.9v3.8h-1.1V10.5z M196.3,14c0.5,0,0.8-0.1,1-0.3c0.2-0.2,0.3-0.5,0.3-1.1c0-0.3,0-0.6-0.1-0.8c-0.1-0.2-0.2-0.3-0.4-0.4
		c-0.2-0.1-0.4-0.1-0.8-0.1h-0.5V14H196.3z"/>
</g>
<rect x="16" y="29" fill="#F0EFEF" width="223" height="16"/>
<rect x="17" y="29" fill="#7EBAE3" width="129" height="16"/>
<g>
	<path fill="#FFFFFF" d="M49.5,39l0.9-0.1c0.1,0.4,0.2,0.8,0.5,1c0.2,0.2,0.5,0.3,0.9,0.3c0.4,0,0.8-0.2,1.1-0.5
		c0.3-0.3,0.4-0.7,0.4-1.3c0-0.5-0.1-0.9-0.4-1.2c-0.3-0.3-0.6-0.4-1.1-0.4c-0.3,0-0.5,0.1-0.8,0.2c-0.2,0.1-0.4,0.3-0.5,0.5
		l-0.8-0.1l0.7-3.7h3.5v0.8H51l-0.4,1.9c0.4-0.3,0.9-0.4,1.3-0.4c0.6,0,1.1,0.2,1.6,0.6c0.4,0.4,0.6,1,0.6,1.7
		c0,0.6-0.2,1.2-0.6,1.7c-0.5,0.6-1.1,0.9-1.9,0.9c-0.6,0-1.2-0.2-1.6-0.5C49.8,40.1,49.5,39.6,49.5,39z"/>
	<path fill="#FFFFFF" d="M55.1,34.7v-0.8h4.6v0.7c-0.5,0.5-0.9,1.1-1.3,1.9s-0.8,1.6-1,2.5c-0.2,0.6-0.3,1.3-0.3,2h-0.9
		c0-0.6,0.1-1.2,0.3-2s0.5-1.6,0.9-2.3s0.8-1.4,1.3-1.9L55.1,34.7L55.1,34.7z"/>
	<path fill="#FFFFFF" d="M60.7,35.5c0-0.5,0.1-0.9,0.4-1.3c0.3-0.4,0.6-0.5,1.1-0.5c0.4,0,0.8,0.2,1.1,0.5c0.3,0.3,0.4,0.8,0.4,1.4
		c0,0.6-0.1,1.1-0.4,1.4c-0.3,0.3-0.7,0.5-1.1,0.5c-0.4,0-0.8-0.2-1.1-0.5C60.9,36.6,60.7,36.1,60.7,35.5z M62.2,34.2
		c-0.2,0-0.4,0.1-0.5,0.3c-0.1,0.2-0.2,0.5-0.2,1s0.1,0.8,0.2,1c0.1,0.2,0.3,0.3,0.5,0.3c0.2,0,0.4-0.1,0.5-0.3
		c0.1-0.2,0.2-0.5,0.2-1s-0.1-0.8-0.2-1C62.6,34.3,62.5,34.2,62.2,34.2z M62.2,41.2l3.9-7.5h0.7L63,41.2H62.2z M65.3,39.2
		c0-0.5,0.1-0.9,0.4-1.3c0.3-0.4,0.6-0.5,1.1-0.5c0.4,0,0.8,0.2,1.1,0.5c0.3,0.3,0.4,0.8,0.4,1.4c0,0.6-0.1,1.1-0.4,1.4
		c-0.3,0.3-0.7,0.5-1.1,0.5c-0.4,0-0.8-0.2-1.1-0.5C65.5,40.4,65.3,39.9,65.3,39.2z M66.9,38c-0.2,0-0.4,0.1-0.5,0.3s-0.2,0.5-0.2,1
		s0.1,0.8,0.2,1s0.3,0.3,0.5,0.3c0.2,0,0.4-0.1,0.6-0.3c0.1-0.2,0.2-0.5,0.2-1s-0.1-0.8-0.2-1S67.1,38,66.9,38z"/>
	<path fill="#FFFFFF" d="M77.6,38.4l0.9,0.2c-0.2,0.8-0.6,1.4-1.1,1.8C77,40.8,76.3,41,75.6,41c-0.8,0-1.4-0.2-1.9-0.5
		s-0.8-0.8-1.1-1.4c-0.3-0.6-0.4-1.2-0.4-1.9s0.1-1.4,0.4-1.9c0.3-0.6,0.7-1,1.2-1.3s1.1-0.4,1.7-0.4c0.7,0,1.3,0.2,1.8,0.5
		c0.5,0.4,0.8,0.9,1,1.5l-0.9,0.2c-0.2-0.5-0.4-0.9-0.7-1.1c-0.3-0.2-0.7-0.4-1.2-0.4s-1,0.1-1.4,0.4s-0.6,0.6-0.8,1.1
		c-0.1,0.4-0.2,0.9-0.2,1.4c0,0.6,0.1,1.1,0.3,1.6c0.2,0.5,0.5,0.8,0.8,1c0.4,0.2,0.8,0.3,1.2,0.3c0.5,0,1-0.2,1.3-0.5
		C77.2,39.4,77.5,39,77.6,38.4z"/>
	<path fill="#FFFFFF" d="M79.3,38.3c0-1,0.3-1.7,0.8-2.1c0.4-0.4,1-0.6,1.6-0.6c0.7,0,1.3,0.2,1.7,0.7s0.7,1.1,0.7,1.9
		c0,0.7-0.1,1.2-0.3,1.6c-0.2,0.4-0.5,0.7-0.9,0.9S82.1,41,81.7,41c-0.7,0-1.3-0.2-1.8-0.7C79.5,39.9,79.3,39.2,79.3,38.3z
		 M80.2,38.3c0,0.7,0.1,1.2,0.4,1.5c0.3,0.3,0.7,0.5,1.1,0.5c0.4,0,0.8-0.2,1.1-0.5c0.3-0.3,0.4-0.8,0.4-1.5c0-0.6-0.1-1.1-0.4-1.5
		c-0.3-0.4-0.7-0.5-1.1-0.5c-0.4,0-0.8,0.2-1.1,0.5C80.3,37.2,80.2,37.7,80.2,38.3z"/>
	<path fill="#FFFFFF" d="M85.1,40.9v-5.2h0.8v0.7c0.2-0.3,0.4-0.5,0.6-0.6c0.3-0.2,0.6-0.2,0.9-0.2c0.4,0,0.7,0.1,0.9,0.2
		c0.2,0.2,0.4,0.4,0.5,0.7c0.4-0.6,0.9-0.9,1.6-0.9c0.5,0,0.9,0.1,1.2,0.4c0.3,0.3,0.4,0.7,0.4,1.3v3.5h-0.9v-3.3
		c0-0.4,0-0.6-0.1-0.8s-0.2-0.3-0.3-0.4c-0.1-0.1-0.3-0.1-0.5-0.1c-0.4,0-0.7,0.1-0.9,0.4c-0.2,0.2-0.4,0.6-0.4,1.2v3H88v-3.4
		c0-0.4-0.1-0.7-0.2-0.9c-0.1-0.2-0.4-0.3-0.7-0.3c-0.2,0-0.5,0.1-0.7,0.2c-0.2,0.1-0.4,0.3-0.5,0.6s-0.1,0.6-0.1,1.1v2.7h-0.7V40.9
		z"/>
	<path fill="#FFFFFF" d="M93.4,42.9v-7.1h0.8v0.7c0.2-0.3,0.4-0.5,0.6-0.6c0.2-0.1,0.5-0.2,0.9-0.2c0.4,0,0.8,0.1,1.2,0.3
		c0.3,0.2,0.6,0.5,0.8,1c0.2,0.5,0.3,0.9,0.3,1.4s-0.1,1-0.3,1.4c-0.2,0.4-0.5,0.7-0.8,1c-0.4,0.2-0.7,0.3-1.1,0.3
		c-0.3,0-0.6-0.1-0.8-0.2c-0.2-0.1-0.4-0.3-0.6-0.5v2.5H93.4z M94.2,38.3c0,0.7,0.1,1.2,0.4,1.5c0.3,0.3,0.6,0.5,1,0.5
		s0.7-0.2,1-0.5c0.3-0.3,0.4-0.8,0.4-1.5s-0.1-1.2-0.4-1.5c-0.3-0.3-0.6-0.5-1-0.5s-0.7,0.2-1,0.5C94.3,37.1,94.2,37.7,94.2,38.3z"
		/>
	<path fill="#FFFFFF" d="M99,40.9v-7.1h0.9v7.1H99z"/>
	<path fill="#FFFFFF" d="M104.7,39.2l0.9,0.1c-0.1,0.5-0.4,0.9-0.8,1.2c-0.4,0.3-0.9,0.4-1.5,0.4c-0.8,0-1.4-0.2-1.8-0.7
		s-0.7-1.1-0.7-2c0-0.9,0.2-1.5,0.7-2c0.4-0.5,1-0.7,1.7-0.7c0.7,0,1.3,0.2,1.7,0.7s0.7,1.1,0.7,2c0,0.1,0,0.1,0,0.2h-3.9
		c0,0.6,0.2,1,0.5,1.3c0.3,0.3,0.6,0.5,1.1,0.5c0.3,0,0.6-0.1,0.8-0.3C104.4,39.9,104.6,39.6,104.7,39.2z M101.9,37.8h2.9
		c0-0.4-0.1-0.8-0.3-1c-0.3-0.3-0.6-0.5-1.1-0.5c-0.4,0-0.7,0.1-1,0.4C102,37,101.9,37.4,101.9,37.8z"/>
	<path fill="#FFFFFF" d="M108.6,40.1l0.1,0.8c-0.2,0.1-0.5,0.1-0.7,0.1c-0.3,0-0.6-0.1-0.7-0.2c-0.2-0.1-0.3-0.2-0.4-0.4
		c-0.1-0.2-0.1-0.5-0.1-1v-3h-0.6v-0.7h0.6v-1.3l0.9-0.5v1.8h0.9v0.7h-0.9v3c0,0.2,0,0.4,0,0.5c0,0.1,0.1,0.1,0.2,0.2
		c0.1,0,0.2,0.1,0.3,0.1C108.4,40.1,108.5,40.1,108.6,40.1z"/>
	<path fill="#FFFFFF" d="M113,39.2l0.9,0.1c-0.1,0.5-0.4,0.9-0.8,1.2s-0.9,0.4-1.5,0.4c-0.8,0-1.4-0.2-1.8-0.7
		c-0.4-0.5-0.7-1.1-0.7-2c0-0.9,0.2-1.5,0.7-2c0.4-0.5,1-0.7,1.7-0.7s1.3,0.2,1.7,0.7c0.4,0.5,0.7,1.1,0.7,2c0,0.1,0,0.1,0,0.2H110
		c0,0.6,0.2,1,0.5,1.3s0.6,0.5,1.1,0.5c0.3,0,0.6-0.1,0.8-0.3C112.7,39.9,112.9,39.6,113,39.2z M110.2,37.8h2.9c0-0.4-0.1-0.8-0.3-1
		c-0.3-0.3-0.6-0.5-1.1-0.5c-0.4,0-0.7,0.1-1,0.4C110.3,37,110.2,37.4,110.2,37.8z"/>
</g>
</svg>
