<?xml version="1.0" encoding="utf-8"?>
<!-- Generator: Adobe Illustrator 15.0.0, SVG Export Plug-In . SVG Version: 6.00 Build 0)  -->
<!DOCTYPE svg PUBLIC "-//W3C//DTD SVG 1.1//EN" "http://www.w3.org/Graphics/SVG/1.1/DTD/svg11.dtd" [
	<!ENTITY ns_flows "http://ns.adobe.com/Flows/1.0/">
	<!ENTITY ns_extend "http://ns.adobe.com/Extensibility/1.0/">
	<!ENTITY ns_ai "http://ns.adobe.com/AdobeIllustrator/10.0/">
	<!ENTITY ns_graphs "http://ns.adobe.com/Graphs/1.0/">
]>
<svg version="1.1" id="Layer_1" xmlns:x="&ns_extend;" xmlns:i="&ns_ai;" xmlns:graph="&ns_graphs;"
	 xmlns="http://www.w3.org/2000/svg" xmlns:xlink="http://www.w3.org/1999/xlink" xmlns:a="http://ns.adobe.com/AdobeSVGViewerExtensions/3.0/"
	 x="0px" y="0px" width="256px" height="57px" viewBox="0 0 256 57" enable-background="new 0 0 256 57" xml:space="preserve">
<rect x="0.5" y="0.5" fill="#FFFFFF" stroke="#B3E4FF" stroke-miterlimit="10" width="255" height="56"/>
<path fill="#FFFFFF" stroke="#7EBAE3" stroke-miterlimit="10" d="M251.5,29c0,8-6.6,14.5-14.8,14.5H19.3C11.1,43.5,4.5,37,4.5,29
	l0,0c0-8,6.6-14.5,14.8-14.5h217.4C244.9,14.5,251.5,21,251.5,29L251.5,29z"/>
<g>
	<path fill="#7EBAE3" d="M14.6,31.9c-0.3-0.5-0.5-1.1-0.5-2v-3.1c0-0.8,0.2-1.5,0.5-1.9c0.3-0.4,0.9-0.6,1.7-0.6
		c0.8,0,1.4,0.2,1.7,0.7c0.3,0.4,0.5,1.1,0.5,1.9V30c0,0.8-0.2,1.5-0.5,1.9c-0.3,0.5-0.9,0.7-1.7,0.7C15.5,32.5,14.9,32.3,14.6,31.9
		z M17.2,31.3c0.1-0.2,0.2-0.6,0.2-1.1v-3.5c0-0.5-0.1-0.9-0.2-1.1c-0.1-0.2-0.4-0.4-0.8-0.4s-0.7,0.1-0.9,0.4
		c-0.1,0.2-0.2,0.6-0.2,1.1v3.5c0,0.5,0.1,0.9,0.2,1.1s0.4,0.4,0.9,0.4C16.7,31.7,17,31.5,17.2,31.3z"/>
	<path fill="#7EBAE3" d="M19.6,24.4h1.6c0.8,0,1.4,0.2,1.8,0.5c0.4,0.3,0.6,0.9,0.6,1.6c0,1-0.3,1.7-1,1.9l1.1,4.1h-1.1l-1.1-3.8
		h-0.9v3.8h-1.1v-8.1H19.6z M21.2,27.9c0.5,0,0.8-0.1,1-0.3c0.2-0.2,0.3-0.5,0.3-1.1c0-0.3,0-0.6-0.1-0.8c-0.1-0.2-0.2-0.3-0.4-0.4
		c-0.2-0.1-0.4-0.1-0.8-0.1h-0.5v2.7H21.2z"/>
	<path fill="#7EBAE3" d="M24.8,24.4h1.8c0.9,0,1.5,0.2,1.9,0.6s0.5,1,0.5,1.9v3c0,0.9-0.2,1.6-0.5,2c-0.4,0.4-0.9,0.7-1.8,0.7h-1.9
		V24.4z M26.6,31.6c0.4,0,0.7-0.1,0.9-0.2c0.2-0.1,0.3-0.4,0.3-0.6c0-0.3,0.1-0.7,0.1-1.2V27c0-0.5,0-0.8-0.1-1.1
		c-0.1-0.3-0.2-0.4-0.4-0.5c-0.2-0.1-0.5-0.2-0.8-0.2H26v6.4H26.6z"/>
	<path fill="#7EBAE3" d="M30.1,24.4h3.1v0.8h-2v2.7h1.6v0.8h-1.6v3h2v0.8H30v-8.1H30.1z"/>
	<path fill="#7EBAE3" d="M34.2,24.4h1.6c0.8,0,1.4,0.2,1.8,0.5c0.4,0.3,0.6,0.9,0.6,1.6c0,1-0.3,1.7-1,1.9l1.1,4.1h-1.1l-1.1-3.8
		h-0.9v3.8h-1.1v-8.1H34.2z M35.7,27.9c0.5,0,0.8-0.1,1-0.3c0.2-0.2,0.3-0.5,0.3-1.1c0-0.3,0-0.6-0.1-0.8c-0.1-0.2-0.2-0.3-0.4-0.4
		c-0.2-0.1-0.4-0.1-0.8-0.1h-0.5v2.7H35.7z"/>
	<path fill="#7EBAE3" d="M42,31.9c-0.4-0.4-0.6-1-0.6-1.7l1-0.3c0,0.5,0.1,0.9,0.3,1.3c0.2,0.3,0.5,0.5,0.8,0.5s0.5-0.1,0.7-0.2
		c0.2-0.1,0.2-0.4,0.2-0.7s-0.1-0.6-0.2-0.8c-0.1-0.2-0.4-0.5-0.7-0.7L42.2,28c-0.3-0.2-0.5-0.5-0.6-0.8c-0.1-0.3-0.2-0.6-0.2-1
		c0-0.6,0.2-1.1,0.5-1.4c0.3-0.3,0.8-0.5,1.4-0.5c0.6,0,1.1,0.2,1.4,0.5c0.3,0.3,0.5,0.9,0.6,1.6l-1,0.3c0-0.5-0.1-0.8-0.3-1.1
		c-0.2-0.3-0.4-0.4-0.8-0.4c-0.3,0-0.5,0.1-0.7,0.2c-0.2,0.2-0.2,0.4-0.2,0.7c0,0.2,0,0.4,0.1,0.6c0.1,0.2,0.2,0.3,0.4,0.5l1.4,1.2
		c0.4,0.3,0.6,0.7,0.8,1c0.2,0.3,0.3,0.8,0.3,1.3c0,0.6-0.2,1.1-0.5,1.4c-0.4,0.3-0.8,0.5-1.4,0.5C42.9,32.5,42.4,32.3,42,31.9z"/>
	<path fill="#7EBAE3" d="M47.1,32.2c-0.3-0.2-0.5-0.5-0.7-1c-0.1-0.4-0.2-0.9-0.2-1.5v-5.4h1.1v5.4c0,0.6,0.1,1.1,0.2,1.4
		c0.1,0.3,0.4,0.5,0.9,0.5c0.4,0,0.7-0.2,0.9-0.5c0.1-0.3,0.2-0.8,0.2-1.4v-5.4h1.1v5.4c0,0.6-0.1,1.1-0.2,1.5
		c-0.1,0.4-0.3,0.7-0.6,1c-0.3,0.3-0.8,0.3-1.3,0.3C47.9,32.5,47.5,32.4,47.1,32.2z"/>
	<path fill="#7EBAE3" d="M51.8,24.4h1.9c0.7,0,1.3,0.2,1.6,0.5c0.4,0.3,0.5,0.8,0.5,1.5c0,1-0.4,1.6-1.2,1.7c0.5,0.1,0.8,0.3,1,0.7
		c0.2,0.3,0.3,0.8,0.3,1.4c0,0.7-0.2,1.3-0.5,1.7c-0.3,0.4-0.9,0.6-1.6,0.6h-2.2v-8.1H51.8z M53.6,27.7c0.5,0,0.8-0.1,1-0.3
		c0.2-0.2,0.3-0.6,0.3-1s-0.1-0.6-0.2-0.8c-0.1-0.2-0.3-0.3-0.5-0.3c-0.2,0-0.5-0.1-1-0.1h-0.3v2.5H53.6z M53.7,31.6
		c0.3,0,0.6-0.1,0.8-0.2c0.2-0.1,0.3-0.3,0.4-0.5C55,30.7,55,30.4,55,30c0-0.5-0.1-0.9-0.3-1.2c-0.2-0.3-0.6-0.4-1-0.4H53v3h0.7
		V31.6z"/>
	<path fill="#7EBAE3" d="M57.2,24.4h1.1l1.4,6.6l1.4-6.6h1.1l0.2,8.1h-0.9l-0.1-5.9L60,32.5h-0.6L58,26.6l-0.1,5.9H57L57.2,24.4z"/>
	<path fill="#7EBAE3" d="M63.7,24.4h1.1v8.1h-1.1V24.4z"/>
	<path fill="#7EBAE3" d="M67,25.2h-1.4v-0.8h3.8v0.8h-1.3v7.3H67V25.2z"/>
	<path fill="#7EBAE3" d="M71.1,25.2h-1.4v-0.8h3.8v0.8h-1.3v7.3h-1.1V25.2z"/>
	<path fill="#7EBAE3" d="M74.4,24.4h3.1v0.8h-2v2.7h1.6v0.8h-1.6v3h2v0.8h-3.2v-8.1H74.4z"/>
	<path fill="#7EBAE3" d="M78.5,24.4h1.8c0.9,0,1.5,0.2,1.9,0.6c0.4,0.4,0.5,1,0.5,1.9v3c0,0.9-0.2,1.6-0.5,2
		c-0.4,0.4-0.9,0.7-1.8,0.7h-1.9V24.4z M80.2,31.6c0.4,0,0.7-0.1,0.9-0.2c0.2-0.1,0.3-0.4,0.3-0.6c0-0.3,0.1-0.7,0.1-1.2V27
		c0-0.5,0-0.8-0.1-1.1c-0.1-0.3-0.2-0.4-0.4-0.5s-0.5-0.2-0.8-0.2h-0.6v6.4H80.2z"/>
</g>
<g>
	<path fill="#7EBAE3" d="M183.6,31.9c-0.3-0.5-0.5-1.1-0.5-2v-3.1c0-0.8,0.2-1.5,0.5-1.9c0.3-0.4,0.9-0.6,1.7-0.6s1.4,0.2,1.7,0.7
		c0.3,0.4,0.5,1.1,0.5,1.9V30c0,0.8-0.2,1.5-0.5,1.9c-0.3,0.5-0.9,0.7-1.7,0.7C184.5,32.5,183.9,32.3,183.6,31.9z M186.1,31.3
		c0.1-0.2,0.2-0.6,0.2-1.1v-3.5c0-0.5-0.1-0.9-0.2-1.1c-0.1-0.2-0.4-0.4-0.8-0.4c-0.4,0-0.7,0.1-0.9,0.4c-0.1,0.2-0.2,0.6-0.2,1.1
		v3.5c0,0.5,0.1,0.9,0.2,1.1c0.1,0.2,0.4,0.4,0.9,0.4C185.7,31.7,186,31.5,186.1,31.3z"/>
	<path fill="#7EBAE3" d="M188.6,24.4h1.6c0.8,0,1.4,0.2,1.8,0.5c0.4,0.3,0.6,0.9,0.6,1.6c0,1-0.3,1.7-1,1.9l1.2,4.1h-1.1l-1.1-3.8
		h-0.9v3.8h-1.1V24.4z M190.2,27.9c0.5,0,0.8-0.1,1-0.3c0.2-0.2,0.3-0.5,0.3-1.1c0-0.3,0-0.6-0.1-0.8c-0.1-0.2-0.2-0.3-0.4-0.4
		c-0.2-0.1-0.5-0.1-0.8-0.1h-0.5v2.7H190.2z"/>
	<path fill="#7EBAE3" d="M193.8,24.4h1.8c0.9,0,1.5,0.2,1.9,0.6s0.5,1,0.5,1.9v3c0,0.9-0.2,1.6-0.5,2c-0.4,0.4-0.9,0.7-1.8,0.7h-1.9
		V24.4z M195.6,31.6c0.4,0,0.7-0.1,0.9-0.2c0.2-0.1,0.3-0.4,0.3-0.6c0-0.3,0.1-0.7,0.1-1.2V27c0-0.5,0-0.8-0.1-1.1
		c-0.1-0.2-0.2-0.4-0.4-0.5c-0.2-0.1-0.5-0.2-0.8-0.2H195v6.4H195.6z"/>
	<path fill="#7EBAE3" d="M199.1,24.4h3.1v0.8h-2v2.7h1.6v0.8h-1.6v3h2v0.8H199L199.1,24.4L199.1,24.4z"/>
	<path fill="#7EBAE3" d="M203.1,24.4h1.6c0.8,0,1.4,0.2,1.8,0.5c0.4,0.3,0.6,0.9,0.6,1.6c0,1-0.3,1.7-1,1.9l1.2,4.1h-1.1l-1.1-3.8
		h-0.9v3.8h-1.1V24.4z M204.7,27.9c0.5,0,0.8-0.1,1-0.3c0.2-0.2,0.3-0.5,0.3-1.1c0-0.3,0-0.6-0.1-0.8c-0.1-0.2-0.2-0.3-0.4-0.4
		c-0.2-0.1-0.5-0.1-0.8-0.1h-0.5v2.7H204.7z"/>
	<path fill="#7EBAE3" d="M210.6,24.4h1.6c0.8,0,1.4,0.2,1.8,0.5c0.4,0.3,0.6,0.9,0.6,1.6c0,1-0.3,1.7-1,1.9l1.2,4.1h-1.1l-1.1-3.8
		h-0.9v3.8h-1.1V24.4z M212.2,27.9c0.5,0,0.8-0.1,1-0.3c0.2-0.2,0.3-0.5,0.3-1.1c0-0.3,0-0.6-0.1-0.8c-0.1-0.2-0.2-0.3-0.4-0.4
		c-0.2-0.1-0.5-0.1-0.8-0.1h-0.5v2.7H212.2z"/>
	<path fill="#7EBAE3" d="M215.8,24.4h3.1v0.8h-2v2.7h1.6v0.8h-1.6v3h2v0.8h-3.2L215.8,24.4L215.8,24.4z"/>
	<path fill="#7EBAE3" d="M220.2,31.8c-0.3-0.5-0.5-1.1-0.5-2V27c0-0.9,0.2-1.6,0.5-2s0.9-0.7,1.7-0.7c0.7,0,1.2,0.2,1.6,0.6
		c0.3,0.4,0.5,1,0.5,1.7v0.6h-1.1v-0.6c0-0.4,0-0.7,0-0.9c0-0.2-0.1-0.4-0.3-0.5c-0.1-0.1-0.4-0.2-0.7-0.2c-0.3,0-0.5,0.1-0.7,0.2
		c-0.2,0.1-0.2,0.3-0.3,0.5c0,0.2-0.1,0.5-0.1,0.9V30c0,0.4,0,0.7,0.1,1c0.1,0.2,0.2,0.4,0.3,0.5c0.2,0.1,0.4,0.2,0.6,0.2
		c0.3,0,0.5-0.1,0.6-0.2c0.1-0.1,0.2-0.3,0.3-0.5c0-0.2,0.1-0.5,0.1-0.9v-0.6h1.1V30c0,0.8-0.2,1.4-0.5,1.9
		c-0.3,0.4-0.8,0.6-1.6,0.6C221.1,32.5,220.5,32.3,220.2,31.8z"/>
	<path fill="#7EBAE3" d="M225,24.4h3.1v0.8h-2v2.7h1.6v0.8h-1.6v3h2v0.8H225V24.4z"/>
	<path fill="#7EBAE3" d="M229.2,24.4h1.1v8.1h-1.1V24.4z"/>
	<path fill="#7EBAE3" d="M231.6,24.4h2c0.7,0,1.2,0.2,1.5,0.6c0.3,0.4,0.5,0.9,0.5,1.7c0,0.7-0.2,1.2-0.5,1.5
		c-0.3,0.3-0.8,0.5-1.5,0.5h-0.9v3.8h-1.1V24.4z M233.2,27.9c0.3,0,0.6,0,0.8-0.1c0.2-0.1,0.3-0.2,0.4-0.4c0.1-0.2,0.1-0.4,0.1-0.8
		s0-0.7-0.1-0.9c-0.1-0.2-0.2-0.3-0.4-0.4c-0.2-0.1-0.5-0.1-0.8-0.1h-0.5v2.7H233.2z"/>
	<path fill="#7EBAE3" d="M237.3,25.2h-1.4v-0.8h3.8v0.8h-1.3v7.3h-1.1V25.2z"/>
</g>
<polygon fill="#7EBAE3" points="163,44 83,44 92.8,29 83,14 163,14 172.8,29 "/>
<g>
	<path fill="#FFFFFF" d="M102.5,31.9c-0.4-0.4-0.6-1-0.6-1.7l1-0.3c0,0.5,0.1,0.9,0.3,1.3c0.2,0.3,0.5,0.5,0.8,0.5s0.5-0.1,0.7-0.2
		c0.2-0.1,0.2-0.4,0.2-0.7s-0.1-0.6-0.2-0.8c-0.1-0.2-0.4-0.5-0.7-0.7l-1.4-1.2c-0.3-0.2-0.5-0.5-0.6-0.8c-0.1-0.3-0.2-0.6-0.2-1
		c0-0.6,0.2-1.1,0.5-1.4c0.3-0.3,0.8-0.5,1.4-0.5c0.6,0,1.1,0.2,1.4,0.5c0.3,0.3,0.5,0.9,0.6,1.6l-1,0.3c0-0.5-0.1-0.8-0.3-1.1
		c-0.2-0.3-0.4-0.4-0.8-0.4c-0.3,0-0.5,0.1-0.7,0.2c-0.2,0.2-0.2,0.4-0.2,0.7c0,0.2,0,0.4,0.1,0.6c0.1,0.2,0.2,0.3,0.4,0.5l1.4,1.2
		c0.4,0.3,0.6,0.7,0.8,1c0.2,0.3,0.3,0.8,0.3,1.3c0,0.6-0.2,1.1-0.5,1.4c-0.4,0.3-0.8,0.5-1.4,0.5C103.3,32.5,102.8,32.3,102.5,31.9
		z"/>
	<path fill="#FFFFFF" d="M106.8,24.4h2c0.7,0,1.2,0.2,1.5,0.6c0.3,0.4,0.5,0.9,0.5,1.7c0,0.7-0.2,1.2-0.5,1.5
		c-0.3,0.4-0.8,0.5-1.5,0.5H108v3.8h-1.1v-8.1H106.8z M108.5,27.9c0.3,0,0.6,0,0.8-0.1c0.2-0.1,0.3-0.2,0.4-0.4
		c0.1-0.2,0.1-0.4,0.1-0.8s0-0.7-0.1-0.9c-0.1-0.2-0.2-0.3-0.4-0.4c-0.2-0.1-0.5-0.1-0.8-0.1H108v2.7H108.5z"/>
	<path fill="#FFFFFF" d="M111.6,24.4h3.1v0.8h-2v2.7h1.6v0.8h-1.6v3h2v0.8h-3.2v-8.1H111.6z"/>
	<path fill="#FFFFFF" d="M116.1,31.8c-0.3-0.5-0.5-1.1-0.5-2V27c0-0.9,0.2-1.6,0.5-2c0.3-0.4,0.9-0.7,1.7-0.7c0.7,0,1.2,0.2,1.6,0.6
		c0.3,0.4,0.5,1,0.5,1.7v0.6h-1.1v-0.6c0-0.4,0-0.7,0-0.9c0-0.2-0.1-0.4-0.3-0.5c-0.1-0.1-0.4-0.2-0.7-0.2c-0.3,0-0.5,0.1-0.7,0.2
		c-0.1,0.1-0.2,0.3-0.3,0.5c0,0.2-0.1,0.5-0.1,0.9V30c0,0.4,0,0.7,0.1,1c0.1,0.2,0.2,0.4,0.3,0.5s0.4,0.2,0.6,0.2
		c0.3,0,0.5-0.1,0.6-0.2c0.1-0.1,0.2-0.3,0.3-0.5c0-0.2,0.1-0.5,0.1-0.9v-0.6h1.1V30c0,0.8-0.2,1.4-0.5,1.9
		c-0.3,0.4-0.8,0.6-1.6,0.6C116.9,32.5,116.4,32.3,116.1,31.8z"/>
	<path fill="#FFFFFF" d="M120.9,24.4h1.1v8.1h-1.1V24.4z"/>
	<path fill="#FFFFFF" d="M124.6,24.4h1.1l1.7,8.1h-1.1l-0.4-2h-1.6l-0.4,2h-1.1L124.6,24.4z M125.9,29.6l-0.7-3.6l-0.7,3.6H125.9z"
		/>
	<path fill="#FFFFFF" d="M128.3,24.4h1.1v7.3h2.1v0.8h-3.2V24.4L128.3,24.4z"/>
	<path fill="#FFFFFF" d="M134.9,31.9c-0.3-0.5-0.5-1.1-0.5-2v-3.1c0-0.8,0.2-1.5,0.5-1.9c0.3-0.4,0.9-0.6,1.7-0.6
		c0.8,0,1.4,0.2,1.7,0.7c0.3,0.4,0.5,1.1,0.5,1.9V30c0,0.8-0.2,1.5-0.5,1.9c-0.3,0.5-0.9,0.7-1.7,0.7
		C135.8,32.5,135.2,32.3,134.9,31.9z M137.4,31.3c0.1-0.2,0.2-0.6,0.2-1.1v-3.5c0-0.5-0.1-0.9-0.2-1.1c-0.1-0.2-0.4-0.4-0.8-0.4
		c-0.4,0-0.7,0.1-0.9,0.4c-0.1,0.2-0.2,0.6-0.2,1.1v3.5c0,0.5,0.1,0.9,0.2,1.1c0.1,0.2,0.4,0.4,0.9,0.4
		C137,31.7,137.3,31.5,137.4,31.3z"/>
	<path fill="#FFFFFF" d="M139.9,24.4h3.1v0.8h-2v2.7h1.6v0.8H141v3.8h-1.1V24.4z"/>
	<path fill="#FFFFFF" d="M143.8,24.4h3.1v0.8h-2v2.7h1.6v0.8H145v3.8h-1.1v-8.1H143.8z"/>
	<path fill="#FFFFFF" d="M147.7,24.4h3.1v0.8h-2v2.7h1.6v0.8h-1.6v3h2v0.8h-3.2v-8.1H147.7z"/>
	<path fill="#FFFFFF" d="M151.8,24.4h1.6c0.8,0,1.4,0.2,1.8,0.5c0.4,0.3,0.6,0.9,0.6,1.6c0,1-0.3,1.7-1,1.9l1.1,4.1h-1.1l-1.1-3.8
		h-0.9v3.8h-1.1L151.8,24.4L151.8,24.4z M153.4,27.9c0.5,0,0.8-0.1,1-0.3c0.2-0.2,0.3-0.5,0.3-1.1c0-0.3,0-0.6-0.1-0.8
		c-0.1-0.2-0.2-0.3-0.4-0.4c-0.2-0.1-0.4-0.1-0.8-0.1h-0.5v2.7H153.4z"/>
</g>
</svg>
