<svg id="3b40f8d7-5bc6-47c8-b8be-d6b3b974b690" data-name="Layer 1" xmlns="http://www.w3.org/2000/svg" viewBox="0 0 391 357"><title>layout_4</title><rect width="391" height="357" style="fill:#f6f6f6"/><path d="M131.5,97a27.54,27.54,0,0,1,5.09-.45c2.78,0,4.58.48,5.92,1.57A4.52,4.52,0,0,1,144.3,102a5.13,5.13,0,0,1-3.65,4.74v.06a5.56,5.56,0,0,1,4.45,5.41,5.82,5.82,0,0,1-1.82,4.32c-1.51,1.37-3.94,2-7.46,2a34.28,34.28,0,0,1-4.32-.25Zm2.79,8.83h2.52c2.95,0,4.68-1.53,4.68-3.61,0-2.53-1.92-3.52-4.74-3.52a11.59,11.59,0,0,0-2.46.19Zm0,10.34a14.26,14.26,0,0,0,2.33.13c2.88,0,5.54-1.06,5.54-4.19,0-2.95-2.53-4.16-5.57-4.16h-2.3Z" style="fill:#b8b6b7"/><path d="M161.71,114.08c0,1.6,0,3,.13,4.22h-2.5l-.16-2.53h-.06a5.83,5.83,0,0,1-5.12,2.88c-2.43,0-5.35-1.34-5.35-6.78v-9.06h2.82v8.58c0,2.94.9,4.93,3.46,4.93a4.09,4.09,0,0,0,3.71-2.56,4.14,4.14,0,0,0,.25-1.44v-9.51h2.82Z" style="fill:#b8b6b7"/><path d="M169.52,98.46a1.75,1.75,0,0,1-3.49,0,1.72,1.72,0,0,1,1.76-1.76A1.67,1.67,0,0,1,169.52,98.46Zm-3.14,19.84V102.81h2.82V118.3Z" style="fill:#b8b6b7"/><path d="M173.87,95.58h2.82V118.3h-2.82Z" style="fill:#b8b6b7"/><path d="M194.8,95.58V114.3c0,1.38,0,2.94.12,4H192.4l-.13-2.69h-.07a5.72,5.72,0,0,1-5.28,3c-3.74,0-6.62-3.17-6.62-7.87,0-5.15,3.17-8.32,6.94-8.32a5.19,5.19,0,0,1,4.68,2.37H192V95.58ZM192,109.12a4.88,4.88,0,0,0-.13-1.19,4.13,4.13,0,0,0-4.06-3.26c-2.91,0-4.64,2.56-4.64,6,0,3.14,1.54,5.73,4.57,5.73a4.23,4.23,0,0,0,4.13-3.36,4.68,4.68,0,0,0,.13-1.21Z" style="fill:#b8b6b7"/><path d="M206.54,118.3V105h-2.17v-2.15h2.17v-.73c0-2.18.48-4.16,1.79-5.41a5.43,5.43,0,0,1,3.78-1.44,6.44,6.44,0,0,1,2.4.45l-.39,2.17a4.21,4.21,0,0,0-1.79-.35c-2.4,0-3,2.11-3,4.48v.83h3.75V105h-3.75V118.3Z" style="fill:#b8b6b7"/><path d="M215.6,107.65c0-1.83,0-3.4-.13-4.84h2.46l.1,3h.13a4.64,4.64,0,0,1,4.28-3.39,2.78,2.78,0,0,1,.8.1v2.65a4.41,4.41,0,0,0-1-.09c-2,0-3.39,1.5-3.77,3.61a7.47,7.47,0,0,0-.13,1.32v8.25H215.6Z" style="fill:#b8b6b7"/><path d="M239.76,110.43c0,5.73-4,8.22-7.72,8.22-4.19,0-7.42-3.07-7.42-8,0-5.19,3.39-8.23,7.68-8.23C236.75,102.46,239.76,105.69,239.76,110.43Zm-12.29.16c0,3.39,1.95,6,4.7,6s4.71-2.53,4.71-6c0-2.63-1.32-6-4.64-6S227.47,107.65,227.47,110.59Z" style="fill:#b8b6b7"/><path d="M243.31,107c0-1.6,0-2.92-.13-4.2h2.46l.13,2.5h.1a5.33,5.33,0,0,1,4.86-2.85,4.59,4.59,0,0,1,4.39,3.11h.06a6.34,6.34,0,0,1,1.73-2,5.29,5.29,0,0,1,3.42-1.09c2.05,0,5.09,1.35,5.09,6.72v9.12h-2.75v-8.77c0-3-1.09-4.76-3.36-4.76a3.64,3.64,0,0,0-3.33,2.56,4.52,4.52,0,0,0-.22,1.4v9.57H253V109c0-2.46-1.08-4.25-3.23-4.25a3.84,3.84,0,0,0-3.49,2.81,3.92,3.92,0,0,0-.22,1.38v9.34h-2.75Z" style="fill:#b8b6b7"/><path d="M152.77,154.12a7.3,7.3,0,0,0,3.71,1.12c2.05,0,3-1,3-2.3s-.8-2.08-2.88-2.85c-2.79-1-4.1-2.53-4.1-4.38,0-2.5,2-4.55,5.34-4.55a7.74,7.74,0,0,1,3.81,1l-.7,2a6.08,6.08,0,0,0-3.17-.9c-1.66,0-2.59,1-2.59,2.12s.93,1.85,2.94,2.62c2.69,1,4.07,2.37,4.07,4.67,0,2.72-2.12,4.64-5.8,4.64a9,9,0,0,1-4.35-1Z" style="fill:#b8b6b7"/><path d="M176.86,156.42a10.26,10.26,0,0,1-4.45.9c-4.67,0-7.71-3.17-7.71-7.9a7.88,7.88,0,0,1,8.32-8.23,9.4,9.4,0,0,1,3.9.8l-.63,2.18a6.61,6.61,0,0,0-3.27-.74c-3.55,0-5.47,2.63-5.47,5.86,0,3.58,2.3,5.79,5.38,5.79a7.89,7.89,0,0,0,3.45-.77Z" style="fill:#b8b6b7"/><path d="M180.16,146.35c0-1.83,0-3.4-.13-4.84h2.46l.1,3h.13a4.64,4.64,0,0,1,4.28-3.39,2.85,2.85,0,0,1,.81.1v2.65a4.54,4.54,0,0,0-1-.09c-2,0-3.4,1.5-3.78,3.61a8.55,8.55,0,0,0-.13,1.32V157h-2.78Z" style="fill:#b8b6b7"/><path d="M199,157l-.23-1.95h-.09a5.77,5.77,0,0,1-4.74,2.3,4.4,4.4,0,0,1-4.73-4.44c0-3.75,3.32-5.8,9.31-5.76v-.32c0-1.28-.35-3.59-3.52-3.59a7.72,7.72,0,0,0-4,1.15l-.64-1.85a9.61,9.61,0,0,1,5.08-1.38c4.74,0,5.89,3.23,5.89,6.34v5.79a21,21,0,0,0,.26,3.71Zm-.42-7.9c-3.07-.07-6.56.48-6.56,3.49a2.49,2.49,0,0,0,2.66,2.68,3.86,3.86,0,0,0,3.74-2.59,2.84,2.84,0,0,0,.16-.89Z" style="fill:#b8b6b7"/><path d="M209.15,137.07v4.44h4v2.15h-4V152c0,1.92.54,3,2.11,3a6.5,6.5,0,0,0,1.63-.19l.13,2.11a7,7,0,0,1-2.49.38,3.91,3.91,0,0,1-3-1.18c-.8-.83-1.09-2.21-1.09-4v-8.45H204v-2.15h2.4V137.8Z" style="fill:#b8b6b7"/><path d="M227.2,156.42a10.29,10.29,0,0,1-4.45.9c-4.67,0-7.71-3.17-7.71-7.9s3.26-8.23,8.32-8.23a9.48,9.48,0,0,1,3.9.8l-.64,2.18a6.56,6.56,0,0,0-3.26-.74c-3.56,0-5.48,2.63-5.48,5.86,0,3.58,2.31,5.79,5.38,5.79a7.9,7.9,0,0,0,3.46-.77Z" style="fill:#b8b6b7"/><path d="M230.49,134.28h2.82V144h.06a5.29,5.29,0,0,1,2-2,5.78,5.78,0,0,1,2.88-.8c2.08,0,5.41,1.28,5.41,6.63V157h-2.82v-8.89c0-2.5-.93-4.61-3.58-4.61a4,4,0,0,0-3.78,2.81,3.44,3.44,0,0,0-.19,1.35V157h-2.82Z" style="fill:#b8b6b7"/><path d="M127,202.18a6.17,6.17,0,0,0,3.12.88c1.78,0,2.82-.94,2.82-2.3s-.72-2-2.54-2.68c-2.2-.78-3.56-1.92-3.56-3.82,0-2.1,1.74-3.66,4.36-3.66a6.12,6.12,0,0,1,3,.66l-.48,1.42a5.37,5.37,0,0,0-2.56-.64c-1.84,0-2.54,1.1-2.54,2,0,1.26.82,1.88,2.68,2.6,2.28.88,3.44,2,3.44,4s-1.54,3.88-4.72,3.88a7,7,0,0,1-3.44-.86Z" style="fill:#a0a0a0"/><path d="M139.05,191.84v2.78h2.52V196h-2.52v5.22c0,1.2.34,1.88,1.32,1.88a3.92,3.92,0,0,0,1-.12l.08,1.32a4.31,4.31,0,0,1-1.56.24,2.44,2.44,0,0,1-1.9-.74,3.59,3.59,0,0,1-.68-2.52V196h-1.5v-1.34h1.5V192.3Z" style="fill:#a0a0a0"/><path d="M148.91,204.3l-.14-1.22h-.06a3.61,3.61,0,0,1-3,1.44,2.76,2.76,0,0,1-3-2.78c0-2.34,2.08-3.62,5.82-3.6v-.2a2,2,0,0,0-2.2-2.24,4.82,4.82,0,0,0-2.52.72l-.4-1.16a6,6,0,0,1,3.18-.86c3,0,3.68,2,3.68,4V202a13.63,13.63,0,0,0,.16,2.32Zm-.26-4.94c-1.92,0-4.1.3-4.1,2.18a1.56,1.56,0,0,0,1.66,1.68,2.41,2.41,0,0,0,2.34-1.62,1.84,1.84,0,0,0,.1-.56Z" style="fill:#a0a0a0"/><path d="M153.19,197.64c0-1.14,0-2.12-.08-3h1.54l.06,1.9h.08a2.9,2.9,0,0,1,2.68-2.12,1.9,1.9,0,0,1,.5.06v1.66a2.64,2.64,0,0,0-.6-.06,2.47,2.47,0,0,0-2.36,2.26,5,5,0,0,0-.08.82v5.16h-1.74Z" style="fill:#a0a0a0"/><path d="M162.33,191.84v2.78h2.52V196h-2.52v5.22c0,1.2.34,1.88,1.32,1.88a3.92,3.92,0,0,0,1-.12l.08,1.32a4.31,4.31,0,0,1-1.56.24,2.44,2.44,0,0,1-1.9-.74,3.59,3.59,0,0,1-.68-2.52V196h-1.5v-1.34h1.5V192.3Z" style="fill:#a0a0a0"/><path d="M171.77,194.62l1.28,4.92c.28,1.08.54,2.08.72,3.08h.06c.22-1,.54-2,.86-3.06l1.58-4.94h1.48l1.5,4.84c.36,1.16.64,2.18.86,3.16h.06a29.11,29.11,0,0,1,.74-3.14l1.38-4.86H184l-3.12,9.68h-1.6l-1.48-4.62a32.26,32.26,0,0,1-.86-3.18h0a28.64,28.64,0,0,1-.88,3.2l-1.56,4.6h-1.6L170,194.62Z" style="fill:#a0a0a0"/><path d="M187.75,191.9a1.09,1.09,0,0,1-2.18,0,1.07,1.07,0,0,1,1.1-1.1A1,1,0,0,1,187.75,191.9Zm-2,12.4v-9.68h1.76v9.68Z" style="fill:#a0a0a0"/><path d="M192.59,191.84v2.78h2.52V196h-2.52v5.22c0,1.2.34,1.88,1.32,1.88a3.92,3.92,0,0,0,1-.12l.08,1.32a4.31,4.31,0,0,1-1.56.24,2.44,2.44,0,0,1-1.9-.74,3.59,3.59,0,0,1-.68-2.52V196h-1.5v-1.34h1.5V192.3Z" style="fill:#a0a0a0"/><path d="M197.09,190.1h1.76v6h0a3.27,3.27,0,0,1,1.26-1.24,3.62,3.62,0,0,1,1.8-.5c1.3,0,3.38.8,3.38,4.14v5.76h-1.76v-5.56c0-1.56-.58-2.88-2.24-2.88a2.53,2.53,0,0,0-2.36,1.76,2.13,2.13,0,0,0-.12.84v5.84h-1.76Z" style="fill:#a0a0a0"/><path d="M217.79,204.3l-.14-1.22h-.06a3.61,3.61,0,0,1-3,1.44,2.76,2.76,0,0,1-3-2.78c0-2.34,2.08-3.62,5.82-3.6v-.2a2,2,0,0,0-2.2-2.24,4.82,4.82,0,0,0-2.52.72l-.4-1.16a6,6,0,0,1,3.18-.86c3,0,3.68,2,3.68,4V202a13.63,13.63,0,0,0,.16,2.32Zm-.26-4.94c-1.92,0-4.1.3-4.1,2.18a1.56,1.56,0,0,0,1.66,1.68,2.41,2.41,0,0,0,2.34-1.62,1.84,1.84,0,0,0,.1-.56Z" style="fill:#a0a0a0"/><path d="M226.23,204.3c0-.66.08-1.64.08-2.5V190.1h1.74v6.08h0a3.61,3.61,0,0,1,3.3-1.78c2.4,0,4.1,2,4.08,4.94,0,3.46-2.18,5.18-4.34,5.18a3.45,3.45,0,0,1-3.24-1.82h-.06l-.08,1.6Zm1.82-3.88a3.3,3.3,0,0,0,.08.64,2.72,2.72,0,0,0,2.64,2.06c1.84,0,2.94-1.5,2.94-3.72,0-1.94-1-3.6-2.88-3.6a2.81,2.81,0,0,0-2.68,2.16,3.47,3.47,0,0,0-.1.72Z" style="fill:#a0a0a0"/><path d="M237.68,190.1h1.77v14.2h-1.77Z" style="fill:#a0a0a0"/><path d="M247.77,204.3l-.14-1.22h-.06a3.61,3.61,0,0,1-3,1.44,2.76,2.76,0,0,1-3-2.78c0-2.34,2.08-3.62,5.83-3.6v-.2a2,2,0,0,0-2.2-2.24,4.8,4.8,0,0,0-2.52.72l-.41-1.16a6,6,0,0,1,3.19-.86c3,0,3.68,2,3.68,4V202a13.63,13.63,0,0,0,.16,2.32Zm-.26-4.94c-1.93,0-4.1.3-4.1,2.18a1.56,1.56,0,0,0,1.66,1.68,2.41,2.41,0,0,0,2.34-1.62,1.84,1.84,0,0,0,.1-.56Z" style="fill:#a0a0a0"/><path d="M252,197.24c0-1,0-1.82-.08-2.62h1.57l.1,1.6h0a3.56,3.56,0,0,1,3.2-1.82c1.34,0,3.42.8,3.42,4.12v5.78h-1.76v-5.58c0-1.56-.58-2.86-2.24-2.86a2.5,2.5,0,0,0-2.36,1.8,2.53,2.53,0,0,0-.12.82v5.82H252Z" style="fill:#a0a0a0"/><path d="M264.88,199.06h0c.25-.34.59-.76.87-1.1l2.84-3.34h2.12l-3.74,4,4.26,5.7h-2.14l-3.34-4.64-.91,1v3.64h-1.74V190.1h1.74Z" style="fill:#a0a0a0"/><path d="M118.31,214.84v2.78h2.52V219h-2.52v5.22c0,1.2.34,1.88,1.32,1.88a3.92,3.92,0,0,0,1-.12l.08,1.32a4.31,4.31,0,0,1-1.56.24,2.44,2.44,0,0,1-1.9-.74,3.59,3.59,0,0,1-.68-2.52V219h-1.5v-1.34h1.5V215.3Z" style="fill:#a0a0a0"/><path d="M123.67,222.78a3.1,3.1,0,0,0,3.32,3.36,6.36,6.36,0,0,0,2.68-.5l.3,1.26a7.84,7.84,0,0,1-3.22.6c-3,0-4.76-2-4.76-4.88s1.72-5.22,4.54-5.22c3.16,0,4,2.78,4,4.56a6.64,6.64,0,0,1-.06.82Zm5.16-1.26c0-1.12-.46-2.86-2.44-2.86-1.78,0-2.56,1.64-2.7,2.86Z" style="fill:#a0a0a0"/><path d="M132.71,220.24c0-1,0-1.82-.08-2.62h1.54l.08,1.56h.06a3.34,3.34,0,0,1,3-1.78,2.86,2.86,0,0,1,2.74,1.94h0a4,4,0,0,1,1.08-1.26,3.3,3.3,0,0,1,2.14-.68c1.28,0,3.18.84,3.18,4.2v5.7h-1.72v-5.48c0-1.86-.68-3-2.1-3a2.28,2.28,0,0,0-2.08,1.6,2.9,2.9,0,0,0-.14.88v6h-1.72v-5.8c0-1.54-.68-2.66-2-2.66a2.62,2.62,0,0,0-2.32,2.62v5.84h-1.72Z" style="fill:#a0a0a0"/><path d="M149.39,220.78c0-1.24,0-2.24-.08-3.16h1.58l.08,1.66h0a3.81,3.81,0,0,1,3.44-1.88c2.34,0,4.1,2,4.1,4.92,0,3.48-2.12,5.2-4.4,5.2a3.39,3.39,0,0,1-3-1.52h0v5.26h-1.74Zm1.74,2.58a4,4,0,0,0,.08.72,2.72,2.72,0,0,0,2.64,2.06c1.86,0,2.94-1.52,2.94-3.74,0-1.94-1-3.6-2.88-3.6a2.81,2.81,0,0,0-2.66,2.18,2.85,2.85,0,0,0-.12.72Z" style="fill:#a0a0a0"/><path d="M160.77,213.1h1.76v14.2h-1.76Z" style="fill:#a0a0a0"/><path d="M170.85,227.3l-.14-1.22h-.06a3.61,3.61,0,0,1-3,1.44,2.76,2.76,0,0,1-3-2.78c0-2.34,2.08-3.62,5.82-3.6v-.2a2,2,0,0,0-2.2-2.24,4.82,4.82,0,0,0-2.52.72l-.4-1.16a6,6,0,0,1,3.18-.86c3,0,3.68,2,3.68,4V225a13.63,13.63,0,0,0,.16,2.32Zm-.26-4.94c-1.92,0-4.1.3-4.1,2.18a1.56,1.56,0,0,0,1.66,1.68,2.41,2.41,0,0,0,2.34-1.62,1.84,1.84,0,0,0,.1-.56Z" style="fill:#a0a0a0"/><path d="M177.17,214.84v2.78h2.52V219h-2.52v5.22c0,1.2.34,1.88,1.32,1.88a3.92,3.92,0,0,0,1-.12l.08,1.32a4.31,4.31,0,0,1-1.56.24,2.44,2.44,0,0,1-1.9-.74,3.59,3.59,0,0,1-.68-2.52V219H174v-1.34h1.5V215.3Z" style="fill:#a0a0a0"/><path d="M182.53,222.78a3.1,3.1,0,0,0,3.32,3.36,6.36,6.36,0,0,0,2.68-.5l.3,1.26a7.84,7.84,0,0,1-3.22.6c-3,0-4.76-2-4.76-4.88s1.72-5.22,4.54-5.22c3.16,0,4,2.78,4,4.56a6.64,6.64,0,0,1-.06.82Zm5.16-1.26c0-1.12-.46-2.86-2.44-2.86-1.78,0-2.56,1.64-2.7,2.86Z" style="fill:#a0a0a0"/><path d="M201.17,227.3l-.14-1.22H201a3.61,3.61,0,0,1-3,1.44,2.75,2.75,0,0,1-3-2.78c0-2.34,2.08-3.62,5.82-3.6v-.2a2,2,0,0,0-2.2-2.24,4.82,4.82,0,0,0-2.52.72l-.4-1.16a6,6,0,0,1,3.18-.86c3,0,3.68,2,3.68,4V225a13.63,13.63,0,0,0,.16,2.32Zm-.26-4.94c-1.92,0-4.1.3-4.1,2.18a1.56,1.56,0,0,0,1.66,1.68,2.41,2.41,0,0,0,2.34-1.62,1.84,1.84,0,0,0,.1-.56Z" style="fill:#a0a0a0"/><path d="M205.45,220.24c0-1,0-1.82-.08-2.62h1.56l.1,1.6h0a3.56,3.56,0,0,1,3.2-1.82c1.34,0,3.42.8,3.42,4.12v5.78h-1.76v-5.58c0-1.56-.58-2.86-2.24-2.86a2.5,2.5,0,0,0-2.36,1.8,2.53,2.53,0,0,0-.12.82v5.82h-1.76Z" style="fill:#a0a0a0"/><path d="M224.91,213.1v11.7c0,.86,0,1.84.08,2.5h-1.58l-.08-1.68h0a3.58,3.58,0,0,1-3.3,1.9c-2.34,0-4.14-2-4.14-4.92,0-3.22,2-5.2,4.34-5.2a3.24,3.24,0,0,1,2.92,1.48h0V213.1Zm-1.76,8.46a3.11,3.11,0,0,0-.08-.74,2.59,2.59,0,0,0-2.54-2c-1.82,0-2.9,1.6-2.9,3.74,0,2,1,3.58,2.86,3.58a2.65,2.65,0,0,0,2.58-2.1,3.06,3.06,0,0,0,.08-.76Z" style="fill:#a0a0a0"/><path d="M239,226.94a6.48,6.48,0,0,1-2.78.56,4.6,4.6,0,0,1-4.83-4.94,4.93,4.93,0,0,1,5.21-5.14,5.88,5.88,0,0,1,2.44.5l-.4,1.36a4.08,4.08,0,0,0-2-.46,3.35,3.35,0,0,0-3.42,3.66,3.31,3.31,0,0,0,3.36,3.62,5,5,0,0,0,2.16-.48Z" style="fill:#a0a0a0"/><path d="M241,220.64c0-1.14,0-2.12-.08-3h1.55l0,1.9h.09a2.9,2.9,0,0,1,2.68-2.12,1.9,1.9,0,0,1,.5.06v1.66a2.64,2.64,0,0,0-.6-.06,2.48,2.48,0,0,0-2.37,2.26,5,5,0,0,0-.07.82v5.16H241Z" style="fill:#a0a0a0"/><path d="M248.35,222.78a3.1,3.1,0,0,0,3.32,3.36,6.36,6.36,0,0,0,2.68-.5l.3,1.26a7.84,7.84,0,0,1-3.22.6c-3,0-4.76-2-4.76-4.88s1.72-5.22,4.54-5.22c3.16,0,4,2.78,4,4.56a6.64,6.64,0,0,1-.06.82Zm5.16-1.26c0-1.12-.46-2.86-2.44-2.86-1.78,0-2.56,1.64-2.7,2.86Z" style="fill:#a0a0a0"/><path d="M262.75,227.3l-.14-1.22h-.06a3.61,3.61,0,0,1-3,1.44,2.76,2.76,0,0,1-3-2.78c0-2.34,2.08-3.62,5.82-3.6v-.2a2,2,0,0,0-2.2-2.24,4.82,4.82,0,0,0-2.52.72l-.4-1.16a6,6,0,0,1,3.18-.86c3,0,3.68,2,3.68,4V225a13.63,13.63,0,0,0,.16,2.32Zm-.26-4.94c-1.92,0-4.1.3-4.1,2.18a1.56,1.56,0,0,0,1.66,1.68,2.41,2.41,0,0,0,2.34-1.62,1.84,1.84,0,0,0,.1-.56Z" style="fill:#a0a0a0"/><path d="M269.07,214.84v2.78h2.52V219h-2.52v5.22c0,1.2.34,1.88,1.32,1.88a3.92,3.92,0,0,0,1-.12l.08,1.32a4.31,4.31,0,0,1-1.56.24,2.44,2.44,0,0,1-1.9-.74,3.54,3.54,0,0,1-.69-2.52V219h-1.5v-1.34h1.5V215.3Z" style="fill:#a0a0a0"/><path d="M274.42,222.78a3.11,3.11,0,0,0,3.33,3.36,6.36,6.36,0,0,0,2.68-.5l.3,1.26a7.84,7.84,0,0,1-3.22.6,4.5,4.5,0,0,1-4.77-4.88c0-2.92,1.72-5.22,4.55-5.22,3.16,0,4,2.78,4,4.56a6.64,6.64,0,0,1-.06.82Zm5.17-1.26c0-1.12-.46-2.86-2.44-2.86a2.91,2.91,0,0,0-2.7,2.86Z" style="fill:#a0a0a0"/><path d="M131,240.62l2.12,5.72c.22.64.46,1.4.62,2h0c.18-.58.38-1.32.62-2l1.92-5.68h1.86l-2.64,6.9c-1.26,3.32-2.12,5-3.32,6.06a4.77,4.77,0,0,1-2.16,1.14l-.44-1.48a4.66,4.66,0,0,0,1.54-.86,5.34,5.34,0,0,0,1.48-2,1.26,1.26,0,0,0,.14-.42,1.53,1.53,0,0,0-.12-.46l-3.58-8.92Z" style="fill:#a0a0a0"/><path d="M148.33,245.38c0,3.58-2.48,5.14-4.82,5.14-2.62,0-4.64-1.92-4.64-5,0-3.24,2.12-5.14,4.8-5.14S148.33,242.42,148.33,245.38Zm-7.68.1c0,2.12,1.22,3.72,2.94,3.72s2.94-1.58,2.94-3.76c0-1.64-.82-3.72-2.9-3.72S140.65,243.64,140.65,245.48Z" style="fill:#a0a0a0"/><path d="M158.65,247.66c0,1,0,1.88.08,2.64h-1.56l-.1-1.58h0a3.64,3.64,0,0,1-3.2,1.8c-1.52,0-3.34-.84-3.34-4.24v-5.66h1.76V246c0,1.84.56,3.08,2.16,3.08a2.54,2.54,0,0,0,2.32-1.6,2.57,2.57,0,0,0,.16-.9v-5.94h1.76Z" style="fill:#a0a0a0"/><path d="M161.57,243.64c0-1.14,0-2.12-.08-3H163l.06,1.9h.08a2.9,2.9,0,0,1,2.68-2.12,1.9,1.9,0,0,1,.5.06v1.66a2.64,2.64,0,0,0-.6-.06,2.47,2.47,0,0,0-2.36,2.26,5,5,0,0,0-.08.82v5.16h-1.74Z" style="fill:#a0a0a0"/><path d="M181.11,245.38c0,3.58-2.48,5.14-4.82,5.14-2.62,0-4.64-1.92-4.64-5,0-3.24,2.12-5.14,4.8-5.14S181.11,242.42,181.11,245.38Zm-7.68.1c0,2.12,1.22,3.72,2.94,3.72s2.94-1.58,2.94-3.76c0-1.64-.82-3.72-2.9-3.72S173.43,243.64,173.43,245.48Z" style="fill:#a0a0a0"/><path d="M183.89,240.62l1.28,4.92c.28,1.08.54,2.08.72,3.08H186c.22-1,.54-2,.86-3.06l1.58-4.94h1.48l1.5,4.84c.36,1.16.64,2.18.86,3.16h.06a29.11,29.11,0,0,1,.74-3.14l1.38-4.86h1.74L193,250.3h-1.6L190,245.68a32.26,32.26,0,0,1-.86-3.18h0a28.64,28.64,0,0,1-.88,3.2l-1.56,4.6H185l-2.92-9.68Z" style="fill:#a0a0a0"/><path d="M197.91,243.24c0-1,0-1.82-.08-2.62h1.56l.1,1.6h0a3.56,3.56,0,0,1,3.2-1.82c1.34,0,3.42.8,3.42,4.12v5.78h-1.76v-5.58c0-1.56-.58-2.86-2.24-2.86a2.5,2.5,0,0,0-2.36,1.8,2.53,2.53,0,0,0-.12.82v5.82h-1.76Z" style="fill:#a0a0a0"/><path d="M221.61,236.1v11.7c0,.86,0,1.84.08,2.5h-1.58l-.08-1.68h0a3.58,3.58,0,0,1-3.3,1.9c-2.34,0-4.14-2-4.14-4.92,0-3.22,2-5.2,4.34-5.2a3.24,3.24,0,0,1,2.92,1.48h0V236.1Zm-1.76,8.46a3.11,3.11,0,0,0-.08-.74,2.59,2.59,0,0,0-2.54-2c-1.82,0-2.9,1.6-2.9,3.74,0,2,1,3.58,2.86,3.58a2.65,2.65,0,0,0,2.58-2.1,3.06,3.06,0,0,0,.08-.76Z" style="fill:#a0a0a0"/><path d="M225.51,245.78a3.1,3.1,0,0,0,3.32,3.36,6.36,6.36,0,0,0,2.68-.5l.3,1.26a7.84,7.84,0,0,1-3.22.6c-3,0-4.76-2-4.76-4.88s1.72-5.22,4.54-5.22c3.16,0,4,2.78,4,4.56a6.64,6.64,0,0,1-.06.82Zm5.16-1.26c0-1.12-.46-2.86-2.44-2.86-1.78,0-2.56,1.64-2.7,2.86Z" style="fill:#a0a0a0"/><path d="M234.31,248.5a4.61,4.61,0,0,0,2.32.7c1.28,0,1.88-.64,1.88-1.44s-.5-1.3-1.8-1.78c-1.74-.62-2.56-1.58-2.56-2.74,0-1.56,1.26-2.84,3.34-2.84a4.83,4.83,0,0,1,2.38.6l-.44,1.28a3.77,3.77,0,0,0-2-.56c-1,0-1.62.6-1.62,1.32s.58,1.16,1.84,1.64c1.68.64,2.54,1.48,2.54,2.92,0,1.7-1.32,2.9-3.62,2.9a5.52,5.52,0,0,1-2.72-.66Z" style="fill:#a0a0a0"/><path d="M244.43,237.9a1.09,1.09,0,0,1-2.18,0,1.07,1.07,0,0,1,1.1-1.1A1,1,0,0,1,244.43,237.9Zm-2,12.4v-9.68h1.76v9.68Z" style="fill:#a0a0a0"/><path d="M255.49,240.62c0,.7-.08,1.48-.08,2.66v5.62c0,2.22-.44,3.58-1.38,4.42a5.13,5.13,0,0,1-3.52,1.16,6.25,6.25,0,0,1-3.22-.8l.44-1.34a5.46,5.46,0,0,0,2.84.76c1.8,0,3.12-.94,3.12-3.38v-1.08h0a3.46,3.46,0,0,1-3.08,1.62c-2.4,0-4.12-2-4.12-4.72,0-3.28,2.14-5.14,4.36-5.14a3.22,3.22,0,0,1,3,1.68h0l.08-1.46Zm-1.82,3.82a2.51,2.51,0,0,0-.1-.8,2.54,2.54,0,0,0-2.46-1.86c-1.68,0-2.88,1.42-2.88,3.66,0,1.9,1,3.48,2.86,3.48a2.57,2.57,0,0,0,2.44-1.8,3.06,3.06,0,0,0,.14-.94Z" style="fill:#a0a0a0"/><path d="M258.21,243.24c0-1,0-1.82-.08-2.62h1.56l.1,1.6h0a3.56,3.56,0,0,1,3.2-1.82c1.34,0,3.42.8,3.42,4.12v5.78h-1.76v-5.58c0-1.56-.58-2.86-2.24-2.86a2.5,2.5,0,0,0-2.36,1.8,2.53,2.53,0,0,0-.12.82v5.82h-1.76Z" style="fill:#a0a0a0"/></svg>