<?xml version="1.0" encoding="utf-8"?>
<!-- Generator: Adobe Illustrator 15.0.0, SVG Export Plug-In . SVG Version: 6.00 Build 0)  -->
<!DOCTYPE svg PUBLIC "-//W3C//DTD SVG 1.1//EN" "http://www.w3.org/Graphics/SVG/1.1/DTD/svg11.dtd" [
	<!ENTITY ns_flows "http://ns.adobe.com/Flows/1.0/">
	<!ENTITY ns_extend "http://ns.adobe.com/Extensibility/1.0/">
	<!ENTITY ns_ai "http://ns.adobe.com/AdobeIllustrator/10.0/">
	<!ENTITY ns_graphs "http://ns.adobe.com/Graphs/1.0/">
]>
<svg version="1.1" id="Layer_1" xmlns:x="&ns_extend;" xmlns:i="&ns_ai;" xmlns:graph="&ns_graphs;"
	 xmlns="http://www.w3.org/2000/svg" xmlns:xlink="http://www.w3.org/1999/xlink" xmlns:a="http://ns.adobe.com/AdobeSVGViewerExtensions/3.0/"
	 x="0px" y="0px" width="256px" height="57px" viewBox="0 0 256 57" enable-background="new 0 0 256 57" xml:space="preserve">
<rect x="0.5" y="0.5" fill="#FFFFFF" stroke="#B3E4FF" stroke-miterlimit="10" width="255" height="56"/>
<line fill="none" stroke="#7EBAE3" stroke-miterlimit="10" x1="136" y1="19.5" x2="249" y2="19.5"/>
<line fill="none" stroke="#7EBAE3" stroke-miterlimit="10" x1="148" y1="32.5" x2="239" y2="32.5"/>
<g>
	<path fill="#7EBAE3" d="M13.7,30.9h1.2c0.6,0,1,0.1,1.3,0.4c0.3,0.3,0.4,0.7,0.4,1.3v2.1c0,0.6-0.1,1.1-0.4,1.4
		c-0.3,0.3-0.7,0.5-1.2,0.5h-1.3V30.9z M14.9,36c0.3,0,0.5-0.1,0.6-0.2c0.1-0.1,0.2-0.3,0.2-0.4c0-0.2,0-0.5,0-0.8v-1.8
		c0-0.3,0-0.6-0.1-0.7c0-0.2-0.1-0.3-0.2-0.4c-0.1-0.1-0.3-0.1-0.6-0.1h-0.4V36H14.9z"/>
	<path fill="#7EBAE3" d="M17.6,36.5c-0.1-0.1-0.2-0.2-0.3-0.3c-0.1-0.1-0.1-0.3-0.1-0.5c0-0.3,0.1-0.6,0.2-0.8
		c0.1-0.2,0.3-0.4,0.5-0.5s0.5-0.3,0.9-0.4v-0.3c0-0.3,0-0.5-0.1-0.6c-0.1-0.1-0.2-0.2-0.3-0.2c-0.3,0-0.4,0.2-0.4,0.6v0.2l-0.7,0
		c0-0.4,0.1-0.8,0.3-1c0.2-0.2,0.5-0.3,0.9-0.3c0.4,0,0.7,0.1,0.8,0.3c0.2,0.2,0.3,0.5,0.3,1v1.8c0,0.3,0,0.6,0.1,1h-0.7
		c-0.1-0.3-0.1-0.5-0.1-0.6c-0.1,0.2-0.2,0.3-0.3,0.5s-0.3,0.2-0.5,0.2C17.8,36.6,17.7,36.6,17.6,36.5z M18.6,35.9
		c0.1-0.1,0.2-0.2,0.2-0.2v-1.1c-0.2,0.1-0.4,0.2-0.5,0.3c-0.1,0.1-0.2,0.2-0.3,0.3s-0.1,0.2-0.1,0.4c0,0.2,0,0.3,0.1,0.4
		s0.1,0.1,0.3,0.1C18.4,36,18.5,36,18.6,35.9z"/>
	<path fill="#7EBAE3" d="M20.2,37c0.3,0,0.5,0,0.6-0.1c0.1,0,0.2-0.1,0.2-0.2c0-0.1-0.1-0.3-0.2-0.7L20,32.5h0.8l0.5,3l0.5-3h0.8
		l-1,4.3c-0.1,0.3-0.2,0.5-0.4,0.6s-0.5,0.2-0.9,0.2h-0.1V37z"/>
	<path fill="#7EBAE3" d="M23.1,36.3c-0.2-0.2-0.3-0.5-0.3-0.8l0.6-0.2c0,0.3,0.1,0.5,0.2,0.6c0.1,0.1,0.2,0.2,0.4,0.2
		c0.1,0,0.2,0,0.3-0.1c0.1-0.1,0.1-0.2,0.1-0.3c0-0.1,0-0.2-0.1-0.3c-0.1-0.1-0.1-0.2-0.3-0.3l-0.7-0.6c-0.2-0.1-0.3-0.3-0.4-0.4
		c-0.1-0.2-0.1-0.3-0.1-0.6c0-0.3,0.1-0.6,0.3-0.7c0.2-0.2,0.4-0.3,0.8-0.3c0.3,0,0.5,0.1,0.7,0.3c0.2,0.2,0.3,0.5,0.3,0.8l-0.5,0.2
		c0-0.2-0.1-0.4-0.2-0.5C24.2,33.1,24.1,33,24,33c-0.1,0-0.2,0-0.3,0.1c-0.1,0.1-0.1,0.2-0.1,0.3c0,0.1,0.1,0.3,0.2,0.4l0.7,0.7
		c0.2,0.2,0.3,0.3,0.4,0.5c0.1,0.2,0.2,0.4,0.2,0.6c0,0.3-0.1,0.6-0.3,0.8c-0.2,0.2-0.5,0.3-0.8,0.3C23.6,36.6,23.3,36.5,23.1,36.3z
		"/>
</g>
<g>
	<path fill="#7EBAE3" d="M15.3,26.6c-0.3-0.4-0.5-1-0.5-1.7v-3.5c0-0.7,0.2-1.3,0.5-1.7c0.3-0.4,0.8-0.6,1.5-0.6
		c0.7,0,1.2,0.2,1.5,0.6c0.3,0.4,0.5,1,0.5,1.7v3.5c0,0.7-0.2,1.3-0.5,1.7c-0.3,0.4-0.8,0.6-1.5,0.6S15.6,27.1,15.3,26.6z
		 M17.7,24.9v-3.5c0-0.5-0.1-0.8-0.2-1.1c-0.1-0.3-0.4-0.4-0.7-0.4s-0.6,0.1-0.7,0.4c-0.1,0.3-0.2,0.6-0.2,1.1v3.5
		c0,1,0.3,1.5,0.9,1.5C17.4,26.4,17.7,25.9,17.7,24.9z"/>
	<path fill="#7EBAE3" d="M20.5,26.6c-0.3-0.4-0.5-1-0.5-1.7v-3.5c0-0.7,0.2-1.3,0.5-1.7c0.3-0.4,0.8-0.6,1.5-0.6
		c0.7,0,1.2,0.2,1.5,0.6c0.3,0.4,0.5,1,0.5,1.7v3.5c0,0.7-0.2,1.3-0.5,1.7c-0.3,0.4-0.8,0.6-1.5,0.6S20.8,27.1,20.5,26.6z
		 M22.9,24.9v-3.5c0-0.5-0.1-0.8-0.2-1.1c-0.1-0.3-0.4-0.4-0.7-0.4s-0.6,0.1-0.7,0.4c-0.1,0.3-0.2,0.6-0.2,1.1v3.5
		c0,1,0.3,1.5,0.9,1.5C22.6,26.4,22.9,25.9,22.9,24.9z"/>
</g>
<g>
	<path fill="#7EBAE3" d="M42.7,26.6c-0.3-0.4-0.5-1-0.5-1.7v-3.5c0-0.7,0.2-1.3,0.5-1.7c0.3-0.4,0.8-0.6,1.5-0.6
		c0.7,0,1.2,0.2,1.5,0.6c0.3,0.4,0.5,1,0.5,1.7v3.5c0,0.7-0.2,1.3-0.5,1.7c-0.3,0.4-0.8,0.6-1.5,0.6S43,27.1,42.7,26.6z M45.1,24.9
		v-3.5c0-0.5-0.1-0.8-0.2-1.1c-0.1-0.3-0.4-0.4-0.7-0.4s-0.6,0.1-0.7,0.4c-0.1,0.3-0.2,0.6-0.2,1.1v3.5c0,1,0.3,1.5,0.9,1.5
		C44.8,26.4,45.1,25.9,45.1,24.9z"/>
	<path fill="#7EBAE3" d="M47.8,26.6c-0.3-0.4-0.5-1-0.5-1.7v-3.5c0-0.7,0.2-1.3,0.5-1.7c0.3-0.4,0.8-0.6,1.5-0.6
		c0.7,0,1.2,0.2,1.5,0.6c0.3,0.4,0.5,1,0.5,1.7v3.5c0,0.7-0.2,1.3-0.5,1.7c-0.3,0.4-0.8,0.6-1.5,0.6S48.2,27.1,47.8,26.6z
		 M50.2,24.9v-3.5c0-0.5-0.1-0.8-0.2-1.1c-0.1-0.3-0.4-0.4-0.7-0.4s-0.6,0.1-0.7,0.4c-0.1,0.3-0.2,0.6-0.2,1.1v3.5
		c0,1,0.3,1.5,0.9,1.5C49.9,26.4,50.2,25.9,50.2,24.9z"/>
</g>
<g>
	<path fill="#7EBAE3" d="M73,20.5c0,0-0.2,0.1-0.6,0.1c-0.4,0.1-0.7,0.1-0.8,0.1V20c0.8-0.2,1.4-0.5,1.7-0.9h0.8v8.1H73V20.5z"/>
	<path fill="#7EBAE3" d="M76.2,26.7c-0.3-0.4-0.5-1-0.5-1.8h1.1c0,0.5,0.1,0.8,0.2,1.1c0.1,0.3,0.4,0.4,0.7,0.4
		c0.3,0,0.5-0.1,0.6-0.2c0.1-0.2,0.2-0.4,0.3-0.6c0-0.3,0.1-0.6,0.1-1.1c0-0.4,0-0.7-0.1-1c0-0.2-0.1-0.4-0.3-0.6
		c-0.1-0.1-0.3-0.2-0.6-0.2c-0.2,0-0.4,0.1-0.5,0.2c-0.2,0.1-0.3,0.3-0.4,0.5h-0.9v-4.3h3.5v1.1h-2.5l-0.1,2.2
		c0.3-0.3,0.7-0.5,1.2-0.5c0.6,0,1.1,0.2,1.3,0.6s0.4,1,0.4,1.8c0,0.9-0.2,1.6-0.5,2.1s-0.8,0.8-1.6,0.8
		C77,27.3,76.5,27.1,76.2,26.7z"/>
</g>
<g>
	<path fill="#7EBAE3" d="M100.6,26.7c-0.3-0.4-0.5-0.9-0.5-1.5v-0.3h1.1v0.2c0,0.4,0.1,0.7,0.2,1c0.1,0.2,0.4,0.3,0.7,0.3
		c0.4,0,0.6-0.1,0.7-0.4s0.2-0.6,0.2-1.1c0-0.5-0.1-0.8-0.3-1.1c-0.2-0.3-0.4-0.4-0.8-0.4c0,0-0.1,0-0.2,0v-1.1h0.1
		c0.4,0,0.7-0.1,0.8-0.3c0.2-0.2,0.3-0.5,0.3-0.9c0-0.4-0.1-0.7-0.2-0.9c-0.1-0.2-0.4-0.3-0.7-0.3s-0.6,0.1-0.7,0.3
		c-0.1,0.2-0.2,0.5-0.2,1v0.2h-1.1v-0.3c0-0.7,0.2-1.2,0.5-1.5c0.3-0.4,0.8-0.5,1.5-0.5s1.1,0.2,1.5,0.5s0.5,0.9,0.5,1.5
		c0,0.5-0.1,0.9-0.3,1.2c-0.2,0.3-0.5,0.5-0.9,0.6c0.4,0.1,0.7,0.3,0.9,0.7c0.2,0.3,0.3,0.8,0.3,1.3c0,0.8-0.2,1.3-0.5,1.8
		c-0.3,0.4-0.8,0.6-1.5,0.6C101.4,27.3,100.9,27.1,100.6,26.7z"/>
	<path fill="#7EBAE3" d="M105.5,26.6c-0.3-0.4-0.5-1-0.5-1.7v-3.5c0-0.7,0.2-1.3,0.5-1.7c0.3-0.4,0.8-0.6,1.5-0.6
		c0.7,0,1.2,0.2,1.5,0.6c0.3,0.4,0.5,1,0.5,1.7v3.5c0,0.7-0.2,1.3-0.5,1.7c-0.3,0.4-0.8,0.6-1.5,0.6S105.8,27.1,105.5,26.6z
		 M107.9,24.9v-3.5c0-0.5-0.1-0.8-0.2-1.1c-0.1-0.3-0.4-0.4-0.7-0.4s-0.6,0.1-0.7,0.4c-0.1,0.3-0.2,0.6-0.2,1.1v3.5
		c0,1,0.3,1.5,0.9,1.5C107.6,26.4,107.9,25.9,107.9,24.9z"/>
</g>
<g>
	<path fill="#7EBAE3" d="M39.2,30.9H40v2.5h1.5v-2.5h0.8v5.7h-0.8v-2.7H40v2.7h-0.8V30.9z"/>
	<path fill="#7EBAE3" d="M43.2,36.3C43.1,36,43,35.6,43,35.1V34c0-0.5,0.1-0.9,0.3-1.1c0.2-0.3,0.5-0.4,0.9-0.4
		c0.4,0,0.7,0.1,0.9,0.4c0.2,0.3,0.3,0.6,0.3,1.1v1.2c0,0.5-0.1,0.9-0.3,1.1s-0.5,0.4-0.9,0.4C43.7,36.6,43.4,36.5,43.2,36.3z
		 M44.5,36c0.1-0.1,0.1-0.2,0.1-0.3c0-0.1,0-0.3,0-0.5v-1.3c0-0.2,0-0.4,0-0.5c0-0.1-0.1-0.2-0.1-0.3c-0.1-0.1-0.2-0.1-0.3-0.1
		c-0.1,0-0.2,0-0.3,0.1c-0.1,0.1-0.1,0.2-0.1,0.3c0,0.1,0,0.3,0,0.5v1.3c0,0.2,0,0.4,0,0.5s0.1,0.2,0.1,0.3c0.1,0.1,0.2,0.1,0.3,0.1
		C44.3,36.1,44.4,36,44.5,36z"/>
	<path fill="#7EBAE3" d="M46.1,36.4C46,36.2,46,36,46,35.8v-3.3h0.7v3.1c0,0.2,0,0.3,0.1,0.3s0.1,0.1,0.3,0.1c0.1,0,0.3-0.1,0.5-0.3
		v-3.3h0.7v4h-0.7v-0.4c-0.3,0.3-0.7,0.5-1,0.5C46.4,36.6,46.2,36.6,46.1,36.4z"/>
	<path fill="#7EBAE3" d="M49.1,32.5h0.7v0.6c0.1-0.2,0.3-0.4,0.4-0.5c0.1-0.1,0.3-0.1,0.5-0.1c0,0,0.1,0,0.1,0v0.8
		c-0.1-0.1-0.3-0.1-0.4-0.1c-0.1,0-0.2,0-0.3,0.1s-0.2,0.2-0.3,0.3v3h-0.7V32.5z"/>
	<path fill="#7EBAE3" d="M51.5,36.3c-0.2-0.2-0.3-0.5-0.3-0.8l0.6-0.2c0,0.3,0.1,0.5,0.2,0.6c0.1,0.1,0.2,0.2,0.4,0.2
		c0.1,0,0.2,0,0.3-0.1c0.1-0.1,0.1-0.2,0.1-0.3c0-0.1,0-0.2-0.1-0.3c-0.1-0.1-0.1-0.2-0.3-0.3l-0.7-0.6c-0.2-0.1-0.3-0.3-0.4-0.4
		c-0.1-0.2-0.1-0.3-0.1-0.6c0-0.3,0.1-0.6,0.3-0.7c0.2-0.2,0.4-0.3,0.8-0.3c0.3,0,0.5,0.1,0.7,0.3c0.2,0.2,0.3,0.5,0.3,0.8l-0.5,0.2
		c0-0.2-0.1-0.4-0.2-0.5c-0.1-0.1-0.2-0.2-0.3-0.2c-0.1,0-0.2,0-0.3,0.1c-0.1,0.1-0.1,0.2-0.1,0.3c0,0.1,0.1,0.3,0.2,0.4l0.7,0.7
		c0.2,0.2,0.3,0.3,0.4,0.5c0.1,0.2,0.2,0.4,0.2,0.6c0,0.3-0.1,0.6-0.3,0.8c-0.2,0.2-0.5,0.3-0.8,0.3C52,36.6,51.7,36.5,51.5,36.3z"
		/>
</g>
<g>
	<path fill="#7EBAE3" d="M65.8,30.9h0.8l1,4.6l1-4.6h0.8l0.1,5.7h-0.6l-0.1-4.1l-1,4.1h-0.4l-1-4.1l-0.1,4.1h-0.6L65.8,30.9z"/>
	<path fill="#7EBAE3" d="M70.3,31.1h0.7v0.8h-0.7V31.1z M70.3,32.5h0.7v4h-0.7V32.5z"/>
	<path fill="#7EBAE3" d="M71.9,32.5h0.7v0.4c0.3-0.3,0.7-0.5,1-0.5c0.2,0,0.4,0.1,0.5,0.2c0.1,0.2,0.1,0.4,0.1,0.6v3.3h-0.7v-3.1
		c0-0.2,0-0.3-0.1-0.3c0-0.1-0.1-0.1-0.3-0.1c-0.1,0-0.3,0.1-0.5,0.3v3.3h-0.7V32.5z"/>
	<path fill="#7EBAE3" d="M75,36.4c-0.1-0.2-0.1-0.4-0.1-0.6v-3.3h0.7v3.1c0,0.2,0,0.3,0.1,0.3S75.9,36,76,36c0.1,0,0.3-0.1,0.5-0.3
		v-3.3h0.7v4h-0.7v-0.4c-0.3,0.3-0.7,0.5-1,0.5C75.3,36.6,75.1,36.6,75,36.4z"/>
	<path fill="#7EBAE3" d="M78.2,35.7V33h-0.4v-0.5h0.4v-1.2H79v1.2h0.7V33H79v2.6c0,0.2,0,0.3,0.1,0.3c0.1,0.1,0.1,0.1,0.3,0.1
		c0.1,0,0.2,0,0.3,0v0.6c-0.2,0-0.4,0-0.5,0C78.5,36.6,78.2,36.3,78.2,35.7z"/>
	<path fill="#7EBAE3" d="M80.6,36.5c-0.2-0.1-0.3-0.3-0.4-0.5c-0.1-0.2-0.1-0.5-0.1-0.9v-0.9c0-0.6,0.1-1,0.3-1.2
		c0.2-0.3,0.5-0.4,0.9-0.4c0.3,0,0.6,0.1,0.7,0.2c0.2,0.1,0.3,0.3,0.3,0.6c0.1,0.2,0.1,0.6,0.1,1v0.3h-1.6v0.8c0,0.2,0,0.4,0.1,0.5
		s0.2,0.2,0.3,0.2c0.2,0,0.3-0.1,0.3-0.2s0.1-0.3,0.1-0.5v-0.2h0.7v0.2c0,0.4-0.1,0.7-0.3,1c-0.2,0.2-0.5,0.3-0.9,0.3
		C81,36.6,80.7,36.6,80.6,36.5z M81.7,34.2v-0.4c0-0.3,0-0.5-0.1-0.6S81.5,33,81.3,33c-0.1,0-0.2,0-0.3,0.1
		c-0.1,0.1-0.1,0.1-0.1,0.3s0,0.3,0,0.6v0.2H81.7z"/>
	<path fill="#7EBAE3" d="M83.3,36.3c-0.2-0.2-0.3-0.5-0.3-0.8l0.6-0.2c0,0.3,0.1,0.5,0.2,0.6c0.1,0.1,0.2,0.2,0.4,0.2
		c0.1,0,0.2,0,0.3-0.1c0.1-0.1,0.1-0.2,0.1-0.3c0-0.1,0-0.2-0.1-0.3c-0.1-0.1-0.1-0.2-0.3-0.3l-0.7-0.6c-0.2-0.1-0.3-0.3-0.4-0.4
		c-0.1-0.2-0.1-0.3-0.1-0.6c0-0.3,0.1-0.6,0.3-0.7c0.2-0.2,0.4-0.3,0.8-0.3c0.3,0,0.5,0.1,0.7,0.3c0.2,0.2,0.3,0.5,0.3,0.8l-0.5,0.2
		c0-0.2-0.1-0.4-0.2-0.5c-0.1-0.1-0.2-0.2-0.3-0.2c-0.1,0-0.2,0-0.3,0.1c-0.1,0.1-0.1,0.2-0.1,0.3c0,0.1,0.1,0.3,0.2,0.4l0.7,0.7
		c0.2,0.2,0.3,0.3,0.4,0.5c0.1,0.2,0.2,0.4,0.2,0.6c0,0.3-0.1,0.6-0.3,0.8c-0.2,0.2-0.5,0.3-0.8,0.3C83.7,36.6,83.5,36.5,83.3,36.3z
		"/>
</g>
<g>
	<path fill="#7EBAE3" d="M95.6,36.2c-0.3-0.3-0.4-0.7-0.4-1.2l0.7-0.2c0,0.4,0.1,0.7,0.2,0.9c0.1,0.2,0.3,0.3,0.6,0.3
		c0.2,0,0.4-0.1,0.5-0.2c0.1-0.1,0.2-0.3,0.2-0.5c0-0.2,0-0.4-0.1-0.6s-0.3-0.3-0.5-0.5l-1-0.8c-0.2-0.2-0.3-0.3-0.4-0.5
		c-0.1-0.2-0.1-0.4-0.1-0.7c0-0.4,0.1-0.7,0.4-1c0.2-0.2,0.6-0.3,1-0.3c0.4,0,0.8,0.1,1,0.4s0.4,0.6,0.4,1.1l-0.7,0.2
		c0-0.3-0.1-0.6-0.2-0.8c-0.1-0.2-0.3-0.3-0.6-0.3c-0.2,0-0.4,0.1-0.5,0.2c-0.1,0.1-0.2,0.3-0.2,0.5c0,0.2,0,0.3,0.1,0.4
		s0.2,0.2,0.3,0.3l1,0.8c0.2,0.2,0.4,0.5,0.6,0.7C98,34.7,98,35,98,35.3c0,0.4-0.1,0.7-0.4,1s-0.6,0.4-1,0.4
		C96.2,36.6,95.9,36.5,95.6,36.2z"/>
	<path fill="#7EBAE3" d="M99,36.5c-0.2-0.1-0.3-0.3-0.4-0.5c-0.1-0.2-0.1-0.5-0.1-0.9v-0.9c0-0.6,0.1-1,0.3-1.2
		c0.2-0.3,0.5-0.4,0.9-0.4c0.3,0,0.6,0.1,0.7,0.2c0.2,0.1,0.3,0.3,0.3,0.6c0.1,0.2,0.1,0.6,0.1,1v0.3h-1.6v0.8c0,0.2,0,0.4,0.1,0.5
		s0.2,0.2,0.3,0.2c0.2,0,0.3-0.1,0.3-0.2s0.1-0.3,0.1-0.5v-0.2h0.7v0.2c0,0.4-0.1,0.7-0.3,1c-0.2,0.2-0.5,0.3-0.9,0.3
		C99.4,36.6,99.2,36.6,99,36.5z M100.1,34.2v-0.4c0-0.3,0-0.5-0.1-0.6S99.9,33,99.7,33c-0.1,0-0.2,0-0.3,0.1
		c-0.1,0.1-0.1,0.1-0.1,0.3s0,0.3,0,0.6v0.2H100.1z"/>
	<path fill="#7EBAE3" d="M101.9,36.4c-0.2-0.1-0.3-0.3-0.4-0.5c-0.1-0.2-0.1-0.5-0.1-0.9v-0.9c0-0.4,0-0.7,0.1-0.9s0.2-0.4,0.4-0.5
		c0.2-0.1,0.4-0.2,0.7-0.2c0.3,0,0.5,0,0.7,0.1s0.3,0.2,0.3,0.4c0.1,0.2,0.1,0.4,0.1,0.7V34h-0.7v-0.2c0-0.3,0-0.5-0.1-0.6
		s-0.2-0.2-0.3-0.2c-0.1,0-0.2,0-0.3,0.1s-0.1,0.1-0.1,0.3c0,0.1,0,0.3,0,0.6v1.3c0,0.2,0,0.4,0,0.5c0,0.1,0.1,0.2,0.1,0.3
		c0.1,0,0.2,0.1,0.3,0.1c0.2,0,0.3-0.1,0.3-0.2c0.1-0.1,0.1-0.3,0.1-0.5v-0.3h0.7v0.3c0,0.4-0.1,0.8-0.2,1c-0.2,0.2-0.4,0.3-0.9,0.3
		C102.3,36.6,102.1,36.6,101.9,36.4z"/>
	<path fill="#7EBAE3" d="M104.6,36.3c-0.2-0.3-0.3-0.6-0.3-1.1V34c0-0.5,0.1-0.9,0.3-1.1c0.2-0.3,0.5-0.4,0.9-0.4
		c0.4,0,0.7,0.1,0.9,0.4c0.2,0.3,0.3,0.6,0.3,1.1v1.2c0,0.5-0.1,0.9-0.3,1.1s-0.5,0.4-0.9,0.4C105.1,36.6,104.8,36.5,104.6,36.3z
		 M105.8,36c0.1-0.1,0.1-0.2,0.1-0.3c0-0.1,0-0.3,0-0.5v-1.3c0-0.2,0-0.4,0-0.5c0-0.1-0.1-0.2-0.1-0.3c-0.1-0.1-0.2-0.1-0.3-0.1
		c-0.1,0-0.2,0-0.3,0.1c-0.1,0.1-0.1,0.2-0.1,0.3c0,0.1,0,0.3,0,0.5v1.3c0,0.2,0,0.4,0,0.5s0.1,0.2,0.1,0.3c0.1,0.1,0.2,0.1,0.3,0.1
		C105.7,36.1,105.8,36,105.8,36z"/>
	<path fill="#7EBAE3" d="M107.4,32.5h0.7v0.4c0.3-0.3,0.7-0.5,1-0.5c0.2,0,0.4,0.1,0.5,0.2c0.1,0.2,0.1,0.4,0.1,0.6v3.3H109v-3.1
		c0-0.2,0-0.3-0.1-0.3c0-0.1-0.1-0.1-0.3-0.1c-0.1,0-0.3,0.1-0.5,0.3v3.3h-0.7V32.5z"/>
	<path fill="#7EBAE3" d="M110.6,36.3c-0.2-0.3-0.2-0.7-0.2-1.3v-0.8c0-0.5,0.1-1,0.2-1.3c0.1-0.3,0.4-0.5,0.8-0.5
		c0.2,0,0.5,0.1,0.7,0.3v-1.9h0.7v5.7h-0.7v-0.3c-0.2,0.2-0.4,0.3-0.7,0.3C111.1,36.6,110.8,36.5,110.6,36.3z M112.1,35.9v-2.7
		c-0.2-0.1-0.3-0.2-0.5-0.2c-0.3,0-0.4,0.3-0.4,0.8v1.1c0,0.3,0,0.6,0.1,0.7s0.2,0.3,0.4,0.3C111.7,36,111.9,36,112.1,35.9z"/>
	<path fill="#7EBAE3" d="M113.7,36.3c-0.2-0.2-0.3-0.5-0.3-0.8l0.6-0.2c0,0.3,0.1,0.5,0.2,0.6c0.1,0.1,0.2,0.2,0.4,0.2
		c0.1,0,0.2,0,0.3-0.1c0.1-0.1,0.1-0.2,0.1-0.3c0-0.1,0-0.2-0.1-0.3c-0.1-0.1-0.1-0.2-0.3-0.3l-0.7-0.6c-0.2-0.1-0.3-0.3-0.4-0.4
		c-0.1-0.2-0.1-0.3-0.1-0.6c0-0.3,0.1-0.6,0.3-0.7c0.2-0.2,0.4-0.3,0.8-0.3c0.3,0,0.5,0.1,0.7,0.3c0.2,0.2,0.3,0.5,0.3,0.8l-0.5,0.2
		c0-0.2-0.1-0.4-0.2-0.5c-0.1-0.1-0.2-0.2-0.3-0.2c-0.1,0-0.2,0-0.3,0.1c-0.1,0.1-0.1,0.2-0.1,0.3c0,0.1,0.1,0.3,0.2,0.4l0.7,0.7
		c0.2,0.2,0.3,0.3,0.4,0.5c0.1,0.2,0.2,0.4,0.2,0.6c0,0.3-0.1,0.6-0.3,0.8c-0.2,0.2-0.5,0.3-0.8,0.3
		C114.2,36.6,113.9,36.5,113.7,36.3z"/>
</g>
<g>
</g>
</svg>
