<?xml version="1.0" encoding="utf-8"?>
<!-- Generator: Adobe Illustrator 15.0.0, SVG Export Plug-In . SVG Version: 6.00 Build 0)  -->
<!DOCTYPE svg PUBLIC "-//W3C//DTD SVG 1.1//EN" "http://www.w3.org/Graphics/SVG/1.1/DTD/svg11.dtd" [
	<!ENTITY ns_flows "http://ns.adobe.com/Flows/1.0/">
	<!ENTITY ns_extend "http://ns.adobe.com/Extensibility/1.0/">
	<!ENTITY ns_ai "http://ns.adobe.com/AdobeIllustrator/10.0/">
	<!ENTITY ns_graphs "http://ns.adobe.com/Graphs/1.0/">
]>
<svg version="1.1" id="Layer_1" xmlns:x="&ns_extend;" xmlns:i="&ns_ai;" xmlns:graph="&ns_graphs;"
	 xmlns="http://www.w3.org/2000/svg" xmlns:xlink="http://www.w3.org/1999/xlink" xmlns:a="http://ns.adobe.com/AdobeSVGViewerExtensions/3.0/"
	 x="0px" y="0px" width="256px" height="57px" viewBox="0 0 256 57" enable-background="new 0 0 256 57" xml:space="preserve">
<rect x="0.5" y="0.5" fill="#FFFFFF" stroke="#B3E4FF" stroke-miterlimit="10" width="255" height="56"/>
<line fill="none" stroke="#7EBAE3" stroke-miterlimit="10" x1="5" y1="19.5" x2="118" y2="19.5"/>
<line fill="none" stroke="#7EBAE3" stroke-miterlimit="10" x1="17" y1="32.5" x2="108" y2="32.5"/>
<g>
</g>
<g>
	<path fill="#7EBAE3" d="M142.8,31.5h1.2c0.6,0,1,0.1,1.3,0.4c0.3,0.3,0.4,0.7,0.4,1.3v2.1c0,0.6-0.1,1.1-0.4,1.4
		c-0.3,0.3-0.7,0.5-1.2,0.5h-1.3V31.5z M144,36.6c0.3,0,0.5-0.1,0.6-0.2c0.1-0.1,0.2-0.3,0.2-0.4c0-0.2,0-0.5,0-0.8v-1.8
		c0-0.3,0-0.6-0.1-0.7c0-0.2-0.1-0.3-0.2-0.4c-0.1-0.1-0.3-0.1-0.6-0.1h-0.4v4.5H144z"/>
	<path fill="#7EBAE3" d="M146.7,37.1c-0.1-0.1-0.2-0.2-0.3-0.3c-0.1-0.1-0.1-0.3-0.1-0.5c0-0.3,0.1-0.6,0.2-0.8
		c0.1-0.2,0.3-0.4,0.5-0.5s0.5-0.3,0.9-0.4v-0.3c0-0.3,0-0.5-0.1-0.6c-0.1-0.1-0.2-0.2-0.3-0.2c-0.3,0-0.4,0.2-0.4,0.6v0.2l-0.7,0
		c0-0.4,0.1-0.8,0.3-1c0.2-0.2,0.5-0.3,0.9-0.3c0.4,0,0.7,0.1,0.8,0.3c0.2,0.2,0.3,0.5,0.3,1v1.8c0,0.3,0,0.6,0.1,1h-0.7
		c-0.1-0.3-0.1-0.5-0.1-0.6c-0.1,0.2-0.2,0.3-0.3,0.5s-0.3,0.2-0.5,0.2C147,37.3,146.8,37.2,146.7,37.1z M147.7,36.5
		c0.1-0.1,0.2-0.2,0.2-0.2v-1.1c-0.2,0.1-0.4,0.2-0.5,0.3c-0.1,0.1-0.2,0.2-0.3,0.3s-0.1,0.2-0.1,0.4c0,0.2,0,0.3,0.1,0.4
		s0.1,0.1,0.3,0.1C147.5,36.6,147.6,36.6,147.7,36.5z"/>
	<path fill="#7EBAE3" d="M149.3,37.6c0.3,0,0.5,0,0.6-0.1c0.1,0,0.2-0.1,0.2-0.2c0-0.1-0.1-0.3-0.2-0.7l-0.8-3.4h0.8l0.5,3l0.5-3
		h0.8l-1,4.3c-0.1,0.3-0.2,0.5-0.4,0.6s-0.5,0.2-0.9,0.2h-0.1V37.6z"/>
	<path fill="#7EBAE3" d="M152.3,36.9c-0.2-0.2-0.3-0.5-0.3-0.8l0.6-0.2c0,0.3,0.1,0.5,0.2,0.6c0.1,0.1,0.2,0.2,0.4,0.2
		c0.1,0,0.2,0,0.3-0.1c0.1-0.1,0.1-0.2,0.1-0.3c0-0.1,0-0.2-0.1-0.3c-0.1-0.1-0.1-0.2-0.3-0.3l-0.7-0.6c-0.2-0.1-0.3-0.3-0.4-0.4
		c-0.1-0.2-0.1-0.3-0.1-0.6c0-0.3,0.1-0.6,0.3-0.7c0.2-0.2,0.4-0.3,0.8-0.3c0.3,0,0.5,0.1,0.7,0.3c0.2,0.2,0.3,0.5,0.3,0.8l-0.5,0.2
		c0-0.2-0.1-0.4-0.2-0.5c-0.1-0.1-0.2-0.2-0.3-0.2c-0.1,0-0.2,0-0.3,0.1c-0.1,0.1-0.1,0.2-0.1,0.3c0,0.1,0.1,0.3,0.2,0.4l0.7,0.7
		c0.2,0.2,0.3,0.3,0.4,0.5c0.1,0.2,0.2,0.4,0.2,0.6c0,0.3-0.1,0.6-0.3,0.8c-0.2,0.2-0.5,0.3-0.8,0.3
		C152.7,37.3,152.5,37.1,152.3,36.9z"/>
</g>
<g>
	<path fill="#7EBAE3" d="M144.4,27.2c-0.3-0.4-0.5-1-0.5-1.7V22c0-0.7,0.2-1.3,0.5-1.7c0.3-0.4,0.8-0.6,1.5-0.6
		c0.7,0,1.2,0.2,1.5,0.6c0.3,0.4,0.5,1,0.5,1.7v3.5c0,0.7-0.2,1.3-0.5,1.7c-0.3,0.4-0.8,0.6-1.5,0.6S144.8,27.7,144.4,27.2z
		 M146.9,25.5V22c0-0.5-0.1-0.8-0.2-1.1c-0.1-0.3-0.4-0.4-0.7-0.4s-0.6,0.1-0.7,0.4c-0.1,0.3-0.2,0.6-0.2,1.1v3.5
		c0,1,0.3,1.5,0.9,1.5C146.5,27,146.9,26.5,146.9,25.5z"/>
	<path fill="#7EBAE3" d="M149.6,27.2c-0.3-0.4-0.5-1-0.5-1.7V22c0-0.7,0.2-1.3,0.5-1.7c0.3-0.4,0.8-0.6,1.5-0.6
		c0.7,0,1.2,0.2,1.5,0.6c0.3,0.4,0.5,1,0.5,1.7v3.5c0,0.7-0.2,1.3-0.5,1.7c-0.3,0.4-0.8,0.6-1.5,0.6S149.9,27.7,149.6,27.2z
		 M152,25.5V22c0-0.5-0.1-0.8-0.2-1.1c-0.1-0.3-0.4-0.4-0.7-0.4s-0.6,0.1-0.7,0.4c-0.1,0.3-0.2,0.6-0.2,1.1v3.5c0,1,0.3,1.5,0.9,1.5
		C151.7,27,152,26.5,152,25.5z"/>
</g>
<g>
	<path fill="#7EBAE3" d="M171.8,27.2c-0.3-0.4-0.5-1-0.5-1.7V22c0-0.7,0.2-1.3,0.5-1.7c0.3-0.4,0.8-0.6,1.5-0.6
		c0.7,0,1.2,0.2,1.5,0.6c0.3,0.4,0.5,1,0.5,1.7v3.5c0,0.7-0.2,1.3-0.5,1.7c-0.3,0.4-0.8,0.6-1.5,0.6S172.1,27.7,171.8,27.2z
		 M174.2,25.5V22c0-0.5-0.1-0.8-0.2-1.1c-0.1-0.3-0.4-0.4-0.7-0.4s-0.6,0.1-0.7,0.4c-0.1,0.3-0.2,0.6-0.2,1.1v3.5
		c0,1,0.3,1.5,0.9,1.5C173.9,27,174.2,26.5,174.2,25.5z"/>
	<path fill="#7EBAE3" d="M177,27.2c-0.3-0.4-0.5-1-0.5-1.7V22c0-0.7,0.2-1.3,0.5-1.7c0.3-0.4,0.8-0.6,1.5-0.6c0.7,0,1.2,0.2,1.5,0.6
		c0.3,0.4,0.5,1,0.5,1.7v3.5c0,0.7-0.2,1.3-0.5,1.7c-0.3,0.4-0.8,0.6-1.5,0.6S177.3,27.7,177,27.2z M179.4,25.5V22
		c0-0.5-0.1-0.8-0.2-1.1c-0.1-0.3-0.4-0.4-0.7-0.4s-0.6,0.1-0.7,0.4c-0.1,0.3-0.2,0.6-0.2,1.1v3.5c0,1,0.3,1.5,0.9,1.5
		C179.1,27,179.4,26.5,179.4,25.5z"/>
</g>
<g>
	<path fill="#7EBAE3" d="M202.2,21.1c0,0-0.2,0.1-0.6,0.1c-0.4,0.1-0.7,0.1-0.8,0.1v-0.8c0.8-0.2,1.4-0.5,1.7-0.9h0.8v8.1h-1.1V21.1
		z"/>
	<path fill="#7EBAE3" d="M205.4,27.3c-0.3-0.4-0.5-1-0.5-1.8h1.1c0,0.5,0.1,0.8,0.2,1.1c0.1,0.3,0.4,0.4,0.7,0.4
		c0.3,0,0.5-0.1,0.6-0.2c0.1-0.2,0.2-0.4,0.3-0.6c0-0.3,0.1-0.6,0.1-1.1c0-0.4,0-0.7-0.1-1c0-0.2-0.1-0.4-0.3-0.6
		c-0.1-0.1-0.3-0.2-0.6-0.2c-0.2,0-0.4,0.1-0.5,0.2c-0.2,0.1-0.3,0.3-0.4,0.5h-0.9v-4.3h3.5v1.1H206L206,23c0.3-0.3,0.7-0.5,1.2-0.5
		c0.6,0,1.1,0.2,1.3,0.6s0.4,1,0.4,1.8c0,0.9-0.2,1.6-0.5,2.1s-0.8,0.8-1.6,0.8C206.2,27.9,205.7,27.7,205.4,27.3z"/>
</g>
<g>
	<path fill="#7EBAE3" d="M229.7,27.4c-0.3-0.4-0.5-0.9-0.5-1.5v-0.3h1.1v0.2c0,0.4,0.1,0.7,0.2,1c0.1,0.2,0.4,0.3,0.7,0.3
		c0.4,0,0.6-0.1,0.7-0.4s0.2-0.6,0.2-1.1c0-0.5-0.1-0.8-0.3-1.1c-0.2-0.3-0.4-0.4-0.8-0.4c0,0-0.1,0-0.2,0v-1.1h0.1
		c0.4,0,0.7-0.1,0.8-0.3c0.2-0.2,0.3-0.5,0.3-0.9c0-0.4-0.1-0.7-0.2-0.9c-0.1-0.2-0.4-0.3-0.7-0.3s-0.6,0.1-0.7,0.3
		c-0.1,0.2-0.2,0.5-0.2,1V22h-1.1v-0.3c0-0.7,0.2-1.2,0.5-1.5c0.3-0.4,0.8-0.5,1.5-0.5s1.1,0.2,1.5,0.5s0.5,0.9,0.5,1.5
		c0,0.5-0.1,0.9-0.3,1.2c-0.2,0.3-0.5,0.5-0.9,0.6c0.4,0.1,0.7,0.3,0.9,0.7c0.2,0.3,0.3,0.8,0.3,1.3c0,0.8-0.2,1.3-0.5,1.8
		c-0.3,0.4-0.8,0.6-1.5,0.6C230.5,27.9,230,27.7,229.7,27.4z"/>
	<path fill="#7EBAE3" d="M234.6,27.2c-0.3-0.4-0.5-1-0.5-1.7V22c0-0.7,0.2-1.3,0.5-1.7c0.3-0.4,0.8-0.6,1.5-0.6
		c0.7,0,1.2,0.2,1.5,0.6c0.3,0.4,0.5,1,0.5,1.7v3.5c0,0.7-0.2,1.3-0.5,1.7c-0.3,0.4-0.8,0.6-1.5,0.6S235,27.7,234.6,27.2z
		 M237.1,25.5V22c0-0.5-0.1-0.8-0.2-1.1c-0.1-0.3-0.4-0.4-0.7-0.4s-0.6,0.1-0.7,0.4c-0.1,0.3-0.2,0.6-0.2,1.1v3.5
		c0,1,0.3,1.5,0.9,1.5C236.8,27,237.1,26.5,237.1,25.5z"/>
</g>
<g>
	<path fill="#7EBAE3" d="M168.3,31.5h0.8V34h1.5v-2.5h0.8v5.7h-0.8v-2.7h-1.5v2.7h-0.8V31.5z"/>
	<path fill="#7EBAE3" d="M172.4,36.9c-0.2-0.3-0.3-0.6-0.3-1.1v-1.2c0-0.5,0.1-0.9,0.3-1.1c0.2-0.3,0.5-0.4,0.9-0.4
		c0.4,0,0.7,0.1,0.9,0.4c0.2,0.3,0.3,0.6,0.3,1.1v1.2c0,0.5-0.1,0.9-0.3,1.1s-0.5,0.4-0.9,0.4C172.9,37.3,172.6,37.1,172.4,36.9z
		 M173.6,36.6c0.1-0.1,0.1-0.2,0.1-0.3c0-0.1,0-0.3,0-0.5v-1.3c0-0.2,0-0.4,0-0.5c0-0.1-0.1-0.2-0.1-0.3c-0.1-0.1-0.2-0.1-0.3-0.1
		c-0.1,0-0.2,0-0.3,0.1c-0.1,0.1-0.1,0.2-0.1,0.3c0,0.1,0,0.3,0,0.5v1.3c0,0.2,0,0.4,0,0.5s0.1,0.2,0.1,0.3c0.1,0.1,0.2,0.1,0.3,0.1
		C173.4,36.7,173.5,36.7,173.6,36.6z"/>
	<path fill="#7EBAE3" d="M175.3,37c-0.1-0.2-0.1-0.4-0.1-0.6v-3.3h0.7v3.1c0,0.2,0,0.3,0.1,0.3s0.1,0.1,0.3,0.1
		c0.1,0,0.3-0.1,0.5-0.3v-3.3h0.7v4h-0.7v-0.4c-0.3,0.3-0.7,0.5-1,0.5C175.5,37.3,175.4,37.2,175.3,37z"/>
	<path fill="#7EBAE3" d="M178.3,33.1h0.7v0.6c0.1-0.2,0.3-0.4,0.4-0.5c0.1-0.1,0.3-0.1,0.5-0.1c0,0,0.1,0,0.1,0v0.8
		c-0.1-0.1-0.3-0.1-0.4-0.1c-0.1,0-0.2,0-0.3,0.1s-0.2,0.2-0.3,0.3v3h-0.7V33.1z"/>
	<path fill="#7EBAE3" d="M180.6,36.9c-0.2-0.2-0.3-0.5-0.3-0.8l0.6-0.2c0,0.3,0.1,0.5,0.2,0.6c0.1,0.1,0.2,0.2,0.4,0.2
		c0.1,0,0.2,0,0.3-0.1c0.1-0.1,0.1-0.2,0.1-0.3c0-0.1,0-0.2-0.1-0.3c-0.1-0.1-0.1-0.2-0.3-0.3l-0.7-0.6c-0.2-0.1-0.3-0.3-0.4-0.4
		c-0.1-0.2-0.1-0.3-0.1-0.6c0-0.3,0.1-0.6,0.3-0.7c0.2-0.2,0.4-0.3,0.8-0.3c0.3,0,0.5,0.1,0.7,0.3c0.2,0.2,0.3,0.5,0.3,0.8l-0.5,0.2
		c0-0.2-0.1-0.4-0.2-0.5c-0.1-0.1-0.2-0.2-0.3-0.2c-0.1,0-0.2,0-0.3,0.1c-0.1,0.1-0.1,0.2-0.1,0.3c0,0.1,0.1,0.3,0.2,0.4l0.7,0.7
		c0.2,0.2,0.3,0.3,0.4,0.5c0.1,0.2,0.2,0.4,0.2,0.6c0,0.3-0.1,0.6-0.3,0.8c-0.2,0.2-0.5,0.3-0.8,0.3
		C181.1,37.3,180.8,37.1,180.6,36.9z"/>
</g>
<g>
	<path fill="#7EBAE3" d="M194.9,31.5h0.8l1,4.6l1-4.6h0.8l0.1,5.7h-0.6l-0.1-4.1l-1,4.1h-0.4l-1-4.1l-0.1,4.1h-0.6L194.9,31.5z"/>
	<path fill="#7EBAE3" d="M199.4,31.8h0.7v0.8h-0.7V31.8z M199.4,33.1h0.7v4h-0.7V33.1z"/>
	<path fill="#7EBAE3" d="M201,33.1h0.7v0.4c0.3-0.3,0.7-0.5,1-0.5c0.2,0,0.4,0.1,0.5,0.2c0.1,0.2,0.1,0.4,0.1,0.6v3.3h-0.7v-3.1
		c0-0.2,0-0.3-0.1-0.3c0-0.1-0.1-0.1-0.3-0.1c-0.1,0-0.3,0.1-0.5,0.3v3.3H201V33.1z"/>
	<path fill="#7EBAE3" d="M204.2,37c-0.1-0.2-0.1-0.4-0.1-0.6v-3.3h0.7v3.1c0,0.2,0,0.3,0.1,0.3s0.1,0.1,0.3,0.1
		c0.1,0,0.3-0.1,0.5-0.3v-3.3h0.7v4h-0.7v-0.4c-0.3,0.3-0.7,0.5-1,0.5C204.4,37.3,204.3,37.2,204.2,37z"/>
	<path fill="#7EBAE3" d="M207.3,36.3v-2.6h-0.4v-0.5h0.4V32h0.7v1.2h0.7v0.5h-0.7v2.6c0,0.2,0,0.3,0.1,0.3c0.1,0.1,0.1,0.1,0.3,0.1
		c0.1,0,0.2,0,0.3,0v0.6c-0.2,0-0.4,0-0.5,0C207.6,37.3,207.3,36.9,207.3,36.3z"/>
	<path fill="#7EBAE3" d="M209.7,37.1c-0.2-0.1-0.3-0.3-0.4-0.5c-0.1-0.2-0.1-0.5-0.1-0.9v-0.9c0-0.6,0.1-1,0.3-1.2
		c0.2-0.3,0.5-0.4,0.9-0.4c0.3,0,0.6,0.1,0.7,0.2c0.2,0.1,0.3,0.3,0.3,0.6c0.1,0.2,0.1,0.6,0.1,1v0.3H210V36c0,0.2,0,0.4,0.1,0.5
		s0.2,0.2,0.3,0.2c0.2,0,0.3-0.1,0.3-0.2s0.1-0.3,0.1-0.5v-0.2h0.7v0.2c0,0.4-0.1,0.7-0.3,1c-0.2,0.2-0.5,0.3-0.9,0.3
		C210.1,37.3,209.9,37.2,209.7,37.1z M210.8,34.8v-0.4c0-0.3,0-0.5-0.1-0.6s-0.2-0.2-0.3-0.2c-0.1,0-0.2,0-0.3,0.1
		c-0.1,0.1-0.1,0.1-0.1,0.3s0,0.3,0,0.6v0.2H210.8z"/>
	<path fill="#7EBAE3" d="M212.4,36.9c-0.2-0.2-0.3-0.5-0.3-0.8l0.6-0.2c0,0.3,0.1,0.5,0.2,0.6c0.1,0.1,0.2,0.2,0.4,0.2
		c0.1,0,0.2,0,0.3-0.1c0.1-0.1,0.1-0.2,0.1-0.3c0-0.1,0-0.2-0.1-0.3c-0.1-0.1-0.1-0.2-0.3-0.3l-0.7-0.6c-0.2-0.1-0.3-0.3-0.4-0.4
		c-0.1-0.2-0.1-0.3-0.1-0.6c0-0.3,0.1-0.6,0.3-0.7c0.2-0.2,0.4-0.3,0.8-0.3c0.3,0,0.5,0.1,0.7,0.3c0.2,0.2,0.3,0.5,0.3,0.8l-0.5,0.2
		c0-0.2-0.1-0.4-0.2-0.5c-0.1-0.1-0.2-0.2-0.3-0.2c-0.1,0-0.2,0-0.3,0.1c-0.1,0.1-0.1,0.2-0.1,0.3c0,0.1,0.1,0.3,0.2,0.4l0.7,0.7
		c0.2,0.2,0.3,0.3,0.4,0.5c0.1,0.2,0.2,0.4,0.2,0.6c0,0.3-0.1,0.6-0.3,0.8c-0.2,0.2-0.5,0.3-0.8,0.3
		C212.9,37.3,212.6,37.1,212.4,36.9z"/>
</g>
<g>
	<path fill="#7EBAE3" d="M224.7,36.8c-0.3-0.3-0.4-0.7-0.4-1.2l0.7-0.2c0,0.4,0.1,0.7,0.2,0.9c0.1,0.2,0.3,0.3,0.6,0.3
		c0.2,0,0.4-0.1,0.5-0.2c0.1-0.1,0.2-0.3,0.2-0.5c0-0.2,0-0.4-0.1-0.6s-0.3-0.3-0.5-0.5l-1-0.8c-0.2-0.2-0.3-0.3-0.4-0.5
		c-0.1-0.2-0.1-0.4-0.1-0.7c0-0.4,0.1-0.7,0.4-1c0.2-0.2,0.6-0.3,1-0.3c0.4,0,0.8,0.1,1,0.4s0.4,0.6,0.4,1.1l-0.7,0.2
		c0-0.3-0.1-0.6-0.2-0.8c-0.1-0.2-0.3-0.3-0.6-0.3c-0.2,0-0.4,0.1-0.5,0.2c-0.1,0.1-0.2,0.3-0.2,0.5c0,0.2,0,0.3,0.1,0.4
		s0.2,0.2,0.3,0.3l1,0.8c0.2,0.2,0.4,0.5,0.6,0.7c0.1,0.3,0.2,0.5,0.2,0.9c0,0.4-0.1,0.7-0.4,1s-0.6,0.4-1,0.4
		C225.3,37.3,225,37.1,224.7,36.8z"/>
	<path fill="#7EBAE3" d="M228.1,37.1c-0.2-0.1-0.3-0.3-0.4-0.5c-0.1-0.2-0.1-0.5-0.1-0.9v-0.9c0-0.6,0.1-1,0.3-1.2
		c0.2-0.3,0.5-0.4,0.9-0.4c0.3,0,0.6,0.1,0.7,0.2c0.2,0.1,0.3,0.3,0.3,0.6c0.1,0.2,0.1,0.6,0.1,1v0.3h-1.6V36c0,0.2,0,0.4,0.1,0.5
		s0.2,0.2,0.3,0.2c0.2,0,0.3-0.1,0.3-0.2s0.1-0.3,0.1-0.5v-0.2h0.7v0.2c0,0.4-0.1,0.7-0.3,1c-0.2,0.2-0.5,0.3-0.9,0.3
		C228.5,37.3,228.3,37.2,228.1,37.1z M229.3,34.8v-0.4c0-0.3,0-0.5-0.1-0.6s-0.2-0.2-0.3-0.2c-0.1,0-0.2,0-0.3,0.1
		c-0.1,0.1-0.1,0.1-0.1,0.3s0,0.3,0,0.6v0.2H229.3z"/>
	<path fill="#7EBAE3" d="M231.1,37.1c-0.2-0.1-0.3-0.3-0.4-0.5c-0.1-0.2-0.1-0.5-0.1-0.9v-0.9c0-0.4,0-0.7,0.1-0.9s0.2-0.4,0.4-0.5
		c0.2-0.1,0.4-0.2,0.7-0.2c0.3,0,0.5,0,0.7,0.1s0.3,0.2,0.3,0.4c0.1,0.2,0.1,0.4,0.1,0.7v0.2h-0.7v-0.2c0-0.3,0-0.5-0.1-0.6
		s-0.2-0.2-0.3-0.2c-0.1,0-0.2,0-0.3,0.1s-0.1,0.1-0.1,0.3c0,0.1,0,0.3,0,0.6v1.3c0,0.2,0,0.4,0,0.5c0,0.1,0.1,0.2,0.1,0.3
		c0.1,0,0.2,0.1,0.3,0.1c0.2,0,0.3-0.1,0.3-0.2c0.1-0.1,0.1-0.3,0.1-0.5v-0.3h0.7v0.3c0,0.4-0.1,0.8-0.2,1c-0.2,0.2-0.4,0.3-0.9,0.3
		C231.5,37.3,231.2,37.2,231.1,37.1z"/>
	<path fill="#7EBAE3" d="M233.8,36.9c-0.2-0.3-0.3-0.6-0.3-1.1v-1.2c0-0.5,0.1-0.9,0.3-1.1c0.2-0.3,0.5-0.4,0.9-0.4
		c0.4,0,0.7,0.1,0.9,0.4c0.2,0.3,0.3,0.6,0.3,1.1v1.2c0,0.5-0.1,0.9-0.3,1.1s-0.5,0.4-0.9,0.4C234.2,37.3,233.9,37.1,233.8,36.9z
		 M235,36.6c0.1-0.1,0.1-0.2,0.1-0.3c0-0.1,0-0.3,0-0.5v-1.3c0-0.2,0-0.4,0-0.5c0-0.1-0.1-0.2-0.1-0.3c-0.1-0.1-0.2-0.1-0.3-0.1
		c-0.1,0-0.2,0-0.3,0.1c-0.1,0.1-0.1,0.2-0.1,0.3c0,0.1,0,0.3,0,0.5v1.3c0,0.2,0,0.4,0,0.5s0.1,0.2,0.1,0.3c0.1,0.1,0.2,0.1,0.3,0.1
		C234.8,36.7,234.9,36.7,235,36.6z"/>
	<path fill="#7EBAE3" d="M236.5,33.1h0.7v0.4c0.3-0.3,0.7-0.5,1-0.5c0.2,0,0.4,0.1,0.5,0.2c0.1,0.2,0.1,0.4,0.1,0.6v3.3h-0.7v-3.1
		c0-0.2,0-0.3-0.1-0.3c0-0.1-0.1-0.1-0.3-0.1c-0.1,0-0.3,0.1-0.5,0.3v3.3h-0.7V33.1z"/>
	<path fill="#7EBAE3" d="M239.8,36.9c-0.2-0.3-0.2-0.7-0.2-1.3v-0.8c0-0.5,0.1-1,0.2-1.3c0.1-0.3,0.4-0.5,0.8-0.5
		c0.2,0,0.5,0.1,0.7,0.3v-1.9h0.7v5.7h-0.7v-0.3c-0.2,0.2-0.4,0.3-0.7,0.3C240.2,37.3,239.9,37.1,239.8,36.9z M241.2,36.5v-2.7
		c-0.2-0.1-0.3-0.2-0.5-0.2c-0.3,0-0.4,0.3-0.4,0.8v1.1c0,0.3,0,0.6,0.1,0.7s0.2,0.3,0.4,0.3C240.9,36.7,241,36.6,241.2,36.5z"/>
	<path fill="#7EBAE3" d="M242.8,36.9c-0.2-0.2-0.3-0.5-0.3-0.8l0.6-0.2c0,0.3,0.1,0.5,0.2,0.6c0.1,0.1,0.2,0.2,0.4,0.2
		c0.1,0,0.2,0,0.3-0.1c0.1-0.1,0.1-0.2,0.1-0.3c0-0.1,0-0.2-0.1-0.3c-0.1-0.1-0.1-0.2-0.3-0.3l-0.7-0.6c-0.2-0.1-0.3-0.3-0.4-0.4
		c-0.1-0.2-0.1-0.3-0.1-0.6c0-0.3,0.1-0.6,0.3-0.7c0.2-0.2,0.4-0.3,0.8-0.3c0.3,0,0.5,0.1,0.7,0.3c0.2,0.2,0.3,0.5,0.3,0.8l-0.5,0.2
		c0-0.2-0.1-0.4-0.2-0.5c-0.1-0.1-0.2-0.2-0.3-0.2c-0.1,0-0.2,0-0.3,0.1c-0.1,0.1-0.1,0.2-0.1,0.3c0,0.1,0.1,0.3,0.2,0.4l0.7,0.7
		c0.2,0.2,0.3,0.3,0.4,0.5c0.1,0.2,0.2,0.4,0.2,0.6c0,0.3-0.1,0.6-0.3,0.8c-0.2,0.2-0.5,0.3-0.8,0.3C243.3,37.3,243,37.1,242.8,36.9
		z"/>
</g>
<g>
</g>
</svg>
