<?xml version="1.0" encoding="utf-8"?>
<!-- Generator: Adobe Illustrator 15.0.0, SVG Export Plug-In . SVG Version: 6.00 Build 0)  -->
<!DOCTYPE svg PUBLIC "-//W3C//DTD SVG 1.1//EN" "http://www.w3.org/Graphics/SVG/1.1/DTD/svg11.dtd" [
	<!ENTITY ns_flows "http://ns.adobe.com/Flows/1.0/">
	<!ENTITY ns_extend "http://ns.adobe.com/Extensibility/1.0/">
	<!ENTITY ns_ai "http://ns.adobe.com/AdobeIllustrator/10.0/">
	<!ENTITY ns_graphs "http://ns.adobe.com/Graphs/1.0/">
]>
<svg version="1.1" id="Layer_1" xmlns:x="&ns_extend;" xmlns:i="&ns_ai;" xmlns:graph="&ns_graphs;"
	 xmlns="http://www.w3.org/2000/svg" xmlns:xlink="http://www.w3.org/1999/xlink" xmlns:a="http://ns.adobe.com/AdobeSVGViewerExtensions/3.0/"
	 x="0px" y="0px" width="256px" height="57px" viewBox="0 0 256 57" enable-background="new 0 0 256 57" xml:space="preserve">
<rect x="0.5" y="0.5" fill="#FFFFFF" stroke="#B3E4FF" stroke-miterlimit="10" width="255" height="56"/>
<rect x="60.5" y="15.5" fill="none" stroke="#7EBAE3" stroke-miterlimit="10" width="29" height="26"/>
<rect x="92.5" y="15.5" fill="none" stroke="#7EBAE3" stroke-miterlimit="10" width="29" height="26"/>
<rect x="124.5" y="15.5" fill="none" stroke="#7EBAE3" stroke-miterlimit="10" width="29" height="26"/>
<rect x="156.5" y="15.5" fill="none" stroke="#7EBAE3" stroke-miterlimit="10" width="29" height="26"/>
<g>
	<path fill="#7EBAE3" d="M69.7,31.9h1.2c0.6,0,1,0.1,1.3,0.4c0.3,0.3,0.4,0.7,0.4,1.3v2.1c0,0.6-0.1,1.1-0.4,1.4
		c-0.3,0.3-0.7,0.5-1.2,0.5h-1.3V31.9z M70.9,37c0.3,0,0.5-0.1,0.6-0.2c0.1-0.1,0.2-0.3,0.2-0.4c0-0.2,0-0.5,0-0.8v-1.8
		c0-0.3,0-0.6-0.1-0.7c0-0.2-0.1-0.3-0.2-0.4c-0.1-0.1-0.3-0.1-0.6-0.1h-0.4V37H70.9z"/>
	<path fill="#7EBAE3" d="M73.6,37.5c-0.1-0.1-0.2-0.2-0.3-0.3c-0.1-0.1-0.1-0.3-0.1-0.5c0-0.3,0.1-0.6,0.2-0.8
		c0.1-0.2,0.3-0.4,0.5-0.5s0.5-0.3,0.9-0.4v-0.3c0-0.3,0-0.5-0.1-0.6c-0.1-0.1-0.2-0.2-0.3-0.2c-0.3,0-0.4,0.2-0.4,0.6v0.2l-0.7,0
		c0-0.4,0.1-0.8,0.3-1c0.2-0.2,0.5-0.3,0.9-0.3c0.4,0,0.7,0.1,0.8,0.3c0.2,0.2,0.3,0.5,0.3,1v1.8c0,0.3,0,0.6,0.1,1h-0.7
		c-0.1-0.3-0.1-0.5-0.1-0.6c-0.1,0.2-0.2,0.3-0.3,0.5s-0.3,0.2-0.5,0.2C73.8,37.6,73.7,37.6,73.6,37.5z M74.6,36.9
		c0.1-0.1,0.2-0.2,0.2-0.2v-1.1c-0.2,0.1-0.4,0.2-0.5,0.3c-0.1,0.1-0.2,0.2-0.3,0.3s-0.1,0.2-0.1,0.4c0,0.2,0,0.3,0.1,0.4
		s0.1,0.1,0.3,0.1C74.4,37,74.5,37,74.6,36.9z"/>
	<path fill="#7EBAE3" d="M76.2,38c0.3,0,0.5,0,0.6-0.1c0.1,0,0.2-0.1,0.2-0.2c0-0.1-0.1-0.3-0.2-0.7L76,33.5h0.8l0.5,3l0.5-3h0.8
		l-1,4.3c-0.1,0.3-0.2,0.5-0.4,0.6s-0.5,0.2-0.9,0.2h-0.1V38z"/>
	<path fill="#7EBAE3" d="M79.1,37.3c-0.2-0.2-0.3-0.5-0.3-0.8l0.6-0.2c0,0.3,0.1,0.5,0.2,0.6c0.1,0.1,0.2,0.2,0.4,0.2
		c0.1,0,0.2,0,0.3-0.1c0.1-0.1,0.1-0.2,0.1-0.3c0-0.1,0-0.2-0.1-0.3c-0.1-0.1-0.1-0.2-0.3-0.3l-0.7-0.6c-0.2-0.1-0.3-0.3-0.4-0.4
		c-0.1-0.2-0.1-0.3-0.1-0.6c0-0.3,0.1-0.6,0.3-0.7c0.2-0.2,0.4-0.3,0.8-0.3c0.3,0,0.5,0.1,0.7,0.3c0.2,0.2,0.3,0.5,0.3,0.8l-0.5,0.2
		c0-0.2-0.1-0.4-0.2-0.5C80.2,34.1,80.1,34,80,34c-0.1,0-0.2,0-0.3,0.1c-0.1,0.1-0.1,0.2-0.1,0.3c0,0.1,0.1,0.3,0.2,0.4l0.7,0.7
		c0.2,0.2,0.3,0.3,0.4,0.5c0.1,0.2,0.2,0.4,0.2,0.6c0,0.3-0.1,0.6-0.3,0.8c-0.2,0.2-0.5,0.3-0.8,0.3C79.6,37.6,79.3,37.5,79.1,37.3z
		"/>
</g>
<g>
	<path fill="#7EBAE3" d="M71.3,27.6c-0.3-0.4-0.5-1-0.5-1.7v-3.5c0-0.7,0.2-1.3,0.5-1.7c0.3-0.4,0.8-0.6,1.5-0.6
		c0.7,0,1.2,0.2,1.5,0.6c0.3,0.4,0.5,1,0.5,1.7v3.5c0,0.7-0.2,1.3-0.5,1.7c-0.3,0.4-0.8,0.6-1.5,0.6S71.6,28.1,71.3,27.6z
		 M73.7,25.9v-3.5c0-0.5-0.1-0.8-0.2-1.1c-0.1-0.3-0.4-0.4-0.7-0.4s-0.6,0.1-0.7,0.4c-0.1,0.3-0.2,0.6-0.2,1.1v3.5
		c0,1,0.3,1.5,0.9,1.5C73.4,27.4,73.7,26.9,73.7,25.9z"/>
	<path fill="#7EBAE3" d="M76.5,27.6c-0.3-0.4-0.5-1-0.5-1.7v-3.5c0-0.7,0.2-1.3,0.5-1.7c0.3-0.4,0.8-0.6,1.5-0.6
		c0.7,0,1.2,0.2,1.5,0.6c0.3,0.4,0.5,1,0.5,1.7v3.5c0,0.7-0.2,1.3-0.5,1.7c-0.3,0.4-0.8,0.6-1.5,0.6S76.8,28.1,76.5,27.6z
		 M78.9,25.9v-3.5c0-0.5-0.1-0.8-0.2-1.1c-0.1-0.3-0.4-0.4-0.7-0.4s-0.6,0.1-0.7,0.4c-0.1,0.3-0.2,0.6-0.2,1.1v3.5
		c0,1,0.3,1.5,0.9,1.5C78.6,27.4,78.9,26.9,78.9,25.9z"/>
</g>
<g>
	<path fill="#7EBAE3" d="M103.7,27.6c-0.3-0.4-0.5-1-0.5-1.7v-3.5c0-0.7,0.2-1.3,0.5-1.7c0.3-0.4,0.8-0.6,1.5-0.6
		c0.7,0,1.2,0.2,1.5,0.6c0.3,0.4,0.5,1,0.5,1.7v3.5c0,0.7-0.2,1.3-0.5,1.7c-0.3,0.4-0.8,0.6-1.5,0.6S104,28.1,103.7,27.6z
		 M106.1,25.9v-3.5c0-0.5-0.1-0.8-0.2-1.1c-0.1-0.3-0.4-0.4-0.7-0.4s-0.6,0.1-0.7,0.4c-0.1,0.3-0.2,0.6-0.2,1.1v3.5
		c0,1,0.3,1.5,0.9,1.5C105.8,27.4,106.1,26.9,106.1,25.9z"/>
	<path fill="#7EBAE3" d="M108.8,27.6c-0.3-0.4-0.5-1-0.5-1.7v-3.5c0-0.7,0.2-1.3,0.5-1.7c0.3-0.4,0.8-0.6,1.5-0.6
		c0.7,0,1.2,0.2,1.5,0.6c0.3,0.4,0.5,1,0.5,1.7v3.5c0,0.7-0.2,1.3-0.5,1.7c-0.3,0.4-0.8,0.6-1.5,0.6S109.2,28.1,108.8,27.6z
		 M111.2,25.9v-3.5c0-0.5-0.1-0.8-0.2-1.1c-0.1-0.3-0.4-0.4-0.7-0.4s-0.6,0.1-0.7,0.4c-0.1,0.3-0.2,0.6-0.2,1.1v3.5
		c0,1,0.3,1.5,0.9,1.5C110.9,27.4,111.2,26.9,111.2,25.9z"/>
</g>
<g>
	<path fill="#7EBAE3" d="M135,21.5c0,0-0.2,0.1-0.6,0.1c-0.4,0.1-0.7,0.1-0.8,0.1V21c0.8-0.2,1.4-0.5,1.7-0.9h0.8v8.1H135V21.5z"/>
	<path fill="#7EBAE3" d="M138.2,27.7c-0.3-0.4-0.5-1-0.5-1.8h1.1c0,0.5,0.1,0.8,0.2,1.1c0.1,0.3,0.4,0.4,0.7,0.4
		c0.3,0,0.5-0.1,0.6-0.2c0.1-0.2,0.2-0.4,0.3-0.6c0-0.3,0.1-0.6,0.1-1.1c0-0.4,0-0.7-0.1-1c0-0.2-0.1-0.4-0.3-0.6
		c-0.1-0.1-0.3-0.2-0.6-0.2c-0.2,0-0.4,0.1-0.5,0.2c-0.2,0.1-0.3,0.3-0.4,0.5h-0.9v-4.3h3.5v1.1h-2.5l-0.1,2.2
		c0.3-0.3,0.7-0.5,1.2-0.5c0.6,0,1.1,0.2,1.3,0.6s0.4,1,0.4,1.8c0,0.9-0.2,1.6-0.5,2.1s-0.8,0.8-1.6,0.8
		C139,28.3,138.5,28.1,138.2,27.7z"/>
</g>
<g>
	<path fill="#7EBAE3" d="M166.6,27.7c-0.3-0.4-0.5-0.9-0.5-1.5v-0.3h1.1v0.2c0,0.4,0.1,0.7,0.2,1c0.1,0.2,0.4,0.3,0.7,0.3
		c0.4,0,0.6-0.1,0.7-0.4s0.2-0.6,0.2-1.1c0-0.5-0.1-0.8-0.3-1.1c-0.2-0.3-0.4-0.4-0.8-0.4c0,0-0.1,0-0.2,0v-1.1h0.1
		c0.4,0,0.7-0.1,0.8-0.3c0.2-0.2,0.3-0.5,0.3-0.9c0-0.4-0.1-0.7-0.2-0.9c-0.1-0.2-0.4-0.3-0.7-0.3s-0.6,0.1-0.7,0.3
		c-0.1,0.2-0.2,0.5-0.2,1v0.2h-1.1v-0.3c0-0.7,0.2-1.2,0.5-1.5c0.3-0.4,0.8-0.5,1.5-0.5s1.1,0.2,1.5,0.5s0.5,0.9,0.5,1.5
		c0,0.5-0.1,0.9-0.3,1.2c-0.2,0.3-0.5,0.5-0.9,0.6c0.4,0.1,0.7,0.3,0.9,0.7c0.2,0.3,0.3,0.8,0.3,1.3c0,0.8-0.2,1.3-0.5,1.8
		c-0.3,0.4-0.8,0.6-1.5,0.6C167.4,28.3,166.9,28.1,166.6,27.7z"/>
	<path fill="#7EBAE3" d="M171.5,27.6c-0.3-0.4-0.5-1-0.5-1.7v-3.5c0-0.7,0.2-1.3,0.5-1.7c0.3-0.4,0.8-0.6,1.5-0.6
		c0.7,0,1.2,0.2,1.5,0.6c0.3,0.4,0.5,1,0.5,1.7v3.5c0,0.7-0.2,1.3-0.5,1.7c-0.3,0.4-0.8,0.6-1.5,0.6S171.8,28.1,171.5,27.6z
		 M173.9,25.9v-3.5c0-0.5-0.1-0.8-0.2-1.1c-0.1-0.3-0.4-0.4-0.7-0.4s-0.6,0.1-0.7,0.4c-0.1,0.3-0.2,0.6-0.2,1.1v3.5
		c0,1,0.3,1.5,0.9,1.5C173.6,27.4,173.9,26.9,173.9,25.9z"/>
</g>
<g>
	<path fill="#7EBAE3" d="M100.2,31.9h0.8v2.5h1.5v-2.5h0.8v5.7h-0.8v-2.7H101v2.7h-0.8V31.9z"/>
	<path fill="#7EBAE3" d="M104.2,37.3c-0.2-0.3-0.3-0.6-0.3-1.1V35c0-0.5,0.1-0.9,0.3-1.1c0.2-0.3,0.5-0.4,0.9-0.4
		c0.4,0,0.7,0.1,0.9,0.4c0.2,0.3,0.3,0.6,0.3,1.1v1.2c0,0.5-0.1,0.9-0.3,1.1s-0.5,0.4-0.9,0.4C104.7,37.6,104.4,37.5,104.2,37.3z
		 M105.5,37c0.1-0.1,0.1-0.2,0.1-0.3c0-0.1,0-0.3,0-0.5v-1.3c0-0.2,0-0.4,0-0.5c0-0.1-0.1-0.2-0.1-0.3c-0.1-0.1-0.2-0.1-0.3-0.1
		c-0.1,0-0.2,0-0.3,0.1c-0.1,0.1-0.1,0.2-0.1,0.3c0,0.1,0,0.3,0,0.5v1.3c0,0.2,0,0.4,0,0.5s0.1,0.2,0.1,0.3c0.1,0.1,0.2,0.1,0.3,0.1
		C105.3,37.1,105.4,37,105.5,37z"/>
	<path fill="#7EBAE3" d="M107.1,37.4c-0.1-0.2-0.1-0.4-0.1-0.6v-3.3h0.7v3.1c0,0.2,0,0.3,0.1,0.3s0.1,0.1,0.3,0.1
		c0.1,0,0.3-0.1,0.5-0.3v-3.3h0.7v4h-0.7v-0.4c-0.3,0.3-0.7,0.5-1,0.5C107.4,37.6,107.2,37.6,107.1,37.4z"/>
	<path fill="#7EBAE3" d="M110.1,33.5h0.7v0.6c0.1-0.2,0.3-0.4,0.4-0.5c0.1-0.1,0.3-0.1,0.5-0.1c0,0,0.1,0,0.1,0v0.8
		c-0.1-0.1-0.3-0.1-0.4-0.1c-0.1,0-0.2,0-0.3,0.1s-0.2,0.2-0.3,0.3v3h-0.7V33.5z"/>
	<path fill="#7EBAE3" d="M112.5,37.3c-0.2-0.2-0.3-0.5-0.3-0.8l0.6-0.2c0,0.3,0.1,0.5,0.2,0.6c0.1,0.1,0.2,0.2,0.4,0.2
		c0.1,0,0.2,0,0.3-0.1c0.1-0.1,0.1-0.2,0.1-0.3c0-0.1,0-0.2-0.1-0.3c-0.1-0.1-0.1-0.2-0.3-0.3l-0.7-0.6c-0.2-0.1-0.3-0.3-0.4-0.4
		c-0.1-0.2-0.1-0.3-0.1-0.6c0-0.3,0.1-0.6,0.3-0.7c0.2-0.2,0.4-0.3,0.8-0.3c0.3,0,0.5,0.1,0.7,0.3c0.2,0.2,0.3,0.5,0.3,0.8l-0.5,0.2
		c0-0.2-0.1-0.4-0.2-0.5c-0.1-0.1-0.2-0.2-0.3-0.2c-0.1,0-0.2,0-0.3,0.1c-0.1,0.1-0.1,0.2-0.1,0.3c0,0.1,0.1,0.3,0.2,0.4l0.7,0.7
		c0.2,0.2,0.3,0.3,0.4,0.5c0.1,0.2,0.2,0.4,0.2,0.6c0,0.3-0.1,0.6-0.3,0.8c-0.2,0.2-0.5,0.3-0.8,0.3C113,37.6,112.7,37.5,112.5,37.3
		z"/>
</g>
<g>
	<path fill="#7EBAE3" d="M129.8,31.9h0.8l1,4.6l1-4.6h0.8l0.1,5.7h-0.6l-0.1-4.1l-1,4.1h-0.4l-1-4.1l-0.1,4.1h-0.6L129.8,31.9z"/>
	<path fill="#7EBAE3" d="M134.3,32.1h0.7v0.8h-0.7V32.1z M134.3,33.5h0.7v4h-0.7V33.5z"/>
	<path fill="#7EBAE3" d="M135.9,33.5h0.7v0.4c0.3-0.3,0.7-0.5,1-0.5c0.2,0,0.4,0.1,0.5,0.2c0.1,0.2,0.1,0.4,0.1,0.6v3.3h-0.7v-3.1
		c0-0.2,0-0.3-0.1-0.3c0-0.1-0.1-0.1-0.3-0.1c-0.1,0-0.3,0.1-0.5,0.3v3.3h-0.7V33.5z"/>
	<path fill="#7EBAE3" d="M139,37.4c-0.1-0.2-0.1-0.4-0.1-0.6v-3.3h0.7v3.1c0,0.2,0,0.3,0.1,0.3s0.1,0.1,0.3,0.1
		c0.1,0,0.3-0.1,0.5-0.3v-3.3h0.7v4h-0.7v-0.4c-0.3,0.3-0.7,0.5-1,0.5C139.3,37.6,139.1,37.6,139,37.4z"/>
	<path fill="#7EBAE3" d="M142.2,36.7V34h-0.4v-0.5h0.4v-1.2h0.7v1.2h0.7V34H143v2.6c0,0.2,0,0.3,0.1,0.3c0.1,0.1,0.1,0.1,0.3,0.1
		c0.1,0,0.2,0,0.3,0v0.6c-0.2,0-0.4,0-0.5,0C142.5,37.6,142.2,37.3,142.2,36.7z"/>
	<path fill="#7EBAE3" d="M144.6,37.5c-0.2-0.1-0.3-0.3-0.4-0.5c-0.1-0.2-0.1-0.5-0.1-0.9v-0.9c0-0.6,0.1-1,0.3-1.2
		c0.2-0.3,0.5-0.4,0.9-0.4c0.3,0,0.6,0.1,0.7,0.2c0.2,0.1,0.3,0.3,0.3,0.6c0.1,0.2,0.1,0.6,0.1,1v0.3h-1.6v0.8c0,0.2,0,0.4,0.1,0.5
		s0.2,0.2,0.3,0.2c0.2,0,0.3-0.1,0.3-0.2s0.1-0.3,0.1-0.5v-0.2h0.7v0.2c0,0.4-0.1,0.7-0.3,1c-0.2,0.2-0.5,0.3-0.9,0.3
		C145,37.6,144.7,37.6,144.6,37.5z M145.7,35.2v-0.4c0-0.3,0-0.5-0.1-0.6s-0.2-0.2-0.3-0.2c-0.1,0-0.2,0-0.3,0.1
		c-0.1,0.1-0.1,0.1-0.1,0.3s0,0.3,0,0.6v0.2H145.7z"/>
	<path fill="#7EBAE3" d="M147.3,37.3c-0.2-0.2-0.3-0.5-0.3-0.8l0.6-0.2c0,0.3,0.1,0.5,0.2,0.6c0.1,0.1,0.2,0.2,0.4,0.2
		c0.1,0,0.2,0,0.3-0.1c0.1-0.1,0.1-0.2,0.1-0.3c0-0.1,0-0.2-0.1-0.3c-0.1-0.1-0.1-0.2-0.3-0.3l-0.7-0.6c-0.2-0.1-0.3-0.3-0.4-0.4
		c-0.1-0.2-0.1-0.3-0.1-0.6c0-0.3,0.1-0.6,0.3-0.7c0.2-0.2,0.4-0.3,0.8-0.3c0.3,0,0.5,0.1,0.7,0.3c0.2,0.2,0.3,0.5,0.3,0.8l-0.5,0.2
		c0-0.2-0.1-0.4-0.2-0.5c-0.1-0.1-0.2-0.2-0.3-0.2c-0.1,0-0.2,0-0.3,0.1c-0.1,0.1-0.1,0.2-0.1,0.3c0,0.1,0.1,0.3,0.2,0.4l0.7,0.7
		c0.2,0.2,0.3,0.3,0.4,0.5c0.1,0.2,0.2,0.4,0.2,0.6c0,0.3-0.1,0.6-0.3,0.8c-0.2,0.2-0.5,0.3-0.8,0.3
		C147.7,37.6,147.5,37.5,147.3,37.3z"/>
</g>
<g>
	<path fill="#7EBAE3" d="M161.6,37.2c-0.3-0.3-0.4-0.7-0.4-1.2l0.7-0.2c0,0.4,0.1,0.7,0.2,0.9c0.1,0.2,0.3,0.3,0.6,0.3
		c0.2,0,0.4-0.1,0.5-0.2c0.1-0.1,0.2-0.3,0.2-0.5c0-0.2,0-0.4-0.1-0.6s-0.3-0.3-0.5-0.5l-1-0.8c-0.2-0.2-0.3-0.3-0.4-0.5
		c-0.1-0.2-0.1-0.4-0.1-0.7c0-0.4,0.1-0.7,0.4-1c0.2-0.2,0.6-0.3,1-0.3c0.4,0,0.8,0.1,1,0.4s0.4,0.6,0.4,1.1l-0.7,0.2
		c0-0.3-0.1-0.6-0.2-0.8c-0.1-0.2-0.3-0.3-0.6-0.3c-0.2,0-0.4,0.1-0.5,0.2c-0.1,0.1-0.2,0.3-0.2,0.5c0,0.2,0,0.3,0.1,0.4
		s0.2,0.2,0.3,0.3l1,0.8c0.2,0.2,0.4,0.5,0.6,0.7c0.1,0.3,0.2,0.5,0.2,0.9c0,0.4-0.1,0.7-0.4,1s-0.6,0.4-1,0.4
		C162.2,37.6,161.9,37.5,161.6,37.2z"/>
	<path fill="#7EBAE3" d="M165,37.5c-0.2-0.1-0.3-0.3-0.4-0.5c-0.1-0.2-0.1-0.5-0.1-0.9v-0.9c0-0.6,0.1-1,0.3-1.2
		c0.2-0.3,0.5-0.4,0.9-0.4c0.3,0,0.6,0.1,0.7,0.2c0.2,0.1,0.3,0.3,0.3,0.6c0.1,0.2,0.1,0.6,0.1,1v0.3h-1.6v0.8c0,0.2,0,0.4,0.1,0.5
		s0.2,0.2,0.3,0.2c0.2,0,0.3-0.1,0.3-0.2s0.1-0.3,0.1-0.5v-0.2h0.7v0.2c0,0.4-0.1,0.7-0.3,1c-0.2,0.2-0.5,0.3-0.9,0.3
		C165.4,37.6,165.2,37.6,165,37.5z M166.1,35.2v-0.4c0-0.3,0-0.5-0.1-0.6s-0.2-0.2-0.3-0.2c-0.1,0-0.2,0-0.3,0.1
		c-0.1,0.1-0.1,0.1-0.1,0.3s0,0.3,0,0.6v0.2H166.1z"/>
	<path fill="#7EBAE3" d="M167.9,37.4c-0.2-0.1-0.3-0.3-0.4-0.5c-0.1-0.2-0.1-0.5-0.1-0.9v-0.9c0-0.4,0-0.7,0.1-0.9s0.2-0.4,0.4-0.5
		c0.2-0.1,0.4-0.2,0.7-0.2c0.3,0,0.5,0,0.7,0.1s0.3,0.2,0.3,0.4c0.1,0.2,0.1,0.4,0.1,0.7V35h-0.7v-0.2c0-0.3,0-0.5-0.1-0.6
		s-0.2-0.2-0.3-0.2c-0.1,0-0.2,0-0.3,0.1s-0.1,0.1-0.1,0.3c0,0.1,0,0.3,0,0.6v1.3c0,0.2,0,0.4,0,0.5c0,0.1,0.1,0.2,0.1,0.3
		c0.1,0,0.2,0.1,0.3,0.1c0.2,0,0.3-0.1,0.3-0.2c0.1-0.1,0.1-0.3,0.1-0.5v-0.3h0.7v0.3c0,0.4-0.1,0.8-0.2,1c-0.2,0.2-0.4,0.3-0.9,0.3
		C168.3,37.6,168.1,37.6,167.9,37.4z"/>
	<path fill="#7EBAE3" d="M170.6,37.3c-0.2-0.3-0.3-0.6-0.3-1.1V35c0-0.5,0.1-0.9,0.3-1.1c0.2-0.3,0.5-0.4,0.9-0.4
		c0.4,0,0.7,0.1,0.9,0.4c0.2,0.3,0.3,0.6,0.3,1.1v1.2c0,0.5-0.1,0.9-0.3,1.1s-0.5,0.4-0.9,0.4C171.1,37.6,170.8,37.5,170.6,37.3z
		 M171.8,37c0.1-0.1,0.1-0.2,0.1-0.3c0-0.1,0-0.3,0-0.5v-1.3c0-0.2,0-0.4,0-0.5c0-0.1-0.1-0.2-0.1-0.3c-0.1-0.1-0.2-0.1-0.3-0.1
		c-0.1,0-0.2,0-0.3,0.1c-0.1,0.1-0.1,0.2-0.1,0.3c0,0.1,0,0.3,0,0.5v1.3c0,0.2,0,0.4,0,0.5s0.1,0.2,0.1,0.3c0.1,0.1,0.2,0.1,0.3,0.1
		C171.7,37.1,171.8,37,171.8,37z"/>
	<path fill="#7EBAE3" d="M173.4,33.5h0.7v0.4c0.3-0.3,0.7-0.5,1-0.5c0.2,0,0.4,0.1,0.5,0.2c0.1,0.2,0.1,0.4,0.1,0.6v3.3H175v-3.1
		c0-0.2,0-0.3-0.1-0.3c0-0.1-0.1-0.1-0.3-0.1c-0.1,0-0.3,0.1-0.5,0.3v3.3h-0.7V33.5z"/>
	<path fill="#7EBAE3" d="M176.6,37.3c-0.2-0.3-0.2-0.7-0.2-1.3v-0.8c0-0.5,0.1-1,0.2-1.3c0.1-0.3,0.4-0.5,0.8-0.5
		c0.2,0,0.5,0.1,0.7,0.3v-1.9h0.7v5.7h-0.7v-0.3c-0.2,0.2-0.4,0.3-0.7,0.3C177.1,37.6,176.8,37.5,176.6,37.3z M178.1,36.9v-2.7
		c-0.2-0.1-0.3-0.2-0.5-0.2c-0.3,0-0.4,0.3-0.4,0.8v1.1c0,0.3,0,0.6,0.1,0.7s0.2,0.3,0.4,0.3C177.7,37,177.9,37,178.1,36.9z"/>
	<path fill="#7EBAE3" d="M179.7,37.3c-0.2-0.2-0.3-0.5-0.3-0.8l0.6-0.2c0,0.3,0.1,0.5,0.2,0.6c0.1,0.1,0.2,0.2,0.4,0.2
		c0.1,0,0.2,0,0.3-0.1c0.1-0.1,0.1-0.2,0.1-0.3c0-0.1,0-0.2-0.1-0.3c-0.1-0.1-0.1-0.2-0.3-0.3l-0.7-0.6c-0.2-0.1-0.3-0.3-0.4-0.4
		c-0.1-0.2-0.1-0.3-0.1-0.6c0-0.3,0.1-0.6,0.3-0.7c0.2-0.2,0.4-0.3,0.8-0.3c0.3,0,0.5,0.1,0.7,0.3c0.2,0.2,0.3,0.5,0.3,0.8l-0.5,0.2
		c0-0.2-0.1-0.4-0.2-0.5c-0.1-0.1-0.2-0.2-0.3-0.2c-0.1,0-0.2,0-0.3,0.1c-0.1,0.1-0.1,0.2-0.1,0.3c0,0.1,0.1,0.3,0.2,0.4l0.7,0.7
		c0.2,0.2,0.3,0.3,0.4,0.5c0.1,0.2,0.2,0.4,0.2,0.6c0,0.3-0.1,0.6-0.3,0.8c-0.2,0.2-0.5,0.3-0.8,0.3
		C180.2,37.6,179.9,37.5,179.7,37.3z"/>
</g>
<g>
</g>
</svg>
