<?xml version="1.0" encoding="utf-8"?>
<!-- Generator: Adobe Illustrator 15.0.0, SVG Export Plug-In . SVG Version: 6.00 Build 0)  -->
<!DOCTYPE svg PUBLIC "-//W3C//DTD SVG 1.1//EN" "http://www.w3.org/Graphics/SVG/1.1/DTD/svg11.dtd" [
	<!ENTITY ns_flows "http://ns.adobe.com/Flows/1.0/">
	<!ENTITY ns_extend "http://ns.adobe.com/Extensibility/1.0/">
	<!ENTITY ns_ai "http://ns.adobe.com/AdobeIllustrator/10.0/">
	<!ENTITY ns_graphs "http://ns.adobe.com/Graphs/1.0/">
]>
<svg version="1.1" id="Layer_1" xmlns:x="&ns_extend;" xmlns:i="&ns_ai;" xmlns:graph="&ns_graphs;"
	 xmlns="http://www.w3.org/2000/svg" xmlns:xlink="http://www.w3.org/1999/xlink" xmlns:a="http://ns.adobe.com/AdobeSVGViewerExtensions/3.0/"
	 x="0px" y="0px" width="256px" height="57px" viewBox="0 0 256 57" enable-background="new 0 0 256 57" xml:space="preserve">
<rect x="0.5" y="0.5" fill="#FFFFFF" stroke="#B3E4FF" stroke-miterlimit="10" width="255" height="56"/>
<rect x="79.5" y="10.5" fill="none" stroke="#7EBAE3" stroke-miterlimit="10" width="90" height="33"/>
<line fill="none" stroke="#7EBAE3" stroke-miterlimit="10" x1="97" y1="17.5" x2="150" y2="17.5"/>
<g>
	<path fill="#7EBAE3" d="M89.1,36.1c-0.3-0.4-0.5-1-0.5-1.7v-3.5c0-0.7,0.2-1.3,0.5-1.7s0.8-0.6,1.5-0.6c0.7,0,1.2,0.2,1.5,0.6
		s0.5,1,0.5,1.7v3.5c0,0.7-0.2,1.3-0.5,1.7c-0.3,0.4-0.8,0.6-1.5,0.6S89.4,36.5,89.1,36.1z M91.5,34.4v-3.5c0-0.5-0.1-0.8-0.2-1.1
		c-0.1-0.3-0.4-0.4-0.7-0.4s-0.6,0.1-0.7,0.4c-0.1,0.3-0.2,0.6-0.2,1.1v3.5c0,1,0.3,1.5,0.9,1.5C91.2,35.9,91.5,35.4,91.5,34.4z"/>
	<path fill="#7EBAE3" d="M94.3,36.1c-0.3-0.4-0.5-1-0.5-1.7v-3.5c0-0.7,0.2-1.3,0.5-1.7s0.8-0.6,1.5-0.6c0.7,0,1.2,0.2,1.5,0.6
		s0.5,1,0.5,1.7v3.5c0,0.7-0.2,1.3-0.5,1.7c-0.3,0.4-0.8,0.6-1.5,0.6S94.6,36.5,94.3,36.1z M96.7,34.4v-3.5c0-0.5-0.1-0.8-0.2-1.1
		c-0.1-0.3-0.4-0.4-0.7-0.4s-0.6,0.1-0.7,0.4c-0.1,0.3-0.2,0.6-0.2,1.1v3.5c0,1,0.3,1.5,0.9,1.5C96.4,35.9,96.7,35.4,96.7,34.4z"/>
	<path fill="#7EBAE3" d="M98.7,31.8h1.1c0.5,0,0.9,0.1,1.1,0.4s0.3,0.6,0.3,1.1v1.8c0,0.5-0.1,0.9-0.3,1.2c-0.2,0.3-0.6,0.4-1.1,0.4
		h-1.1V31.8z M99.8,36.2c0.2,0,0.4,0,0.5-0.1c0.1-0.1,0.2-0.2,0.2-0.4c0-0.2,0-0.4,0-0.7v-1.6c0-0.3,0-0.5-0.1-0.6
		c0-0.1-0.1-0.3-0.2-0.3c-0.1-0.1-0.3-0.1-0.5-0.1h-0.4v3.9H99.8z"/>
	<path fill="#7EBAE3" d="M104.4,31.4h1.1v1.1h-1.1V31.4z M104.4,34.6h1.1v1.1h-1.1V34.6z"/>
	<path fill="#7EBAE3" d="M109.1,36.1c-0.3-0.4-0.5-1-0.5-1.7v-3.5c0-0.7,0.2-1.3,0.5-1.7s0.8-0.6,1.5-0.6c0.7,0,1.2,0.2,1.5,0.6
		s0.5,1,0.5,1.7v3.5c0,0.7-0.2,1.3-0.5,1.7c-0.3,0.4-0.8,0.6-1.5,0.6S109.5,36.5,109.1,36.1z M111.6,34.4v-3.5
		c0-0.5-0.1-0.8-0.2-1.1c-0.1-0.3-0.4-0.4-0.7-0.4s-0.6,0.1-0.7,0.4c-0.1,0.3-0.2,0.6-0.2,1.1v3.5c0,1,0.3,1.5,0.9,1.5
		C111.3,35.9,111.6,35.4,111.6,34.4z"/>
	<path fill="#7EBAE3" d="M114.3,36.1c-0.3-0.4-0.5-1-0.5-1.7v-3.5c0-0.7,0.2-1.3,0.5-1.7s0.8-0.6,1.5-0.6c0.7,0,1.2,0.2,1.5,0.6
		s0.5,1,0.5,1.7v3.5c0,0.7-0.2,1.3-0.5,1.7c-0.3,0.4-0.8,0.6-1.5,0.6S114.7,36.5,114.3,36.1z M116.7,34.4v-3.5
		c0-0.5-0.1-0.8-0.2-1.1c-0.1-0.3-0.4-0.4-0.7-0.4s-0.6,0.1-0.7,0.4c-0.1,0.3-0.2,0.6-0.2,1.1v3.5c0,1,0.3,1.5,0.9,1.5
		C116.4,35.9,116.7,35.4,116.7,34.4z"/>
	<path fill="#7EBAE3" d="M118.8,31.8h0.7v2.1h1.2v-2.1h0.7v4.9h-0.7v-2.3h-1.2v2.3h-0.7V31.8z"/>
	<path fill="#7EBAE3" d="M124.7,31.4h1.1v1.1h-1.1V31.4z M124.7,34.6h1.1v1.1h-1.1V34.6z"/>
	<path fill="#7EBAE3" d="M130,30c0,0-0.2,0.1-0.6,0.1c-0.4,0.1-0.7,0.1-0.8,0.2v-0.8c0.8-0.2,1.4-0.5,1.7-0.9h0.8v8.1H130V30z"/>
	<path fill="#7EBAE3" d="M133.2,36.1c-0.3-0.4-0.5-1-0.5-1.8h1.1c0,0.5,0.1,0.8,0.2,1.1c0.1,0.3,0.4,0.4,0.7,0.4
		c0.3,0,0.5-0.1,0.6-0.2c0.1-0.2,0.2-0.4,0.3-0.6c0-0.3,0.1-0.6,0.1-1.1c0-0.4,0-0.7-0.1-1c0-0.2-0.1-0.4-0.3-0.6s-0.3-0.2-0.6-0.2
		c-0.2,0-0.4,0.1-0.5,0.2c-0.2,0.1-0.3,0.3-0.4,0.5h-0.9v-4.3h3.5v1.1h-2.5l-0.1,2.2c0.3-0.3,0.7-0.4,1.2-0.4c0.6,0,1.1,0.2,1.3,0.6
		s0.4,1,0.4,1.8c0,0.9-0.2,1.6-0.5,2.1s-0.8,0.8-1.6,0.8C134,36.7,133.5,36.5,133.2,36.1z"/>
	<path fill="#7EBAE3" d="M137.5,31.8h0.7l0.9,3.9l0.9-3.9h0.7l0.1,4.9h-0.5l-0.1-3.5l-0.8,3.5h-0.4l-0.8-3.5l-0.1,3.5h-0.6
		L137.5,31.8z"/>
	<path fill="#7EBAE3" d="M143,31.4h1.1v1.1H143V31.4z M143,34.6h1.1v1.1H143V34.6z"/>
	<path fill="#7EBAE3" d="M147.5,36.2c-0.3-0.4-0.5-0.9-0.5-1.5v-0.3h1.1v0.2c0,0.4,0.1,0.7,0.2,0.9c0.1,0.2,0.4,0.3,0.7,0.3
		c0.4,0,0.6-0.1,0.7-0.4s0.2-0.6,0.2-1.1c0-0.5-0.1-0.8-0.3-1.1c-0.2-0.3-0.4-0.4-0.8-0.4c0,0-0.1,0-0.2,0v-1.1h0.1
		c0.4,0,0.7-0.1,0.8-0.3c0.2-0.2,0.3-0.5,0.3-0.9c0-0.4-0.1-0.7-0.2-0.9c-0.1-0.2-0.4-0.3-0.7-0.3s-0.6,0.1-0.7,0.3
		c-0.1,0.2-0.2,0.5-0.2,1v0.2H147v-0.3c0-0.7,0.2-1.2,0.5-1.5c0.3-0.4,0.8-0.5,1.5-0.5s1.1,0.2,1.5,0.5c0.3,0.4,0.5,0.9,0.5,1.5
		c0,0.5-0.1,0.9-0.3,1.2c-0.2,0.3-0.5,0.5-0.9,0.6c0.4,0.1,0.7,0.3,0.9,0.7c0.2,0.3,0.3,0.8,0.3,1.3c0,0.8-0.2,1.3-0.5,1.8
		c-0.3,0.4-0.8,0.6-1.5,0.6C148.4,36.7,147.9,36.6,147.5,36.2z"/>
	<path fill="#7EBAE3" d="M152.5,36.1c-0.3-0.4-0.5-1-0.5-1.7v-3.5c0-0.7,0.2-1.3,0.5-1.7s0.8-0.6,1.5-0.6c0.7,0,1.2,0.2,1.5,0.6
		s0.5,1,0.5,1.7v3.5c0,0.7-0.2,1.3-0.5,1.7c-0.3,0.4-0.8,0.6-1.5,0.6S152.8,36.5,152.5,36.1z M154.9,34.4v-3.5
		c0-0.5-0.1-0.8-0.2-1.1c-0.1-0.3-0.4-0.4-0.7-0.4s-0.6,0.1-0.7,0.4c-0.1,0.3-0.2,0.6-0.2,1.1v3.5c0,1,0.3,1.5,0.9,1.5
		C154.6,35.9,154.9,35.4,154.9,34.4z"/>
	<path fill="#7EBAE3" d="M157.2,36.3c-0.2-0.3-0.3-0.6-0.4-1l0.6-0.2c0,0.3,0.1,0.6,0.2,0.8c0.1,0.2,0.3,0.3,0.5,0.3
		c0.2,0,0.3,0,0.4-0.1c0.1-0.1,0.1-0.2,0.1-0.4c0-0.2,0-0.4-0.1-0.5c-0.1-0.1-0.2-0.3-0.4-0.4l-0.8-0.7c-0.2-0.1-0.3-0.3-0.4-0.5
		c-0.1-0.2-0.1-0.4-0.1-0.6c0-0.4,0.1-0.6,0.3-0.8s0.5-0.3,0.8-0.3c0.4,0,0.7,0.1,0.9,0.3s0.3,0.5,0.4,0.9l-0.6,0.2
		c0-0.3-0.1-0.5-0.2-0.7s-0.3-0.2-0.5-0.2c-0.2,0-0.3,0-0.4,0.1c-0.1,0.1-0.1,0.2-0.1,0.4c0,0.1,0,0.3,0.1,0.4s0.1,0.2,0.2,0.3
		l0.8,0.7c0.2,0.2,0.4,0.4,0.5,0.6s0.2,0.5,0.2,0.8c0,0.4-0.1,0.6-0.3,0.8c-0.2,0.2-0.5,0.3-0.8,0.3
		C157.7,36.7,157.4,36.6,157.2,36.3z"/>
</g>
</svg>
