<?xml version="1.0" encoding="utf-8"?>
<!-- Generator: Adobe Illustrator 15.0.0, SVG Export Plug-In . SVG Version: 6.00 Build 0)  -->
<!DOCTYPE svg PUBLIC "-//W3C//DTD SVG 1.1//EN" "http://www.w3.org/Graphics/SVG/1.1/DTD/svg11.dtd" [
	<!ENTITY ns_flows "http://ns.adobe.com/Flows/1.0/">
	<!ENTITY ns_extend "http://ns.adobe.com/Extensibility/1.0/">
	<!ENTITY ns_ai "http://ns.adobe.com/AdobeIllustrator/10.0/">
	<!ENTITY ns_graphs "http://ns.adobe.com/Graphs/1.0/">
]>
<svg version="1.1" id="Layer_1" xmlns:x="&ns_extend;" xmlns:i="&ns_ai;" xmlns:graph="&ns_graphs;"
	 xmlns="http://www.w3.org/2000/svg" xmlns:xlink="http://www.w3.org/1999/xlink" xmlns:a="http://ns.adobe.com/AdobeSVGViewerExtensions/3.0/"
	 x="0px" y="0px" width="256px" height="57px" viewBox="0 0 256 57" enable-background="new 0 0 256 57" xml:space="preserve">
<rect x="0.5" y="0.5" fill="#FFFFFF" stroke="#B3E4FF" stroke-miterlimit="10" width="255" height="56"/>
<g>
	<path fill="#7EBAE3" d="M64.7,30.9H66c0.6,0,1,0.1,1.3,0.4c0.3,0.3,0.4,0.7,0.4,1.3v2.1c0,0.6-0.1,1.1-0.4,1.4
		c-0.3,0.3-0.7,0.5-1.2,0.5h-1.3V30.9z M66,36c0.3,0,0.5-0.1,0.6-0.2c0.1-0.1,0.2-0.3,0.2-0.4c0-0.2,0-0.5,0-0.8v-1.8
		c0-0.3,0-0.6-0.1-0.7c0-0.2-0.1-0.3-0.2-0.4c-0.1-0.1-0.3-0.1-0.6-0.1h-0.4V36H66z"/>
	<path fill="#7EBAE3" d="M68.7,36.5c-0.1-0.1-0.2-0.2-0.3-0.3c-0.1-0.1-0.1-0.3-0.1-0.5c0-0.3,0.1-0.6,0.2-0.8
		c0.1-0.2,0.3-0.4,0.5-0.5s0.5-0.3,0.9-0.4v-0.3c0-0.3,0-0.5-0.1-0.6c-0.1-0.1-0.2-0.2-0.3-0.2c-0.3,0-0.4,0.2-0.4,0.6v0.2l-0.7,0
		c0-0.4,0.1-0.8,0.3-1c0.2-0.2,0.5-0.3,0.9-0.3c0.4,0,0.7,0.1,0.8,0.3c0.2,0.2,0.3,0.5,0.3,1v1.8c0,0.3,0,0.6,0.1,1H70
		c-0.1-0.3-0.1-0.5-0.1-0.6c-0.1,0.2-0.2,0.3-0.3,0.5s-0.3,0.2-0.5,0.2C68.9,36.6,68.8,36.6,68.7,36.5z M69.7,35.9
		c0.1-0.1,0.2-0.2,0.2-0.2v-1.1c-0.2,0.1-0.4,0.2-0.5,0.3c-0.1,0.1-0.2,0.2-0.3,0.3S69,35.3,69,35.5c0,0.2,0,0.3,0.1,0.4
		s0.1,0.1,0.3,0.1C69.5,36,69.6,36,69.7,35.9z"/>
	<path fill="#7EBAE3" d="M71.3,37c0.3,0,0.5,0,0.6-0.1c0.1,0,0.2-0.1,0.2-0.2c0-0.1-0.1-0.3-0.2-0.7L71,32.5h0.8l0.5,3l0.5-3h0.8
		l-1,4.3c-0.1,0.3-0.2,0.5-0.4,0.6s-0.5,0.2-0.9,0.2h-0.1V37z"/>
	<path fill="#7EBAE3" d="M74.2,36.3c-0.2-0.2-0.3-0.5-0.3-0.8l0.6-0.2c0,0.3,0.1,0.5,0.2,0.6c0.1,0.1,0.2,0.2,0.4,0.2
		c0.1,0,0.2,0,0.3-0.1c0.1-0.1,0.1-0.2,0.1-0.3c0-0.1,0-0.2-0.1-0.3c-0.1-0.1-0.1-0.2-0.3-0.3l-0.7-0.6c-0.2-0.1-0.3-0.3-0.4-0.4
		C74,33.9,74,33.7,74,33.5c0-0.3,0.1-0.6,0.3-0.7c0.2-0.2,0.4-0.3,0.8-0.3c0.3,0,0.5,0.1,0.7,0.3c0.2,0.2,0.3,0.5,0.3,0.8l-0.5,0.2
		c0-0.2-0.1-0.4-0.2-0.5C75.3,33.1,75.2,33,75,33c-0.1,0-0.2,0-0.3,0.1c-0.1,0.1-0.1,0.2-0.1,0.3c0,0.1,0.1,0.3,0.2,0.4l0.7,0.7
		c0.2,0.2,0.3,0.3,0.4,0.5c0.1,0.2,0.2,0.4,0.2,0.6c0,0.3-0.1,0.6-0.3,0.8c-0.2,0.2-0.5,0.3-0.8,0.3C74.7,36.6,74.4,36.5,74.2,36.3z
		"/>
</g>
<g>
	<path fill="#7EBAE3" d="M66.2,26.6c-0.3-0.4-0.5-1-0.5-1.7v-3.5c0-0.7,0.2-1.3,0.5-1.7c0.3-0.4,0.8-0.6,1.5-0.6
		c0.7,0,1.2,0.2,1.5,0.6c0.3,0.4,0.5,1,0.5,1.7v3.5c0,0.7-0.2,1.3-0.5,1.7c-0.3,0.4-0.8,0.6-1.5,0.6S66.6,27.1,66.2,26.6z
		 M68.6,24.9v-3.5c0-0.5-0.1-0.8-0.2-1.1c-0.1-0.3-0.4-0.4-0.7-0.4S67.1,20,67,20.3c-0.1,0.3-0.2,0.6-0.2,1.1v3.5
		c0,1,0.3,1.5,0.9,1.5C68.3,26.4,68.6,25.9,68.6,24.9z"/>
	<path fill="#7EBAE3" d="M71.4,26.6c-0.3-0.4-0.5-1-0.5-1.7v-3.5c0-0.7,0.2-1.3,0.5-1.7c0.3-0.4,0.8-0.6,1.5-0.6
		c0.7,0,1.2,0.2,1.5,0.6c0.3,0.4,0.5,1,0.5,1.7v3.5c0,0.7-0.2,1.3-0.5,1.7c-0.3,0.4-0.8,0.6-1.5,0.6S71.7,27.1,71.4,26.6z
		 M73.8,24.9v-3.5c0-0.5-0.1-0.8-0.2-1.1c-0.1-0.3-0.4-0.4-0.7-0.4s-0.6,0.1-0.7,0.4C72,20.6,72,20.9,72,21.4v3.5
		c0,1,0.3,1.5,0.9,1.5C73.5,26.4,73.8,25.9,73.8,24.9z"/>
</g>
<circle fill="none" stroke="#7EBAE3" stroke-miterlimit="10" cx="70.3" cy="28.8" r="15.2"/>
<g>
	<path fill="#7EBAE3" d="M97,30.9h0.8v2.5h1.5v-2.5h0.8v5.7h-0.8v-2.7h-1.5v2.7H97V30.9z"/>
	<path fill="#7EBAE3" d="M101.1,36.3c-0.2-0.3-0.3-0.6-0.3-1.1V34c0-0.5,0.1-0.9,0.3-1.1c0.2-0.3,0.5-0.4,0.9-0.4
		c0.4,0,0.7,0.1,0.9,0.4c0.2,0.3,0.3,0.6,0.3,1.1v1.2c0,0.5-0.1,0.9-0.3,1.1s-0.5,0.4-0.9,0.4C101.6,36.6,101.3,36.5,101.1,36.3z
		 M102.3,36c0.1-0.1,0.1-0.2,0.1-0.3c0-0.1,0-0.3,0-0.5v-1.3c0-0.2,0-0.4,0-0.5c0-0.1-0.1-0.2-0.1-0.3c-0.1-0.1-0.2-0.1-0.3-0.1
		c-0.1,0-0.2,0-0.3,0.1c-0.1,0.1-0.1,0.2-0.1,0.3c0,0.1,0,0.3,0,0.5v1.3c0,0.2,0,0.4,0,0.5s0.1,0.2,0.1,0.3c0.1,0.1,0.2,0.1,0.3,0.1
		C102.1,36.1,102.2,36,102.3,36z"/>
	<path fill="#7EBAE3" d="M104,36.4c-0.1-0.2-0.1-0.4-0.1-0.6v-3.3h0.7v3.1c0,0.2,0,0.3,0.1,0.3s0.1,0.1,0.3,0.1
		c0.1,0,0.3-0.1,0.5-0.3v-3.3h0.7v4h-0.7v-0.4c-0.3,0.3-0.7,0.5-1,0.5C104.2,36.6,104.1,36.6,104,36.4z"/>
	<path fill="#7EBAE3" d="M107,32.5h0.7v0.6c0.1-0.2,0.3-0.4,0.4-0.5c0.1-0.1,0.3-0.1,0.5-0.1c0,0,0.1,0,0.1,0v0.8
		c-0.1-0.1-0.3-0.1-0.4-0.1c-0.1,0-0.2,0-0.3,0.1s-0.2,0.2-0.3,0.3v3H107V32.5z"/>
	<path fill="#7EBAE3" d="M109.3,36.3c-0.2-0.2-0.3-0.5-0.3-0.8l0.6-0.2c0,0.3,0.1,0.5,0.2,0.6c0.1,0.1,0.2,0.2,0.4,0.2
		c0.1,0,0.2,0,0.3-0.1c0.1-0.1,0.1-0.2,0.1-0.3c0-0.1,0-0.2-0.1-0.3c-0.1-0.1-0.1-0.2-0.3-0.3l-0.7-0.6c-0.2-0.1-0.3-0.3-0.4-0.4
		c-0.1-0.2-0.1-0.3-0.1-0.6c0-0.3,0.1-0.6,0.3-0.7c0.2-0.2,0.4-0.3,0.8-0.3c0.3,0,0.5,0.1,0.7,0.3c0.2,0.2,0.3,0.5,0.3,0.8l-0.5,0.2
		c0-0.2-0.1-0.4-0.2-0.5c-0.1-0.1-0.2-0.2-0.3-0.2c-0.1,0-0.2,0-0.3,0.1c-0.1,0.1-0.1,0.2-0.1,0.3c0,0.1,0.1,0.3,0.2,0.4l0.7,0.7
		c0.2,0.2,0.3,0.3,0.4,0.5c0.1,0.2,0.2,0.4,0.2,0.6c0,0.3-0.1,0.6-0.3,0.8c-0.2,0.2-0.5,0.3-0.8,0.3
		C109.8,36.6,109.5,36.5,109.3,36.3z"/>
</g>
<g>
	<path fill="#7EBAE3" d="M99.9,26.6c-0.3-0.4-0.5-1-0.5-1.7v-3.5c0-0.7,0.2-1.3,0.5-1.7c0.3-0.4,0.8-0.6,1.5-0.6
		c0.7,0,1.2,0.2,1.5,0.6c0.3,0.4,0.5,1,0.5,1.7v3.5c0,0.7-0.2,1.3-0.5,1.7c-0.3,0.4-0.8,0.6-1.5,0.6S100.3,27.1,99.9,26.6z
		 M102.3,24.9v-3.5c0-0.5-0.1-0.8-0.2-1.1c-0.1-0.3-0.4-0.4-0.7-0.4s-0.6,0.1-0.7,0.4c-0.1,0.3-0.2,0.6-0.2,1.1v3.5
		c0,1,0.3,1.5,0.9,1.5C102,26.4,102.3,25.9,102.3,24.9z"/>
	<path fill="#7EBAE3" d="M105.1,26.6c-0.3-0.4-0.5-1-0.5-1.7v-3.5c0-0.7,0.2-1.3,0.5-1.7c0.3-0.4,0.8-0.6,1.5-0.6
		c0.7,0,1.2,0.2,1.5,0.6c0.3,0.4,0.5,1,0.5,1.7v3.5c0,0.7-0.2,1.3-0.5,1.7c-0.3,0.4-0.8,0.6-1.5,0.6S105.4,27.1,105.1,26.6z
		 M107.5,24.9v-3.5c0-0.5-0.1-0.8-0.2-1.1c-0.1-0.3-0.4-0.4-0.7-0.4s-0.6,0.1-0.7,0.4c-0.1,0.3-0.2,0.6-0.2,1.1v3.5
		c0,1,0.3,1.5,0.9,1.5C107.2,26.4,107.5,25.9,107.5,24.9z"/>
</g>
<circle fill="none" stroke="#7EBAE3" stroke-miterlimit="10" cx="104.3" cy="28.8" r="15.2"/>
<g>
	<path fill="#7EBAE3" d="M129.1,30.9h0.8l1,4.6l1-4.6h0.8l0.1,5.7h-0.6l-0.1-4.1l-1,4.1h-0.4l-1-4.1l-0.1,4.1H129L129.1,30.9z"/>
	<path fill="#7EBAE3" d="M133.6,31.1h0.8v0.8h-0.8V31.1z M133.6,32.5h0.8v4h-0.8V32.5z"/>
	<path fill="#7EBAE3" d="M135.2,32.5h0.7v0.4c0.3-0.3,0.7-0.5,1-0.5c0.2,0,0.4,0.1,0.5,0.2c0.1,0.2,0.1,0.4,0.1,0.6v3.3h-0.7v-3.1
		c0-0.2,0-0.3-0.1-0.3c0-0.1-0.1-0.1-0.3-0.1c-0.1,0-0.3,0.1-0.5,0.3v3.3h-0.7V32.5z"/>
	<path fill="#7EBAE3" d="M138.4,36.4c-0.1-0.2-0.1-0.4-0.1-0.6v-3.3h0.7v3.1c0,0.2,0,0.3,0.1,0.3s0.1,0.1,0.3,0.1
		c0.2,0,0.3-0.1,0.5-0.3v-3.3h0.8v4h-0.8v-0.4c-0.3,0.3-0.7,0.5-1,0.5C138.6,36.6,138.5,36.6,138.4,36.4z"/>
	<path fill="#7EBAE3" d="M141.5,35.7V33h-0.4v-0.5h0.4v-1.2h0.8v1.2h0.7V33h-0.7v2.6c0,0.2,0,0.3,0.1,0.3c0.1,0.1,0.2,0.1,0.3,0.1
		c0.1,0,0.2,0,0.3,0v0.6c-0.2,0-0.4,0-0.5,0C141.8,36.6,141.5,36.3,141.5,35.7z"/>
	<path fill="#7EBAE3" d="M143.9,36.5c-0.2-0.1-0.3-0.3-0.4-0.5c-0.1-0.2-0.1-0.5-0.1-0.9v-0.9c0-0.6,0.1-1,0.3-1.2
		c0.2-0.3,0.5-0.4,0.9-0.4c0.3,0,0.6,0.1,0.7,0.2c0.2,0.1,0.3,0.3,0.3,0.6c0.1,0.2,0.1,0.6,0.1,1v0.3h-1.6v0.8c0,0.2,0,0.4,0.1,0.5
		s0.2,0.2,0.3,0.2s0.3-0.1,0.3-0.2c0.1-0.1,0.1-0.3,0.1-0.5v-0.2h0.7v0.2c0,0.4-0.1,0.7-0.3,1c-0.2,0.2-0.5,0.3-0.9,0.3
		C144.3,36.6,144.1,36.6,143.9,36.5z M145,34.2v-0.4c0-0.3,0-0.5-0.1-0.6c-0.1-0.1-0.2-0.2-0.3-0.2c-0.1,0-0.2,0-0.3,0.1
		s-0.1,0.1-0.1,0.3s0,0.3,0,0.6v0.2H145z"/>
	<path fill="#7EBAE3" d="M146.6,36.3c-0.2-0.2-0.3-0.5-0.3-0.8l0.6-0.2c0,0.3,0.1,0.5,0.2,0.6c0.1,0.1,0.2,0.2,0.4,0.2
		c0.1,0,0.2,0,0.3-0.1c0.1-0.1,0.1-0.2,0.1-0.3c0-0.1,0-0.2-0.1-0.3c-0.1-0.1-0.1-0.2-0.3-0.3l-0.7-0.6c-0.2-0.1-0.3-0.3-0.4-0.4
		c-0.1-0.2-0.1-0.3-0.1-0.6c0-0.3,0.1-0.6,0.3-0.7c0.2-0.2,0.4-0.3,0.8-0.3c0.3,0,0.5,0.1,0.7,0.3s0.3,0.5,0.3,0.8l-0.5,0.2
		c0-0.2-0.1-0.4-0.2-0.5c-0.1-0.1-0.2-0.2-0.3-0.2c-0.1,0-0.2,0-0.3,0.1c-0.1,0.1-0.1,0.2-0.1,0.3c0,0.1,0.1,0.3,0.2,0.4l0.7,0.7
		c0.2,0.2,0.3,0.3,0.4,0.5c0.1,0.2,0.2,0.4,0.2,0.6c0,0.3-0.1,0.6-0.3,0.8c-0.2,0.2-0.5,0.3-0.8,0.3
		C147.1,36.6,146.8,36.5,146.6,36.3z"/>
</g>
<g>
	<path fill="#7EBAE3" d="M135.5,20.5c0,0-0.2,0.1-0.6,0.1c-0.4,0.1-0.7,0.1-0.8,0.1V20c0.8-0.2,1.4-0.5,1.7-0.9h0.8v8.1h-1.1V20.5z"
		/>
	<path fill="#7EBAE3" d="M138.7,26.7c-0.3-0.4-0.5-1-0.5-1.8h1.1c0,0.5,0.1,0.8,0.2,1.1c0.1,0.3,0.4,0.4,0.7,0.4
		c0.3,0,0.5-0.1,0.6-0.2c0.1-0.2,0.2-0.4,0.3-0.6c0-0.3,0.1-0.6,0.1-1.1c0-0.4,0-0.7-0.1-1c0-0.2-0.1-0.4-0.3-0.6
		c-0.1-0.1-0.3-0.2-0.6-0.2c-0.2,0-0.4,0.1-0.5,0.2c-0.2,0.1-0.3,0.3-0.4,0.5h-0.9v-4.3h3.5v1.1h-2.5l-0.1,2.2
		c0.3-0.3,0.7-0.5,1.2-0.5c0.6,0,1.1,0.2,1.3,0.6s0.4,1,0.4,1.8c0,0.9-0.2,1.6-0.5,2.1c-0.3,0.5-0.8,0.8-1.6,0.8
		C139.5,27.3,139,27.1,138.7,26.7z"/>
</g>
<circle fill="none" stroke="#7EBAE3" stroke-miterlimit="10" cx="138.3" cy="28.8" r="15.2"/>
<g>
	<path fill="#7EBAE3" d="M163.3,36.2c-0.3-0.3-0.4-0.7-0.4-1.2l0.7-0.2c0,0.4,0.1,0.7,0.2,0.9c0.1,0.2,0.3,0.3,0.6,0.3
		c0.2,0,0.4-0.1,0.5-0.2s0.2-0.3,0.2-0.5c0-0.2-0.1-0.4-0.1-0.6s-0.3-0.3-0.5-0.5l-1-0.8c-0.2-0.2-0.3-0.3-0.4-0.5
		c-0.1-0.2-0.1-0.4-0.1-0.7c0-0.4,0.1-0.7,0.4-1s0.6-0.3,1-0.3c0.4,0,0.8,0.1,1,0.4s0.4,0.6,0.4,1.1l-0.7,0.2c0-0.3-0.1-0.6-0.2-0.8
		c-0.1-0.2-0.3-0.3-0.6-0.3c-0.2,0-0.4,0.1-0.5,0.2c-0.1,0.1-0.2,0.3-0.2,0.5c0,0.2,0,0.3,0.1,0.4c0.1,0.1,0.2,0.2,0.3,0.3l1,0.8
		c0.2,0.2,0.4,0.5,0.6,0.7c0.1,0.3,0.2,0.5,0.2,0.9c0,0.4-0.1,0.7-0.4,1s-0.6,0.4-1,0.4C163.9,36.6,163.5,36.5,163.3,36.2z"/>
	<path fill="#7EBAE3" d="M166.7,36.5c-0.2-0.1-0.3-0.3-0.4-0.5c-0.1-0.2-0.1-0.5-0.1-0.9v-0.9c0-0.6,0.1-1,0.3-1.2
		c0.2-0.3,0.5-0.4,0.9-0.4c0.3,0,0.6,0.1,0.7,0.2c0.2,0.1,0.3,0.3,0.3,0.6c0.1,0.2,0.1,0.6,0.1,1v0.3h-1.6v0.8c0,0.2,0,0.4,0.1,0.5
		s0.2,0.2,0.3,0.2s0.3-0.1,0.3-0.2c0.1-0.1,0.1-0.3,0.1-0.5v-0.2h0.7v0.2c0,0.4-0.1,0.7-0.3,1c-0.2,0.2-0.5,0.3-0.9,0.3
		C167.1,36.6,166.8,36.6,166.7,36.5z M167.8,34.2v-0.4c0-0.3,0-0.5-0.1-0.6c-0.1-0.1-0.2-0.2-0.3-0.2c-0.1,0-0.2,0-0.3,0.1
		s-0.1,0.1-0.1,0.3s0,0.3,0,0.6v0.2H167.8z"/>
	<path fill="#7EBAE3" d="M169.6,36.4c-0.2-0.1-0.3-0.3-0.4-0.5c-0.1-0.2-0.1-0.5-0.1-0.9v-0.9c0-0.4,0-0.7,0.1-0.9
		c0.1-0.2,0.2-0.4,0.4-0.5c0.2-0.1,0.4-0.2,0.7-0.2c0.3,0,0.5,0,0.7,0.1c0.2,0.1,0.3,0.2,0.3,0.4c0.1,0.2,0.1,0.4,0.1,0.7V34h-0.7
		v-0.2c0-0.3,0-0.5-0.1-0.6s-0.2-0.2-0.3-0.2c-0.1,0-0.2,0-0.3,0.1s-0.1,0.1-0.1,0.3c0,0.1,0,0.3,0,0.6v1.3c0,0.2,0,0.4,0,0.5
		c0,0.1,0.1,0.2,0.1,0.3c0.1,0,0.2,0.1,0.3,0.1c0.2,0,0.3-0.1,0.3-0.2c0.1-0.1,0.1-0.3,0.1-0.5v-0.3h0.7v0.3c0,0.4-0.1,0.8-0.2,1
		c-0.2,0.2-0.4,0.3-0.9,0.3C170,36.6,169.8,36.6,169.6,36.4z"/>
	<path fill="#7EBAE3" d="M172.3,36.3c-0.2-0.3-0.3-0.6-0.3-1.1V34c0-0.5,0.1-0.9,0.3-1.1c0.2-0.3,0.5-0.4,0.9-0.4
		c0.4,0,0.7,0.1,0.9,0.4c0.2,0.3,0.3,0.6,0.3,1.1v1.2c0,0.5-0.1,0.9-0.3,1.1s-0.5,0.4-0.9,0.4C172.8,36.6,172.5,36.5,172.3,36.3z
		 M173.5,36c0.1-0.1,0.1-0.2,0.1-0.3c0-0.1,0-0.3,0-0.5v-1.3c0-0.2,0-0.4,0-0.5c0-0.1-0.1-0.2-0.1-0.3c-0.1-0.1-0.2-0.1-0.3-0.1
		c-0.1,0-0.2,0-0.3,0.1c-0.1,0.1-0.1,0.2-0.1,0.3c0,0.1,0,0.3,0,0.5v1.3c0,0.2,0,0.4,0,0.5s0.1,0.2,0.1,0.3c0.1,0.1,0.2,0.1,0.3,0.1
		C173.3,36.1,173.4,36,173.5,36z"/>
	<path fill="#7EBAE3" d="M175.1,32.5h0.7v0.4c0.3-0.3,0.7-0.5,1-0.5c0.2,0,0.4,0.1,0.5,0.2c0.1,0.2,0.1,0.4,0.1,0.6v3.3h-0.7v-3.1
		c0-0.2,0-0.3-0.1-0.3c0-0.1-0.1-0.1-0.3-0.1c-0.1,0-0.3,0.1-0.5,0.3v3.3h-0.7V32.5z"/>
	<path fill="#7EBAE3" d="M178.3,36.3c-0.2-0.3-0.2-0.7-0.2-1.3v-0.8c0-0.5,0.1-1,0.2-1.3c0.1-0.3,0.4-0.5,0.8-0.5
		c0.2,0,0.5,0.1,0.7,0.3v-1.9h0.7v5.7h-0.7v-0.3c-0.2,0.2-0.4,0.3-0.7,0.3C178.7,36.6,178.5,36.5,178.3,36.3z M179.7,35.9v-2.7
		c-0.2-0.1-0.3-0.2-0.5-0.2c-0.3,0-0.4,0.3-0.4,0.8v1.1c0,0.3,0,0.6,0.1,0.7s0.2,0.3,0.4,0.3C179.4,36,179.6,36,179.7,35.9z"/>
	<path fill="#7EBAE3" d="M181.4,36.3c-0.2-0.2-0.3-0.5-0.3-0.8l0.6-0.2c0,0.3,0.1,0.5,0.2,0.6c0.1,0.1,0.2,0.2,0.4,0.2
		c0.1,0,0.2,0,0.3-0.1c0.1-0.1,0.1-0.2,0.1-0.3c0-0.1,0-0.2-0.1-0.3s-0.1-0.2-0.3-0.3l-0.7-0.6c-0.2-0.1-0.3-0.3-0.4-0.4
		c-0.1-0.2-0.1-0.3-0.1-0.6c0-0.3,0.1-0.6,0.3-0.7c0.2-0.2,0.4-0.3,0.8-0.3c0.3,0,0.5,0.1,0.7,0.3c0.2,0.2,0.3,0.5,0.3,0.8l-0.5,0.2
		c0-0.2-0.1-0.4-0.2-0.5s-0.2-0.2-0.3-0.2c-0.1,0-0.2,0-0.3,0.1c-0.1,0.1-0.1,0.2-0.1,0.3c0,0.1,0.1,0.3,0.2,0.4l0.7,0.7
		c0.2,0.2,0.3,0.3,0.4,0.5c0.1,0.2,0.2,0.4,0.2,0.6c0,0.3-0.1,0.6-0.3,0.8s-0.5,0.3-0.8,0.3C181.8,36.6,181.6,36.5,181.4,36.3z"/>
</g>
<g>
	<path fill="#7EBAE3" d="M169.7,26.7c-0.3-0.4-0.5-0.9-0.5-1.5v-0.3h1.1v0.2c0,0.4,0.1,0.7,0.2,1c0.1,0.2,0.4,0.3,0.7,0.3
		c0.4,0,0.6-0.1,0.7-0.4c0.1-0.3,0.2-0.6,0.2-1.1c0-0.5-0.1-0.8-0.3-1.1c-0.2-0.3-0.4-0.4-0.8-0.4c0,0-0.1,0-0.2,0v-1.1h0.1
		c0.4,0,0.7-0.1,0.8-0.3c0.2-0.2,0.3-0.5,0.3-0.9c0-0.4-0.1-0.7-0.2-0.9c-0.1-0.2-0.4-0.3-0.7-0.3c-0.3,0-0.6,0.1-0.7,0.3
		c-0.1,0.2-0.2,0.5-0.2,1v0.2h-1.1v-0.3c0-0.7,0.2-1.2,0.5-1.5c0.3-0.4,0.8-0.5,1.5-0.5c0.7,0,1.1,0.2,1.5,0.5
		c0.3,0.4,0.5,0.9,0.5,1.5c0,0.5-0.1,0.9-0.3,1.2c-0.2,0.3-0.5,0.5-0.9,0.6c0.4,0.1,0.7,0.3,0.9,0.7s0.3,0.8,0.3,1.3
		c0,0.8-0.2,1.3-0.5,1.8c-0.3,0.4-0.8,0.6-1.5,0.6C170.6,27.3,170.1,27.1,169.7,26.7z"/>
	<path fill="#7EBAE3" d="M174.7,26.6c-0.3-0.4-0.5-1-0.5-1.7v-3.5c0-0.7,0.2-1.3,0.5-1.7c0.3-0.4,0.8-0.6,1.5-0.6
		c0.7,0,1.2,0.2,1.5,0.6c0.3,0.4,0.5,1,0.5,1.7v3.5c0,0.7-0.2,1.3-0.5,1.7c-0.3,0.4-0.8,0.6-1.5,0.6C175.5,27.3,175,27.1,174.7,26.6
		z M177.1,24.9v-3.5c0-0.5-0.1-0.8-0.2-1.1s-0.4-0.4-0.7-0.4s-0.6,0.1-0.7,0.4s-0.2,0.6-0.2,1.1v3.5c0,1,0.3,1.5,0.9,1.5
		C176.8,26.4,177.1,25.9,177.1,24.9z"/>
</g>
<circle fill="none" stroke="#7EBAE3" stroke-miterlimit="10" cx="173.3" cy="28.8" r="15.2"/>
</svg>
