<?xml version="1.0" encoding="utf-8"?>
<!-- Generator: Adobe Illustrator 15.0.0, SVG Export Plug-In . SVG Version: 6.00 Build 0)  -->
<!DOCTYPE svg PUBLIC "-//W3C//DTD SVG 1.1//EN" "http://www.w3.org/Graphics/SVG/1.1/DTD/svg11.dtd" [
	<!ENTITY ns_flows "http://ns.adobe.com/Flows/1.0/">
	<!ENTITY ns_extend "http://ns.adobe.com/Extensibility/1.0/">
	<!ENTITY ns_ai "http://ns.adobe.com/AdobeIllustrator/10.0/">
	<!ENTITY ns_graphs "http://ns.adobe.com/Graphs/1.0/">
]>
<svg version="1.1" id="Layer_1" xmlns:x="&ns_extend;" xmlns:i="&ns_ai;" xmlns:graph="&ns_graphs;"
	 xmlns="http://www.w3.org/2000/svg" xmlns:xlink="http://www.w3.org/1999/xlink" xmlns:a="http://ns.adobe.com/AdobeSVGViewerExtensions/3.0/"
	 x="0px" y="0px" width="79px" height="59px" viewBox="0 0 79 59" enable-background="new 0 0 79 59" xml:space="preserve">
<rect x="0.5" y="0.5" fill="none" stroke="#B3E4FF" stroke-miterlimit="10" width="78" height="58"/>
<rect x="12" y="20" fill="#7EBAE3" width="55" height="17"/>
<polygon fill="#7EBAE3" stroke="#7EBAE3" stroke-miterlimit="10" points="4.5,26.8 9.2,29.5 4.5,32.2 "/>
<polygon fill="#7EBAE3" stroke="#7EBAE3" stroke-miterlimit="10" points="74.5,26.8 69.8,29.5 74.5,32.2 "/>
<g>
	<path fill="#FFFFFF" d="M31.6,24.8h1.9c0.7,0,1.3,0.2,1.6,0.5c0.4,0.3,0.5,0.8,0.5,1.5c0,1-0.4,1.6-1.2,1.7c0.5,0.1,0.8,0.3,1,0.7
		c0.2,0.3,0.3,0.8,0.3,1.4c0,0.7-0.2,1.3-0.5,1.7s-0.9,0.6-1.6,0.6h-2.2V24.8z M33.4,28.2c0.5,0,0.8-0.1,1-0.3
		c0.2-0.2,0.3-0.6,0.3-1c0-0.4-0.1-0.6-0.2-0.8c-0.1-0.2-0.3-0.3-0.5-0.3c-0.2,0-0.5-0.1-1-0.1h-0.3v2.5H33.4z M33.5,32.1
		c0.3,0,0.6-0.1,0.8-0.2s0.3-0.3,0.4-0.5c0.1-0.2,0.1-0.5,0.1-0.9c0-0.5-0.1-0.9-0.3-1.2c-0.2-0.3-0.6-0.4-1-0.4h-0.7v3H33.5z"/>
	<path fill="#FFFFFF" d="M37.2,32.3c-0.3-0.5-0.5-1.1-0.5-2v-3.1c0-0.8,0.2-1.5,0.5-1.9c0.3-0.4,0.9-0.6,1.7-0.6
		c0.8,0,1.4,0.2,1.7,0.7c0.3,0.4,0.5,1.1,0.5,1.9v3.1c0,0.8-0.2,1.5-0.5,1.9c-0.3,0.5-0.9,0.7-1.7,0.7C38.1,33,37.6,32.8,37.2,32.3z
		 M39.8,31.7c0.1-0.2,0.2-0.6,0.2-1.1v-3.6c0-0.5-0.1-0.9-0.2-1.1c-0.1-0.2-0.4-0.4-0.8-0.4c-0.4,0-0.7,0.1-0.9,0.4
		c-0.1,0.2-0.2,0.6-0.2,1.1v3.6c0,0.5,0.1,0.9,0.2,1.1c0.1,0.2,0.4,0.4,0.9,0.4C39.4,32.1,39.6,32,39.8,31.7z"/>
	<path fill="#FFFFFF" d="M43.5,28.7l-1.7-3.9h1l1.2,2.9l1.1-2.9h1l-1.7,4l1.8,4.1h-1l-1.3-3l-1.1,3h-1.1L43.5,28.7z"/>
</g>
</svg>
