<?xml version="1.0" encoding="utf-8"?>
<!-- Generator: Adobe Illustrator 15.0.0, SVG Export Plug-In . SVG Version: 6.00 Build 0)  -->
<!DOCTYPE svg PUBLIC "-//W3C//DTD SVG 1.1//EN" "http://www.w3.org/Graphics/SVG/1.1/DTD/svg11.dtd" [
	<!ENTITY ns_flows "http://ns.adobe.com/Flows/1.0/">
	<!ENTITY ns_extend "http://ns.adobe.com/Extensibility/1.0/">
	<!ENTITY ns_ai "http://ns.adobe.com/AdobeIllustrator/10.0/">
	<!ENTITY ns_graphs "http://ns.adobe.com/Graphs/1.0/">
]>
<svg version="1.1" id="Layer_1" xmlns:x="&ns_extend;" xmlns:i="&ns_ai;" xmlns:graph="&ns_graphs;"
	 xmlns="http://www.w3.org/2000/svg" xmlns:xlink="http://www.w3.org/1999/xlink" xmlns:a="http://ns.adobe.com/AdobeSVGViewerExtensions/3.0/"
	 x="0px" y="0px" width="79px" height="59px" viewBox="0 0 79 59" enable-background="new 0 0 79 59" xml:space="preserve">
<rect x="0.5" y="0.5" fill="none" stroke="#B3E4FF" stroke-miterlimit="10" width="78" height="58"/>
<rect x="1" y="21" fill="#7EBAE3" width="77" height="17"/>
<polygon fill="#FFFFFF" stroke="#F0EFEF" stroke-miterlimit="10" points="8.5,32.2 3.8,29.4 8.5,26.7 "/>
<polygon fill="#FFFFFF" stroke="#F0EFEF" stroke-miterlimit="10" points="69.5,26.7 74.2,29.4 69.5,32.2 "/>
<g>
	<path fill="#FFFFFF" d="M18,25.2h3.1V26h-2v2.7h1.6v0.8h-1.6v3.8H18V25.2z"/>
	<path fill="#FFFFFF" d="M22.7,33.1c-0.3-0.2-0.5-0.5-0.7-0.9c-0.1-0.4-0.2-0.9-0.2-1.5v-5.4h1.1v5.4c0,0.6,0.1,1.1,0.2,1.4
		c0.1,0.3,0.4,0.5,0.9,0.5c0.4,0,0.7-0.2,0.9-0.5s0.2-0.8,0.2-1.4v-5.4h1.1v5.4c0,0.6-0.1,1.1-0.2,1.5s-0.3,0.7-0.6,0.9
		s-0.8,0.3-1.3,0.3C23.4,33.4,23,33.3,22.7,33.1z"/>
	<path fill="#FFFFFF" d="M27.3,25.2h1.1v7.3h2.1v0.8h-3.2V25.2z"/>
	<path fill="#FFFFFF" d="M31.3,25.2h1.1v7.3h2.1v0.8h-3.2V25.2z"/>
	<path fill="#FFFFFF" d="M37.3,25.2h0.9l0.9,5.8l1.1-5.8H41l1.1,5.8l0.8-5.8h0.9l-1.3,8.1h-0.8l-1.1-6l-1.1,6h-0.9L37.3,25.2z"/>
	<path fill="#FFFFFF" d="M44.9,25.2H46v8.1h-1.1V25.2z"/>
	<path fill="#FFFFFF" d="M47.3,25.2h1.8c0.9,0,1.5,0.2,1.9,0.6s0.5,1,0.5,1.9v3c0,0.9-0.2,1.6-0.5,2c-0.4,0.4-0.9,0.7-1.8,0.7h-1.8
		V25.2z M49.1,32.5c0.4,0,0.7-0.1,0.9-0.2c0.2-0.2,0.3-0.4,0.3-0.6s0.1-0.7,0.1-1.2v-2.6c0-0.5,0-0.8-0.1-1.1s-0.2-0.4-0.4-0.5
		s-0.5-0.2-0.8-0.2h-0.6v6.4H49.1z"/>
	<path fill="#FFFFFF" d="M53.5,26.1h-1.4v-0.8h3.8v0.8h-1.3v7.3h-1.1V26.1z"/>
	<path fill="#FFFFFF" d="M56.7,25.2h1.1v3.5h2.1v-3.5h1.1v8.1h-1.1v-3.8h-2.1v3.8h-1.1V25.2z"/>
</g>
</svg>
