<?xml version="1.0" encoding="UTF-8"?>
<svg width="770px" height="223px" viewBox="0 0 770 223" version="1.1" xmlns="http://www.w3.org/2000/svg" xmlns:xlink="http://www.w3.org/1999/xlink">
    <!-- Generator: Sketch 64 (93537) - https://sketch.com -->
    <title>Caddy</title>
    <desc>Created with Sketch.</desc>
    <g id="Page-1" stroke="none" stroke-width="1" fill="none" fill-rule="evenodd">
        <g id="Desktop-Copy-3" transform="translate(-601.000000, -391.000000)" fill="#000000" fill-rule="nonzero">
            <path d="M690.37,564.6 C731.19,564.6 752.51,541.46 759.27,528.98 L751.73,522.48 C738.21,537.56 722.61,540.68 711.69,540.68 C681.79,540.68 649.29,516.76 649.29,468.66 C649.29,429.92 666.19,407.04 686.21,407.04 C707.27,407.04 712.99,424.72 712.99,442.14 C712.99,454.1 721.05,465.28 737.17,465.28 C754.59,465.28 760.83,451.5 760.83,440.32 C760.83,418.22 738.99,396.38 694.01,396.38 C645.39,396.38 601.19,427.32 601.19,481.4 C601.19,533.66 643.31,564.6 690.37,564.6 Z M811.01,563.56 C830.77,563.56 841.95,552.12 847.67,545.1 C850.27,541.72 852.35,542.76 852.87,546.4 C854.43,552.9 860.93,563.3 878.87,563.3 C887.97,563.3 899.67,560.7 904.35,556.8 L904.35,545.1 C895.51,546.66 891.09,543.8 891.09,535.48 L891.09,493.1 C891.09,451.5 875.49,442.4 846.11,442.4 C814.91,442.4 783.45,453.84 783.45,473.34 C783.45,481.66 789.43,489.98 801.39,489.98 C811.27,489.98 821.93,484.78 821.93,472.56 C821.93,462.94 824.53,454.1 835.71,454.1 C847.15,454.1 852.09,461.38 852.09,480.88 L852.09,482.44 C852.09,491.02 850.01,493.1 840.13,494.66 C795.41,502.46 776.17,513.12 776.17,534.96 C776.17,555.24 792.55,563.56 811.01,563.56 Z M828.43,541.98 C819.07,541.98 815.17,536.26 815.17,528.2 C815.17,520.92 819.85,506.62 841.69,505.32 C849.49,504.8 852.09,506.62 852.09,512.6 L852.09,514.42 C852.09,530.54 843.25,541.98 828.43,541.98 Z M968.57,563.56 C984.17,563.56 998.21,558.62 1008.35,544.06 C1010.43,555.76 1019.53,563.3 1034.61,563.3 C1044.23,563.3 1055.41,560.44 1063.21,555.5 L1063.21,544.06 C1051.51,546.92 1047.09,544.06 1047.09,535.74 L1047.09,402.62 C1047.09,394.82 1042.93,390.92 1034.09,392.22 L991.71,399.24 L991.71,410.94 C1001.33,410.16 1008.09,411.98 1008.09,424.46 L1008.09,438.5 C1008.09,464.24 1002.11,442.4 973.25,442.4 C945.95,442.4 916.05,464.24 916.05,505.32 C916.05,544.06 941.27,563.56 968.57,563.56 Z M985.99,542.5 C969.09,542.5 957.39,517.28 957.39,491.28 C957.39,471.78 964.15,456.7 978.97,456.7 C990.67,456.7 1008.09,469.18 1008.09,501.94 L1008.09,513.38 C1008.09,535.22 996.13,542.5 985.99,542.5 Z M1126.13,563.56 C1141.73,563.56 1155.77,558.62 1165.91,544.06 C1167.99,555.76 1177.09,563.3 1192.17,563.3 C1201.79,563.3 1212.97,560.44 1220.77,555.5 L1220.77,544.06 C1209.07,546.92 1204.65,544.06 1204.65,535.74 L1204.65,402.62 C1204.65,394.82 1200.49,390.92 1191.65,392.22 L1149.27,399.24 L1149.27,410.94 C1158.89,410.16 1165.65,411.98 1165.65,424.46 L1165.65,438.5 C1165.65,464.24 1159.67,442.4 1130.81,442.4 C1103.51,442.4 1073.61,464.24 1073.61,505.32 C1073.61,544.06 1098.83,563.56 1126.13,563.56 Z M1143.55,542.5 C1126.65,542.5 1114.95,517.28 1114.95,491.28 C1114.95,471.78 1121.71,456.7 1136.53,456.7 C1148.23,456.7 1165.65,469.18 1165.65,501.94 L1165.65,513.38 C1165.65,535.22 1153.69,542.5 1143.55,542.5 Z M1265.23,613.48 C1284.99,613.48 1296.95,604.64 1308.65,573.96 L1345.31,476.98 C1350.25,465.02 1353.89,459.82 1370.01,456.18 L1370.01,444.74 L1315.67,444.74 L1315.67,456.18 C1332.05,459.82 1336.73,466.32 1323.99,500.64 L1314.37,526.12 C1312.03,533.4 1308.39,533.4 1305.79,526.12 L1286.29,476.98 C1281.61,464.5 1281.09,459.82 1294.61,456.18 L1294.61,444.74 L1225.97,444.74 L1225.97,456.18 C1237.15,459.82 1242.87,465.28 1247.29,476.98 L1281.35,565.64 C1286.03,577.86 1286.55,586.96 1283.69,595.28 C1282.39,599.18 1279.27,601.78 1274.85,601.78 C1261.33,601.78 1272.51,574.48 1250.15,574.48 C1237.15,574.48 1232.99,583.58 1232.99,591.38 C1232.99,604.9 1246.77,613.48 1265.23,613.48 Z" id="Caddy"></path>
        </g>
    </g>
</svg>